<svg width="1920" height="1914" viewBox="0 0 1920 1914" fill="none" xmlns="http://www.w3.org/2000/svg">
<mask id="mask0_302_3945" style="mask-type:alpha" maskUnits="userSpaceOnUse" x="0" y="0" width="1920" height="1914">
<path d="M1920 1.48748V1905.87H1897.01C1882.69 1898.14 1882.12 1896.31 1881.42 1896.26C1880.76 1896.21 1879.98 1897.78 1867.03 1897.37C1857.84 1897.08 1852.19 1897.65 1847.38 1898.14C1840.93 1898.79 1835.98 1899.29 1826.05 1897.37C1821.4 1899.94 1812.92 1902.02 1806 1903.71C1803.81 1904.25 1801.77 1904.75 1800.06 1905.21C1799.11 1905.47 1796.47 1904.76 1793.67 1904.01C1790.35 1903.13 1786.81 1902.18 1785.57 1902.71C1783.67 1903.52 1779.94 1902.67 1776.61 1901.92C1774.34 1901.4 1772.25 1900.93 1771.08 1901.06C1768.9 1901.31 1766.89 1901.28 1764.96 1901.25C1761.5 1901.2 1758.31 1901.15 1754.92 1902.71C1752.3 1903.92 1749.1 1902.7 1745.84 1901.46C1743.03 1900.39 1740.17 1899.3 1737.59 1899.72C1734.4 1900.24 1730.7 1899.77 1726.91 1899.29C1723.26 1898.82 1719.53 1898.35 1716.11 1898.74C1705.58 1899.95 1702.12 1898.91 1696.74 1897.31C1693.53 1896.35 1689.63 1895.18 1683.12 1894.17C1670.11 1889.43 1664.74 1889.26 1661.12 1889.14C1660.81 1889.13 1660.52 1889.12 1660.23 1889.11C1658.77 1889.05 1657.35 1888.99 1656.04 1889.03C1645.63 1889.32 1638.35 1887.55 1629.37 1885.38C1625.49 1884.44 1621.3 1883.43 1616.41 1882.47C1611.82 1882.9 1607.24 1884.27 1602.67 1885.63C1597.83 1887.08 1593 1888.53 1588.18 1888.85L1588.07 1888.86C1582.34 1889.24 1576.62 1889.62 1567.31 1885.12L1567.31 1885.12C1547.21 1886.59 1527.31 1888.04 1506.96 1888.04C1505 1888.04 1503.03 1888.03 1501.07 1888.03L1500.77 1888.03C1482.1 1888.01 1463.5 1887.99 1444.9 1889.65C1434.64 1890.57 1424.18 1891.24 1413.67 1891.9C1404.16 1892.51 1396.62 1891.21 1389.32 1889.96C1380.76 1888.49 1372.52 1887.08 1361.79 1888.85C1359.31 1889.26 1355.07 1889.73 1350.6 1890.22C1344.65 1890.88 1338.28 1891.58 1335.01 1892.26C1330.32 1893.24 1325.09 1892.85 1319.88 1892.46C1315.58 1892.13 1311.29 1891.81 1307.32 1892.26C1302.3 1892.84 1297.78 1891.51 1293.31 1890.19C1288.54 1888.78 1283.83 1887.39 1278.62 1888.35C1274.85 1889.04 1271.08 1889.73 1267.27 1890.39C1253.87 1892.72 1236.77 1890.82 1218.26 1888.77C1203.51 1887.13 1187.87 1885.39 1172.51 1885.62H1172.51C1145.73 1886.01 1119.81 1886.39 1100.93 1888.44C1099.39 1888.61 1085.42 1889.55 1071.39 1890.5C1057.24 1891.45 1043.02 1892.41 1041.46 1892.58C1012.2 1895.78 1005.49 1895.3 990.764 1894.26C983.673 1893.75 974.724 1893.12 960.506 1892.7C952.109 1892.45 943.737 1890.95 935.373 1889.46C928.956 1888.31 922.544 1887.17 916.131 1886.59C904.543 1885.54 887.381 1890.4 871.153 1895C862.102 1897.56 853.34 1900.04 846 1901.37C842 1902.09 813.5 1898.37 808.5 1897.66C803.5 1896.95 767.5 1900.37 765.5 1901.37C763.5 1902.37 730.613 1903.55 703.5 1897.66C697.029 1896.26 684.219 1898.91 671.39 1901.56C658.452 1904.23 645.495 1906.91 639 1905.44C616.93 1901.45 602.067 1905.03 586.821 1908.71C572.363 1912.2 557.561 1915.76 535.941 1913.03L534.023 1912.79C522.096 1911.28 509.055 1908.4 495.641 1905.44C483.186 1906.48 470.408 1905.65 457.902 1904.85C443.917 1903.95 430.271 1903.07 417.792 1904.83C408.75 1906.11 398.27 1907.09 387.296 1908.12C375.914 1909.19 362.253 1907.38 348.88 1905.62C331.323 1903.3 314.262 1901.05 303.5 1905.44C294.76 1909.01 282.596 1908.6 272.948 1908.28C270.424 1908.2 268.073 1908.12 266 1908.12C262.028 1908.12 257.035 1906.82 252.027 1905.52C246.988 1904.22 241.933 1902.9 237.886 1902.9C224.799 1902.9 213.043 1903.57 202.629 1904.17C186.637 1905.07 173.809 1905.8 164.184 1903.66C158.208 1902.32 153.466 1902.51 149.969 1902.65C149.035 1902.68 148.19 1902.72 147.434 1902.72C110.443 1905.66 103.946 1901.84 76.96 1885.87C74.3783 1884.34 71.1145 1884.18 67.8159 1884.02C64.7191 1883.87 61.5917 1883.72 58.9694 1882.43C53.7831 1882.43 51.8972 1883.41 49.9894 1884.39C48.0367 1885.41 46.061 1886.43 40.5 1886.43C37.0135 1886.43 35.8213 1887.34 34.676 1888.21C33.2257 1889.31 31.8506 1890.35 25.9866 1889.43C22.7234 1886.76 16.4915 1886.63 16.4915 1886.63C15.3962 1886.63 14.6835 1887.84 14.0562 1888.9C13.2522 1890.26 12.5886 1891.39 11.4403 1889.43C10.2655 1887.43 7.72485 1887.82 5.32483 1888.2C2.84924 1888.59 0.523193 1888.95 0 1886.63L0.974731 46.4848L1 65.2285H23.988C34.4568 59.5797 37.577 57.0845 38.7703 56.1303C39.2098 55.7787 39.3879 55.6363 39.5756 55.6224C39.7032 55.613 39.8354 55.6631 40.0576 55.7473C40.9911 56.1013 43.5135 57.0578 53.9724 56.7288C63.1575 56.4398 68.8077 57.0117 73.6218 57.4989C80.0703 58.1516 85.0181 58.6525 94.951 56.7288C99.598 59.3002 108.076 61.3752 114.998 63.0694C117.191 63.6061 119.228 64.1047 120.938 64.5687C121.893 64.8282 124.534 64.1226 127.335 63.3742C130.652 62.4878 134.195 61.5412 135.43 62.0665C137.333 62.8759 141.063 62.0293 144.385 61.2754L144.388 61.2749C146.665 60.7582 148.75 60.2851 149.922 60.419C152.096 60.6672 154.11 60.6366 156.042 60.6072C159.499 60.5545 162.694 60.5058 166.078 62.0665C168.698 63.275 171.899 62.0572 175.164 60.8147C177.972 59.7464 180.828 58.6598 183.405 59.081C186.599 59.6032 190.301 59.1307 194.089 58.6472C197.738 58.1816 201.465 57.7059 204.894 58.0988C212.863 59.012 217.646 56.727 221.913 54.6887C226.652 52.4248 230.754 50.4652 237.877 53.5306C247.406 46.1808 253.882 47.3749 257.982 48.1307C259.077 48.3327 260.003 48.5035 260.772 48.4715C262.229 48.4108 263.648 48.3518 264.958 48.3879C273.878 48.6337 280.503 46.2999 287.87 43.7045C292.807 41.9652 298.077 40.1085 304.595 38.8319C309.177 39.2575 313.755 40.6268 318.328 41.9945C323.167 43.4416 327.999 44.8866 332.82 45.2092L332.932 45.2169C338.661 45.6003 344.382 45.9835 353.687 41.482L353.693 41.4824L353.695 41.4825C373.789 42.9462 393.687 44.3955 414.041 44.3955C416.004 44.3955 417.966 44.3934 419.927 44.3914L420.234 44.391C438.902 44.3704 457.497 44.35 476.1 46.0129C486.363 46.9303 496.823 47.5953 507.327 48.2632C516.844 48.8681 524.38 47.574 531.679 46.3204C540.243 44.8496 548.48 43.435 559.209 45.2092C561.692 45.6199 565.926 46.0879 570.402 46.5828L570.408 46.5834C576.349 47.2403 582.717 47.9444 585.987 48.6243C590.682 49.6002 595.909 49.2078 601.116 48.8169C605.422 48.4936 609.714 48.1714 613.681 48.6243C618.703 49.1977 623.222 47.8652 627.693 46.5469C632.462 45.141 637.175 43.7513 642.383 44.7073C646.146 45.398 649.922 46.091 653.735 46.7534C667.129 49.0807 684.233 47.1813 702.737 45.1264C717.487 43.4885 733.126 41.7517 748.486 41.9778H748.489C775.266 42.3719 801.192 42.7535 820.073 44.8009C821.609 44.9676 835.52 45.9071 849.516 46.8524L849.646 46.8611C863.792 47.8165 877.986 48.7751 879.542 48.9449C908.795 52.1381 915.507 51.6619 930.236 50.6167C937.327 50.1135 946.276 49.4785 960.494 49.0577C968.891 48.8092 977.263 47.3133 985.625 45.819L985.627 45.8188L985.631 45.8181C992.047 44.6717 998.457 43.5263 1004.87 42.9461C1016.46 41.8975 1033.62 46.7592 1049.85 51.3562C1058.9 53.9204 1067.66 56.4022 1075 57.7299C1079 58.4534 1107.5 54.7305 1112.5 54.022C1117.5 53.3136 1153.5 56.7301 1155.5 57.7299C1156.63 58.2966 1167.13 55.6783 1180.94 52.2308L1180.95 52.2294L1180.95 52.2287C1191.51 49.5941 1204 46.4755 1215.74 43.9242C1221.83 42.6009 1227.91 41.4732 1233.99 40.3469C1240.87 39.0696 1247.75 37.794 1254.62 36.2367C1278.31 30.8689 1301.97 32.2474 1325.86 33.6393C1345.39 34.7773 1365.08 35.9241 1385.06 33.4001L1386.98 33.1578C1398.9 31.6501 1411.94 28.7714 1425.36 25.81C1437.81 26.8442 1450.59 26.0212 1463.1 25.2154L1463.1 25.2153C1477.08 24.3144 1490.73 23.4353 1503.21 25.1994C1512.25 26.4776 1522.73 27.4591 1533.7 28.4867C1544.2 29.4695 1555.14 28.9033 1565.71 28.3564C1581.66 27.5314 1596.75 26.7505 1608.15 31.4005C1619.18 35.8969 1638.23 35.2357 1658.88 34.519C1662.8 34.3831 1666.77 31.6597 1670.76 28.9273C1674.88 26.1043 1679.01 23.2713 1683.11 23.2713C1696.2 23.2713 1707.96 23.9399 1718.37 24.5322C1734.36 25.4418 1747.19 26.1714 1756.82 24.0228C1762.79 22.6887 1767.53 22.8759 1771.03 23.0141C1771.96 23.0509 1772.81 23.0842 1773.57 23.0842C1810.56 26.0224 1817.05 22.211 1844.04 6.23389C1846.62 4.7054 1849.89 4.54721 1853.18 4.38733C1856.28 4.23722 1859.41 4.0856 1862.03 2.79718H1880.02C1883.09 2.79718 1884.46 3.04762 1885.59 3.25632C1887.38 3.58414 1888.6 3.80883 1895.01 2.79718C1898.28 0.125586 1904.51 0 1904.51 0C1905.6 0 1906.32 1.20716 1906.94 2.2697C1907.75 3.63123 1908.41 4.75515 1909.56 2.79718C1910.73 0.794126 1913.27 1.1915 1915.67 1.5669C1917.36 1.83039 1918.97 2.08313 1920 1.48748Z" fill="white"/>
<path d="M1920 1.48748V1905.87H1897.01C1882.69 1898.14 1882.12 1896.31 1881.42 1896.26C1880.76 1896.21 1879.98 1897.78 1867.03 1897.37C1857.84 1897.08 1852.19 1897.65 1847.38 1898.14C1840.93 1898.79 1835.98 1899.29 1826.05 1897.37C1821.4 1899.94 1812.92 1902.02 1806 1903.71C1803.81 1904.25 1801.77 1904.75 1800.06 1905.21C1799.11 1905.47 1796.47 1904.76 1793.67 1904.01C1790.35 1903.13 1786.81 1902.18 1785.57 1902.71C1783.67 1903.52 1779.94 1902.67 1776.61 1901.92C1774.34 1901.4 1772.25 1900.93 1771.08 1901.06C1768.9 1901.31 1766.89 1901.28 1764.96 1901.25C1761.5 1901.2 1758.31 1901.15 1754.92 1902.71C1752.3 1903.92 1749.1 1902.7 1745.84 1901.46C1743.03 1900.39 1740.17 1899.3 1737.59 1899.72C1734.4 1900.24 1730.7 1899.77 1726.91 1899.29C1723.26 1898.82 1719.53 1898.35 1716.11 1898.74C1705.58 1899.95 1702.12 1898.91 1696.74 1897.31C1693.53 1896.35 1689.63 1895.18 1683.12 1894.17C1670.11 1889.43 1664.74 1889.26 1661.12 1889.14C1660.81 1889.13 1660.52 1889.12 1660.23 1889.11C1658.77 1889.05 1657.35 1888.99 1656.04 1889.03C1645.63 1889.32 1638.35 1887.55 1629.37 1885.38C1625.49 1884.44 1621.3 1883.43 1616.41 1882.47C1611.82 1882.9 1607.24 1884.27 1602.67 1885.63C1597.83 1887.08 1593 1888.53 1588.18 1888.85L1588.07 1888.86C1582.34 1889.24 1576.62 1889.62 1567.31 1885.12L1567.31 1885.12C1547.21 1886.59 1527.31 1888.04 1506.96 1888.04C1505 1888.04 1503.03 1888.03 1501.07 1888.03L1500.77 1888.03C1482.1 1888.01 1463.5 1887.99 1444.9 1889.65C1434.64 1890.57 1424.18 1891.24 1413.67 1891.9C1404.16 1892.51 1396.62 1891.21 1389.32 1889.96C1380.76 1888.49 1372.52 1887.08 1361.79 1888.85C1359.31 1889.26 1355.07 1889.73 1350.6 1890.22C1344.65 1890.88 1338.28 1891.58 1335.01 1892.26C1330.32 1893.24 1325.09 1892.85 1319.88 1892.46C1315.58 1892.13 1311.29 1891.81 1307.32 1892.26C1302.3 1892.84 1297.78 1891.51 1293.31 1890.19C1288.54 1888.78 1283.83 1887.39 1278.62 1888.35C1274.85 1889.04 1271.08 1889.73 1267.27 1890.39C1253.87 1892.72 1236.77 1890.82 1218.26 1888.77C1203.51 1887.13 1187.87 1885.39 1172.51 1885.62H1172.51C1145.73 1886.01 1119.81 1886.39 1100.93 1888.44C1099.39 1888.61 1085.42 1889.55 1071.39 1890.5C1057.24 1891.45 1043.02 1892.41 1041.46 1892.58C1012.2 1895.78 1005.49 1895.3 990.764 1894.26C983.673 1893.75 974.724 1893.12 960.506 1892.7C952.109 1892.45 943.737 1890.95 935.373 1889.46C928.956 1888.31 922.544 1887.17 916.131 1886.59C904.543 1885.54 887.381 1890.4 871.153 1895C862.102 1897.56 853.34 1900.04 846 1901.37C842 1902.09 813.5 1898.37 808.5 1897.66C803.5 1896.95 767.5 1900.37 765.5 1901.37C763.5 1902.37 730.613 1903.55 703.5 1897.66C697.029 1896.26 684.219 1898.91 671.39 1901.56C658.452 1904.23 645.495 1906.91 639 1905.44C616.93 1901.45 602.067 1905.03 586.821 1908.71C572.363 1912.2 557.561 1915.76 535.941 1913.03L534.023 1912.79C522.096 1911.28 509.055 1908.4 495.641 1905.44C483.186 1906.48 470.408 1905.65 457.902 1904.85C443.917 1903.95 430.271 1903.07 417.792 1904.83C408.75 1906.11 398.27 1907.09 387.296 1908.12C375.914 1909.19 362.253 1907.38 348.88 1905.62C331.323 1903.3 314.262 1901.05 303.5 1905.44C294.76 1909.01 282.596 1908.6 272.948 1908.28C270.424 1908.2 268.073 1908.12 266 1908.12C262.028 1908.12 257.035 1906.82 252.027 1905.52C246.988 1904.22 241.933 1902.9 237.886 1902.9C224.799 1902.9 213.043 1903.57 202.629 1904.17C186.637 1905.07 173.809 1905.8 164.184 1903.66C158.208 1902.32 153.466 1902.51 149.969 1902.65C149.035 1902.68 148.19 1902.72 147.434 1902.72C110.443 1905.66 103.946 1901.84 76.96 1885.87C74.3783 1884.34 71.1145 1884.18 67.8159 1884.02C64.7191 1883.87 61.5917 1883.72 58.9694 1882.43C53.7831 1882.43 51.8972 1883.41 49.9894 1884.39C48.0367 1885.41 46.061 1886.43 40.5 1886.43C37.0135 1886.43 35.8213 1887.34 34.676 1888.21C33.2257 1889.31 31.8506 1890.35 25.9866 1889.43C22.7234 1886.76 16.4915 1886.63 16.4915 1886.63C15.3962 1886.63 14.6835 1887.84 14.0562 1888.9C13.2522 1890.26 12.5886 1891.39 11.4403 1889.43C10.2655 1887.43 7.72485 1887.82 5.32483 1888.2C2.84924 1888.59 0.523193 1888.95 0 1886.63L0.974731 46.4848L1 65.2285H23.988C34.4568 59.5797 37.577 57.0845 38.7703 56.1303C39.2098 55.7787 39.3879 55.6363 39.5756 55.6224C39.7032 55.613 39.8354 55.6631 40.0576 55.7473C40.9911 56.1013 43.5135 57.0578 53.9724 56.7288C63.1575 56.4398 68.8077 57.0117 73.6218 57.4989C80.0703 58.1516 85.0181 58.6525 94.951 56.7288C99.598 59.3002 108.076 61.3752 114.998 63.0694C117.191 63.6061 119.228 64.1047 120.938 64.5687C121.893 64.8282 124.534 64.1226 127.335 63.3742C130.652 62.4878 134.195 61.5412 135.43 62.0665C137.333 62.8759 141.063 62.0293 144.385 61.2754L144.388 61.2749C146.665 60.7582 148.75 60.2851 149.922 60.419C152.096 60.6672 154.11 60.6366 156.042 60.6072C159.499 60.5545 162.694 60.5058 166.078 62.0665C168.698 63.275 171.899 62.0572 175.164 60.8147C177.972 59.7464 180.828 58.6598 183.405 59.081C186.599 59.6032 190.301 59.1307 194.089 58.6472C197.738 58.1816 201.465 57.7059 204.894 58.0988C212.863 59.012 217.646 56.727 221.913 54.6887C226.652 52.4248 230.754 50.4652 237.877 53.5306C247.406 46.1808 253.882 47.3749 257.982 48.1307C259.077 48.3327 260.003 48.5035 260.772 48.4715C262.229 48.4108 263.648 48.3518 264.958 48.3879C273.878 48.6337 280.503 46.2999 287.87 43.7045C292.807 41.9652 298.077 40.1085 304.595 38.8319C309.177 39.2575 313.755 40.6268 318.328 41.9945C323.167 43.4416 327.999 44.8866 332.82 45.2092L332.932 45.2169C338.661 45.6003 344.382 45.9835 353.687 41.482L353.693 41.4824L353.695 41.4825C373.789 42.9462 393.687 44.3955 414.041 44.3955C416.004 44.3955 417.966 44.3934 419.927 44.3914L420.234 44.391C438.902 44.3704 457.497 44.35 476.1 46.0129C486.363 46.9303 496.823 47.5953 507.327 48.2632C516.844 48.8681 524.38 47.574 531.679 46.3204C540.243 44.8496 548.48 43.435 559.209 45.2092C561.692 45.6199 565.926 46.0879 570.402 46.5828L570.408 46.5834C576.349 47.2403 582.717 47.9444 585.987 48.6243C590.682 49.6002 595.909 49.2078 601.116 48.8169C605.422 48.4936 609.714 48.1714 613.681 48.6243C618.703 49.1977 623.222 47.8652 627.693 46.5469C632.462 45.141 637.175 43.7513 642.383 44.7073C646.146 45.398 649.922 46.091 653.735 46.7534C667.129 49.0807 684.233 47.1813 702.737 45.1264C717.487 43.4885 733.126 41.7517 748.486 41.9778H748.489C775.266 42.3719 801.192 42.7535 820.073 44.8009C821.609 44.9676 835.52 45.9071 849.516 46.8524L849.646 46.8611C863.792 47.8165 877.986 48.7751 879.542 48.9449C908.795 52.1381 915.507 51.6619 930.236 50.6167C937.327 50.1135 946.276 49.4785 960.494 49.0577C968.891 48.8092 977.263 47.3133 985.625 45.819L985.627 45.8188L985.631 45.8181C992.047 44.6717 998.457 43.5263 1004.87 42.9461C1016.46 41.8975 1033.62 46.7592 1049.85 51.3562C1058.9 53.9204 1067.66 56.4022 1075 57.7299C1079 58.4534 1107.5 54.7305 1112.5 54.022C1117.5 53.3136 1153.5 56.7301 1155.5 57.7299C1156.63 58.2966 1167.13 55.6783 1180.94 52.2308L1180.95 52.2294L1180.95 52.2287C1191.51 49.5941 1204 46.4755 1215.74 43.9242C1221.83 42.6009 1227.91 41.4732 1233.99 40.3469C1240.87 39.0696 1247.75 37.794 1254.62 36.2367C1278.31 30.8689 1301.97 32.2474 1325.86 33.6393C1345.39 34.7773 1365.08 35.9241 1385.06 33.4001L1386.98 33.1578C1398.9 31.6501 1411.94 28.7714 1425.36 25.81C1437.81 26.8442 1450.59 26.0212 1463.1 25.2154L1463.1 25.2153C1477.08 24.3144 1490.73 23.4353 1503.21 25.1994C1512.25 26.4776 1522.73 27.4591 1533.7 28.4867C1544.2 29.4695 1555.14 28.9033 1565.71 28.3564C1581.66 27.5314 1596.75 26.7505 1608.15 31.4005C1619.18 35.8969 1638.23 35.2357 1658.88 34.519C1662.8 34.3831 1666.77 31.6597 1670.76 28.9273C1674.88 26.1043 1679.01 23.2713 1683.11 23.2713C1696.2 23.2713 1707.96 23.9399 1718.37 24.5322C1734.36 25.4418 1747.19 26.1714 1756.82 24.0228C1762.79 22.6887 1767.53 22.8759 1771.03 23.0141C1771.96 23.0509 1772.81 23.0842 1773.57 23.0842C1810.56 26.0224 1817.05 22.211 1844.04 6.23389C1846.62 4.7054 1849.89 4.54721 1853.18 4.38733C1856.28 4.23722 1859.41 4.0856 1862.03 2.79718H1880.02C1883.09 2.79718 1884.46 3.04762 1885.59 3.25632C1887.38 3.58414 1888.6 3.80883 1895.01 2.79718C1898.28 0.125586 1904.51 0 1904.51 0C1905.6 0 1906.32 1.20716 1906.94 2.2697C1907.75 3.63123 1908.41 4.75515 1909.56 2.79718C1910.73 0.794126 1913.27 1.1915 1915.67 1.5669C1917.36 1.83039 1918.97 2.08313 1920 1.48748Z" fill="#FFF1DD"/>
</mask>
<g mask="url(#mask0_302_3945)">
<path d="M1920 1.48748V1905.87H1897.01C1882.69 1898.14 1882.12 1896.31 1881.42 1896.26C1880.76 1896.21 1879.98 1897.78 1867.03 1897.37C1857.84 1897.08 1852.19 1897.65 1847.38 1898.14C1840.93 1898.79 1835.98 1899.29 1826.05 1897.37C1821.4 1899.94 1812.92 1902.02 1806 1903.71C1803.81 1904.25 1801.77 1904.75 1800.06 1905.21C1799.11 1905.47 1796.47 1904.76 1793.67 1904.01C1790.35 1903.13 1786.81 1902.18 1785.57 1902.71C1783.67 1903.52 1779.94 1902.67 1776.61 1901.92C1774.34 1901.4 1772.25 1900.93 1771.08 1901.06C1768.9 1901.31 1766.89 1901.28 1764.96 1901.25C1761.5 1901.2 1758.31 1901.15 1754.92 1902.71C1752.3 1903.92 1749.1 1902.7 1745.84 1901.46C1743.03 1900.39 1740.17 1899.3 1737.59 1899.72C1734.4 1900.24 1730.7 1899.77 1726.91 1899.29C1723.26 1898.82 1719.53 1898.35 1716.11 1898.74C1705.58 1899.95 1702.12 1898.91 1696.74 1897.31C1693.53 1896.35 1689.63 1895.18 1683.12 1894.17C1670.11 1889.43 1664.74 1889.26 1661.12 1889.14C1660.81 1889.13 1660.52 1889.12 1660.23 1889.11C1658.77 1889.05 1657.35 1888.99 1656.04 1889.03C1645.63 1889.32 1638.35 1887.55 1629.37 1885.38C1625.49 1884.44 1621.3 1883.43 1616.41 1882.47C1611.82 1882.9 1607.24 1884.27 1602.67 1885.63C1597.83 1887.08 1593 1888.53 1588.18 1888.85L1588.07 1888.86C1582.34 1889.24 1576.62 1889.62 1567.31 1885.12L1567.31 1885.12C1547.21 1886.59 1527.31 1888.04 1506.96 1888.04C1505 1888.04 1503.03 1888.03 1501.07 1888.03L1500.77 1888.03C1482.1 1888.01 1463.5 1887.99 1444.9 1889.65C1434.64 1890.57 1424.18 1891.24 1413.67 1891.9C1404.16 1892.51 1396.62 1891.21 1389.32 1889.96C1380.76 1888.49 1372.52 1887.08 1361.79 1888.85C1359.31 1889.26 1355.07 1889.73 1350.6 1890.22C1344.65 1890.88 1338.28 1891.58 1335.01 1892.26C1330.32 1893.24 1325.09 1892.85 1319.88 1892.46C1315.58 1892.13 1311.29 1891.81 1307.32 1892.26C1302.3 1892.84 1297.78 1891.51 1293.31 1890.19C1288.54 1888.78 1283.83 1887.39 1278.62 1888.35C1274.85 1889.04 1271.08 1889.73 1267.27 1890.39C1253.87 1892.72 1236.77 1890.82 1218.26 1888.77C1203.51 1887.13 1187.87 1885.39 1172.51 1885.62H1172.51C1145.73 1886.01 1119.81 1886.39 1100.93 1888.44C1099.39 1888.61 1085.42 1889.55 1071.39 1890.5C1057.24 1891.45 1043.02 1892.41 1041.46 1892.58C1012.2 1895.78 1005.49 1895.3 990.764 1894.26C983.673 1893.75 974.724 1893.12 960.506 1892.7C952.109 1892.45 943.737 1890.95 935.373 1889.46C928.956 1888.31 922.544 1887.17 916.131 1886.59C904.543 1885.54 887.381 1890.4 871.153 1895C862.102 1897.56 853.34 1900.04 846 1901.37C842 1902.09 813.5 1898.37 808.5 1897.66C803.5 1896.95 767.5 1900.37 765.5 1901.37C763.5 1902.37 730.613 1903.55 703.5 1897.66C697.029 1896.26 684.219 1898.91 671.39 1901.56C658.452 1904.23 645.495 1906.91 639 1905.44C616.93 1901.45 602.067 1905.03 586.821 1908.71C572.363 1912.2 557.561 1915.76 535.941 1913.03L534.023 1912.79C522.096 1911.28 509.055 1908.4 495.641 1905.44C483.186 1906.48 470.408 1905.65 457.902 1904.85C443.917 1903.95 430.271 1903.07 417.792 1904.83C408.75 1906.11 398.27 1907.09 387.296 1908.12C375.914 1909.19 362.253 1907.38 348.88 1905.62C331.323 1903.3 314.262 1901.05 303.5 1905.44C294.76 1909.01 282.596 1908.6 272.948 1908.28C270.424 1908.2 268.073 1908.12 266 1908.12C262.028 1908.12 257.035 1906.82 252.027 1905.52C246.988 1904.22 241.933 1902.9 237.886 1902.9C224.799 1902.9 213.043 1903.57 202.629 1904.17C186.637 1905.07 173.809 1905.8 164.184 1903.66C158.208 1902.32 153.466 1902.51 149.969 1902.65C149.035 1902.68 148.19 1902.72 147.434 1902.72C110.443 1905.66 103.946 1901.84 76.96 1885.87C74.3783 1884.34 71.1145 1884.18 67.8159 1884.02C64.7191 1883.87 61.5917 1883.72 58.9694 1882.43C53.7831 1882.43 51.8972 1883.41 49.9894 1884.39C48.0367 1885.41 46.061 1886.43 40.5 1886.43C37.0135 1886.43 35.8213 1887.34 34.676 1888.21C33.2257 1889.31 31.8506 1890.35 25.9866 1889.43C22.7234 1886.76 16.4915 1886.63 16.4915 1886.63C15.3962 1886.63 14.6835 1887.84 14.0562 1888.9C13.2522 1890.26 12.5886 1891.39 11.4403 1889.43C10.2655 1887.43 7.72485 1887.82 5.32483 1888.2C2.84924 1888.59 0.523193 1888.95 0 1886.63L0.974731 46.4848L1 65.2285H23.988C34.4568 59.5797 37.577 57.0845 38.7703 56.1303C39.2098 55.7787 39.3879 55.6363 39.5756 55.6224C39.7032 55.613 39.8354 55.6631 40.0576 55.7473C40.9911 56.1013 43.5135 57.0578 53.9724 56.7288C63.1575 56.4398 68.8077 57.0117 73.6218 57.4989C80.0703 58.1516 85.0181 58.6525 94.951 56.7288C99.598 59.3002 108.076 61.3752 114.998 63.0694C117.191 63.6061 119.228 64.1047 120.938 64.5687C121.893 64.8282 124.534 64.1226 127.335 63.3742C130.652 62.4878 134.195 61.5412 135.43 62.0665C137.333 62.8759 141.063 62.0293 144.385 61.2754L144.388 61.2749C146.665 60.7582 148.75 60.2851 149.922 60.419C152.096 60.6672 154.11 60.6366 156.042 60.6072C159.499 60.5545 162.694 60.5058 166.078 62.0665C168.698 63.275 171.899 62.0572 175.164 60.8147C177.972 59.7464 180.828 58.6598 183.405 59.081C186.599 59.6032 190.301 59.1307 194.089 58.6472C197.738 58.1816 201.465 57.7059 204.894 58.0988C212.863 59.012 217.646 56.727 221.913 54.6887C226.652 52.4248 230.754 50.4652 237.877 53.5306C247.406 46.1808 253.882 47.3749 257.982 48.1307C259.077 48.3327 260.003 48.5035 260.772 48.4715C262.229 48.4108 263.648 48.3518 264.958 48.3879C273.878 48.6337 280.503 46.2999 287.87 43.7045C292.807 41.9652 298.077 40.1085 304.595 38.8319C309.177 39.2575 313.755 40.6268 318.328 41.9945C323.167 43.4416 327.999 44.8866 332.82 45.2092L332.932 45.2169C338.661 45.6003 344.382 45.9835 353.687 41.482L353.693 41.4824L353.695 41.4825C373.789 42.9462 393.687 44.3955 414.041 44.3955C416.004 44.3955 417.966 44.3934 419.927 44.3914L420.234 44.391C438.902 44.3704 457.497 44.35 476.1 46.0129C486.363 46.9303 496.823 47.5953 507.327 48.2632C516.844 48.8681 524.38 47.574 531.679 46.3204C540.243 44.8496 548.48 43.435 559.209 45.2092C561.692 45.6199 565.926 46.0879 570.402 46.5828L570.408 46.5834C576.349 47.2403 582.717 47.9444 585.987 48.6243C590.682 49.6002 595.909 49.2078 601.116 48.8169C605.422 48.4936 609.714 48.1714 613.681 48.6243C618.703 49.1977 623.222 47.8652 627.693 46.5469C632.462 45.141 637.175 43.7513 642.383 44.7073C646.146 45.398 649.922 46.091 653.735 46.7534C667.129 49.0807 684.233 47.1813 702.737 45.1264C717.487 43.4885 733.126 41.7517 748.486 41.9778H748.489C775.266 42.3719 801.192 42.7535 820.073 44.8009C821.609 44.9676 835.52 45.9071 849.516 46.8524L849.646 46.8611C863.792 47.8165 877.986 48.7751 879.542 48.9449C908.795 52.1381 915.507 51.6619 930.236 50.6167C937.327 50.1135 946.276 49.4785 960.494 49.0577C968.891 48.8092 977.263 47.3133 985.625 45.819L985.627 45.8188L985.631 45.8181C992.047 44.6717 998.457 43.5263 1004.87 42.9461C1016.46 41.8975 1033.62 46.7592 1049.85 51.3562C1058.9 53.9204 1067.66 56.4022 1075 57.7299C1079 58.4534 1107.5 54.7305 1112.5 54.022C1117.5 53.3136 1153.5 56.7301 1155.5 57.7299C1156.63 58.2966 1167.13 55.6783 1180.94 52.2308L1180.95 52.2294L1180.95 52.2287C1191.51 49.5941 1204 46.4755 1215.74 43.9242C1221.83 42.6009 1227.91 41.4732 1233.99 40.3469C1240.87 39.0696 1247.75 37.794 1254.62 36.2367C1278.31 30.8689 1301.97 32.2474 1325.86 33.6393C1345.39 34.7773 1365.08 35.9241 1385.06 33.4001L1386.98 33.1578C1398.9 31.6501 1411.94 28.7714 1425.36 25.81C1437.81 26.8442 1450.59 26.0212 1463.1 25.2154L1463.1 25.2153C1477.08 24.3144 1490.73 23.4353 1503.21 25.1994C1512.25 26.4776 1522.73 27.4591 1533.7 28.4867C1544.2 29.4695 1555.14 28.9033 1565.71 28.3564C1581.66 27.5314 1596.75 26.7505 1608.15 31.4005C1619.18 35.8969 1638.23 35.2357 1658.88 34.519C1662.8 34.3831 1666.77 31.6597 1670.76 28.9273C1674.88 26.1043 1679.01 23.2713 1683.11 23.2713C1696.2 23.2713 1707.96 23.9399 1718.37 24.5322C1734.36 25.4418 1747.19 26.1714 1756.82 24.0228C1762.79 22.6887 1767.53 22.8759 1771.03 23.0141C1771.96 23.0509 1772.81 23.0842 1773.57 23.0842C1810.56 26.0224 1817.05 22.211 1844.04 6.23389C1846.62 4.7054 1849.89 4.54721 1853.18 4.38733C1856.28 4.23722 1859.41 4.0856 1862.03 2.79718H1880.02C1883.09 2.79718 1884.46 3.04762 1885.59 3.25632C1887.38 3.58414 1888.6 3.80883 1895.01 2.79718C1898.28 0.125586 1904.51 0 1904.51 0C1905.6 0 1906.32 1.20716 1906.94 2.2697C1907.75 3.63123 1908.41 4.75515 1909.56 2.79718C1910.73 0.794126 1913.27 1.1915 1915.67 1.5669C1917.36 1.83039 1918.97 2.08313 1920 1.48748Z" fill="white"/>
<path d="M1920 1.48748V1905.87H1897.01C1882.69 1898.14 1882.12 1896.31 1881.42 1896.26C1880.76 1896.21 1879.98 1897.78 1867.03 1897.37C1857.84 1897.08 1852.19 1897.65 1847.38 1898.14C1840.93 1898.79 1835.98 1899.29 1826.05 1897.37C1821.4 1899.94 1812.92 1902.02 1806 1903.71C1803.81 1904.25 1801.77 1904.75 1800.06 1905.21C1799.11 1905.47 1796.47 1904.76 1793.67 1904.01C1790.35 1903.13 1786.81 1902.18 1785.57 1902.71C1783.67 1903.52 1779.94 1902.67 1776.61 1901.92C1774.34 1901.4 1772.25 1900.93 1771.08 1901.06C1768.9 1901.31 1766.89 1901.28 1764.96 1901.25C1761.5 1901.2 1758.31 1901.15 1754.92 1902.71C1752.3 1903.92 1749.1 1902.7 1745.84 1901.46C1743.03 1900.39 1740.17 1899.3 1737.59 1899.72C1734.4 1900.24 1730.7 1899.77 1726.91 1899.29C1723.26 1898.82 1719.53 1898.35 1716.11 1898.74C1705.58 1899.95 1702.12 1898.91 1696.74 1897.31C1693.53 1896.35 1689.63 1895.18 1683.12 1894.17C1670.11 1889.43 1664.74 1889.26 1661.12 1889.14C1660.81 1889.13 1660.52 1889.12 1660.23 1889.11C1658.77 1889.05 1657.35 1888.99 1656.04 1889.03C1645.63 1889.32 1638.35 1887.55 1629.37 1885.38C1625.49 1884.44 1621.3 1883.43 1616.41 1882.47C1611.82 1882.9 1607.24 1884.27 1602.67 1885.63C1597.83 1887.08 1593 1888.53 1588.18 1888.85L1588.07 1888.86C1582.34 1889.24 1576.62 1889.62 1567.31 1885.12L1567.31 1885.12C1547.21 1886.59 1527.31 1888.04 1506.96 1888.04C1505 1888.04 1503.03 1888.03 1501.07 1888.03L1500.77 1888.03C1482.1 1888.01 1463.5 1887.99 1444.9 1889.65C1434.64 1890.57 1424.18 1891.24 1413.67 1891.9C1404.16 1892.51 1396.62 1891.21 1389.32 1889.96C1380.76 1888.49 1372.52 1887.08 1361.79 1888.85C1359.31 1889.26 1355.07 1889.73 1350.6 1890.22C1344.65 1890.88 1338.28 1891.58 1335.01 1892.26C1330.32 1893.24 1325.09 1892.85 1319.88 1892.46C1315.58 1892.13 1311.29 1891.81 1307.32 1892.26C1302.3 1892.84 1297.78 1891.51 1293.31 1890.19C1288.54 1888.78 1283.83 1887.39 1278.62 1888.35C1274.85 1889.04 1271.08 1889.73 1267.27 1890.39C1253.87 1892.72 1236.77 1890.82 1218.26 1888.77C1203.51 1887.13 1187.87 1885.39 1172.51 1885.62H1172.51C1145.73 1886.01 1119.81 1886.39 1100.93 1888.44C1099.39 1888.61 1085.42 1889.55 1071.39 1890.5C1057.24 1891.45 1043.02 1892.41 1041.46 1892.58C1012.2 1895.78 1005.49 1895.3 990.764 1894.26C983.673 1893.75 974.724 1893.12 960.506 1892.7C952.109 1892.45 943.737 1890.95 935.373 1889.46C928.956 1888.31 922.544 1887.17 916.131 1886.59C904.543 1885.54 887.381 1890.4 871.153 1895C862.102 1897.56 853.34 1900.04 846 1901.37C842 1902.09 813.5 1898.37 808.5 1897.66C803.5 1896.95 767.5 1900.37 765.5 1901.37C763.5 1902.37 730.613 1903.55 703.5 1897.66C697.029 1896.26 684.219 1898.91 671.39 1901.56C658.452 1904.23 645.495 1906.91 639 1905.44C616.93 1901.45 602.067 1905.03 586.821 1908.71C572.363 1912.2 557.561 1915.76 535.941 1913.03L534.023 1912.79C522.096 1911.28 509.055 1908.4 495.641 1905.44C483.186 1906.48 470.408 1905.65 457.902 1904.85C443.917 1903.95 430.271 1903.07 417.792 1904.83C408.75 1906.11 398.27 1907.09 387.296 1908.12C375.914 1909.19 362.253 1907.38 348.88 1905.62C331.323 1903.3 314.262 1901.05 303.5 1905.44C294.76 1909.01 282.596 1908.6 272.948 1908.28C270.424 1908.2 268.073 1908.12 266 1908.12C262.028 1908.12 257.035 1906.82 252.027 1905.52C246.988 1904.22 241.933 1902.9 237.886 1902.9C224.799 1902.9 213.043 1903.57 202.629 1904.17C186.637 1905.07 173.809 1905.8 164.184 1903.66C158.208 1902.32 153.466 1902.51 149.969 1902.65C149.035 1902.68 148.19 1902.72 147.434 1902.72C110.443 1905.66 103.946 1901.84 76.96 1885.87C74.3783 1884.34 71.1145 1884.18 67.8159 1884.02C64.7191 1883.87 61.5917 1883.72 58.9694 1882.43C53.7831 1882.43 51.8972 1883.41 49.9894 1884.39C48.0367 1885.41 46.061 1886.43 40.5 1886.43C37.0135 1886.43 35.8213 1887.34 34.676 1888.21C33.2257 1889.31 31.8506 1890.35 25.9866 1889.43C22.7234 1886.76 16.4915 1886.63 16.4915 1886.63C15.3962 1886.63 14.6835 1887.84 14.0562 1888.9C13.2522 1890.26 12.5886 1891.39 11.4403 1889.43C10.2655 1887.43 7.72485 1887.82 5.32483 1888.2C2.84924 1888.59 0.523193 1888.95 0 1886.63L0.974731 46.4848L1 65.2285H23.988C34.4568 59.5797 37.577 57.0845 38.7703 56.1303C39.2098 55.7787 39.3879 55.6363 39.5756 55.6224C39.7032 55.613 39.8354 55.6631 40.0576 55.7473C40.9911 56.1013 43.5135 57.0578 53.9724 56.7288C63.1575 56.4398 68.8077 57.0117 73.6218 57.4989C80.0703 58.1516 85.0181 58.6525 94.951 56.7288C99.598 59.3002 108.076 61.3752 114.998 63.0694C117.191 63.6061 119.228 64.1047 120.938 64.5687C121.893 64.8282 124.534 64.1226 127.335 63.3742C130.652 62.4878 134.195 61.5412 135.43 62.0665C137.333 62.8759 141.063 62.0293 144.385 61.2754L144.388 61.2749C146.665 60.7582 148.75 60.2851 149.922 60.419C152.096 60.6672 154.11 60.6366 156.042 60.6072C159.499 60.5545 162.694 60.5058 166.078 62.0665C168.698 63.275 171.899 62.0572 175.164 60.8147C177.972 59.7464 180.828 58.6598 183.405 59.081C186.599 59.6032 190.301 59.1307 194.089 58.6472C197.738 58.1816 201.465 57.7059 204.894 58.0988C212.863 59.012 217.646 56.727 221.913 54.6887C226.652 52.4248 230.754 50.4652 237.877 53.5306C247.406 46.1808 253.882 47.3749 257.982 48.1307C259.077 48.3327 260.003 48.5035 260.772 48.4715C262.229 48.4108 263.648 48.3518 264.958 48.3879C273.878 48.6337 280.503 46.2999 287.87 43.7045C292.807 41.9652 298.077 40.1085 304.595 38.8319C309.177 39.2575 313.755 40.6268 318.328 41.9945C323.167 43.4416 327.999 44.8866 332.82 45.2092L332.932 45.2169C338.661 45.6003 344.382 45.9835 353.687 41.482L353.693 41.4824L353.695 41.4825C373.789 42.9462 393.687 44.3955 414.041 44.3955C416.004 44.3955 417.966 44.3934 419.927 44.3914L420.234 44.391C438.902 44.3704 457.497 44.35 476.1 46.0129C486.363 46.9303 496.823 47.5953 507.327 48.2632C516.844 48.8681 524.38 47.574 531.679 46.3204C540.243 44.8496 548.48 43.435 559.209 45.2092C561.692 45.6199 565.926 46.0879 570.402 46.5828L570.408 46.5834C576.349 47.2403 582.717 47.9444 585.987 48.6243C590.682 49.6002 595.909 49.2078 601.116 48.8169C605.422 48.4936 609.714 48.1714 613.681 48.6243C618.703 49.1977 623.222 47.8652 627.693 46.5469C632.462 45.141 637.175 43.7513 642.383 44.7073C646.146 45.398 649.922 46.091 653.735 46.7534C667.129 49.0807 684.233 47.1813 702.737 45.1264C717.487 43.4885 733.126 41.7517 748.486 41.9778H748.489C775.266 42.3719 801.192 42.7535 820.073 44.8009C821.609 44.9676 835.52 45.9071 849.516 46.8524L849.646 46.8611C863.792 47.8165 877.986 48.7751 879.542 48.9449C908.795 52.1381 915.507 51.6619 930.236 50.6167C937.327 50.1135 946.276 49.4785 960.494 49.0577C968.891 48.8092 977.263 47.3133 985.625 45.819L985.627 45.8188L985.631 45.8181C992.047 44.6717 998.457 43.5263 1004.87 42.9461C1016.46 41.8975 1033.62 46.7592 1049.85 51.3562C1058.9 53.9204 1067.66 56.4022 1075 57.7299C1079 58.4534 1107.5 54.7305 1112.5 54.022C1117.5 53.3136 1153.5 56.7301 1155.5 57.7299C1156.63 58.2966 1167.13 55.6783 1180.94 52.2308L1180.95 52.2294L1180.95 52.2287C1191.51 49.5941 1204 46.4755 1215.74 43.9242C1221.83 42.6009 1227.91 41.4732 1233.99 40.3469C1240.87 39.0696 1247.75 37.794 1254.62 36.2367C1278.31 30.8689 1301.97 32.2474 1325.86 33.6393C1345.39 34.7773 1365.08 35.9241 1385.06 33.4001L1386.98 33.1578C1398.9 31.6501 1411.94 28.7714 1425.36 25.81C1437.81 26.8442 1450.59 26.0212 1463.1 25.2154L1463.1 25.2153C1477.08 24.3144 1490.73 23.4353 1503.21 25.1994C1512.25 26.4776 1522.73 27.4591 1533.7 28.4867C1544.2 29.4695 1555.14 28.9033 1565.71 28.3564C1581.66 27.5314 1596.75 26.7505 1608.15 31.4005C1619.18 35.8969 1638.23 35.2357 1658.88 34.519C1662.8 34.3831 1666.77 31.6597 1670.76 28.9273C1674.88 26.1043 1679.01 23.2713 1683.11 23.2713C1696.2 23.2713 1707.96 23.9399 1718.37 24.5322C1734.36 25.4418 1747.19 26.1714 1756.82 24.0228C1762.79 22.6887 1767.53 22.8759 1771.03 23.0141C1771.96 23.0509 1772.81 23.0842 1773.57 23.0842C1810.56 26.0224 1817.05 22.211 1844.04 6.23389C1846.62 4.7054 1849.89 4.54721 1853.18 4.38733C1856.28 4.23722 1859.41 4.0856 1862.03 2.79718H1880.02C1883.09 2.79718 1884.46 3.04762 1885.59 3.25632C1887.38 3.58414 1888.6 3.80883 1895.01 2.79718C1898.28 0.125586 1904.51 0 1904.51 0C1905.6 0 1906.32 1.20716 1906.94 2.2697C1907.75 3.63123 1908.41 4.75515 1909.56 2.79718C1910.73 0.794126 1913.27 1.1915 1915.67 1.5669C1917.36 1.83039 1918.97 2.08313 1920 1.48748Z" fill="#FFF1DD"/>
<path d="M1893 -208.259V2436.74" stroke="#82E6E5"/>
<path d="M1845 -208.259V2436.74" stroke="#82E6E5"/>
<path d="M1797 -208.259V2436.74" stroke="#82E6E5"/>
<path d="M1749 -208.259V2436.74" stroke="#82E6E5"/>
<path d="M1701 -208.259V2436.74" stroke="#82E6E5"/>
<path d="M1653 -208.259V2436.74" stroke="#82E6E5"/>
<path d="M1605 -208.259V2436.74" stroke="#82E6E5"/>
<path d="M1557 -208.259V2436.74" stroke="#82E6E5"/>
<path d="M1509 -208.259V2436.74" stroke="#82E6E5"/>
<path d="M1461 -208.259V2436.74" stroke="#82E6E5"/>
<path d="M1413 -208.259V2436.74" stroke="#82E6E5"/>
<path d="M1365 -208.259V2436.74" stroke="#82E6E5"/>
<path d="M1317 -208.259V2436.74" stroke="#82E6E5"/>
<path d="M1269 -208.259V2436.74" stroke="#82E6E5"/>
<path d="M1221 -208.259V2436.74" stroke="#82E6E5"/>
<path d="M1173 -208.259V2436.74" stroke="#82E6E5"/>
<path d="M1125 -208.259V2436.74" stroke="#82E6E5"/>
<path d="M1077 -208.259V2436.74" stroke="#82E6E5"/>
<path d="M1029 -208.259V2436.74" stroke="#82E6E5"/>
<path d="M981 -208.259V2436.74" stroke="#82E6E5"/>
<path d="M933 -208.259V2436.74" stroke="#82E6E5"/>
<path d="M885 -208.259V2436.74" stroke="#82E6E5"/>
<path d="M837 -208.259V2436.74" stroke="#82E6E5"/>
<path d="M789 -208.259V2436.74" stroke="#82E6E5"/>
<path d="M741 -208.259V2436.74" stroke="#82E6E5"/>
<path d="M693 -208.259V2436.74" stroke="#82E6E5"/>
<path d="M645 -208.259V2436.74" stroke="#82E6E5"/>
<path d="M597 -208.259V2436.74" stroke="#82E6E5"/>
<path d="M549 -208.259V2436.74" stroke="#82E6E5"/>
<path d="M501 -208.259V2436.74" stroke="#82E6E5"/>
<path d="M453 -208.259V2436.74" stroke="#82E6E5"/>
<path d="M405 -208.259V2436.74" stroke="#82E6E5"/>
<path d="M357 -208.259V2436.74" stroke="#82E6E5"/>
<path d="M309 -208.259V2436.74" stroke="#82E6E5"/>
<path d="M261 -208.259V2436.74" stroke="#82E6E5"/>
<path d="M213 -208.259V2436.74" stroke="#82E6E5"/>
<path d="M165 -208.259V2436.74" stroke="#82E6E5"/>
<path d="M117 -208.259V2436.74" stroke="#82E6E5"/>
<path d="M69 -208.259V2436.74" stroke="#82E6E5"/>
<path d="M21 -208.259V2436.74" stroke="#82E6E5"/>
<path d="M-462 33.7412L2183 33.7411" stroke="#82E6E5"/>
<path d="M-462 81.7412L2183 81.7411" stroke="#82E6E5"/>
<path d="M-462 129.741L2183 129.741" stroke="#82E6E5"/>
<path d="M-462 177.741L2183 177.741" stroke="#82E6E5"/>
<path d="M-462 225.741L2183 225.741" stroke="#82E6E5"/>
<path d="M-462 273.741L2183 273.741" stroke="#82E6E5"/>
<path d="M-462 321.741L2183 321.741" stroke="#82E6E5"/>
<path d="M-462 369.741L2183 369.741" stroke="#82E6E5"/>
<path d="M-462 417.741L2183 417.741" stroke="#82E6E5"/>
<path d="M-462 465.741L2183 465.741" stroke="#82E6E5"/>
<path d="M-462 513.741L2183 513.741" stroke="#82E6E5"/>
<path d="M-462 561.741L2183 561.741" stroke="#82E6E5"/>
<path d="M-462 609.741L2183 609.741" stroke="#82E6E5"/>
<path d="M-462 657.741L2183 657.741" stroke="#82E6E5"/>
<path d="M-462 705.741L2183 705.741" stroke="#82E6E5"/>
<path d="M-462 753.741L2183 753.741" stroke="#82E6E5"/>
<path d="M-462 801.741L2183 801.741" stroke="#82E6E5"/>
<path d="M-462 849.741L2183 849.741" stroke="#82E6E5"/>
<path d="M-462 897.741L2183 897.741" stroke="#82E6E5"/>
<path d="M-462 945.741L2183 945.741" stroke="#82E6E5"/>
<path d="M-462 993.741L2183 993.741" stroke="#82E6E5"/>
<path d="M-462 1041.74L2183 1041.74" stroke="#82E6E5"/>
<path d="M-462 1089.74L2183 1089.74" stroke="#82E6E5"/>
<path d="M-462 1137.74L2183 1137.74" stroke="#82E6E5"/>
<path d="M-462 1185.74L2183 1185.74" stroke="#82E6E5"/>
<path d="M-462 1233.74L2183 1233.74" stroke="#82E6E5"/>
<path d="M-462 1281.74L2183 1281.74" stroke="#82E6E5"/>
<path d="M-462 1329.74L2183 1329.74" stroke="#82E6E5"/>
<path d="M-462 1377.74L2183 1377.74" stroke="#82E6E5"/>
<path d="M-462 1425.74L2183 1425.74" stroke="#82E6E5"/>
<path d="M-462 1473.74L2183 1473.74" stroke="#82E6E5"/>
<path d="M-462 1521.74L2183 1521.74" stroke="#82E6E5"/>
<path d="M-462 1569.74L2183 1569.74" stroke="#82E6E5"/>
<path d="M-462 1617.74L2183 1617.74" stroke="#82E6E5"/>
<path d="M-462 1665.74L2183 1665.74" stroke="#82E6E5"/>
<path d="M-462 1713.74L2183 1713.74" stroke="#82E6E5"/>
<path d="M-462 1761.74L2183 1761.74" stroke="#82E6E5"/>
<path d="M-462 1809.74L2183 1809.74" stroke="#82E6E5"/>
<path d="M-462 1857.74L2183 1857.74" stroke="#82E6E5"/>
<path d="M-462 1905.74L2183 1905.74" stroke="#82E6E5"/>
</g>
</svg>
