<svg width="1920" height="1080" viewBox="0 0 1920 1080" fill="none" xmlns="http://www.w3.org/2000/svg">
<mask id="mask0_305_4313" style="mask-type:alpha" maskUnits="userSpaceOnUse" x="0" y="0" width="1920" height="1080">
<rect width="1920" height="1080" fill="#11B7B5"/>
</mask>
<g mask="url(#mask0_305_4313)">
<rect width="1920" height="1080" fill="#11B7B5"/>
<path d="M72.0983 213.824C72.0983 213.824 66.9069 212.599 62.9085 214.598C58.9102 216.597 57.7816 221.885 57.3302 225.11C56.8787 228.334 54.5894 252.066 54.8473 252.582C57.7171 258.161 70.0024 254.872 73.6138 255.323C77.2252 255.775 91.7031 252.873 91.7031 252.873C91.7031 252.873 89.1235 223.594 85.8991 220.724C82.7068 217.887 80.7722 209.471 72.0983 213.824Z" fill="#372713"/>
<path d="M46.2732 450.179C47.2727 448.373 157.066 498.288 162.258 502.544C162.258 502.544 146.651 788.653 145.748 806.516C145.297 815.287 128.82 810.321 126.95 801.647C105.152 699.012 109.441 666.638 109.441 666.638C109.441 666.638 109.699 538.82 110.602 520.505C109.376 527.179 2.83935 801.905 2.00099 805.549C-0.997784 818.866 -16.1206 809.031 -15.6369 804.066C-15.1855 799.39 40.985 459.562 46.2732 450.179Z" fill="#FFC2A6"/>
<path d="M86.3854 283.28C86.3854 283.28 68.0703 273.768 64.2655 267.803C64.2655 267.803 58.6549 273.413 58.3002 274.768C57.9455 276.122 80.7748 292.502 80.7748 292.502L88.3523 286.892L95.6074 288.73C95.6074 288.73 93.9951 278.927 89.9323 274.381C85.8694 269.834 85.2246 269.544 85.2246 269.544C85.2246 269.544 86.4176 275.187 86.5466 277.089C86.6433 278.605 86.3854 283.28 86.3854 283.28Z" fill="#B1D5DE"/>
<path d="M155.679 357.443L113.18 367.503C113.18 367.503 93.1882 266.931 106.086 269.382C133.365 274.509 149.52 339.192 155.679 357.443Z" fill="white"/>
<path d="M88.7848 268.136C108.242 262.762 150.669 340.194 172.947 346.485C199.116 353.909 285.906 360.747 296.037 367.148C303.142 371.676 304.959 375.59 289.964 382.341C277.414 388.015 203.267 402.606 162.88 383.554C125.033 365.706 92.8358 317.564 83.8612 300.573C76.594 286.858 78.5591 270.961 88.7848 268.136Z" fill="#FFC2A6"/>
<path d="M53.9095 391.075C53.974 390.495 54.0385 389.946 54.0707 389.398C55.7474 364.957 34.3369 309.85 39.5928 292.47C43.2687 280.314 49.234 267.061 72.9984 264.772C98.762 262.289 112.176 269.996 122.559 283.796C133.038 297.726 134.135 322.232 135.553 342.547C136.746 359.185 139.1 373.405 139.1 373.405C139.1 373.405 139.906 376.017 141.229 380.595C102.599 395.331 64.4213 392.3 53.9095 391.075Z" fill="#E7F2F2"/>
<path d="M211.773 204.177C237.785 202.245 270.622 216.282 278.22 238.559C286.204 216.41 326.252 202.889 352.264 205.207C421.029 211.131 443.822 288.008 414.462 339.389C398.623 367.075 375.959 391.156 351.234 412.919C330.502 431.076 277.19 469.45 276.932 469.321C276.803 469.45 223.877 430.432 203.274 412.017C178.807 390.126 156.4 365.659 140.819 337.844C112.102 286.077 143.008 209.328 211.773 204.177Z" fill="url(#paint0_linear_305_4313)"/>
<g opacity="0.12">
<path d="M154.338 344.412C171.336 365.273 191.167 384.718 212.544 401.587C233.276 417.812 257.614 432.106 284.528 436.871C297.405 439.189 310.025 438.931 322.001 436.227C299.981 453.096 276.029 470.223 275.9 470.094C275.771 470.223 222.845 431.205 202.242 412.79C177.775 390.899 155.368 366.432 139.787 338.617C134.765 329.603 131.545 319.816 130 309.771C137.211 322.005 145.324 333.595 154.338 344.412Z" fill="black"/>
</g>
<path d="M155.627 322.648C173.656 323.164 191.684 323.807 209.712 324.322C216.409 300.757 222.976 277.063 229.672 253.497C230.574 250.02 235.725 250.407 236.755 253.497C250.405 294.705 264.183 335.912 277.833 377.248C278.606 379.695 279.379 382.013 280.28 384.46C289.938 357.417 299.596 330.375 309.125 303.332C310.671 298.954 312.216 294.705 313.761 290.326C314.663 287.751 319.041 286.721 320.457 289.554C327.282 302.817 334.107 315.952 340.932 329.216C361.15 329.345 381.238 329.473 401.456 329.602C406.22 329.602 406.22 336.556 401.456 336.556C380.595 336.427 359.604 336.298 338.743 336.17C337.455 336.17 336.168 335.526 335.524 334.496C329.729 323.164 323.805 311.831 318.011 300.499C308.095 328.186 298.18 356.001 288.393 383.687C286.848 388.065 285.302 392.315 283.757 396.693C282.598 399.912 277.705 399.912 276.674 396.693C263.024 355.486 249.246 314.278 235.596 272.942C234.952 271.01 234.308 268.95 233.664 267.018C227.869 287.622 222.075 308.355 216.28 328.958C215.893 330.375 214.348 331.534 212.674 331.534C193.744 330.89 174.815 330.375 155.885 329.731C150.863 329.473 150.863 322.52 155.627 322.648Z" fill="white"/>
<path d="M29.5652 468.526C34.5954 438.506 51.6852 411.55 53.9101 391.074C64.4219 392.3 102.6 395.331 141.197 380.595C147.549 402.553 166.122 469.558 166.799 507.446C167.057 522.021 155.901 679.053 155.901 679.053C155.901 679.053 126.268 684.47 86.3162 684.631C31.113 684.857 -0.454653 673.281 -0.454653 673.281C-0.454653 673.281 22.0522 513.476 29.5652 468.526Z" fill="#F95873"/>
<path opacity="0.12" d="M158.777 450.019C151.683 448.148 134.884 443.054 119.406 433.735C99.1244 421.514 88.2257 399.878 88.2257 399.878C108.637 417.097 139.946 428.157 154.908 432.735C156.262 438.411 157.552 444.182 158.777 450.019Z" fill="black"/>
<path d="M61.0736 284.795C81.2589 284.795 101.541 370.727 121.339 382.722C144.588 396.846 226.425 426.543 234.486 435.411C240.129 441.666 240.839 445.922 224.587 448.437C210.98 450.566 135.624 444.891 101.767 415.773C70.0378 388.494 51.8194 333.517 47.692 314.75C44.3386 299.595 50.4651 284.795 61.0736 284.795Z" fill="#FFC2A6"/>
<path d="M240.998 436.185C240.998 436.185 265.73 444.085 267.245 447.696C268.761 451.34 263.118 451.791 262.086 452.726C261.054 453.661 259.635 456.757 257.926 457.37C256.217 457.982 253.735 457.692 252.574 458.982C251.381 460.304 250.446 463.399 246.415 460.53C242.384 457.692 238.225 454.919 235.258 452.017C231.066 447.922 236.677 450.437 231.421 449.083C226.23 447.728 222.812 446.955 221.748 443.408C220.684 439.861 224.069 435.056 230.841 435.185C234.71 435.282 240.998 436.185 240.998 436.185Z" fill="#FFC2A6"/>
<path d="M-10.4849 811.836C-7.26037 814.771 5.66978 831.957 10.2808 832.441C12.7636 832.699 14.7951 832.441 16.1494 832.118C13.2151 829.797 10.0551 824.347 7.15306 818.414C5.18612 814.416 1.2523 807.516 1.31679 799.712L-13.7738 795.617C-13.7738 795.617 -16.6113 808.483 -17.0628 809.74C-15.2248 809.708 -12.4518 810.031 -10.4849 811.836Z" fill="#FFC2A6"/>
<path d="M-17.0295 809.74C-15.2238 809.708 -12.4507 810.031 -10.4838 811.836C-7.2593 814.771 5.67085 831.957 10.2819 832.441C12.7647 832.699 14.7962 832.441 16.1505 832.118C16.6987 832.57 17.279 832.924 17.7949 833.118C23.2443 835.085 26.3075 837.02 28.0165 838.632C29.6933 840.244 28.5002 843.114 26.1786 843.082L8.02473 842.953C4.25208 842.92 0.834143 840.695 -0.584629 837.213C-1.26177 835.536 -2.10011 833.892 -2.97072 832.924C-5.2601 830.377 -9.64538 830.796 -9.64538 830.796L-9.74213 842.791L-15.514 842.759C-15.0303 838.632 -17.7066 825.411 -18.803 820.8C-19.5446 817.64 -18.0291 812.546 -17.0295 809.74Z" fill="#434A59"/>
<path d="M134.298 811.837C137.716 814.771 151.774 831.958 156.45 832.441C158.965 832.699 160.964 832.441 162.318 832.119C159.255 829.797 155.708 824.348 152.419 818.415C150.194 814.416 145.777 807.516 145.358 799.713L126.236 796.521C126.236 796.521 128.01 808.483 127.623 809.741C129.429 809.709 132.202 810.031 134.298 811.837Z" fill="#FFC2A6"/>
<path d="M127.619 809.74C129.425 809.708 132.198 810.031 134.294 811.836C137.712 814.771 151.771 831.957 156.446 832.441C158.961 832.699 160.96 832.441 162.315 832.118C162.895 832.57 163.475 832.924 164.024 833.118C169.602 835.085 172.794 837.02 174.6 838.632C176.406 840.244 175.374 843.114 173.052 843.082L154.898 842.953C151.126 842.92 147.547 840.695 145.902 837.213C145.096 835.536 144.161 833.892 143.258 832.924C140.807 830.377 136.454 830.796 136.454 830.796L137.164 842.791L131.392 842.759C131.618 838.632 128.071 825.411 126.652 820.8C125.588 817.64 126.781 812.546 127.619 809.74Z" fill="#434A59"/>
<path d="M72.5153 242.619L70.5484 265.255C70.2904 269.318 79.8672 280.346 86.6063 275.509C88.5733 274.09 86.3806 268.351 84.8329 264.03L81.0602 246.489L72.5153 242.619Z" fill="#FFC2A6"/>
<path d="M71.6141 239.458C72.0655 246.229 76.741 249.163 83.5447 249.615C90.1549 250.066 92.3475 248.518 93.5406 243.907C93.8308 242.747 94.0887 241.038 93.992 239.49C93.8308 236.91 92.5732 232.622 90.574 229.881C89.6712 228.623 88.9941 226.592 88.4459 225.592C86.5112 221.981 83.1255 220.337 79.9655 220.788C77.9986 221.078 78.1276 224.948 76.4508 226.721C74.1292 229.139 70.3888 233.17 70.3888 233.17C70.3888 233.17 71.4851 237.297 71.6141 239.458Z" fill="#FFC2A6"/>
<path d="M75.455 245.778C74.9391 246.875 77.422 255.774 83.4518 257.58L82.4521 251.615C82.2909 250.712 82.6134 249.551 83.5162 249.615C88.9334 249.97 91.384 249.035 92.7383 246.133C91.513 246.746 88.6432 247.971 85.5477 247.874C81.4203 247.745 76.0032 244.618 75.455 245.778Z" fill="#FF9869"/>
<path d="M78.1939 227.947C79.0968 227.174 79.9029 226.561 81.5151 226.787C81.9666 226.851 82.1278 227.303 81.6119 227.432C80.1931 227.786 79.7094 227.851 78.6453 228.528C78.1939 228.818 77.678 228.399 78.1939 227.947Z" fill="#434A59"/>
<path d="M88.2565 225.433C87.5794 225.368 86.87 225.755 86.2896 226.11C85.8704 226.336 85.7414 226.852 86.2896 226.723C87.8051 226.368 87.7728 226.239 88.5145 226.175C89.0304 226.11 89.0304 225.497 88.2565 225.433Z" fill="#434A59"/>
<path d="M89.0572 234.235C89.0572 234.235 89.2507 235.589 88.0899 236.169C86.9291 236.75 86.3487 236.718 86.4455 236.169C86.5422 235.621 87.3805 235.912 87.7675 235.234C88.1221 234.557 88.0254 233.848 88.3156 233.751C88.6058 233.59 89.0895 233.654 89.0572 234.235Z" fill="#FF9869"/>
<path d="M81.3547 231.043C81.3547 231.623 81.6771 232.074 82.0641 232.074C82.451 232.074 82.7734 231.623 82.7734 231.043C82.7734 230.462 82.451 230.011 82.0641 230.011C81.6771 230.011 81.3547 230.494 81.3547 231.043Z" fill="#434A59"/>
<path d="M88.4777 229.754C88.4777 230.334 88.8002 230.785 89.1871 230.785C89.5741 230.785 89.8965 230.334 89.8965 229.754C89.8965 229.173 89.5741 228.722 89.1871 228.722C88.8002 228.722 88.4777 229.173 88.4777 229.754Z" fill="#434A59"/>
<path d="M70.8361 234.33C70.4492 233.621 70.1912 232.847 69.9655 232.041C69.5463 230.558 68.579 228.43 66.6766 230.139C63.8713 232.621 66.5153 240.457 70.3847 240.038C73.2868 239.715 71.8035 236.136 70.8361 234.33Z" fill="#FFC2A6"/>
<path d="M102.926 342.965C102.926 342.965 100.862 348.221 84.4173 357.282C72.2287 363.989 60.2658 365.053 60.2658 365.053C60.2658 365.053 43.9177 322.49 41.9186 304.239C39.9194 285.989 46.7231 279.894 50.7214 277.669C54.7198 275.445 59.0728 276.992 63.2002 279.346C77.8393 287.665 102.926 342.965 102.926 342.965Z" fill="white"/>
<path d="M126.85 388.558C127.108 388.558 127.366 388.429 127.527 388.204C127.785 387.849 127.688 387.333 127.334 387.075C119.337 381.529 116.37 376.66 116.338 376.628C116.112 376.241 115.629 376.112 115.242 376.338C114.855 376.563 114.726 377.047 114.952 377.434C115.081 377.627 118.112 382.625 126.399 388.397C126.528 388.526 126.689 388.558 126.85 388.558Z" fill="#FFB18E"/>
<path d="M92.2256 236.556C92.2256 236.556 87.9693 237.91 84.0676 238.394C84.0676 238.394 86.1313 242.134 89.388 241.07C92.6448 240.006 92.2256 236.556 92.2256 236.556Z" fill="white"/>
<path d="M83.7373 272.509C83.7373 272.509 75.0957 268.092 73.6125 266.738C72.1292 265.383 71.2586 262.643 70.388 263.062C69.5174 263.481 67.3892 267.608 67.3892 268.35C67.3892 269.091 79.1908 280.958 80.7063 281.538C82.1896 282.086 85.1239 276.605 85.1239 276.605C85.1239 276.605 90.9602 279.055 91.0247 277.991C91.0892 276.927 86.6394 268.156 86.4781 268.156C86.2847 268.189 83.7373 272.509 83.7373 272.509Z" fill="white"/>
<path opacity="0.12" d="M69.1619 659.449C69.6778 659.449 70.1615 659.159 70.355 658.643L134.135 504.964C134.393 504.319 134.103 503.546 133.426 503.288C132.781 503.03 132.007 503.32 131.749 503.997L67.9689 657.676C67.7109 658.321 68.0011 659.095 68.6782 659.353C68.8395 659.417 69.0007 659.449 69.1619 659.449Z" fill="black"/>
<path d="M380.228 379.104C376.572 375.062 374.446 368.085 372.674 372.017C370.903 375.95 374.971 379.871 374.009 382.741C373.047 385.611 349.544 381.901 349.76 385.274C349.904 387.513 360.195 387.364 359.958 387.994C359.721 388.623 349.571 387.74 349.876 390.526C350.251 393.944 352.905 397.091 357.022 398.415C355.709 398.722 354.672 399.203 354.697 399.958C354.767 401.989 393.73 404.28 388.315 388.899C387.145 385.573 385.856 385.327 380.228 379.104Z" fill="#FFC2A6"/>
<path d="M1805.81 833.175C1810.87 830.952 1811.52 826.444 1813.65 822.183C1813.81 821.905 1814.64 815.76 1814.64 815.266C1814.67 813.135 1820.79 807.516 1823.63 811.931C1829.25 820.608 1835.39 807.053 1835.08 810.665C1834.12 821.472 1839.06 838.856 1835.05 840.061C1826.5 842.562 1786.51 845.495 1785.74 841.296C1785.28 838.795 1797.04 837.004 1805.81 833.175Z" fill="#404859"/>
<path d="M1932.56 833.175C1937.62 830.952 1938.27 826.444 1940.4 822.183C1940.56 821.905 1941.39 815.76 1941.39 815.266C1941.42 813.135 1947.54 807.516 1950.38 811.931C1956 820.608 1962.14 807.053 1961.83 810.665C1960.88 821.472 1965.82 838.856 1961.8 840.061C1953.25 842.562 1913.26 845.495 1912.49 841.296C1912.06 838.795 1923.82 837.004 1932.56 833.175Z" fill="#404859"/>
<path d="M1902.92 436.957C1892.82 414.632 1816 385.7 1795.74 380.914C1794.26 403.393 1783.88 417.38 1771.63 441.619C1754.49 475.492 1801.42 816.535 1801.42 816.535C1801.42 816.535 1807.13 820.024 1820.63 819.993C1838.44 819.993 1843.48 816.535 1843.48 816.535L1832.05 508.099C1832.05 508.099 1847.77 587.361 1875.44 668.94C1888.03 706.147 1929.35 816.535 1929.35 816.535C1929.35 816.535 1936.79 819.993 1947.32 819.993C1958.37 819.993 1966 816.535 1966 816.535L1935.25 646.492C1935.22 646.492 1908.85 450.111 1902.92 436.957Z" fill="url(#paint1_linear_305_4313)"/>
<path d="M1812.11 300.97C1799.36 354.636 1774.16 411.234 1741.65 438.283C1719.97 456.315 1643.43 474.966 1639.2 466.659C1635.96 460.299 1631.51 442.513 1631.51 442.513C1631.51 442.513 1704.94 406.911 1721.64 390.732C1747.21 365.937 1754.74 279.078 1800.29 266.295C1823.54 259.811 1814 293.066 1812.11 300.97Z" fill="#036D90"/>
<path fill-rule="evenodd" clip-rule="evenodd" d="M1917.32 328.796C1915.26 343.854 1912.63 363.06 1912.92 388.046C1913.66 451.006 1910.36 494.914 1910.36 494.914C1910.36 494.914 1910.35 494.918 1910.32 494.926L1910.36 494.944C1910.36 494.944 1902.43 499.452 1860.43 497.229C1821.06 495.16 1789.23 493.153 1767.89 480.37C1767.89 478.282 1767.91 475.976 1767.95 473.602C1767.91 473.586 1767.89 473.577 1767.89 473.577C1767.89 473.577 1767.94 471.992 1768.03 469.1C1768.11 465.922 1768.22 462.789 1768.36 460.052C1770.06 416.494 1776.69 281.968 1794.41 269.538C1807.63 260.275 1848.02 254.223 1862.87 256.292C1880.9 258.793 1912.46 273.491 1918.48 295.043C1920.8 303.355 1919.33 314.1 1917.32 328.796Z" fill="url(#paint2_linear_305_4313)"/>
<path d="M1640.71 454.587C1640.71 454.587 1642.84 459.713 1642.37 460.176C1641.91 460.639 1631.57 464.468 1627.61 466.845C1623.66 469.254 1614.71 457.767 1616.07 456.193C1617.42 454.587 1640.71 454.587 1640.71 454.587Z" fill="#FFB492"/>
<path d="M1634.66 446.372C1634.66 446.372 1629.65 447.916 1626.13 447.607C1622.61 447.298 1615.2 446.588 1611.75 448.41C1610.76 448.935 1609.31 451.158 1607.73 452.424C1603.81 455.574 1599.61 459.032 1603.07 461.224C1604.71 462.274 1611.25 457.087 1614.03 457.179C1616.81 457.272 1626.97 458.908 1630.24 459.155C1633.51 459.402 1640.8 456.346 1640.83 454.863C1640.8 453.443 1634.66 446.372 1634.66 446.372Z" fill="#FFB492"/>
<path d="M1614.06 477.56C1615.82 477.653 1617.15 475.955 1616.62 474.287C1616.13 472.651 1615.33 470.86 1614.18 470.551C1611.96 469.934 1611.16 471.972 1611.16 471.972C1611.16 471.972 1609.46 468.204 1607.98 468.019C1606.5 467.834 1605.57 468.482 1605.54 468.729C1605.51 468.976 1602.14 464.159 1600.51 464.561C1598.87 464.962 1598.93 469.038 1599.43 471.076C1599.86 472.743 1608.1 477.221 1614.06 477.56Z" fill="#FFB492"/>
<path d="M1834.53 521.066C1834.62 521.066 1834.68 521.066 1834.78 521.036C1835.36 520.881 1835.7 520.325 1835.58 519.739C1830.17 497.538 1823.04 490.621 1822.76 490.343C1822.33 489.942 1821.65 489.942 1821.25 490.374C1820.85 490.806 1820.85 491.486 1821.28 491.887C1821.37 491.98 1828.29 498.804 1833.51 520.264C1833.6 520.727 1834.03 521.066 1834.53 521.066Z" fill="black" fill-opacity="0.12"/>
<path d="M1958.37 810.574C1958.4 810.574 1958.43 810.574 1958.49 810.574C1958.77 810.513 1958.96 810.235 1958.9 809.926C1958.71 809.092 1941.27 726.124 1940.25 714.885C1939.66 708.586 1935.31 684.563 1931.11 661.343C1927.77 642.971 1924.62 625.587 1924 620.492C1923.67 617.59 1922.83 611.414 1921.78 603.602C1918.85 581.555 1913.94 544.657 1913.78 537.184C1913.6 527.149 1907.79 500.1 1907.73 499.823C1907.67 499.545 1907.39 499.359 1907.08 499.421C1906.81 499.483 1906.62 499.761 1906.68 500.07C1906.74 500.347 1912.55 527.304 1912.7 537.215C1912.83 544.78 1917.58 580.259 1920.7 603.756C1921.75 611.568 1922.55 617.744 1922.92 620.646C1923.54 625.772 1926.69 643.156 1930.03 661.559C1934.04 683.668 1938.58 708.74 1939.17 715.008C1940.18 726.309 1957.66 809.339 1957.85 810.173C1957.88 810.42 1958.12 810.574 1958.37 810.574Z" fill="black" fill-opacity="0.12"/>
<path d="M1857.44 257.248C1857.44 257.248 1860.31 257.248 1862.91 260.83C1865.5 264.411 1855.03 315.853 1849.1 334.164C1843.14 352.505 1826.72 410.37 1826.72 410.37C1826.72 410.37 1818.5 303.07 1824.34 269.908C1825.76 261.849 1833.69 253.018 1857.44 257.248Z" fill="white"/>
<path d="M1823.07 346.329L1834 275.712C1834 275.712 1832.3 271.883 1833.26 269.938C1834.22 267.993 1838.6 264.287 1841.9 267.715C1843.85 269.753 1843.7 271.667 1843.7 271.667C1843.7 271.667 1843.11 275.249 1841.07 275.836C1841.07 275.836 1839.09 338.795 1837.98 371.186C1832.21 391.04 1826.71 410.4 1826.71 410.4C1826.71 410.4 1824.37 379.831 1823.07 346.329Z" fill="#004F74"/>
<path d="M1828.19 218.115C1828.19 218.115 1823.86 206.695 1832.86 203.58C1835.2 191.296 1846.79 198.26 1851.63 205.7C1856.69 209.42 1860.59 209.982 1859.33 220.494C1858.38 228.453 1853.75 236.196 1853.75 236.196C1853.75 236.196 1831.73 229.275 1828.19 218.115Z" fill="#1B1B1A"/>
<path d="M1852.45 224.561L1857.72 261.112C1857.38 264.832 1842.28 271.84 1836.92 266.476C1836.31 265.914 1837.48 260.463 1837.74 254.407C1838.17 244.285 1838.17 231.655 1838.17 231.655L1852.45 224.561Z" fill="url(#paint3_linear_305_4313)"/>
<path d="M1843.15 246.448C1848.99 244.674 1849.34 237.277 1849.34 237.277L1838.09 240.522C1838.05 242.771 1838 245.323 1837.96 247.875C1839.26 247.572 1840.99 247.097 1843.15 246.448Z" fill="#FF9869"/>
<path d="M1851.59 217.337C1851.59 217.337 1852.19 237.797 1848.52 240.003C1844.15 242.599 1837.92 243.291 1832.25 241.301C1828.06 239.83 1825.76 236.24 1825.98 230.444C1826.28 222.917 1828.7 216.083 1830.22 212.449C1831.82 208.599 1834.46 206.134 1837.57 206.004C1838.35 209.291 1844.54 214.439 1851.59 217.337Z" fill="url(#paint4_linear_305_4313)"/>
<path d="M1849.12 225.858C1849.77 225.079 1850.89 222.744 1851.33 221.835C1852.19 220.105 1853.71 216.991 1855.7 219.759C1858.55 223.782 1853.66 230.573 1850.81 230.011C1849.38 229.751 1847.52 227.805 1849.12 225.858Z" fill="#FFC2A6"/>
<path d="M1839.39 217.165C1839.26 217.122 1838.78 216.992 1838.48 217.468C1838.26 217.857 1838.09 218.333 1838.13 218.809C1838.18 219.328 1838.7 219.717 1839.22 219.544C1839.91 219.371 1840.38 217.425 1839.39 217.165Z" fill="#402823"/>
<path d="M1830.34 216.56C1830.21 216.517 1829.74 216.387 1829.44 216.863C1829.22 217.252 1829.05 217.728 1829.09 218.204C1829.13 218.723 1829.65 219.112 1830.17 218.939C1830.86 218.723 1831.34 216.819 1830.34 216.56Z" fill="#402823"/>
<path d="M1838.82 213.704C1839.47 213.401 1840.59 213.574 1841.2 213.92C1841.85 214.266 1842.54 214.915 1842.8 215.651C1842.84 215.737 1842.89 215.824 1842.89 215.91C1842.93 216.083 1842.84 216.17 1842.71 216.256C1842.54 216.386 1842.32 216.429 1842.11 216.256C1841.2 215.564 1839.99 215.002 1838.91 214.699C1838.35 214.483 1838.39 213.747 1838.82 213.704Z" fill="black"/>
<path d="M1828.83 213.749C1828.88 213.749 1828.92 213.705 1828.96 213.705C1829.31 213.662 1829.7 213.576 1830.13 213.532C1830.17 213.532 1830.17 213.532 1830.22 213.532C1830.22 213.532 1830.22 213.532 1830.26 213.532C1830.87 213.446 1831.43 213.532 1831.69 214.138C1831.73 214.224 1831.73 214.311 1831.69 214.354C1831.73 214.657 1831.51 214.96 1831.17 214.917C1830.39 214.83 1829.61 214.744 1828.79 214.744C1828.18 214.7 1828.27 213.792 1828.83 213.749Z" fill="black"/>
<path d="M1828.36 224.949C1828.36 224.949 1835.11 226.55 1838.79 226.679C1838.79 226.679 1836.54 230.832 1832.3 230.702C1828.06 230.529 1828.36 224.949 1828.36 224.949Z" fill="white"/>
<path d="M1832.29 225.21C1832.2 225.21 1832.12 225.21 1832.03 225.167C1829.91 224.345 1829.65 222.485 1829.65 222.398C1829.61 222.052 1829.87 221.706 1830.21 221.663C1830.56 221.62 1830.9 221.879 1830.95 222.225C1830.95 222.269 1831.16 223.393 1832.51 223.912C1832.85 224.042 1833.02 224.431 1832.89 224.777C1832.81 225.08 1832.55 225.21 1832.29 225.21Z" fill="#FF9869"/>
<path d="M1857.53 250.918L1839.59 264.288L1836.72 253.326C1836.72 253.326 1832.43 258.205 1831.19 259.934C1829.21 262.651 1827.21 272.563 1827.21 272.563L1838.05 268.858L1847.22 277.689C1847.22 277.689 1859.26 261.602 1860.03 260.181C1860.8 258.73 1857.53 250.918 1857.53 250.918Z" fill="white"/>
<path d="M1822.23 480.553C1822.82 480.553 1823.28 480.09 1823.31 479.503C1824.08 449.706 1827.76 410.862 1827.79 410.492C1827.85 409.905 1827.42 409.38 1826.8 409.318C1826.22 409.257 1825.69 409.689 1825.63 410.306C1825.6 410.708 1821.92 449.614 1821.15 479.472C1821.12 480.059 1821.61 480.553 1822.23 480.553Z" fill="black" fill-opacity="0.12"/>
<path d="M1499 194.249H1799L1799 594.614H1499L1499 194.249Z" fill="#ACB9B9"/>
<path d="M1613.08 173.032H1615.02L1615.02 171.778C1615.02 159.806 1626.2 150 1639.99 150H1658.12C1671.92 150 1683.09 159.692 1683.09 171.778L1683.09 173.032H1685.03C1698.83 173.032 1710 182.723 1710 194.81L1710 206.25H1588.11L1588.11 194.81C1588.11 182.838 1599.29 173.032 1613.08 173.032ZM1633.04 173.488H1665.19C1668.5 173.488 1671.12 170.751 1671.12 167.559C1671.12 164.252 1668.38 161.63 1665.19 161.63H1633.04C1629.73 161.63 1627.11 164.366 1627.11 167.559C1626.99 170.866 1629.73 173.488 1633.04 173.488Z" fill="#C4D3D3"/>
<path opacity="0.24" d="M1588.11 194.847H1710L1710 206.249H1588.11L1588.11 194.847Z" fill="black"/>
<path opacity="0.26" d="M1521.24 577.411H1525.73L1790.67 585.629L1783.66 207.068L1771.38 210.575L1521.24 577.411Z" fill="black"/>
<path d="M1783.76 207.068H1514L1514 577.411H1783.76L1783.76 207.068Z" fill="#FFFFF7"/>
<path d="M1751.88 279.356H1549.17L1549.17 284.835H1751.88L1751.88 279.356Z" fill="#CDCED0"/>
<path d="M1751.88 319.567H1549.17L1549.17 325.046H1751.88L1751.88 319.567Z" fill="#CDCED0"/>
<path d="M1751.88 359.779H1549.17L1549.17 365.258H1751.88L1751.88 359.779Z" fill="#CDCED0"/>
<path d="M1752.4 399.992H1549.7L1549.7 405.471H1752.4L1752.4 399.992Z" fill="#CDCED0"/>
<path d="M1623.46 537.063H1548.95L1548.95 539.036H1623.46L1623.46 537.063Z" fill="#CDCED0"/>
<path d="M1743.42 512.455C1739.8 511.14 1735.86 511.469 1732.46 513.112C1731.91 512.893 1731.47 512.564 1730.93 512.455C1725.56 510.483 1719.31 512.236 1715.7 516.618C1712.19 521.001 1711.75 527.247 1714.6 532.068C1717.56 536.998 1723.26 539.518 1728.84 538.423C1730.16 538.204 1731.36 537.765 1732.57 537.108C1735.2 538.423 1738.27 538.971 1741.33 538.423C1747.69 537.217 1752.18 531.52 1752.29 525.055C1752.18 519.577 1748.79 514.427 1743.42 512.455ZM1730.16 535.903C1725.67 537.546 1720.63 536.122 1717.56 532.506C1714.49 528.89 1714.05 523.521 1716.46 519.358C1718.87 515.304 1723.8 513.112 1728.41 513.989C1729.06 514.098 1729.61 514.318 1730.27 514.537C1729.5 515.194 1728.73 515.851 1728.19 516.618C1724.68 521.001 1724.24 527.247 1727.09 532.068C1727.97 533.492 1729.06 534.807 1730.38 535.793C1730.27 535.903 1730.16 535.903 1730.16 535.903ZM1737.61 525.165C1737.5 529 1735.64 532.616 1732.46 534.697C1731.58 534.15 1730.71 533.383 1729.94 532.506C1726.87 528.89 1726.43 523.521 1728.84 519.358C1729.72 517.824 1730.93 516.618 1732.35 515.632C1735.64 517.824 1737.5 521.33 1737.61 525.165ZM1742.65 535.903C1740.02 536.889 1737.28 536.779 1734.76 535.793C1737.83 533.273 1739.8 529.328 1739.91 525.165C1739.8 521.001 1737.94 517.057 1734.76 514.537C1736.73 513.77 1738.92 513.551 1741.01 513.989C1746.37 515.084 1749.99 519.796 1750.1 525.165C1749.99 529.986 1747.14 534.259 1742.65 535.903Z" fill="#CDCED0"/>
<path d="M1914.33 305.008C1885.24 300.349 1869.54 347.767 1816.52 390.41C1775.19 423.633 1722.75 448.262 1703.83 456.616C1699.87 458.354 1698.25 463.144 1700.35 466.931C1704.57 474.616 1711.49 485.588 1716.26 485.048C1743.05 482.065 1811.58 458.503 1856.59 424.936C1889.6 400.323 1909.39 367.68 1917.84 345.069C1924.05 328.389 1924.54 306.675 1914.33 305.008Z" fill="url(#paint5_linear_305_4313)"/>
<path d="M1697.84 458.24C1698.65 457.674 1704.25 455.677 1705.43 455.233C1714.84 451.737 1720.8 462.375 1722.53 468.179C1726.34 480.888 1711.06 480.881 1706.11 480.135C1702.94 480.253 1697.48 475.229 1695.61 472.54C1692.48 467.982 1692.68 460.105 1697.84 458.24Z" fill="white"/>
<path d="M1696.8 457.615C1691.91 453.612 1687.51 445.595 1686.18 450.372C1684.73 455.21 1690.66 457.649 1689.9 461.079C1689.31 464.572 1665.61 462.564 1666.38 466.306C1666.85 468.821 1680.92 467.79 1680.67 468.525C1680.41 469.259 1664.1 468.848 1664.93 472.1C1665.95 476.027 1673.98 480.209 1679.02 481.086C1677.6 481.632 1675.44 482.347 1675.56 483.206C1675.97 485.598 1716.29 482.57 1707.51 465.68C1705.45 462.117 1704.32 463.834 1696.8 457.615Z" fill="#FFB492"/>
<path d="M1735.06 441.803C1735.36 442.269 1735.98 442.42 1736.48 442.167C1736.67 442.075 1756.5 431.434 1772.88 421.901C1788.93 412.588 1828.23 385.967 1847.35 363.133C1866 340.826 1885.98 319.866 1886.16 319.636C1886.58 319.212 1886.57 318.518 1886.12 318.112C1885.7 317.688 1885 317.699 1884.6 318.15C1884.4 318.353 1864.36 339.39 1845.67 361.757C1826.75 384.387 1787.72 410.796 1771.79 420.067C1755.42 429.557 1735.62 440.181 1735.44 440.3C1734.92 440.569 1734.73 441.244 1735 441.769C1735.02 441.752 1735.04 441.778 1735.06 441.803Z" fill="black" fill-opacity="0.12"/>
</g>
<defs>
<linearGradient id="paint0_linear_305_4313" x1="279.34" y1="164.51" x2="278.56" y2="469.322" gradientUnits="userSpaceOnUse">
<stop offset="0.100057" stop-color="#FF9B8D"/>
<stop offset="0.479517" stop-color="#FF644F"/>
</linearGradient>
<linearGradient id="paint1_linear_305_4313" x1="1866.93" y1="380.914" x2="1866.03" y2="773.985" gradientUnits="userSpaceOnUse">
<stop offset="0.280897" stop-color="#0099CC"/>
<stop offset="1" stop-color="#007FA9"/>
</linearGradient>
<linearGradient id="paint2_linear_305_4313" x1="1843.78" y1="255.886" x2="1843.42" y2="472.492" gradientUnits="userSpaceOnUse">
<stop offset="0.280897" stop-color="#0099CC"/>
<stop offset="1" stop-color="#007FA9"/>
</linearGradient>
<linearGradient id="paint3_linear_305_4313" x1="1840.8" y1="224.561" x2="1853.67" y2="268.426" gradientUnits="userSpaceOnUse">
<stop stop-color="#FFC2A6"/>
<stop offset="1" stop-color="#F8A681"/>
</linearGradient>
<linearGradient id="paint4_linear_305_4313" x1="1842.61" y1="242.452" x2="1834.98" y2="206.004" gradientUnits="userSpaceOnUse">
<stop offset="0.21766" stop-color="#FFC6AC"/>
<stop offset="1" stop-color="#FFC2A6"/>
</linearGradient>
<linearGradient id="paint5_linear_305_4313" x1="1933.44" y1="329.961" x2="1730.35" y2="461.708" gradientUnits="userSpaceOnUse">
<stop offset="0.280897" stop-color="#0099CC"/>
<stop offset="1" stop-color="#007FA9"/>
</linearGradient>
</defs>
</svg>
