<svg width="1981" height="1080" viewBox="0 0 1981 1080" fill="none" xmlns="http://www.w3.org/2000/svg">
<g clip-path="url(#clip0_337_12710)">
<rect width="1981" height="1080" fill="#11B7B5"/>
<rect width="1920" height="1080" fill="#11B7B5"/>
<rect width="2148" height="1080" fill="#11B7B5"/>
<path d="M91.0983 213.824C91.0983 213.824 85.9069 212.599 81.9085 214.598C77.9102 216.597 76.7816 221.885 76.3302 225.11C75.8787 228.334 73.5894 252.066 73.8473 252.582C76.7171 258.161 89.0024 254.872 92.6138 255.323C96.2252 255.775 110.703 252.873 110.703 252.873C110.703 252.873 108.124 223.594 104.899 220.724C101.707 217.887 99.7722 209.471 91.0983 213.824Z" fill="#372713"/>
<path d="M65.2732 450.179C66.2728 448.373 176.066 498.288 181.258 502.544C181.258 502.544 165.651 788.653 164.748 806.516C164.297 815.287 147.82 810.321 145.95 801.647C124.152 699.012 128.441 666.638 128.441 666.638C128.441 666.638 128.699 538.82 129.602 520.505C128.376 527.179 21.8394 801.905 21.001 805.549C18.0022 818.866 2.87941 809.031 3.36308 804.066C3.8145 799.39 59.985 459.562 65.2732 450.179Z" fill="#FFC2A6"/>
<path d="M105.385 283.28C105.385 283.28 87.0703 273.768 83.2655 267.803C83.2655 267.803 77.6549 273.413 77.3002 274.768C76.9455 276.122 99.7748 292.502 99.7748 292.502L107.352 286.892L114.607 288.73C114.607 288.73 112.995 278.927 108.932 274.381C104.869 269.834 104.225 269.544 104.225 269.544C104.225 269.544 105.418 275.187 105.547 277.089C105.643 278.605 105.385 283.28 105.385 283.28Z" fill="#B1D5DE"/>
<path d="M174.678 357.443L132.179 367.503C132.179 367.503 112.187 266.931 125.085 269.382C152.364 274.509 168.519 339.192 174.678 357.443Z" fill="white"/>
<path d="M107.785 268.136C127.242 262.762 169.669 340.194 191.947 346.485C218.116 353.909 304.906 360.747 315.037 367.148C322.142 371.676 323.959 375.59 308.964 382.341C296.414 388.015 222.267 402.606 181.88 383.554C144.033 365.706 111.836 317.564 102.861 300.573C95.594 286.858 97.5591 270.961 107.785 268.136Z" fill="#FFC2A6"/>
<path d="M72.9095 391.075C72.974 390.495 73.0385 389.946 73.0707 389.398C74.7474 364.957 53.3369 309.85 58.5928 292.47C62.2687 280.314 68.234 267.061 91.9984 264.772C117.762 262.289 131.176 269.996 141.559 283.796C152.038 297.726 153.135 322.232 154.553 342.547C155.746 359.185 158.1 373.405 158.1 373.405C158.1 373.405 158.906 376.017 160.229 380.595C121.599 395.331 83.4213 392.3 72.9095 391.075Z" fill="#E7F2F2"/>
<path d="M230.773 204.177C256.785 202.245 289.622 216.282 297.22 238.559C305.204 216.41 345.252 202.889 371.264 205.207C440.029 211.131 462.822 288.008 433.462 339.389C417.623 367.075 394.959 391.156 370.234 412.919C349.502 431.076 296.19 469.45 295.932 469.321C295.803 469.45 242.877 430.432 222.274 412.017C197.807 390.126 175.4 365.659 159.819 337.844C131.102 286.077 162.008 209.328 230.773 204.177Z" fill="url(#paint0_linear_337_12710)"/>
<g opacity="0.12">
<path d="M173.339 344.412C190.337 365.273 210.168 384.718 231.545 401.587C252.277 417.812 276.615 432.106 303.529 436.871C316.406 439.189 329.026 438.931 341.002 436.227C318.982 453.096 295.03 470.223 294.901 470.094C294.772 470.223 241.846 431.205 221.243 412.79C196.776 390.899 174.369 366.432 158.788 338.617C153.765 329.603 150.546 319.816 149.001 309.771C156.212 322.005 164.325 333.595 173.339 344.412Z" fill="black"/>
</g>
<path d="M174.628 322.648C192.656 323.164 210.684 323.807 228.712 324.322C235.409 300.757 241.976 277.063 248.672 253.497C249.574 250.02 254.725 250.407 255.755 253.497C269.405 294.705 283.183 335.912 296.833 377.248C297.606 379.695 298.379 382.013 299.28 384.46C308.938 357.417 318.596 330.375 328.125 303.332C329.671 298.954 331.216 294.705 332.761 290.326C333.663 287.751 338.041 286.721 339.457 289.554C346.282 302.817 353.107 315.952 359.932 329.216C380.15 329.345 400.238 329.473 420.456 329.602C425.22 329.602 425.22 336.556 420.456 336.556C399.595 336.427 378.604 336.298 357.743 336.17C356.455 336.17 355.168 335.526 354.524 334.496C348.729 323.164 342.805 311.831 337.011 300.499C327.095 328.186 317.18 356.001 307.393 383.687C305.848 388.065 304.302 392.315 302.757 396.693C301.598 399.912 296.705 399.912 295.674 396.693C282.024 355.486 268.246 314.278 254.596 272.942C253.952 271.01 253.308 268.95 252.664 267.018C246.869 287.622 241.075 308.355 235.28 328.958C234.893 330.375 233.348 331.534 231.674 331.534C212.744 330.89 193.815 330.375 174.885 329.731C169.863 329.473 169.863 322.52 174.628 322.648Z" fill="white"/>
<path d="M48.5662 468.526C53.5964 438.506 70.6862 411.55 72.9111 391.074C83.4229 392.3 121.601 395.331 160.198 380.595C166.55 402.553 185.123 469.558 185.8 507.446C186.058 522.021 174.902 679.053 174.902 679.053C174.902 679.053 145.268 684.47 105.317 684.631C50.114 684.857 18.5463 673.281 18.5463 673.281C18.5463 673.281 41.0532 513.476 48.5662 468.526Z" fill="#F95873"/>
<path opacity="0.12" d="M177.777 450.019C170.683 448.148 153.884 443.054 138.406 433.735C118.124 421.514 107.226 399.878 107.226 399.878C127.637 417.097 158.946 428.157 173.908 432.735C175.262 438.411 176.552 444.182 177.777 450.019Z" fill="black"/>
<path d="M80.0727 284.795C100.258 284.795 120.54 370.727 140.338 382.722C163.587 396.846 245.424 426.543 253.485 435.411C259.128 441.666 259.838 445.922 243.586 448.437C229.979 450.566 154.623 444.891 120.766 415.773C89.0368 388.494 70.8184 333.517 66.6911 314.75C63.3376 299.595 69.4641 284.795 80.0727 284.795Z" fill="#FFC2A6"/>
<path d="M259.998 436.185C259.998 436.185 284.73 444.085 286.245 447.696C287.761 451.34 282.118 451.791 281.086 452.726C280.054 453.661 278.635 456.757 276.926 457.37C275.217 457.982 272.735 457.692 271.574 458.982C270.381 460.304 269.446 463.399 265.415 460.53C261.384 457.692 257.225 454.919 254.258 452.017C250.066 447.922 255.677 450.437 250.421 449.083C245.23 447.728 241.812 446.955 240.748 443.408C239.684 439.861 243.069 435.056 249.841 435.185C253.71 435.282 259.998 436.185 259.998 436.185Z" fill="#FFC2A6"/>
<path d="M8.51612 811.836C11.7406 814.771 24.6708 831.957 29.2818 832.441C31.7646 832.699 33.7961 832.441 35.1504 832.118C32.2161 829.797 29.0561 824.347 26.154 818.414C24.1871 814.416 20.2533 807.516 20.3178 799.712L5.22717 795.617C5.22717 795.617 2.38964 808.483 1.93821 809.74C3.77616 809.708 6.54919 810.031 8.51612 811.836Z" fill="#FFC2A6"/>
<path d="M1.97148 809.74C3.77719 809.708 6.55026 810.031 8.5172 811.836C11.7417 814.771 24.6718 831.957 29.2828 832.441C31.7657 832.699 33.7972 832.441 35.1515 832.118C35.6996 832.57 36.28 832.924 36.7959 833.118C42.2453 835.085 45.3085 837.02 47.0175 838.632C48.6942 840.244 47.5012 843.114 45.1796 843.082L27.0257 842.953C23.2531 842.92 19.8351 840.695 18.4163 837.213C17.7392 835.536 16.9009 833.892 16.0303 832.924C13.7409 830.377 9.35559 830.796 9.35559 830.796L9.25885 842.791L3.48697 842.759C3.97065 838.632 1.29434 825.411 0.198017 820.8C-0.543613 817.64 0.971893 812.546 1.97148 809.74Z" fill="#434A59"/>
<path d="M153.298 811.837C156.716 814.771 170.774 831.958 175.45 832.441C177.965 832.699 179.964 832.441 181.318 832.119C178.255 829.797 174.708 824.348 171.419 818.415C169.194 814.416 164.777 807.516 164.358 799.713L145.236 796.521C145.236 796.521 147.01 808.483 146.623 809.741C148.429 809.709 151.202 810.031 153.298 811.837Z" fill="#FFC2A6"/>
<path d="M146.619 809.74C148.425 809.708 151.198 810.031 153.294 811.836C156.712 814.771 170.771 831.957 175.446 832.441C177.961 832.699 179.96 832.441 181.315 832.118C181.895 832.57 182.475 832.924 183.024 833.118C188.602 835.085 191.794 837.02 193.6 838.632C195.406 840.244 194.374 843.114 192.052 843.082L173.898 842.953C170.126 842.92 166.547 840.695 164.902 837.213C164.096 835.536 163.161 833.892 162.258 832.924C159.807 830.377 155.454 830.796 155.454 830.796L156.164 842.791L150.392 842.759C150.618 838.632 147.071 825.411 145.652 820.8C144.588 817.64 145.781 812.546 146.619 809.74Z" fill="#434A59"/>
<path d="M91.5143 242.619L89.5474 265.255C89.2894 269.318 98.8662 280.346 105.605 275.509C107.572 274.09 105.38 268.351 103.832 264.03L100.059 246.489L91.5143 242.619Z" fill="#FFC2A6"/>
<path d="M90.6131 239.458C91.0646 246.229 95.7401 249.163 102.544 249.615C109.154 250.066 111.347 248.518 112.54 243.907C112.83 242.747 113.088 241.038 112.991 239.49C112.83 236.91 111.572 232.622 109.573 229.881C108.67 228.623 107.993 226.592 107.445 225.592C105.51 221.981 102.125 220.337 98.9645 220.788C96.9976 221.078 97.1266 224.948 95.4499 226.721C93.1282 229.139 89.3878 233.17 89.3878 233.17C89.3878 233.17 90.4842 237.297 90.6131 239.458Z" fill="#FFC2A6"/>
<path d="M94.455 245.778C93.9391 246.875 96.422 255.774 102.452 257.58L101.452 251.615C101.291 250.712 101.613 249.551 102.516 249.615C107.933 249.97 110.384 249.035 111.738 246.133C110.513 246.746 107.643 247.971 104.548 247.874C100.42 247.745 95.0032 244.618 94.455 245.778Z" fill="#FF9869"/>
<path d="M97.1929 227.947C98.0958 227.174 98.9019 226.561 100.514 226.787C100.966 226.851 101.127 227.303 100.611 227.432C99.1921 227.786 98.7084 227.851 97.6443 228.528C97.1929 228.818 96.677 228.399 97.1929 227.947Z" fill="#434A59"/>
<path d="M107.257 225.433C106.58 225.368 105.871 225.755 105.291 226.11C104.871 226.336 104.742 226.852 105.291 226.723C106.806 226.368 106.774 226.239 107.515 226.175C108.031 226.11 108.031 225.497 107.257 225.433Z" fill="#434A59"/>
<path d="M108.056 234.235C108.056 234.235 108.25 235.589 107.089 236.169C105.928 236.75 105.348 236.718 105.444 236.169C105.541 235.621 106.38 235.912 106.766 235.234C107.121 234.557 107.024 233.848 107.315 233.751C107.605 233.59 108.089 233.654 108.056 234.235Z" fill="#FF9869"/>
<path d="M100.355 231.043C100.355 231.623 100.677 232.074 101.064 232.074C101.451 232.074 101.773 231.623 101.773 231.043C101.773 230.462 101.451 230.011 101.064 230.011C100.677 230.011 100.355 230.494 100.355 231.043Z" fill="#434A59"/>
<path d="M107.478 229.754C107.478 230.334 107.8 230.785 108.187 230.785C108.574 230.785 108.896 230.334 108.896 229.754C108.896 229.173 108.574 228.722 108.187 228.722C107.8 228.722 107.478 229.173 107.478 229.754Z" fill="#434A59"/>
<path d="M89.8361 234.33C89.4492 233.621 89.1912 232.847 88.9655 232.041C88.5463 230.558 87.579 228.43 85.6766 230.139C82.8713 232.621 85.5153 240.457 89.3847 240.038C92.2868 239.715 90.8035 236.136 89.8361 234.33Z" fill="#FFC2A6"/>
<path d="M121.926 342.965C121.926 342.965 119.862 348.221 103.417 357.282C91.2287 363.989 79.2658 365.053 79.2658 365.053C79.2658 365.053 62.9177 322.49 60.9186 304.239C58.9194 285.989 65.7231 279.894 69.7214 277.669C73.7198 275.445 78.0728 276.992 82.2002 279.346C96.8393 287.665 121.926 342.965 121.926 342.965Z" fill="white"/>
<path d="M145.851 388.558C146.109 388.558 146.367 388.429 146.528 388.204C146.786 387.849 146.689 387.333 146.335 387.075C138.338 381.529 135.371 376.66 135.339 376.628C135.113 376.241 134.63 376.112 134.243 376.338C133.856 376.563 133.727 377.047 133.953 377.434C134.082 377.627 137.113 382.625 145.4 388.397C145.529 388.526 145.69 388.558 145.851 388.558Z" fill="#FFB18E"/>
<path d="M111.225 236.556C111.225 236.556 106.968 237.91 103.067 238.394C103.067 238.394 105.13 242.134 108.387 241.07C111.644 240.006 111.225 236.556 111.225 236.556Z" fill="white"/>
<path d="M102.737 272.509C102.737 272.509 94.0957 268.092 92.6125 266.738C91.1292 265.383 90.2586 262.643 89.388 263.062C88.5174 263.481 86.3892 267.608 86.3892 268.35C86.3892 269.091 98.1908 280.958 99.7063 281.538C101.19 282.086 104.124 276.605 104.124 276.605C104.124 276.605 109.96 279.055 110.025 277.991C110.089 276.927 105.639 268.156 105.478 268.156C105.285 268.189 102.737 272.509 102.737 272.509Z" fill="white"/>
<path opacity="0.12" d="M88.1619 659.449C88.6778 659.449 89.1615 659.159 89.355 658.643L153.135 504.964C153.393 504.319 153.103 503.546 152.426 503.288C151.781 503.03 151.007 503.32 150.749 503.997L86.9689 657.676C86.7109 658.321 87.0011 659.095 87.6782 659.353C87.8395 659.417 88.0007 659.449 88.1619 659.449Z" fill="black"/>
<path d="M399.228 379.104C395.572 375.062 393.446 368.085 391.674 372.017C389.903 375.95 393.971 379.871 393.009 382.741C392.047 385.611 368.544 381.901 368.76 385.274C368.904 387.513 379.195 387.364 378.958 387.994C378.721 388.623 368.571 387.74 368.876 390.526C369.251 393.944 371.905 397.091 376.022 398.415C374.709 398.722 373.672 399.203 373.697 399.958C373.767 401.989 412.73 404.28 407.315 388.899C406.145 385.573 404.856 385.327 399.228 379.104Z" fill="#FFC2A6"/>
<path d="M1820.81 833.175C1825.87 830.952 1826.52 826.444 1828.65 822.183C1828.81 821.905 1829.64 815.76 1829.64 815.266C1829.67 813.135 1835.79 807.516 1838.63 811.931C1844.25 820.608 1850.39 807.053 1850.08 810.665C1849.12 821.472 1854.06 838.856 1850.05 840.061C1841.5 842.562 1801.51 845.495 1800.74 841.296C1800.28 838.795 1812.04 837.004 1820.81 833.175Z" fill="#404859"/>
<path d="M1943.56 833.175C1948.63 830.952 1949.27 826.444 1951.4 822.183C1951.56 821.905 1952.39 815.76 1952.39 815.266C1952.42 813.135 1958.54 807.516 1961.38 811.931C1967 820.608 1973.14 807.053 1972.83 810.665C1971.88 821.472 1976.82 838.856 1972.8 840.061C1964.25 842.562 1924.26 845.495 1923.49 841.296C1923.06 838.795 1934.82 837.004 1943.56 833.175Z" fill="#404859"/>
<path d="M1917.92 436.957C1907.82 414.632 1831 385.7 1810.74 380.914C1809.26 403.393 1798.88 417.38 1786.63 441.619C1769.49 475.492 1816.42 816.535 1816.42 816.535C1816.42 816.535 1822.13 820.024 1835.63 819.993C1853.44 819.993 1858.48 816.535 1858.48 816.535L1847.05 508.099C1847.05 508.099 1862.77 587.361 1890.44 668.94C1903.03 706.147 1944.35 816.535 1944.35 816.535C1944.35 816.535 1951.79 819.993 1962.32 819.993C1973.37 819.993 1981 816.535 1981 816.535L1950.25 646.492C1950.22 646.492 1923.85 450.111 1917.92 436.957Z" fill="url(#paint1_linear_337_12710)"/>
<path d="M1827.11 300.97C1814.36 354.636 1789.16 411.234 1756.65 438.283C1734.97 456.315 1658.43 474.966 1654.2 466.659C1650.96 460.299 1646.51 442.513 1646.51 442.513C1646.51 442.513 1719.94 406.911 1736.64 390.732C1762.21 365.937 1769.74 279.078 1815.29 266.295C1838.54 259.811 1829 293.066 1827.11 300.97Z" fill="#036D90"/>
<path fill-rule="evenodd" clip-rule="evenodd" d="M1932.32 328.796C1930.26 343.854 1927.63 363.06 1927.92 388.046C1928.67 451.006 1925.36 494.914 1925.36 494.914C1925.36 494.914 1925.35 494.918 1925.33 494.926L1925.36 494.944C1925.36 494.944 1917.43 499.452 1875.43 497.229C1836.06 495.16 1804.23 493.153 1782.89 480.37C1782.89 478.282 1782.91 475.976 1782.95 473.602C1782.91 473.586 1782.89 473.577 1782.89 473.577C1782.89 473.577 1782.94 471.992 1783.03 469.1C1783.11 465.922 1783.22 462.789 1783.36 460.052C1785.06 416.494 1791.69 281.968 1809.42 269.538C1822.63 260.275 1863.02 254.223 1877.87 256.292C1895.9 258.793 1927.46 273.491 1933.48 295.043C1935.8 303.355 1934.33 314.1 1932.32 328.796Z" fill="url(#paint2_linear_337_12710)"/>
<path d="M1655.71 454.587C1655.71 454.587 1657.84 459.713 1657.37 460.176C1656.91 460.639 1646.57 464.468 1642.61 466.845C1638.66 469.254 1629.71 457.767 1631.07 456.193C1632.42 454.587 1655.71 454.587 1655.71 454.587Z" fill="#FFB492"/>
<path d="M1649.66 446.372C1649.66 446.372 1644.65 447.916 1641.13 447.607C1637.61 447.298 1630.2 446.588 1626.75 448.41C1625.76 448.935 1624.31 451.158 1622.73 452.424C1618.81 455.574 1614.61 459.032 1618.07 461.224C1619.71 462.274 1626.25 457.087 1629.03 457.179C1631.81 457.272 1641.97 458.908 1645.24 459.155C1648.51 459.402 1655.8 456.346 1655.83 454.863C1655.8 453.443 1649.66 446.372 1649.66 446.372Z" fill="#FFB492"/>
<path d="M1629.06 477.56C1630.82 477.653 1632.15 475.955 1631.62 474.287C1631.13 472.651 1630.33 470.86 1629.18 470.551C1626.96 469.934 1626.16 471.972 1626.16 471.972C1626.16 471.972 1624.46 468.204 1622.98 468.019C1621.5 467.834 1620.57 468.482 1620.54 468.729C1620.51 468.976 1617.14 464.159 1615.51 464.561C1613.87 464.962 1613.93 469.038 1614.43 471.076C1614.86 472.743 1623.1 477.221 1629.06 477.56Z" fill="#FFB492"/>
<path d="M1849.53 521.066C1849.62 521.066 1849.68 521.066 1849.78 521.036C1850.36 520.881 1850.7 520.325 1850.58 519.739C1845.17 497.538 1838.04 490.621 1837.76 490.343C1837.33 489.942 1836.65 489.942 1836.25 490.374C1835.85 490.806 1835.85 491.486 1836.28 491.887C1836.37 491.98 1843.29 498.804 1848.51 520.264C1848.6 520.727 1849.03 521.066 1849.53 521.066Z" fill="black" fill-opacity="0.12"/>
<path d="M1973.37 810.574C1973.4 810.574 1973.43 810.574 1973.49 810.574C1973.77 810.513 1973.96 810.235 1973.9 809.926C1973.71 809.092 1956.27 726.124 1955.25 714.885C1954.66 708.586 1950.31 684.563 1946.11 661.343C1942.77 642.971 1939.62 625.587 1939 620.492C1938.67 617.59 1937.83 611.414 1936.78 603.602C1933.85 581.555 1928.94 544.657 1928.78 537.184C1928.6 527.149 1922.79 500.1 1922.73 499.823C1922.67 499.545 1922.39 499.359 1922.08 499.421C1921.81 499.483 1921.62 499.761 1921.68 500.07C1921.74 500.347 1927.55 527.304 1927.7 537.215C1927.83 544.78 1932.58 580.259 1935.7 603.756C1936.75 611.568 1937.55 617.744 1937.92 620.646C1938.54 625.772 1941.69 643.156 1945.03 661.559C1949.04 683.668 1953.58 708.74 1954.17 715.008C1955.18 726.309 1972.66 809.339 1972.85 810.173C1972.88 810.42 1973.12 810.574 1973.37 810.574Z" fill="black" fill-opacity="0.12"/>
<path d="M1872.44 257.248C1872.44 257.248 1875.31 257.248 1877.91 260.83C1880.5 264.411 1870.03 315.853 1864.1 334.164C1858.14 352.505 1841.72 410.37 1841.72 410.37C1841.72 410.37 1833.5 303.07 1839.34 269.908C1840.76 261.849 1848.69 253.018 1872.44 257.248Z" fill="white"/>
<path d="M1838.07 346.329L1849 275.712C1849 275.712 1847.3 271.883 1848.26 269.938C1849.22 267.993 1853.6 264.287 1856.91 267.715C1858.85 269.753 1858.7 271.667 1858.7 271.667C1858.7 271.667 1858.11 275.249 1856.07 275.836C1856.07 275.836 1854.1 338.795 1852.98 371.186C1847.21 391.04 1841.71 410.4 1841.71 410.4C1841.71 410.4 1839.37 379.831 1838.07 346.329Z" fill="#004F74"/>
<path d="M1843.19 218.115C1843.19 218.115 1838.86 206.695 1847.86 203.58C1850.19 191.296 1861.79 198.26 1866.63 205.7C1871.69 209.42 1875.58 209.982 1874.33 220.494C1873.38 228.453 1868.75 236.196 1868.75 236.196C1868.75 236.196 1846.73 229.275 1843.19 218.115Z" fill="#1B1B1A"/>
<path d="M1867.45 224.561L1872.72 261.112C1872.38 264.832 1857.28 271.84 1851.92 266.476C1851.31 265.914 1852.48 260.463 1852.74 254.407C1853.17 244.285 1853.17 231.655 1853.17 231.655L1867.45 224.561Z" fill="url(#paint3_linear_337_12710)"/>
<path d="M1858.15 246.448C1863.99 244.674 1864.34 237.277 1864.34 237.277L1853.09 240.522C1853.05 242.771 1853 245.323 1852.96 247.875C1854.26 247.572 1855.99 247.097 1858.15 246.448Z" fill="#FF9869"/>
<path d="M1866.59 217.337C1866.59 217.337 1867.19 237.797 1863.52 240.003C1859.15 242.599 1852.92 243.291 1847.25 241.301C1843.06 239.83 1840.76 236.24 1840.98 230.444C1841.28 222.917 1843.7 216.083 1845.22 212.449C1846.82 208.599 1849.46 206.134 1852.57 206.004C1853.35 209.291 1859.54 214.439 1866.59 217.337Z" fill="url(#paint4_linear_337_12710)"/>
<path d="M1864.12 225.858C1864.77 225.079 1865.89 222.744 1866.33 221.835C1867.19 220.105 1868.71 216.991 1870.7 219.759C1873.55 223.782 1868.66 230.573 1865.81 230.011C1864.38 229.751 1862.52 227.805 1864.12 225.858Z" fill="#FFC2A6"/>
<path d="M1854.39 217.165C1854.26 217.122 1853.78 216.992 1853.48 217.468C1853.26 217.857 1853.09 218.333 1853.13 218.809C1853.17 219.328 1853.69 219.717 1854.21 219.544C1854.91 219.371 1855.38 217.425 1854.39 217.165Z" fill="#402823"/>
<path d="M1845.34 216.56C1845.21 216.517 1844.74 216.387 1844.43 216.863C1844.22 217.252 1844.04 217.728 1844.09 218.204C1844.13 218.723 1844.65 219.112 1845.17 218.939C1845.86 218.723 1846.34 216.819 1845.34 216.56Z" fill="#402823"/>
<path d="M1853.82 213.704C1854.47 213.401 1855.59 213.574 1856.2 213.92C1856.85 214.266 1857.54 214.915 1857.8 215.651C1857.84 215.737 1857.89 215.824 1857.89 215.91C1857.93 216.083 1857.84 216.17 1857.71 216.256C1857.54 216.386 1857.32 216.429 1857.11 216.256C1856.2 215.564 1854.99 215.002 1853.91 214.699C1853.34 214.483 1853.39 213.747 1853.82 213.704Z" fill="black"/>
<path d="M1843.83 213.749C1843.87 213.749 1843.92 213.705 1843.96 213.705C1844.31 213.662 1844.7 213.576 1845.13 213.532C1845.17 213.532 1845.17 213.532 1845.21 213.532C1845.21 213.532 1845.21 213.532 1845.26 213.532C1845.86 213.446 1846.43 213.532 1846.69 214.138C1846.73 214.224 1846.73 214.311 1846.69 214.354C1846.73 214.657 1846.51 214.96 1846.17 214.917C1845.39 214.83 1844.61 214.744 1843.79 214.744C1843.18 214.7 1843.27 213.792 1843.83 213.749Z" fill="black"/>
<path d="M1843.36 224.949C1843.36 224.949 1850.11 226.55 1853.79 226.679C1853.79 226.679 1851.54 230.832 1847.3 230.702C1843.06 230.529 1843.36 224.949 1843.36 224.949Z" fill="white"/>
<path d="M1847.29 225.21C1847.2 225.21 1847.11 225.21 1847.03 225.167C1844.91 224.345 1844.65 222.485 1844.65 222.398C1844.61 222.052 1844.87 221.706 1845.21 221.663C1845.56 221.62 1845.9 221.879 1845.95 222.225C1845.95 222.269 1846.16 223.393 1847.5 223.912C1847.85 224.042 1848.02 224.431 1847.89 224.777C1847.81 225.08 1847.55 225.21 1847.29 225.21Z" fill="#FF9869"/>
<path d="M1872.53 250.918L1854.59 264.288L1851.72 253.326C1851.72 253.326 1847.43 258.205 1846.19 259.934C1844.21 262.651 1842.21 272.563 1842.21 272.563L1853.05 268.858L1862.22 277.689C1862.22 277.689 1874.26 261.602 1875.03 260.181C1875.8 258.73 1872.53 250.918 1872.53 250.918Z" fill="white"/>
<path d="M1837.23 480.553C1837.82 480.553 1838.28 480.09 1838.31 479.503C1839.08 449.706 1842.76 410.862 1842.79 410.492C1842.85 409.905 1842.42 409.38 1841.8 409.318C1841.21 409.257 1840.69 409.689 1840.63 410.306C1840.6 410.708 1836.92 449.614 1836.15 479.472C1836.12 480.059 1836.61 480.553 1837.23 480.553Z" fill="black" fill-opacity="0.12"/>
<path d="M1514 194.249H1814L1814 594.614H1514L1514 194.249Z" fill="#ACB9B9"/>
<path d="M1628.08 173.032H1630.02L1630.02 171.778C1630.02 159.806 1641.2 150 1654.99 150H1673.12C1686.92 150 1698.09 159.692 1698.09 171.778L1698.09 173.032H1700.03C1713.83 173.032 1725 182.723 1725 194.81L1725 206.25H1603.11L1603.11 194.81C1603.11 182.838 1614.29 173.032 1628.08 173.032ZM1648.04 173.488H1680.19C1683.5 173.488 1686.12 170.751 1686.12 167.559C1686.12 164.252 1683.38 161.63 1680.19 161.63H1648.04C1644.73 161.63 1642.11 164.366 1642.11 167.559C1641.99 170.866 1644.73 173.488 1648.04 173.488Z" fill="#C4D3D3"/>
<path opacity="0.24" d="M1603.11 194.847H1725L1725 206.249H1603.11L1603.11 194.847Z" fill="black"/>
<path opacity="0.26" d="M1536.24 577.411H1540.73L1805.67 585.629L1798.65 207.068L1786.38 210.575L1536.24 577.411Z" fill="black"/>
<path d="M1798.76 207.068H1529L1529 577.411H1798.76L1798.76 207.068Z" fill="#FFFFF7"/>
<path d="M1766.88 279.356H1564.17L1564.17 284.835H1766.88L1766.88 279.356Z" fill="#CDCED0"/>
<path d="M1766.88 319.567H1564.17L1564.17 325.046H1766.88L1766.88 319.567Z" fill="#CDCED0"/>
<path d="M1766.88 359.779H1564.17L1564.17 365.258H1766.88L1766.88 359.779Z" fill="#CDCED0"/>
<path d="M1767.4 399.992H1564.7L1564.7 405.471H1767.4L1767.4 399.992Z" fill="#CDCED0"/>
<path d="M1638.46 537.063H1563.95L1563.95 539.036H1638.46L1638.46 537.063Z" fill="#CDCED0"/>
<path d="M1758.42 512.455C1754.8 511.14 1750.86 511.469 1747.46 513.112C1746.91 512.893 1746.47 512.564 1745.93 512.455C1740.56 510.483 1734.31 512.236 1730.7 516.618C1727.19 521.001 1726.75 527.247 1729.6 532.068C1732.56 536.998 1738.26 539.518 1743.84 538.423C1745.16 538.204 1746.36 537.765 1747.57 537.108C1750.2 538.423 1753.27 538.971 1756.34 538.423C1762.69 537.217 1767.18 531.52 1767.29 525.055C1767.18 519.577 1763.79 514.427 1758.42 512.455ZM1745.16 535.903C1740.67 537.546 1735.63 536.122 1732.56 532.506C1729.49 528.89 1729.05 523.521 1731.46 519.358C1733.87 515.304 1738.8 513.112 1743.41 513.989C1744.06 514.098 1744.61 514.318 1745.27 514.537C1744.5 515.194 1743.73 515.851 1743.19 516.618C1739.68 521.001 1739.24 527.247 1742.09 532.068C1742.97 533.492 1744.06 534.807 1745.38 535.793C1745.27 535.903 1745.16 535.903 1745.16 535.903ZM1752.61 525.165C1752.5 529 1750.64 532.616 1747.46 534.697C1746.58 534.15 1745.71 533.383 1744.94 532.506C1741.87 528.89 1741.43 523.521 1743.84 519.358C1744.72 517.824 1745.93 516.618 1747.35 515.632C1750.64 517.824 1752.5 521.33 1752.61 525.165ZM1757.65 535.903C1755.02 536.889 1752.28 536.779 1749.76 535.793C1752.83 533.273 1754.8 529.328 1754.91 525.165C1754.8 521.001 1752.94 517.057 1749.76 514.537C1751.73 513.77 1753.92 513.551 1756.01 513.989C1761.38 515.084 1764.99 519.796 1765.1 525.165C1764.99 529.986 1762.14 534.259 1757.65 535.903Z" fill="#CDCED0"/>
<path d="M1929.34 305.008C1900.24 300.349 1884.54 347.767 1831.52 390.41C1790.2 423.633 1737.75 448.262 1718.83 456.616C1714.87 458.354 1713.25 463.144 1715.36 466.931C1719.57 474.616 1726.49 485.588 1731.26 485.048C1758.05 482.065 1826.58 458.503 1871.59 424.936C1904.6 400.323 1924.39 367.68 1932.84 345.069C1939.05 328.389 1939.54 306.675 1929.34 305.008Z" fill="url(#paint5_linear_337_12710)"/>
<path d="M1712.84 458.24C1713.65 457.674 1719.25 455.677 1720.43 455.233C1729.84 451.737 1735.8 462.375 1737.53 468.179C1741.34 480.888 1726.06 480.881 1721.11 480.135C1717.94 480.253 1712.48 475.229 1710.61 472.54C1707.48 467.982 1707.68 460.105 1712.84 458.24Z" fill="white"/>
<path d="M1711.8 457.615C1706.91 453.612 1702.52 445.595 1701.18 450.372C1699.73 455.21 1705.66 457.649 1704.9 461.079C1704.31 464.572 1680.61 462.564 1681.38 466.306C1681.85 468.821 1695.92 467.79 1695.67 468.525C1695.41 469.259 1679.1 468.848 1679.93 472.1C1680.95 476.027 1688.99 480.209 1694.02 481.086C1692.6 481.632 1690.45 482.347 1690.56 483.206C1690.97 485.598 1731.29 482.57 1722.51 465.68C1720.45 462.117 1719.32 463.834 1711.8 457.615Z" fill="#FFB492"/>
<path d="M1750.06 441.803C1750.36 442.269 1750.98 442.42 1751.48 442.167C1751.68 442.075 1771.5 431.434 1787.89 421.901C1803.93 412.588 1843.23 385.967 1862.35 363.133C1881 340.826 1900.98 319.866 1901.16 319.636C1901.59 319.212 1901.57 318.518 1901.12 318.112C1900.7 317.688 1900.01 317.699 1899.6 318.15C1899.4 318.353 1879.36 339.39 1860.67 361.757C1841.75 384.387 1802.72 410.796 1786.8 420.067C1770.42 429.557 1750.62 440.181 1750.44 440.3C1749.92 440.569 1749.73 441.244 1750 441.769C1750.03 441.752 1750.04 441.778 1750.06 441.803Z" fill="black" fill-opacity="0.12"/>
</g>
<defs>
<linearGradient id="paint0_linear_337_12710" x1="298.34" y1="164.51" x2="297.56" y2="469.322" gradientUnits="userSpaceOnUse">
<stop offset="0.100057" stop-color="#FF9B8D"/>
<stop offset="0.479517" stop-color="#FF644F"/>
</linearGradient>
<linearGradient id="paint1_linear_337_12710" x1="1881.93" y1="380.914" x2="1881.03" y2="773.985" gradientUnits="userSpaceOnUse">
<stop offset="0.280897" stop-color="#0099CC"/>
<stop offset="1" stop-color="#007FA9"/>
</linearGradient>
<linearGradient id="paint2_linear_337_12710" x1="1858.78" y1="255.886" x2="1858.42" y2="472.492" gradientUnits="userSpaceOnUse">
<stop offset="0.280897" stop-color="#0099CC"/>
<stop offset="1" stop-color="#007FA9"/>
</linearGradient>
<linearGradient id="paint3_linear_337_12710" x1="1855.79" y1="224.561" x2="1868.67" y2="268.426" gradientUnits="userSpaceOnUse">
<stop stop-color="#FFC2A6"/>
<stop offset="1" stop-color="#F8A681"/>
</linearGradient>
<linearGradient id="paint4_linear_337_12710" x1="1857.61" y1="242.452" x2="1849.98" y2="206.004" gradientUnits="userSpaceOnUse">
<stop offset="0.21766" stop-color="#FFC6AC"/>
<stop offset="1" stop-color="#FFC2A6"/>
</linearGradient>
<linearGradient id="paint5_linear_337_12710" x1="1948.44" y1="329.961" x2="1745.35" y2="461.708" gradientUnits="userSpaceOnUse">
<stop offset="0.280897" stop-color="#0099CC"/>
<stop offset="1" stop-color="#007FA9"/>
</linearGradient>
<clipPath id="clip0_337_12710">
<rect width="1981" height="1080" fill="white"/>
</clipPath>
</defs>
</svg>
