<svg width="1920" height="1031" viewBox="0 0 1920 1031" fill="none" xmlns="http://www.w3.org/2000/svg">
<g clip-path="url(#clip0_333_7469)">
<mask id="mask0_333_7469" style="mask-type:alpha" maskUnits="userSpaceOnUse" x="0" y="0" width="1920" height="1031">
<path d="M1920 0H0L0 1018.51L4.1553 1017.85C7.64898 1017.3 11.2272 1017.73 14.4872 1019.11L19 1021C19 1021 37 1022 37 1022.75C40.5408 1024.13 45.5142 1025.24 53 1025C74.5 1024.33 76.6427 1028.36 94 1025C97.7701 1027.09 102.063 1027.2 108 1028.69C111.705 1029.62 117.269 1027.95 120 1028.69C122.089 1029.26 133.721 1026.38 136 1027.35C139.21 1028.72 146.114 1028.36 149 1028.69C155.068 1029.38 163.723 1028.57 169 1031C173 1031 182.424 1026.44 188 1027.35C194.273 1028.38 197.007 1025.57 204 1026.37C220.83 1028.3 223.5 1021.8 237 1021.8C250 1018.48 256.259 1021.9 259.907 1021.74C261.365 1021.68 262.785 1021.62 264.095 1021.66C279.001 1022.07 286.247 1017.94 302.5 1014.76C311.934 1015.63 322.611 1017.86 331.993 1018.48C337.762 1018.87 361.13 1019.29 370.5 1014.76C390.607 1016.22 392.888 1017.67 413.256 1017.67C415.322 1017.67 417.388 1017.67 419.452 1017.66C438.13 1017.64 456.735 1017.62 475.348 1019.29C485.616 1020.2 496.081 1020.87 506.591 1021.54C527.284 1022.85 538.616 1015.2 558.5 1018.48C564.282 1019.44 579.553 1020.7 585.292 1021.9C593.872 1023.68 604.231 1020.9 613 1021.9C623.383 1023.08 631.62 1016.13 641.717 1017.98C645.482 1018.67 649.26 1014.37 653.075 1015.03C677.157 1019.21 713.227 1019.74 747.875 1020.25C774.667 1020.64 800.608 1021.03 819.5 1023.07C822.594 1023.41 875.898 1026.88 879 1027.21C922.36 1031.94 916.222 1028.62 959.994 1027.33C974.841 1026.89 989.613 1022.55 1004.39 1021.22C1022.45 1019.58 1054.05 1024.29 1074.56 1028C1078.56 1028.72 1107.08 1025 1112.08 1024.29C1117.08 1023.59 1153.1 1027 1155.1 1028C1157.1 1029 1188.25 1020.09 1215.38 1014.2C1228.38 1011.38 1241.33 1017.44 1254.27 1014.51C1297.36 1004.76 1340.34 1017.28 1384.78 1011.67L1386.7 1011.43C1398.63 1009.92 1411.68 1007.05 1425.1 1004.09C1451.5 1006.28 1479.34 1000.14 1502.99 1003.48C1512.04 1004.75 1522.52 1005.74 1533.5 1006.76C1559.84 1009.23 1589.02 1001.95 1607.99 1009.68C1619.02 1014.17 1635.34 1007.48 1656 1006.76C1663.97 1006.49 1674.92 1001.55 1682.99 1001.55C1716.19 1001.55 1740.83 1005.85 1756.73 1002.3C1764.31 1000.61 1769.9 1001.36 1773.49 1001.36C1823.5 1001.55 1818.5 1007.6 1844 992.512C1849.01 989.549 1856.58 991.736 1862 989.076C1872.5 989.076 1869 989.076 1880 989.076C1887.91 989.076 1882.5 990.731 1893 989.076C1896.27 986.405 1899 988.02 1899 988.02C1901.5 988.02 1908.5 989.076 1909.55 989.076C1911.94 985.008 1918.97 990.844 1920 986.28L1920 0Z" fill="white"/>
<path d="M1920 0H0L0 1018.51L4.1553 1017.85C7.64898 1017.3 11.2272 1017.73 14.4872 1019.11L19 1021C19 1021 37 1022 37 1022.75C40.5408 1024.13 45.5142 1025.24 53 1025C74.5 1024.33 76.6427 1028.36 94 1025C97.7701 1027.09 102.063 1027.2 108 1028.69C111.705 1029.62 117.269 1027.95 120 1028.69C122.089 1029.26 133.721 1026.38 136 1027.35C139.21 1028.72 146.114 1028.36 149 1028.69C155.068 1029.38 163.723 1028.57 169 1031C173 1031 182.424 1026.44 188 1027.35C194.273 1028.38 197.007 1025.57 204 1026.37C220.83 1028.3 223.5 1021.8 237 1021.8C250 1018.48 256.259 1021.9 259.907 1021.74C261.365 1021.68 262.785 1021.62 264.095 1021.66C279.001 1022.07 286.247 1017.94 302.5 1014.76C311.934 1015.63 322.611 1017.86 331.993 1018.48C337.762 1018.87 361.13 1019.29 370.5 1014.76C390.607 1016.22 392.888 1017.67 413.256 1017.67C415.322 1017.67 417.388 1017.67 419.452 1017.66C438.13 1017.64 456.735 1017.62 475.348 1019.29C485.616 1020.2 496.081 1020.87 506.591 1021.54C527.284 1022.85 538.616 1015.2 558.5 1018.48C564.282 1019.44 579.553 1020.7 585.292 1021.9C593.872 1023.68 604.231 1020.9 613 1021.9C623.383 1023.08 631.62 1016.13 641.717 1017.98C645.482 1018.67 649.26 1014.37 653.075 1015.03C677.157 1019.21 713.227 1019.74 747.875 1020.25C774.667 1020.64 800.608 1021.03 819.5 1023.07C822.594 1023.41 875.898 1026.88 879 1027.21C922.36 1031.94 916.222 1028.62 959.994 1027.33C974.841 1026.89 989.613 1022.55 1004.39 1021.22C1022.45 1019.58 1054.05 1024.29 1074.56 1028C1078.56 1028.72 1107.08 1025 1112.08 1024.29C1117.08 1023.59 1153.1 1027 1155.1 1028C1157.1 1029 1188.25 1020.09 1215.38 1014.2C1228.38 1011.38 1241.33 1017.44 1254.27 1014.51C1297.36 1004.76 1340.34 1017.28 1384.78 1011.67L1386.7 1011.43C1398.63 1009.92 1411.68 1007.05 1425.1 1004.09C1451.5 1006.28 1479.34 1000.14 1502.99 1003.48C1512.04 1004.75 1522.52 1005.74 1533.5 1006.76C1559.84 1009.23 1589.02 1001.95 1607.99 1009.68C1619.02 1014.17 1635.34 1007.48 1656 1006.76C1663.97 1006.49 1674.92 1001.55 1682.99 1001.55C1716.19 1001.55 1740.83 1005.85 1756.73 1002.3C1764.31 1000.61 1769.9 1001.36 1773.49 1001.36C1823.5 1001.55 1818.5 1007.6 1844 992.512C1849.01 989.549 1856.58 991.736 1862 989.076C1872.5 989.076 1869 989.076 1880 989.076C1887.91 989.076 1882.5 990.731 1893 989.076C1896.27 986.405 1899 988.02 1899 988.02C1901.5 988.02 1908.5 989.076 1909.55 989.076C1911.94 985.008 1918.97 990.844 1920 986.28L1920 0Z" fill="#FFF1DD"/>
</mask>
<g mask="url(#mask0_333_7469)">
<path d="M1920 0H0V1050.51L4.1553 1049.85C7.64898 1049.3 11.2272 1049.73 14.4872 1051.11L19 1053C19 1053 37 1054 37 1054.75C40.5408 1056.13 45.5142 1057.24 53 1057C74.5 1056.33 76.6427 1060.36 94 1057C97.7701 1059.09 102.063 1059.2 108 1060.69C111.705 1061.62 117.269 1059.95 120 1060.69C122.089 1061.26 133.721 1058.38 136 1059.35C139.21 1060.72 146.114 1060.36 149 1060.69C155.068 1061.38 163.723 1060.57 169 1063C173 1063 182.424 1058.44 188 1059.35C194.273 1060.38 197.007 1057.57 204 1058.37C220.83 1060.3 223.5 1053.8 237 1053.8C250 1050.48 256.259 1053.9 259.907 1053.74C261.365 1053.68 262.785 1053.62 264.095 1053.66C279.001 1054.07 286.247 1049.94 302.5 1046.76C311.934 1047.63 322.611 1049.86 331.993 1050.48C337.762 1050.87 361.13 1051.29 370.5 1046.76C390.607 1048.22 392.888 1049.67 413.256 1049.67C415.322 1049.67 417.388 1049.67 419.452 1049.66C438.13 1049.64 456.735 1049.62 475.348 1051.29C485.616 1052.2 496.081 1052.87 506.591 1053.54C527.284 1054.85 538.616 1047.2 558.5 1050.48C564.282 1051.44 579.553 1052.7 585.292 1053.9C593.872 1055.68 604.231 1052.9 613 1053.9C623.383 1055.08 631.62 1048.13 641.717 1049.98C645.482 1050.67 649.26 1046.37 653.075 1047.03C677.157 1051.21 713.227 1051.74 747.875 1052.25C774.667 1052.64 800.608 1053.03 819.5 1055.07C822.594 1055.41 875.898 1058.88 879 1059.21C922.36 1063.94 916.222 1060.62 959.994 1059.33C974.841 1058.89 989.613 1054.55 1004.39 1053.22C1022.45 1051.58 1054.05 1056.29 1074.56 1060C1078.56 1060.72 1107.08 1057 1112.08 1056.29C1117.08 1055.59 1153.1 1059 1155.1 1060C1157.1 1061 1188.25 1052.09 1215.38 1046.2C1228.38 1043.38 1241.33 1049.44 1254.27 1046.51C1297.36 1036.76 1340.34 1049.28 1384.78 1043.67L1386.7 1043.43C1398.63 1041.92 1411.68 1039.05 1425.1 1036.09C1451.5 1038.28 1479.34 1032.14 1502.99 1035.48C1512.04 1036.75 1522.52 1037.74 1533.5 1038.76C1559.84 1041.23 1589.02 1033.95 1607.99 1041.68C1619.02 1046.17 1635.34 1039.48 1656 1038.76C1663.97 1038.49 1674.92 1033.55 1682.99 1033.55C1716.19 1033.55 1740.83 1037.85 1756.73 1034.3C1764.31 1032.61 1769.9 1033.36 1773.49 1033.36C1823.5 1033.55 1818.5 1039.6 1844 1024.51C1849.01 1021.55 1856.58 1023.74 1862 1021.08C1872.5 1021.08 1869 1021.08 1880 1021.08C1887.91 1021.08 1882.5 1022.73 1893 1021.08C1896.27 1018.41 1899 1020.02 1899 1020.02C1901.5 1020.02 1908.5 1021.08 1909.55 1021.08C1911.94 1017.01 1918.97 1022.84 1920 1018.28L1920 0Z" fill="white"/>
<path d="M1920 0H0V1050.51L4.1553 1049.85C7.64898 1049.3 11.2272 1049.73 14.4872 1051.11L19 1053C19 1053 37 1054 37 1054.75C40.5408 1056.13 45.5142 1057.24 53 1057C74.5 1056.33 76.6427 1060.36 94 1057C97.7701 1059.09 102.063 1059.2 108 1060.69C111.705 1061.62 117.269 1059.95 120 1060.69C122.089 1061.26 133.721 1058.38 136 1059.35C139.21 1060.72 146.114 1060.36 149 1060.69C155.068 1061.38 163.723 1060.57 169 1063C173 1063 182.424 1058.44 188 1059.35C194.273 1060.38 197.007 1057.57 204 1058.37C220.83 1060.3 223.5 1053.8 237 1053.8C250 1050.48 256.259 1053.9 259.907 1053.74C261.365 1053.68 262.785 1053.62 264.095 1053.66C279.001 1054.07 286.247 1049.94 302.5 1046.76C311.934 1047.63 322.611 1049.86 331.993 1050.48C337.762 1050.87 361.13 1051.29 370.5 1046.76C390.607 1048.22 392.888 1049.67 413.256 1049.67C415.322 1049.67 417.388 1049.67 419.452 1049.66C438.13 1049.64 456.735 1049.62 475.348 1051.29C485.616 1052.2 496.081 1052.87 506.591 1053.54C527.284 1054.85 538.616 1047.2 558.5 1050.48C564.282 1051.44 579.553 1052.7 585.292 1053.9C593.872 1055.68 604.231 1052.9 613 1053.9C623.383 1055.08 631.62 1048.13 641.717 1049.98C645.482 1050.67 649.26 1046.37 653.075 1047.03C677.157 1051.21 713.227 1051.74 747.875 1052.25C774.667 1052.64 800.608 1053.03 819.5 1055.07C822.594 1055.41 875.898 1058.88 879 1059.21C922.36 1063.94 916.222 1060.62 959.994 1059.33C974.841 1058.89 989.613 1054.55 1004.39 1053.22C1022.45 1051.58 1054.05 1056.29 1074.56 1060C1078.56 1060.72 1107.08 1057 1112.08 1056.29C1117.08 1055.59 1153.1 1059 1155.1 1060C1157.1 1061 1188.25 1052.09 1215.38 1046.2C1228.38 1043.38 1241.33 1049.44 1254.27 1046.51C1297.36 1036.76 1340.34 1049.28 1384.78 1043.67L1386.7 1043.43C1398.63 1041.92 1411.68 1039.05 1425.1 1036.09C1451.5 1038.28 1479.34 1032.14 1502.99 1035.48C1512.04 1036.75 1522.52 1037.74 1533.5 1038.76C1559.84 1041.23 1589.02 1033.95 1607.99 1041.68C1619.02 1046.17 1635.34 1039.48 1656 1038.76C1663.97 1038.49 1674.92 1033.55 1682.99 1033.55C1716.19 1033.55 1740.83 1037.85 1756.73 1034.3C1764.31 1032.61 1769.9 1033.36 1773.49 1033.36C1823.5 1033.55 1818.5 1039.6 1844 1024.51C1849.01 1021.55 1856.58 1023.74 1862 1021.08C1872.5 1021.08 1869 1021.08 1880 1021.08C1887.91 1021.08 1882.5 1022.73 1893 1021.08C1896.27 1018.41 1899 1020.02 1899 1020.02C1901.5 1020.02 1908.5 1021.08 1909.55 1021.08C1911.94 1017.01 1918.97 1022.84 1920 1018.28L1920 0Z" fill="#FFF1DD"/>
<path d="M27 -171.999V2473" stroke="#82E6E5"/>
<path d="M75 -171.999V2473" stroke="#82E6E5"/>
<path d="M123 -171.999V2473" stroke="#82E6E5"/>
<path d="M171 -171.999V2473" stroke="#82E6E5"/>
<path d="M219 -171.999V2473" stroke="#82E6E5"/>
<path d="M267 -171.999V2473" stroke="#82E6E5"/>
<path d="M315 -171.999V2473" stroke="#82E6E5"/>
<path d="M363 -171.999V2473" stroke="#82E6E5"/>
<path d="M411 -171.999V2473" stroke="#82E6E5"/>
<path d="M459 -171.999V2473" stroke="#82E6E5"/>
<path d="M507 -171.999V2473" stroke="#82E6E5"/>
<path d="M555 -171.999V2473" stroke="#82E6E5"/>
<path d="M603 -171.999V2473" stroke="#82E6E5"/>
<path d="M651 -171.999V2473" stroke="#82E6E5"/>
<path d="M699 -171.999V2473" stroke="#82E6E5"/>
<path d="M747 -171.999V2473" stroke="#82E6E5"/>
<path d="M795 -171.999V2473" stroke="#82E6E5"/>
<path d="M843 -171.999V2473" stroke="#82E6E5"/>
<path d="M891 -171.999V2473" stroke="#82E6E5"/>
<path d="M939 -171.999V2473" stroke="#82E6E5"/>
<path d="M987 -171.999V2473" stroke="#82E6E5"/>
<path d="M1035 -171.999V2473" stroke="#82E6E5"/>
<path d="M1083 -171.999V2473" stroke="#82E6E5"/>
<path d="M1131 -171.999V2473" stroke="#82E6E5"/>
<path d="M1179 -171.999V2473" stroke="#82E6E5"/>
<path d="M1227 -171.999V2473" stroke="#82E6E5"/>
<path d="M1275 -171.999V2473" stroke="#82E6E5"/>
<path d="M1323 -171.999V2473" stroke="#82E6E5"/>
<path d="M1371 -171.999V2473" stroke="#82E6E5"/>
<path d="M1419 -171.999V2473" stroke="#82E6E5"/>
<path d="M1467 -171.999V2473" stroke="#82E6E5"/>
<path d="M1515 -171.999V2473" stroke="#82E6E5"/>
<path d="M1563 -171.999V2473" stroke="#82E6E5"/>
<path d="M1611 -171.999V2473" stroke="#82E6E5"/>
<path d="M1659 -171.999V2473" stroke="#82E6E5"/>
<path d="M1707 -171.999V2473" stroke="#82E6E5"/>
<path d="M1755 -171.999V2473" stroke="#82E6E5"/>
<path d="M1803 -171.999V2473" stroke="#82E6E5"/>
<path d="M1851 -171.999V2473" stroke="#82E6E5"/>
<path d="M1899 -171.999V2473" stroke="#82E6E5"/>
<path d="M2382 22.001L-263 22.0009" stroke="#82E6E5"/>
<path d="M2382 70.001L-263 70.0009" stroke="#82E6E5"/>
<path d="M2382 118.001L-263 118.001" stroke="#82E6E5"/>
<path d="M2382 166.001L-263 166.001" stroke="#82E6E5"/>
<path d="M2382 214.001L-263 214.001" stroke="#82E6E5"/>
<path d="M2382 262.001L-263 262.001" stroke="#82E6E5"/>
<path d="M2382 310.001L-263 310.001" stroke="#82E6E5"/>
<path d="M2382 358.001L-263 358.001" stroke="#82E6E5"/>
<path d="M2382 406.001L-263 406.001" stroke="#82E6E5"/>
<path d="M2382 454.001L-263 454.001" stroke="#82E6E5"/>
<path d="M2382 502.001L-263 502.001" stroke="#82E6E5"/>
<path d="M2382 550.001L-263 550.001" stroke="#82E6E5"/>
<path d="M2382 598.001L-263 598.001" stroke="#82E6E5"/>
<path d="M2382 646.001L-263 646.001" stroke="#82E6E5"/>
<path d="M2382 694.001L-263 694.001" stroke="#82E6E5"/>
<path d="M2382 742.001L-263 742.001" stroke="#82E6E5"/>
<path d="M2382 790.001L-263 790.001" stroke="#82E6E5"/>
<path d="M2382 838.001L-263 838.001" stroke="#82E6E5"/>
<path d="M2382 886.001L-263 886.001" stroke="#82E6E5"/>
<path d="M2382 934.001L-263 934.001" stroke="#82E6E5"/>
<path d="M2382 982.001L-263 982.001" stroke="#82E6E5"/>
<path d="M2382 1030L-263 1030" stroke="#82E6E5"/>
</g>
<path fill-rule="evenodd" clip-rule="evenodd" d="M1387.98 102.963C1387.76 152.619 1352.21 179.365 1308.16 158.519C1266.39 138.656 1253.85 171.695 1217.76 171.99C1179.27 172.285 1173.6 122.039 1144.92 139.934C1089.63 174.547 1042.2 139.443 1064.66 87.6232C1082.87 45.7347 1110.24 38.1634 1132.81 39.54C1173.6 42.0965 1167.49 6.59956 1215.03 8.56615C1275.66 11.1227 1253.53 64.319 1308.7 56.846C1342.94 52.2245 1388.09 76.7086 1387.98 102.963Z" fill="#F4F4F4"/>
<path d="M1266.55 968.731C1260.38 966.067 1259.59 960.663 1257 955.556C1256.81 955.223 1255.79 947.858 1255.79 947.266C1255.76 944.712 1248.31 937.977 1244.85 943.269C1238.01 953.669 1230.53 937.422 1230.91 941.752C1232.07 954.705 1226.06 975.541 1230.94 976.984C1241.36 979.982 1290.04 983.498 1290.98 978.465C1291.55 975.467 1277.22 973.32 1266.55 968.731Z" fill="#333843"/>
<path d="M1143.55 966.731C1137.38 964.067 1136.59 958.663 1134 953.556C1133.81 953.223 1132.8 945.858 1132.8 945.266C1132.76 942.712 1125.31 935.977 1121.85 941.269C1115.01 951.669 1107.53 935.422 1107.91 939.752C1109.07 952.705 1103.06 973.541 1107.94 974.984C1118.36 977.982 1167.05 981.498 1167.99 976.465C1168.51 973.467 1154.19 971.32 1143.55 966.731Z" fill="#333843"/>
<path d="M1165.94 573.914C1176.01 551.641 1252.66 522.775 1272.87 518C1274.35 540.427 1284.7 554.383 1296.93 578.566C1314.02 612.361 1267.2 952.62 1267.2 952.62C1267.2 952.62 1261.5 956.101 1248.04 956.07C1230.26 956.07 1225.24 952.62 1225.24 952.62L1236 645C1236 645 1234.98 648.952 1233.5 656C1228.37 680.455 1214.78 742.181 1193.36 805.364C1180.79 842.486 1139.57 952.62 1139.57 952.62C1139.57 952.62 1132.14 956.07 1121.64 956.07C1110.61 956.07 1103 952.62 1103 952.62L1133.68 782.968C1133.71 782.968 1160.02 587.038 1165.94 573.914Z" fill="url(#paint0_linear_333_7469)"/>
<path fill-rule="evenodd" clip-rule="evenodd" d="M1151.28 465.806C1153.33 480.829 1155.96 499.99 1155.66 524.92C1154.92 587.734 1158.22 631.541 1158.22 631.541C1158.22 631.541 1158.23 631.546 1158.25 631.554L1158.22 631.572C1158.22 631.572 1166.13 636.07 1208.03 633.852C1247.31 631.788 1279.07 629.785 1300.36 617.031C1300.36 614.948 1300.34 612.647 1300.31 610.278C1300.34 610.262 1300.36 610.254 1300.36 610.254C1300.36 610.254 1300.31 608.702 1300.22 605.869C1300.14 602.648 1300.03 599.471 1299.89 596.703C1298.19 553.184 1291.57 419.079 1273.9 406.684C1260.71 397.442 1220.42 391.404 1205.6 393.468C1187.61 395.963 1156.12 410.627 1150.11 432.13C1147.8 440.423 1149.27 451.143 1151.28 465.806Z" fill="url(#paint1_linear_333_7469)"/>
<path d="M1231.62 433.092C1273.12 469.242 1326.41 500.55 1368.49 503.631C1396.55 505.685 1469.49 476.396 1468.11 467.201C1467.05 460.157 1460.33 443.143 1460.33 443.143C1460.33 443.143 1380.08 456.865 1357.14 453.429C1322 448.146 1265.47 382.03 1221.09 398.088C1198.46 406.319 1225.5 427.77 1231.62 433.092Z" fill="url(#paint2_linear_333_7469)"/>
<path d="M1459.87 458.282C1459.87 458.282 1461.12 463.678 1461.76 463.785C1462.41 463.892 1484.44 460.683 1489.02 460.318C1493.63 459.979 1493.95 441.083 1491.93 440.594C1474 441.37 1459.87 458.282 1459.87 458.282Z" fill="#FFC6AC"/>
<path d="M1460.02 448.103C1460.02 448.103 1464.97 446.453 1467.65 444.16C1470.33 441.866 1475.93 436.989 1479.79 436.461C1480.9 436.313 1483.37 437.275 1485.38 437.388C1490.39 437.669 1495.8 438.038 1494.27 441.824C1493.55 443.626 1485.23 443.215 1483.03 444.903C1480.82 446.591 1473.53 453.815 1471.02 455.915C1468.51 458.015 1460.82 459.763 1459.93 458.579C1459.13 457.408 1460.02 448.103 1460.02 448.103Z" fill="#FFC6AC"/>
<path opacity="0.08" d="M1231.18 663.531C1231.69 663.466 1232.11 663.07 1232.17 662.534C1233.12 656.028 1235.33 644.983 1237.25 643.103C1239.41 640.983 1242.2 640.605 1244.49 640.316C1245.13 640.234 1245.58 639.65 1245.5 639C1245.42 638.351 1244.84 637.897 1244.19 637.978C1243.27 638.095 1238.74 638.376 1235.63 641.409C1232.52 644.442 1230.12 660.366 1229.88 662.191C1229.78 662.837 1230.22 663.441 1230.86 663.519C1230.97 663.557 1231.07 663.544 1231.18 663.531Z" fill="black"/>
<path d="M1110.31 946.479C1110.28 946.479 1110.25 946.479 1110.19 946.479C1109.91 946.417 1109.73 946.14 1109.79 945.832C1109.97 945 1127.38 862.223 1128.4 851.009C1128.98 844.724 1133.33 820.757 1137.52 797.59C1140.84 779.26 1143.98 761.916 1144.6 756.833C1144.94 753.937 1145.77 747.776 1146.82 739.982C1149.75 717.986 1154.64 681.172 1154.8 673.717C1154.98 663.705 1160.77 636.718 1160.84 636.441C1160.9 636.163 1161.17 635.979 1161.48 636.04C1161.76 636.102 1161.94 636.379 1161.88 636.687C1161.82 636.964 1156.03 663.859 1155.88 673.748C1155.75 681.295 1151.01 716.692 1147.9 740.136C1146.85 747.93 1146.05 754.091 1145.68 756.987C1145.06 762.101 1141.92 779.445 1138.59 797.806C1134.59 819.863 1130.06 844.878 1129.47 851.132C1128.46 862.407 1111.02 945.246 1110.84 946.078C1110.81 946.325 1110.56 946.479 1110.31 946.479Z" fill="#008CBA" stroke="#008CBA" stroke-width="2"/>
<path opacity="0.08" d="M1229.32 946.478H1229.29C1228.98 946.447 1228.76 946.2 1228.79 945.892C1229.75 933.354 1231.47 909.109 1231.23 906.983C1230.86 903.78 1234.4 844.046 1235.32 837.515C1236.03 832.647 1236.4 801.532 1236.68 778.797C1236.8 767.645 1236.93 758.834 1237.05 755.476C1237.14 752.919 1237.36 747.652 1237.6 740.997C1238.41 720.788 1239.76 686.993 1239.61 678.953C1239.39 668.355 1239.98 652.397 1239.98 652.243C1239.98 651.935 1240.22 651.72 1240.53 651.72C1240.84 651.72 1241.05 651.966 1241.05 652.274C1241.05 652.428 1240.47 668.386 1240.69 678.922C1240.84 686.993 1239.51 720.819 1238.68 741.028C1238.41 747.682 1238.22 752.95 1238.13 755.507C1238.01 758.865 1237.91 768.107 1237.76 778.797C1237.48 801.563 1237.08 832.709 1236.37 837.669C1235.26 845.524 1232 904.396 1232.28 906.86C1232.58 909.633 1229.93 944.506 1229.84 945.985C1229.84 946.262 1229.59 946.478 1229.32 946.478Z" fill="black" stroke="black" stroke-width="2"/>
<rect x="1057.11" y="784.549" width="202.81" height="82.7466" fill="#686C75"/>
<rect x="1057.11" y="784.549" width="202.81" height="16.2248" fill="#434A59"/>
<rect x="1049" y="722.895" width="219.034" height="61.6543" fill="#686C75"/>
<rect x="1081.45" y="769.946" width="16.2248" height="25.9597" fill="#333843"/>
<path fill-rule="evenodd" clip-rule="evenodd" d="M1107.41 683.955H1211.25V722.895H1195.02V700.18H1123.63V722.895H1107.41V683.955Z" fill="#333843"/>
<rect x="1219.36" y="769.946" width="16.2248" height="25.9597" fill="#333843"/>
<path d="M1180.67 409.395C1200.45 431.144 1169.43 470.145 1162.78 537.704C1157.6 590.353 1165.67 647.592 1169.03 667.955C1169.74 672.206 1166.63 676.18 1162.31 676.488C1153.6 677.166 1140.66 677.382 1138.5 673.1C1126.36 649.101 1108.62 579.016 1112.07 523.102C1114.59 482.098 1131.04 447.749 1145.31 428.341C1155.84 414.047 1173.71 401.786 1180.67 409.395Z" fill="url(#paint3_linear_333_7469)"/>
<path d="M1170.94 673.839C1170.97 672.853 1169.59 667.092 1169.31 665.86C1167.09 656.095 1154.95 656.926 1149.16 658.651C1136.47 662.41 1144.82 675.164 1148.15 678.891C1149.78 681.602 1156.96 683.42 1160.22 683.512C1165.74 683.636 1172.21 679.169 1170.94 673.839Z" fill="white"/>
<path d="M1174.71 689.546C1174.71 692.18 1173.83 695.175 1171.41 696.204C1170.52 696.58 1169.37 696.785 1167.55 696.785C1163.16 696.785 1151.84 700.669 1150.18 687.957C1148.52 675.245 1148 675.352 1155.15 672.106C1162.3 668.86 1167.55 671.869 1167.55 671.869C1168.46 673.095 1169.56 674.749 1170.54 676.453C1171.64 678.366 1172.86 681.844 1172.86 681.844C1172.86 681.844 1174.71 686.722 1174.71 689.546V689.546Z" fill="#FFB492"/>
<path d="M1211.02 394.423C1211.02 394.423 1208.15 394.423 1205.56 397.997C1202.98 401.57 1213.42 452.894 1219.34 471.162C1225.28 489.461 1241.67 547.193 1241.67 547.193C1241.67 547.193 1249.86 440.14 1244.04 407.054C1242.63 399.013 1234.71 390.203 1211.02 394.423Z" fill="white"/>
<path d="M1164.35 633.791C1163.79 633.791 1163.33 633.359 1163.27 632.805C1163.24 632.589 1161.3 610.223 1160.31 591.339C1159.33 572.855 1160.1 525.505 1168.72 497.071C1177.16 469.314 1183.75 441.187 1183.85 440.91C1183.97 440.325 1184.56 439.955 1185.14 440.109C1185.73 440.232 1186.1 440.818 1185.94 441.403C1185.88 441.68 1179.26 469.899 1170.79 497.718C1162.22 525.875 1161.48 572.886 1162.44 591.247C1163.45 610.1 1165.39 632.435 1165.39 632.651C1165.46 633.236 1164.99 633.76 1164.41 633.821C1164.41 633.791 1164.38 633.791 1164.35 633.791Z" fill="#008CBA"/>
<path d="M1245.31 483.3L1234.4 412.845C1234.4 412.845 1236.1 409.025 1235.14 407.084C1234.19 405.143 1229.81 401.446 1226.52 404.866C1224.58 406.899 1224.73 408.809 1224.73 408.809C1224.73 408.809 1225.31 412.383 1227.35 412.968C1227.35 412.968 1229.32 475.783 1230.43 508.099C1236.19 527.908 1241.67 547.223 1241.67 547.223C1241.67 547.223 1244.01 516.725 1245.31 483.3Z" fill="#004F74"/>
<path d="M1240.21 355.382C1240.21 355.382 1244.52 343.989 1235.55 340.881C1233.22 328.625 1221.65 335.573 1216.82 342.996C1211.77 346.708 1207.88 347.269 1209.14 357.756C1210.09 365.697 1214.7 373.422 1214.7 373.422C1214.7 373.422 1236.67 366.517 1240.21 355.382Z" fill="#383838"/>
<path d="M1216 361.812L1210.74 398.28C1211.08 401.992 1226.14 408.983 1231.49 403.632C1232.1 403.071 1230.93 397.633 1230.67 391.591C1230.24 381.492 1230.24 368.89 1230.24 368.89L1216 361.812Z" fill="url(#paint4_linear_333_7469)"/>
<path d="M1225.28 383.65C1219.45 381.881 1219.1 374.501 1219.1 374.501L1230.33 377.738C1230.37 379.982 1230.41 382.528 1230.46 385.074C1229.16 384.772 1227.43 384.298 1225.28 383.65Z" fill="#FF9869"/>
<path d="M1216.86 354.605C1216.86 354.605 1216.26 375.018 1219.93 377.219C1224.28 379.809 1230.5 380.499 1236.15 378.514C1240.34 377.047 1242.63 373.465 1242.41 367.682C1242.11 360.172 1239.69 353.353 1238.18 349.728C1236.58 345.887 1233.95 343.427 1230.84 343.298C1230.07 346.578 1223.9 351.713 1216.86 354.605Z" fill="url(#paint5_linear_333_7469)"/>
<path d="M1219.32 363.106C1218.68 362.329 1217.55 359.999 1217.12 359.093C1216.26 357.366 1214.75 354.259 1212.76 357.021C1209.91 361.035 1214.79 367.81 1217.64 367.249C1219.06 366.99 1220.92 365.048 1219.32 363.106Z" fill="#FFC2A6"/>
<path d="M1229.03 354.432C1229.16 354.389 1229.64 354.259 1229.94 354.734C1230.16 355.122 1230.33 355.597 1230.29 356.072C1230.24 356.59 1229.73 356.978 1229.21 356.805C1228.52 356.633 1228.04 354.691 1229.03 354.432Z" fill="#383838"/>
<path d="M1238.05 353.827C1238.18 353.784 1238.66 353.655 1238.96 354.129C1239.18 354.518 1239.35 354.993 1239.31 355.467C1239.26 355.985 1238.74 356.374 1238.23 356.201C1237.54 355.985 1237.06 354.086 1238.05 353.827Z" fill="#383838"/>
<path d="M1229.59 350.978C1228.95 350.676 1227.82 350.849 1227.22 351.194C1226.57 351.539 1225.88 352.186 1225.62 352.92C1225.58 353.006 1225.54 353.093 1225.54 353.179C1225.49 353.352 1225.58 353.438 1225.71 353.524C1225.88 353.654 1226.1 353.697 1226.31 353.524C1227.22 352.834 1228.43 352.273 1229.51 351.971C1230.07 351.755 1230.02 351.021 1229.59 350.978Z" fill="#383838"/>
<path d="M1239.56 351.022C1239.52 351.022 1239.48 350.979 1239.43 350.979C1239.09 350.936 1238.7 350.85 1238.27 350.807C1238.23 350.807 1238.23 350.807 1238.18 350.807C1238.18 350.807 1238.18 350.807 1238.14 350.807C1237.54 350.72 1236.97 350.807 1236.72 351.411C1236.67 351.497 1236.67 351.584 1236.72 351.627C1236.67 351.929 1236.89 352.231 1237.23 352.188C1238.01 352.101 1238.79 352.015 1239.61 352.015C1240.21 351.972 1240.12 351.066 1239.56 351.022Z" fill="#383838"/>
<path d="M1240.04 362.201C1240.04 362.201 1233.3 363.798 1229.64 363.927C1229.64 363.927 1231.88 368.071 1236.11 367.941C1240.34 367.768 1240.04 362.201 1240.04 362.201Z" fill="white"/>
<path d="M1236.11 362.46C1236.2 362.46 1236.29 362.46 1236.37 362.416C1238.49 361.596 1238.75 359.741 1238.75 359.654C1238.79 359.309 1238.53 358.964 1238.19 358.921C1237.84 358.878 1237.5 359.137 1237.45 359.482C1237.45 359.525 1237.24 360.647 1235.9 361.165C1235.55 361.294 1235.38 361.683 1235.51 362.028C1235.6 362.33 1235.86 362.46 1236.11 362.46Z" fill="#FF9869"/>
<path d="M1210.93 388.108L1228.82 401.448L1231.69 390.511C1231.69 390.511 1235.97 395.379 1237.2 397.104C1239.17 399.815 1241.18 409.704 1241.18 409.704L1230.36 406.007L1221.21 414.818C1221.21 414.818 1209.2 398.767 1208.43 397.35C1207.66 395.902 1210.93 388.108 1210.93 388.108Z" fill="white"/>
<path d="M1246.14 617.215C1245.55 617.215 1245.09 616.753 1245.06 616.168C1244.29 586.44 1240.62 547.685 1240.59 547.315C1240.53 546.73 1240.96 546.206 1241.58 546.145C1242.16 546.083 1242.69 546.514 1242.75 547.13C1242.78 547.531 1246.45 586.347 1247.22 616.137C1247.25 616.723 1246.76 617.215 1246.14 617.215Z" fill="black" fill-opacity="0.12"/>
<path d="M1664.24 452.403C1664.24 452.403 1656.44 531.569 1653.6 551.989C1650.27 575.92 1627.26 619.811 1636.3 629.844C1645.34 639.877 1666.93 626.405 1673.67 615.734C1680.4 605.062 1690.61 585.421 1691.78 556.173C1692.95 526.924 1691.89 444.497 1664.24 452.403Z" fill="#FF4C6A"/>
<path d="M1668.87 553.401C1668.84 553.401 1668.77 553.401 1668.73 553.401L1657.57 552.409C1656.61 552.338 1655.93 551.487 1656.01 550.565C1656.08 549.608 1656.93 548.934 1657.85 549.005L1669.02 549.998C1669.97 550.069 1670.65 550.92 1670.58 551.841C1670.51 552.728 1669.76 553.401 1668.87 553.401Z" fill="#B5375E"/>
<path d="M1775.3 570.895C1774.31 568.986 1683.6 617.993 1678.5 622.499C1678.5 622.499 1696.35 928.625 1697.24 947.642C1697.66 956.96 1714.4 953.752 1716.24 944.511C1737.71 835.41 1726.11 797.223 1726.11 797.223C1726.11 797.223 1732.88 712.936 1732 693.499C1733.24 700.602 1765.03 944.014 1765.81 947.871C1768.78 962.039 1781.55 958.296 1783.18 946.306C1783.85 941.379 1800.35 818.844 1792.5 716.999C1785.92 632.224 1780.47 580.862 1775.3 570.895Z" fill="#FFC5A9"/>
<path d="M1794.49 626.833C1790.16 600.917 1780.55 567.84 1778.11 550.574C1746.56 555.679 1698.69 553.765 1682.88 552.914C1675.05 582.411 1664.73 626.337 1664.23 654.238C1663.99 668.632 1675.01 823.631 1675.01 823.631C1675.01 823.631 1704.47 832.743 1743.86 834.87C1783.25 836.997 1813.35 825.581 1813.35 825.581C1813.35 825.581 1801.93 671.22 1794.49 626.833Z" fill="url(#paint6_linear_333_7469)"/>
<path d="M1798.04 652.995C1796.8 642.43 1795.63 633.426 1794.53 626.831C1793.92 623.215 1793.21 619.457 1792.43 615.593L1673.7 636.545C1673.7 636.545 1681.57 647.288 1719.33 651.613C1749.18 655.087 1781.62 656.115 1798.04 652.995Z" fill="#018280"/>
<path d="M1797.54 631.616C1791.08 555.57 1755.35 473.249 1744.43 451.871C1738.72 440.703 1716.92 419.148 1694.3 425.742C1669.77 432.868 1660.3 444.851 1655.8 461.301C1651.58 476.9 1657.36 609.494 1664.23 636.119C1664.87 638.529 1760.28 658.383 1797.54 631.616Z" fill="url(#paint7_linear_333_7469)"/>
<path d="M1668.49 388.271C1668.95 386.108 1669.83 381.358 1674.9 378.486C1679.97 375.579 1687.42 377.352 1692.42 380.507C1697.42 383.662 1701.85 405.253 1692.06 408.727C1682.31 412.202 1666.68 396.638 1668.49 388.271Z" fill="#BABABA"/>
<path d="M1689.44 403.371L1699.33 422.338C1701.04 425.777 1696.71 438.824 1689.09 437.087C1686.86 436.59 1686.68 430.812 1686.47 426.486L1683.38 409.894L1689.44 403.371Z" fill="#FFC5A9"/>
<path d="M1686.15 392.843C1686.15 392.843 1687.67 396.176 1689.05 400.289C1691.11 406.315 1688.13 410.57 1682.39 413.441C1676.79 416.242 1674.34 415.675 1671.65 412.094C1670.97 411.208 1670.16 409.825 1669.66 408.443C1668.88 406.138 1668.38 401.955 1669.13 398.87C1669.48 397.452 1669.34 395.431 1669.45 394.368C1670.09 388.057 1673.45 386.462 1678.63 389.653C1679.76 390.362 1680.08 391.213 1686.15 392.843Z" fill="#FFC5A9"/>
<path d="M1688.06 407.165C1688.88 407.909 1689.98 416.56 1685.4 420.282L1684.13 414.752C1683.95 413.901 1683.24 413.014 1682.46 413.404C1677.89 415.673 1675.41 415.744 1673.17 413.723C1674.48 413.83 1677.39 413.83 1680.05 412.624C1683.6 411.029 1687.18 406.385 1688.06 407.165Z" fill="#FF9869"/>
<path d="M1679.2 403.299C1676.5 404.646 1673.06 405.284 1671.61 405.142C1671.11 405.107 1670.72 405.603 1670.9 406.029C1673.81 414.254 1679.73 407.943 1680.01 404.043C1680.08 403.476 1679.73 403.051 1679.2 403.299Z" fill="white"/>
<path d="M1678.8 392.735C1677.53 392.168 1676.39 391.778 1675.08 392.77C1674.73 393.054 1674.87 393.692 1675.4 393.621C1676.89 393.408 1677.38 393.302 1678.73 393.621C1679.33 393.798 1679.55 393.054 1678.8 392.735Z" fill="#E7F2F2"/>
<path d="M1669.05 394.72C1669.44 394.117 1670.19 393.94 1670.86 393.834C1671.32 393.763 1671.78 394.153 1671.36 394.472C1670.08 395.358 1670.01 395.145 1669.48 395.677C1669.09 396.032 1668.63 395.394 1669.05 394.72Z" fill="#E7F2F2"/>
<path d="M1686.47 376.074C1686.47 376.074 1688.17 371.395 1691.29 371.04C1694.41 370.685 1698.8 372.706 1697.63 376.358C1696.43 380.01 1690.69 382.42 1689.13 382.491C1687.53 382.562 1684.48 379.442 1686.47 376.074Z" fill="#BABABA"/>
<path d="M1674.27 402.733C1674.34 402.804 1674.13 403.017 1673.77 403.088C1673.42 403.194 1672.85 403.194 1672.28 402.946C1672.28 402.946 1672.25 402.946 1672.25 402.91C1671.89 402.733 1671.61 402.485 1671.43 402.237C1671.15 401.882 1671.04 401.528 1671.04 401.315C1671.04 401.209 1671.08 401.138 1671.11 401.138C1671.15 401.138 1671.15 401.138 1671.18 401.138C1671.29 401.209 1671.47 401.421 1671.75 401.634C1671.96 401.811 1672.18 401.989 1672.46 402.13C1672.5 402.166 1672.53 402.166 1672.57 402.166C1672.99 402.379 1673.42 402.449 1673.77 402.52C1674.06 402.627 1674.23 402.627 1674.27 402.733Z" fill="#FF9869"/>
<path d="M1675.19 396.671C1675.3 397.132 1675.65 397.451 1675.93 397.381C1676.25 397.31 1676.39 396.884 1676.29 396.388C1676.18 395.927 1675.83 395.608 1675.54 395.679C1675.22 395.785 1675.08 396.211 1675.19 396.671Z" fill="#434A59"/>
<path d="M1668.52 398.305C1668.63 398.766 1668.98 399.085 1669.26 399.014C1669.58 398.943 1669.73 398.518 1669.62 398.022C1669.51 397.561 1669.16 397.242 1668.87 397.313C1668.56 397.419 1668.38 397.844 1668.52 398.305Z" fill="#434A59"/>
<path d="M1681.11 432.373C1681.11 432.373 1680.69 423.545 1678.77 421.524C1676.86 419.503 1676.15 419.042 1680.33 417.801C1684.48 416.561 1694.83 412.59 1696.71 411.314C1698.59 410.037 1699.76 411.633 1699.83 412.448C1699.9 413.264 1705.04 425.601 1705.54 426.665C1706.04 427.728 1700.19 437.194 1692.71 439.889C1685.23 442.618 1681.54 436.662 1681.11 432.373Z" fill="url(#paint8_linear_333_7469)"/>
<path d="M1674.37 397.277C1674.34 397.277 1674.27 397.277 1674.23 397.277C1673.03 396.71 1672.35 397.738 1672.32 397.809C1672.25 397.916 1672.1 397.951 1672 397.845C1671.89 397.738 1671.86 397.596 1671.93 397.455C1672.25 396.958 1673.17 396.214 1674.41 396.781C1674.52 396.852 1674.59 396.994 1674.55 397.136C1674.48 397.206 1674.44 397.277 1674.37 397.277Z" fill="#434A59"/>
<path d="M1678.24 400.682C1677.32 400.895 1676.36 400.682 1675.58 400.08C1674.8 399.477 1674.27 398.591 1674.06 397.527C1673.85 396.463 1673.99 395.471 1674.48 394.691C1674.94 393.911 1675.72 393.344 1676.65 393.131C1678.63 392.635 1680.44 393.84 1680.87 395.896C1681.26 397.952 1680.23 400.009 1678.53 400.611C1678.42 400.611 1678.31 400.647 1678.24 400.682ZM1675.05 395.01C1674.66 395.683 1674.56 396.499 1674.7 397.385C1674.87 398.272 1675.34 399.052 1675.97 399.548C1676.61 400.044 1677.36 400.221 1678.1 400.044C1679.62 399.69 1680.58 397.882 1680.23 396.073C1679.84 394.124 1678.21 393.45 1676.79 393.805C1676.68 393.84 1676.58 393.84 1676.5 393.875C1675.87 394.088 1675.37 394.478 1675.05 395.01Z" fill="#434A59"/>
<path d="M1670.16 401.675C1669.38 401.782 1668.6 401.498 1667.97 400.824C1667.36 400.186 1666.94 399.3 1666.8 398.307C1666.65 397.315 1666.8 396.428 1667.22 395.719C1667.65 395.01 1668.32 394.585 1669.1 394.443C1670.73 394.195 1672.11 395.471 1672.43 397.456C1672.72 399.442 1671.83 401.285 1670.38 401.64C1670.27 401.64 1670.23 401.64 1670.16 401.675ZM1667.79 396.003C1667.43 396.57 1667.33 397.35 1667.43 398.201C1667.58 399.052 1667.93 399.832 1668.46 400.399C1668.96 400.895 1669.53 401.143 1670.06 401.073C1671.23 400.895 1672.01 399.335 1671.72 397.598C1671.48 395.932 1670.41 394.939 1669.14 395.116C1669.06 395.116 1669.03 395.152 1668.96 395.152C1668.5 395.223 1668.07 395.542 1667.79 396.003Z" fill="#434A59"/>
<path d="M1679.97 394.76L1688.69 392.313L1688.51 392.952L1680.4 395.327L1679.97 394.76Z" fill="#434A59"/>
<path d="M1687.88 395.574C1687.95 394.794 1687.92 394.05 1687.81 393.27C1687.63 391.816 1687.7 389.618 1689.97 390.398C1693.31 391.533 1693.84 399.297 1690.33 400.325C1687.7 401.14 1687.7 397.489 1687.88 395.574Z" fill="#FFC5A9"/>
<path d="M1631.37 636.864C1631.37 636.864 1651.93 632.893 1658.49 631.759C1666.82 630.305 1673.31 640.055 1671.43 644.025C1669.55 647.996 1665.16 650.761 1663.88 649.131C1662.6 647.5 1662.53 640.622 1658.49 640.622C1656.43 640.622 1639.45 643.494 1636.62 646.117C1634.49 648.067 1628.39 647.571 1625.52 647.216C1624.6 647.11 1623.89 646.365 1623.82 645.444L1623.29 639.417C1623.18 638.318 1624 637.36 1625.09 637.289L1631.37 636.864Z" fill="#333843"/>
<path d="M1633.71 963.561L1633.36 641.721L1625.7 641.898L1626.05 963.702L1633.71 963.561Z" fill="#333843"/>
<path d="M1625.37 957.805L1625.31 967.874L1634.17 967.929L1634.24 957.861L1625.37 957.805Z" fill="#434A59"/>
<path d="M1636.76 620.556C1636.76 620.556 1627.58 628.321 1627.23 633.319C1626.87 638.318 1631.98 647.82 1635.95 647.359C1639.92 646.898 1641.62 636.227 1642.58 634.808C1643.53 633.39 1648.46 629.703 1647.54 626.229C1646.62 622.755 1642.01 617.082 1636.76 620.556Z" fill="#FFC5A9"/>
<path d="M1705.54 443.575C1705.54 443.575 1704.3 519.231 1702.24 536.036C1699.41 559.328 1652.72 602.829 1656.9 613.748C1661.08 624.667 1673.92 634.594 1683.21 627.504C1692.49 620.413 1732.13 578.721 1740.32 547.168C1749.86 510.474 1741.06 447.9 1732.02 441.838C1722.98 435.846 1706.04 435.988 1705.54 443.575Z" fill="url(#paint9_linear_333_7469)"/>
<path d="M1661.36 614.92C1661.36 614.92 1645.02 625.768 1642.4 629.597C1639.77 633.426 1639.21 642.005 1641.37 643.849C1643.53 645.692 1645.94 645.373 1649.88 641.19C1653.78 636.971 1664.13 632.929 1667.21 631.37C1670.3 629.81 1672.25 626.123 1671.72 622.613C1671.19 619.138 1664.41 613.501 1661.36 614.92Z" fill="#FFC5A9"/>
<path d="M1724.76 548.657C1724.58 548.657 1724.4 548.622 1724.22 548.586L1701.04 541.141C1700.15 540.858 1699.66 539.9 1699.94 538.979C1700.22 538.092 1701.18 537.596 1702.1 537.88L1725.29 545.325C1726.17 545.608 1726.67 546.566 1726.39 547.487C1726.17 548.161 1725.5 548.657 1724.76 548.657Z" fill="#F24562"/>
<path d="M1680.97 630.66C1680.4 630.66 1679.84 630.377 1679.52 629.88C1678.95 629.065 1679.16 627.966 1679.98 627.399C1680.19 627.257 1701.64 612.402 1717.74 590.244C1732.91 569.327 1736.53 564.364 1741.31 532.314C1746.1 500.549 1738.51 463.536 1738.44 463.182C1738.23 462.224 1738.87 461.267 1739.82 461.09C1740.78 460.877 1741.74 461.515 1741.91 462.472C1741.99 462.862 1749.71 500.442 1744.82 532.846C1739.89 565.746 1735.78 571.383 1720.61 592.336C1704.16 615.026 1682.21 630.199 1682 630.341C1681.64 630.554 1681.29 630.66 1680.97 630.66Z" fill="#F24562"/>
<path d="M1660.34 604.495C1659.98 604.495 1659.59 604.389 1659.31 604.14C1658.53 603.573 1658.35 602.439 1658.92 601.659C1659.24 601.233 1689.27 559.966 1692 555.357C1692.39 554.719 1692.81 554.01 1693.27 553.301C1696.29 548.586 1700.4 542.134 1701.07 529.512C1701.85 514.622 1703.34 466.265 1703.34 465.804C1703.38 464.811 1704.19 464.031 1705.15 464.102C1706.14 464.138 1706.89 464.953 1706.85 465.91C1706.85 466.407 1705.36 514.764 1704.58 529.725C1703.87 543.268 1699.26 550.465 1696.25 555.216C1695.79 555.925 1695.4 556.563 1695.01 557.201C1692.21 561.952 1663 602.049 1661.75 603.75C1661.44 604.211 1660.9 604.495 1660.34 604.495Z" fill="#F24562"/>
<path d="M1764.14 963.88C1766.55 959.98 1764.32 940.906 1764.36 940.375C1764.39 938.07 1784.81 936.085 1784.49 940.02C1783.54 951.719 1785.77 978.628 1781.73 979.018C1773.11 979.798 1740.11 985.151 1740.57 980.613C1740.82 977.848 1761.52 968.134 1764.14 963.88Z" fill="#404859"/>
<path d="M1696.29 963.881C1698.7 959.982 1696.47 940.908 1696.5 940.376C1696.54 938.072 1718.3 933.888 1717.67 937.788C1714.01 959.308 1717.88 978.63 1713.84 979.02C1705.22 979.8 1672.22 985.153 1672.68 980.615C1672.96 977.85 1693.66 968.136 1696.29 963.881Z" fill="#404859"/>
<path d="M1743.12 821.077C1742.37 821.077 1741.7 820.545 1741.56 819.766C1741.49 819.446 1735.5 788.106 1726.53 757.865C1717.56 727.659 1694.26 676.997 1694.05 676.501C1693.7 675.686 1694.02 674.764 1694.83 674.374C1695.65 674.019 1696.57 674.338 1696.96 675.154C1697.21 675.65 1720.57 726.525 1729.61 756.943C1738.62 787.326 1744.68 818.808 1744.71 819.127C1744.89 819.978 1744.32 820.829 1743.44 821.006C1743.33 821.077 1743.22 821.077 1743.12 821.077Z" fill="#018280"/>
<path d="M1419.16 392.572C1419.16 392.572 1420.21 395.955 1420.42 398.661C1420.62 401.366 1420.11 403.565 1421.57 405.019C1423.02 406.474 1424.14 406.237 1423.9 409.078C1423.7 411.919 1422.07 413.543 1420.75 413.813C1419.44 414.084 1419.1 412.393 1418.42 412.46C1417.74 412.528 1419.6 414.625 1414.4 414.929C1409.19 415.234 1396.47 415.91 1394.37 411.75C1393.05 409.112 1393.29 395.752 1399.28 391.693C1405.26 387.634 1419.16 392.572 1419.16 392.572Z" fill="#383838"/>
<path d="M1397.55 412.121C1397.55 412.121 1373.2 406.067 1361.6 406.236C1350 406.405 1342.79 407.183 1344.35 409.618C1345.91 412.054 1391.84 427.003 1395.39 425.651C1398.94 424.298 1397.55 412.121 1397.55 412.121Z" fill="#EADBC7"/>
<path d="M1413.31 425.346C1413.31 425.346 1457.42 457.444 1474.06 485.213C1483.94 501.685 1480.59 513.354 1471.79 520.491C1455.86 533.411 1415.24 497.153 1402.79 479.361C1390.31 461.604 1413.31 425.346 1413.31 425.346Z" fill="url(#paint10_linear_333_7469)"/>
<path d="M1427.91 969.932C1421.81 967.347 1420.76 962.038 1417.96 957.005C1417.77 956.682 1416.4 949.434 1416.35 948.833C1416.17 946.34 1408.65 939.738 1405.57 944.955C1399.56 955.251 1390.39 939.554 1391.03 943.801C1392.87 956.544 1389.24 976.858 1394.06 978.243C1404.29 981.151 1451.4 984.383 1451.99 979.443C1452.36 976.442 1438.46 974.411 1427.91 969.932Z" fill="#404859"/>
<path d="M1271.91 969.932C1265.81 967.347 1264.76 962.038 1261.96 957.005C1261.77 956.682 1260.4 949.434 1260.35 948.833C1260.17 946.34 1252.65 939.738 1249.57 944.955C1243.56 955.251 1234.39 939.554 1235.03 943.801C1236.87 956.544 1233.24 976.858 1238.06 978.243C1248.29 981.151 1295.4 984.383 1295.99 979.443C1296.36 976.442 1282.42 974.411 1271.91 969.932Z" fill="#404859"/>
<path d="M1263.21 955.519C1263.21 955.519 1359.06 650.433 1360.31 650.095C1361.39 660.512 1387.57 951.257 1387.57 951.257C1387.57 951.257 1396.54 954.47 1406.21 954.707C1412.64 954.842 1421.94 955.215 1421.94 955.215C1421.94 955.215 1422.75 671.268 1417.98 627.569C1416.97 618.301 1415.85 609.541 1414.67 601.288C1414.67 601.254 1414.67 601.22 1414.67 601.186C1414.63 601.017 1414.6 600.848 1414.6 600.679C1409.22 563.203 1402.42 536.652 1397.11 527.316C1391.84 515.343 1296.15 553.496 1296.28 558.569C1296.52 566.991 1296.39 575.887 1295.98 585.154C1295.95 585.594 1295.95 586.067 1295.91 586.507C1295.24 600.442 1293.85 615.223 1291.99 630.41C1291.85 631.593 1291.68 632.777 1291.55 633.961C1286.48 673.298 1269.67 764.451 1269.67 764.451L1231.68 955.519H1263.21Z" fill="url(#paint11_linear_333_7469)"/>
<g opacity="0.12">
<path d="M1414.67 601.321C1414.67 601.287 1414.67 601.254 1414.67 601.22C1414.63 601.051 1414.6 600.882 1414.6 600.712C1413.59 593.745 1412.54 587.115 1411.45 580.926L1302.64 595.132C1302.64 595.132 1334.27 608.356 1367.32 608.83C1385.75 609.101 1403.54 608.762 1415.65 608.424C1415.31 605.989 1414.97 603.621 1414.67 601.321Z" fill="black"/>
</g>
<path d="M1289.96 441.378C1294.56 426.597 1309.98 414.827 1325.17 411.14C1325.17 411.174 1325.17 411.174 1325.2 411.208C1346.88 404.916 1380.4 412.155 1391.16 416.213C1421.19 427.544 1417.84 573.526 1416.42 589.828C1412.3 597.303 1310.46 602.444 1293.21 592.061C1295.78 542.408 1286.2 453.419 1289.96 441.378Z" fill="url(#paint12_linear_333_7469)"/>
<path d="M1413.11 458.865C1405.77 457.343 1395.66 460.962 1395.66 460.962C1395.66 460.962 1372.83 485.653 1373.47 496.882C1373.71 501.144 1374.21 510.175 1375.23 519.882C1379.09 520.694 1385.28 521.776 1391.36 522.047C1391.36 521.607 1391.36 521.167 1391.4 520.728C1391.53 512.847 1393.36 506.725 1394.24 505.676C1396.84 502.565 1417.54 491.91 1420.01 484.571C1422.48 477.197 1420.45 460.353 1413.11 458.865Z" fill="#FFDBE6"/>
<path d="M1386.12 554.957C1392.28 556.31 1391.19 536.896 1391.36 522.013C1385.28 521.743 1379.09 520.627 1375.23 519.849C1376.92 535.847 1380.1 553.672 1386.12 554.957Z" fill="#FFBED2"/>
<path d="M1379.32 543.896C1379.32 543.896 1381.69 555.768 1380.95 559.252C1380.2 562.735 1376.18 571.462 1381.59 569.771C1387 568.079 1390.75 559.387 1391.3 555.971C1391.84 552.555 1391.19 544.809 1391.09 543.219C1390.99 541.63 1379.19 540.513 1379.32 543.896Z" fill="#FFDBE6"/>
<path d="M1434.56 454.739C1427.08 454.435 1412.03 461.267 1412.03 461.267C1412.03 461.267 1393.53 489.341 1396 500.333C1396.94 504.493 1398.87 513.321 1401.51 522.724C1405.43 522.893 1411.72 522.961 1417.78 522.217C1417.71 521.777 1417.64 521.337 1417.58 520.898C1416.43 513.084 1417.2 506.76 1417.91 505.576C1419.98 502.092 1438.65 488.191 1439.9 480.546C1441.15 472.902 1442.03 455.01 1434.56 454.739Z" fill="#FFDBE6"/>
<path d="M1417.98 555.566C1424.27 555.871 1420.05 536.93 1417.78 522.217C1411.72 522.961 1405.43 522.859 1401.51 522.724C1405.77 538.215 1411.83 555.262 1417.98 555.566Z" fill="#FFBED2"/>
<path d="M1409.46 545.758C1409.46 545.758 1413.75 557.089 1413.55 560.64C1413.35 564.192 1410.84 573.459 1415.92 570.889C1420.99 568.352 1423.26 559.118 1423.22 555.702C1423.19 552.252 1421.3 544.71 1420.92 543.154C1420.59 541.632 1408.75 542.443 1409.46 545.758Z" fill="#FFDBE6"/>
<path d="M1394.64 413.136C1394.64 413.136 1409.12 406.371 1422.45 418.683C1432.66 428.119 1439.6 445.132 1439.93 461.807C1440 464.445 1392.55 469.688 1393.8 460.522C1395.46 448.65 1395.66 437.928 1394.54 429.641C1393.49 421.659 1391.13 415.909 1394.64 413.136Z" fill="#FFDBE6"/>
<path d="M1353.48 421.084C1353.48 421.084 1350.84 418.48 1350.3 417.364C1349.76 416.248 1349.32 418.311 1349.52 419.123C1349.52 419.123 1345.02 417.33 1344.21 418.852C1343.4 420.374 1347.66 425.008 1351.04 425.718C1354.43 426.395 1354.93 422.877 1353.48 421.084Z" fill="#FFDBC7"/>
<path d="M1412.74 417.025C1412.74 417.025 1389.33 426.733 1385.48 427.24C1382.37 427.646 1362.17 418.886 1353.45 419.664C1351.38 419.833 1350.44 425.819 1349.93 426.936C1347.29 432.686 1375.64 443.34 1385.04 442.765C1399.89 441.885 1420.32 432.28 1420.96 426.969C1421.6 421.659 1412.74 417.025 1412.74 417.025Z" fill="#FFDBE6"/>
<path d="M1387.98 435.29C1388.29 435.29 1388.49 435.053 1388.49 434.783C1388.35 429.506 1385.95 426.969 1385.85 426.868C1385.65 426.665 1385.34 426.665 1385.14 426.868C1384.94 427.071 1384.94 427.375 1385.14 427.578C1385.17 427.612 1387.34 429.946 1387.47 434.816C1387.47 435.087 1387.71 435.29 1387.98 435.29Z" fill="#FFBED2"/>
<path d="M1395.25 441.581C1395.29 441.581 1395.32 441.581 1395.36 441.581C1395.46 441.547 1406.82 439.044 1415.41 433.565C1415.65 433.429 1415.72 433.091 1415.58 432.854C1415.45 432.618 1415.11 432.55 1414.87 432.685C1406.45 438.097 1395.25 440.566 1395.15 440.566C1394.88 440.634 1394.71 440.904 1394.78 441.175C1394.81 441.412 1395.02 441.581 1395.25 441.581Z" fill="#FFBED2"/>
<path d="M1398.43 387.666C1399.55 385.839 1403 383.742 1408.11 384.385C1413.21 385.028 1417.07 386.211 1418.93 391.353C1421.67 398.929 1414.19 407.148 1408.78 408.095C1404.01 408.907 1403.81 406.167 1401.17 402.853C1398.5 399.538 1397.55 389.154 1398.43 387.666Z" fill="#383838"/>
<path d="M1407.9 405.798L1409.25 412.191C1409.59 413.171 1407.26 415.979 1404.69 415.607C1402.79 415.336 1402.52 414.389 1402.76 413.171L1402.72 407.523L1407.9 405.798Z" fill="#FFDBC7"/>
<path d="M1410.61 395.784L1409.56 402.38C1407.49 409.111 1405.53 411.512 1399.85 411.546C1394.64 411.58 1389.6 407.352 1389.84 402.245C1390.04 397.983 1392.71 396.495 1394.17 394.195C1395.25 392.504 1395.69 390.779 1396.5 389.798C1400.76 384.589 1409.83 387.024 1410.64 394.871C1410.67 395.209 1410.67 395.514 1410.61 395.784Z" fill="#FFDBC7"/>
<path d="M1399.85 404.107C1399.85 404.107 1394.74 400.488 1393.26 401.807C1393.26 401.807 1392.07 403.6 1393.36 405.223C1394.68 406.88 1397.52 406.982 1399.85 404.107Z" fill="#383838"/>
<path d="M1409.05 401.568C1409.49 401.162 1409.9 400.722 1410.24 400.249C1410.91 399.336 1412.13 398.152 1412.97 399.843C1414.19 402.312 1410.3 406.946 1407.8 405.627C1405.94 404.612 1407.9 402.549 1409.05 401.568Z" fill="#FFDBC7"/>
<path d="M1396.81 400.521C1396.81 400.521 1395.15 399.607 1395.18 400.419C1395.22 401.231 1396.91 402.246 1397.42 401.603C1397.92 400.96 1396.81 400.521 1396.81 400.521Z" fill="#FFAB85"/>
<path d="M1395.05 397.272C1394.91 397.847 1394.44 398.219 1394.03 398.118C1393.63 398.016 1393.39 397.475 1393.53 396.9C1393.66 396.325 1394.13 395.953 1394.54 396.055C1394.95 396.156 1395.18 396.697 1395.05 397.272Z" fill="#383838"/>
<path d="M1414.77 490.963C1413.41 475.269 1411.35 460.083 1408.38 447.534C1383.51 452.574 1348.51 459.508 1335.49 461.3C1319.72 463.499 1298.82 463.499 1289.28 463.363C1289.62 474.627 1290.43 489.069 1291.28 504.696C1306.19 505.034 1332.14 505.473 1345.13 504.56C1371.47 502.666 1397.18 496.24 1414.77 490.963Z" fill="#FFD8C7"/>
<path d="M1402.52 399.844C1402.39 400.419 1401.91 400.791 1401.51 400.689C1401.1 400.588 1400.86 400.047 1401 399.472C1401.13 398.897 1401.61 398.525 1402.01 398.626C1402.42 398.728 1402.66 399.269 1402.52 399.844Z" fill="#383838"/>
<path d="M1401.17 385.367C1401.17 385.367 1397.01 387.261 1395.45 389.73C1393.9 392.2 1396.57 392.977 1397.38 393.383C1398.19 393.789 1400.12 391.591 1400.02 392.369C1399.92 393.147 1398.57 394.263 1399.48 394.838C1400.36 395.413 1404.99 398.355 1405.84 398.085C1406.68 397.814 1407.16 396.529 1407.43 396.935C1407.7 397.341 1407.33 398.863 1408.41 399.505C1409.49 400.148 1409.59 401.366 1410.95 399.032C1412.3 396.698 1413.52 392.707 1410.81 389.392C1408.1 386.078 1402.42 384.725 1401.17 385.367Z" fill="#383838"/>
<path d="M1393.66 401.602C1393.66 401.805 1393.76 402.143 1394.27 402.515C1395.08 403.124 1397.82 403.936 1398.57 403.834C1398.87 403.8 1399.14 403.766 1399.31 403.733C1398.13 402.955 1395.12 401.128 1393.66 401.602Z" fill="white"/>
<path d="M1396 404.917C1394.95 404.646 1393.56 404.409 1392.99 404.612C1393.09 404.815 1393.19 405.052 1393.36 405.255C1394.3 406.439 1396.03 406.811 1397.82 405.864C1397.48 405.56 1396.81 405.12 1396 404.917Z" fill="#F76757"/>
<path d="M1402.93 411.614C1402.76 411.581 1402.59 411.445 1402.56 411.276C1402.52 411.039 1402.66 410.803 1402.9 410.769C1402.93 410.769 1405.3 410.295 1406.41 408.401C1406.55 408.198 1406.79 408.131 1407.02 408.232C1407.23 408.367 1407.29 408.604 1407.19 408.841C1405.87 411.107 1403.2 411.614 1403.07 411.614C1403.03 411.648 1402.96 411.648 1402.93 411.614Z" fill="#FFAB85"/>
<path d="M1475.41 506.217C1473.35 490.354 1460.77 477.873 1444.94 475.471C1423.36 472.19 1391.53 468.267 1386.93 472.596C1379.86 479.226 1381.89 489.474 1392.31 496.712C1402.73 503.95 1456.07 534.493 1471.79 520.524C1475.45 517.277 1476.16 511.967 1475.41 506.217Z" fill="url(#paint13_linear_333_7469)"/>
<path d="M1422.24 431.434L1421.33 423.587C1421.23 422.64 1422.28 421.997 1423.06 422.504L1425.56 424.128C1425.56 424.128 1427.93 420.982 1430.4 423.35C1432.86 425.718 1436.28 438.537 1433.58 442.257C1430.84 445.944 1422.75 435.966 1422.24 431.434Z" fill="#FFC5A9"/>
<path d="M1312.18 426.699L1360.92 488.156C1360.92 488.156 1415.75 423.824 1426.78 430.216C1437.8 436.609 1434.42 447.838 1434.22 452.337C1433.98 456.869 1394 549.105 1344.76 529.758C1326.29 522.52 1320.2 507.469 1312.42 493.094C1299.4 469.113 1292.57 443.813 1296.39 436.575C1302.44 425.041 1312.18 426.699 1312.18 426.699Z" fill="url(#paint14_linear_333_7469)"/>
<path d="M1401.37 445.504C1397.92 448.649 1394.41 452.099 1390.92 455.583L1421.6 479.192C1424.31 474.49 1426.64 470.026 1428.5 466.17L1401.37 445.504Z" fill="#FFD8C7"/>
<path d="M1410.57 496.408C1413.38 492.518 1415.95 488.595 1418.32 484.773L1385.51 461.164C1381.99 464.817 1378.64 468.402 1375.6 471.717L1410.57 496.408Z" fill="#FFD8C7"/>
<path d="M1358.82 534.155C1366.74 534.155 1374.79 531.246 1383.31 525.361C1404.08 510.986 1409.69 499.452 1409.93 498.945C1410.17 498.437 1409.96 497.829 1409.46 497.592C1408.95 497.355 1408.34 497.558 1408.1 498.065C1408.04 498.167 1402.42 509.667 1382.16 523.67C1360.04 538.992 1344.04 530.502 1331.33 520.186C1316.24 507.942 1305.11 475.573 1305.01 475.235C1304.84 474.693 1304.27 474.423 1303.73 474.592C1303.18 474.761 1302.91 475.336 1303.08 475.877C1303.56 477.23 1314.48 509.126 1330.04 521.742C1338.94 528.946 1346.75 532.802 1354.6 533.817C1356.02 534.053 1357.4 534.155 1358.82 534.155Z" fill="#F55D18"/>
<path d="M1349.35 504.154C1349.76 504.154 1350.13 503.918 1350.3 503.546C1350.34 503.444 1354.12 494.549 1361.56 489.002C1362 488.663 1362.11 488.021 1361.77 487.581C1361.43 487.141 1360.79 487.04 1360.35 487.378C1352.43 493.263 1348.58 502.396 1348.44 502.768C1348.24 503.275 1348.47 503.884 1348.98 504.087C1349.08 504.121 1349.22 504.154 1349.35 504.154Z" fill="#F55D18"/>
<path d="M1471.36 487.039C1471.69 487.039 1472.03 486.87 1472.24 486.566C1472.54 486.092 1472.37 485.45 1471.9 485.179C1456.68 475.709 1433.64 472.665 1432.66 472.563C1432.12 472.495 1431.61 472.901 1431.51 473.442C1431.44 473.984 1431.85 474.491 1432.39 474.592C1432.63 474.626 1456 477.704 1470.82 486.938C1470.98 487.006 1471.19 487.039 1471.36 487.039Z" fill="#F55D18"/>
<path d="M1331.73 374.476C1331.73 374.476 1332.38 385.164 1333.39 389.561C1334.37 393.958 1336.91 395.412 1339.85 394.093C1342.79 392.774 1354.33 372.683 1351.01 371.093C1347.7 369.504 1333.8 371.702 1331.73 374.476Z" fill="#383838"/>
<path d="M1350.71 417.872C1344.22 421.627 1331.91 414.862 1331.74 411.716L1335.59 386.011L1335.76 385.165L1336.07 385.334L1346.18 390.611L1348.92 407.962C1348.88 407.928 1352.3 416.925 1350.71 417.872Z" fill="#FFC5A9"/>
<path d="M1338.84 393.992C1338.84 393.992 1338.8 398.694 1341.88 402.617C1343.5 404.68 1346.18 404.883 1348.38 404.647L1347.02 396.055L1338.84 393.992Z" fill="#FF9869"/>
<path d="M1356.12 393.079C1355.82 394.499 1355.31 395.582 1354.53 396.359C1354.53 396.359 1354.53 396.36 1354.5 396.393C1354.26 396.63 1353.99 396.833 1353.72 397.002C1353.55 397.104 1353.38 397.205 1353.21 397.273C1351.59 398.051 1349.49 398.017 1346.28 397.036C1346.14 397.002 1346.01 396.968 1345.87 396.901C1345.57 396.799 1345.3 396.698 1344.96 396.596C1344.59 396.461 1344.21 396.326 1343.84 396.19C1342.69 396.055 1341.54 395.514 1340.49 394.702C1340.26 394.533 1340.05 394.364 1339.82 394.161C1337.18 391.861 1335.25 388.073 1335.69 385.063C1335.76 384.657 1335.86 384.251 1336 383.879L1336.77 381.105L1337.25 380.767C1340.12 378.636 1341.31 374.374 1341.31 374.374C1342.56 369.673 1347.97 369.132 1350.13 368.963C1357.54 368.421 1355.82 371.533 1356.7 375.592C1357.41 378.941 1357.47 386.618 1356.12 393.079Z" fill="#FFC5A9"/>
<path d="M1344.9 378.4C1346.49 377.724 1347.87 377.217 1349.53 378.062C1350 378.299 1349.83 378.941 1349.16 378.908C1347.26 378.874 1346.69 378.806 1345 379.28C1344.25 379.483 1343.98 378.806 1344.9 378.4Z" fill="#383838"/>
<path d="M1357.48 378.842C1356.91 378.166 1356.03 377.963 1355.25 377.827C1354.74 377.726 1354.3 378.166 1354.88 378.538C1356.47 379.519 1356.54 379.316 1357.25 379.891C1357.75 380.296 1358.13 379.62 1357.48 378.842Z" fill="#383838"/>
<path d="M1351.59 386.651C1351.59 386.651 1349.09 386.008 1347.8 386.347C1346.52 386.685 1345.1 387.192 1344.18 387.328C1343.27 387.463 1341.58 385.772 1340.7 384.689C1339.82 383.641 1338.87 376.572 1337.42 377.35C1336.78 377.688 1337.89 381.003 1337.93 383.81C1337.96 387.26 1338.13 390.744 1338.03 391.826C1337.79 393.788 1338.4 397.136 1343.07 399.504C1347.19 401.635 1351.56 401.33 1353.55 400.248C1359.1 397.238 1356.29 394.566 1356.66 393.348C1357.04 392.13 1357.48 387.497 1357.48 386.955C1357.48 386.414 1357.64 385.839 1356.53 385.738C1355.34 385.704 1353.48 386.651 1351.59 386.651Z" fill="#383838"/>
<path d="M1349.21 382.324C1349.11 382.798 1348.77 383.136 1348.47 383.069C1348.17 383.001 1348 382.561 1348.1 382.088C1348.2 381.614 1348.54 381.276 1348.84 381.344C1349.15 381.411 1349.32 381.851 1349.21 382.324Z" fill="#383838"/>
<path d="M1356.16 383.816C1355.85 383.749 1355.68 383.31 1355.78 382.835C1355.88 382.361 1356.22 382.03 1356.53 382.097C1356.84 382.164 1357.01 382.603 1356.9 383.077C1356.8 383.552 1356.47 383.883 1356.16 383.816Z" fill="#383838"/>
<path d="M1355.42 388.341C1355.42 388.341 1351.59 389.153 1348.08 388.476C1348.08 388.476 1348.99 391.655 1352.07 391.96C1355.15 392.23 1355.42 388.341 1355.42 388.341Z" fill="white"/>
<path d="M1350.9 386.552C1350.84 386.619 1351.04 386.822 1351.41 386.89C1351.78 386.991 1352.36 386.991 1352.93 386.721L1352.97 386.687C1353.34 386.484 1353.61 386.247 1353.78 385.977C1354.05 385.604 1354.15 385.232 1354.15 385.029C1354.15 384.928 1354.12 384.86 1354.05 384.86C1354.01 384.86 1353.98 384.86 1353.98 384.86C1353.88 384.928 1353.68 385.131 1353.44 385.402C1353.24 385.571 1353 385.774 1352.73 385.909C1352.7 385.943 1352.66 385.943 1352.63 385.977C1352.19 386.213 1351.75 386.281 1351.41 386.349C1351.11 386.416 1350.9 386.45 1350.9 386.552Z" fill="#FF9869"/>
<path d="M1337.65 380.288C1337.38 378.8 1336.64 376.635 1334.64 378.123C1331.7 380.288 1332.95 387.526 1336.74 387.492C1339.52 387.425 1337.79 381.066 1337.65 380.288Z" fill="#FFC5A9"/>
<path d="M1339.51 374.036C1339.51 374.036 1356.05 374.712 1358.05 371.803C1360.04 368.895 1360.15 364.903 1356.83 362.773C1353.52 360.642 1343.57 363.72 1340.66 363.855C1337.75 364.024 1336.37 362.908 1335.59 364.058C1334.81 365.208 1336.37 366.662 1336.37 366.662C1336.37 366.662 1332.21 366.595 1331.33 369.74C1330.45 372.886 1330.92 376.403 1332.92 376.234C1334.91 376.065 1339.51 374.036 1339.51 374.036Z" fill="#383838"/>
<path opacity="0.12" d="M1360.28 651.617C1360.95 651.617 1361.56 651.178 1361.73 650.501C1364.03 642.316 1368.7 628.516 1371.51 626.419C1374.65 624.051 1383.18 623.544 1386.19 623.544C1387.03 623.544 1387.71 622.868 1387.71 622.022C1387.71 621.176 1387.03 620.5 1386.19 620.5C1384.97 620.5 1374.21 620.601 1369.68 623.984C1365.15 627.366 1359.43 647.39 1358.82 649.69C1358.59 650.501 1359.06 651.347 1359.87 651.55C1360.01 651.617 1360.14 651.617 1360.28 651.617Z" fill="black"/>
<path opacity="0.12" d="M1241.03 948.706C1241.5 948.706 1241.94 948.368 1242.01 947.895C1242.05 947.624 1246.98 921.986 1248.37 915.695C1249.62 910.013 1277.36 771.506 1281.31 748.912C1286.9 717.017 1305.06 612.841 1305.06 611.015C1305.06 610.44 1304.62 610 1304.04 610C1303.47 610 1303.03 610.44 1303.03 610.981C1302.86 613.247 1290.14 686.508 1279.32 748.574C1275.36 771.168 1247.66 909.607 1246.41 915.289C1245.02 921.614 1240.08 947.286 1240.02 947.522C1239.92 948.064 1240.29 948.605 1240.83 948.706C1240.9 948.672 1240.96 948.706 1241.03 948.706Z" fill="#0F0F0F"/>
<path opacity="0.12" d="M1396.1 947.233C1396.13 947.233 1396.17 947.233 1396.2 947.233C1396.74 947.165 1397.15 946.658 1397.11 946.116C1397.08 945.812 1393.93 916.724 1394.64 901.064C1395.39 884.558 1389.54 842.008 1387.2 828.614C1386.09 822.323 1384.4 796.347 1382.6 768.849C1380.37 734.958 1377.87 696.534 1375.87 686.387C1372.39 668.36 1370.6 639.61 1370.56 639.305C1370.53 638.73 1370.05 638.325 1369.48 638.358C1368.9 638.392 1368.5 638.866 1368.53 639.441C1368.57 639.745 1370.36 668.63 1373.88 686.793C1375.8 696.805 1378.34 735.161 1380.57 768.984C1382.4 796.55 1384.09 822.56 1385.21 828.953C1387.74 843.429 1393.32 885.37 1392.61 900.962C1391.9 916.792 1395.05 946.049 1395.08 946.319C1395.15 946.861 1395.56 947.233 1396.1 947.233Z" fill="black"/>
<path d="M1360.92 489.171C1361.23 489.171 1361.53 489.035 1361.7 488.799C1361.97 488.494 1387.44 457.005 1396.2 451.728C1396.67 451.424 1396.84 450.815 1396.54 450.342C1396.23 449.868 1395.62 449.699 1395.15 450.003C1386.86 454.975 1365.42 481.019 1360.92 486.532L1328.96 446.215C1328.62 445.775 1327.98 445.708 1327.54 446.046C1327.1 446.384 1327.03 447.027 1327.37 447.467L1360.14 488.765C1360.35 489.035 1360.62 489.171 1360.92 489.171Z" fill="#F55D18"/>
<path d="M1594.4 627.193C1590.37 602.96 1531.75 575.908 1519.18 608.556C1515.31 618.573 1503.57 625.399 1496.28 660.196C1483.32 721.979 1490.35 920.649 1492.9 941.685C1493.68 948.245 1507.7 944.075 1509.74 937.699C1512.34 929.536 1542.68 733.711 1544.22 706.261C1544.91 714.999 1595.06 945.491 1598.69 951.188C1602.33 956.856 1609.45 958.948 1616.72 955.228C1618.83 954.144 1599.44 725.936 1599.44 725.936C1599.44 725.936 1598.46 651.684 1594.4 627.193Z" fill="#FFC5A9"/>
<path d="M1503.59 957.233C1500.73 959.845 1490.71 973.6 1486.22 973.581C1483.8 973.567 1478.78 972.763 1477.4 972.284C1480.05 970.256 1493.97 953.423 1491.87 927.335L1511.15 930.497C1511.15 930.497 1507.28 952.129 1507.87 953.436C1506.08 953.185 1505.36 955.63 1503.59 957.233Z" fill="#FFC5A9"/>
<path d="M1604.87 957.574C1608.13 961.063 1621.14 980.811 1626.05 981.821C1628.68 982.361 1630.88 982.299 1632.34 982.094C1629.33 979.286 1616.6 953.182 1614.62 933.455L1593.93 930.644C1593.93 930.644 1598.54 953.335 1598.01 954.622C1599.92 954.791 1602.84 955.427 1604.87 957.574Z" fill="#FFC5A9"/>
<path d="M1613.04 699.651C1613.04 699.651 1620.53 619.155 1599.46 567.541C1588.36 540.314 1539.52 521.407 1512.71 553.604C1504.3 563.7 1493.15 575.82 1484.42 617.48C1476.88 653.483 1475.01 728.35 1475.41 798.592C1484.23 800.036 1502.47 802.816 1523.86 805.145C1538.52 806.764 1554.66 808.165 1570.21 808.755C1587.62 809.44 1607.25 809.373 1620.4 807.227C1615.39 748.469 1613.04 699.651 1613.04 699.651Z" fill="url(#paint15_linear_333_7469)"/>
<path d="M1599.46 567.541C1598.79 565.905 1598 564.326 1597.08 562.765L1517.07 554.848C1517.07 554.848 1549.73 569.254 1574.35 575.395C1586.78 578.478 1596.66 578.945 1603.42 578.674C1602.27 574.81 1600.92 571.097 1599.46 567.541Z" fill="#434A59"/>
<path opacity="0.14" d="M1560.02 789.278C1559.39 789.21 1558.83 788.675 1558.8 787.992C1557.03 746.854 1546.6 711.638 1538.21 689.357C1529.1 665.197 1520.3 650.628 1520.22 650.483C1519.84 649.831 1520.03 649.001 1520.69 648.627C1521.34 648.254 1522.17 648.444 1522.54 649.096C1522.63 649.241 1531.54 664.026 1540.76 688.436C1549.26 710.933 1559.73 746.425 1561.53 787.907C1561.55 788.657 1560.98 789.277 1560.23 789.299C1560.16 789.292 1560.09 789.285 1560.02 789.278Z" fill="black"/>
<path d="M1477.95 964.569C1485.59 959.849 1486.42 950.855 1490.15 944.954C1490.42 944.631 1504.5 941.361 1505.02 945.968C1506.02 955.065 1507.28 943.733 1508.73 946.498C1509.46 951.418 1509 968.688 1508.69 974.293C1501.13 980.032 1454.07 985.014 1455.25 980.558C1456 977.852 1468.74 969.049 1477.95 964.569Z" fill="#404859"/>
<path d="M1629.7 965.935C1621.83 961.605 1620.55 952.663 1616.52 946.957C1616.24 946.647 1602.02 944.087 1601.73 948.714C1601.19 957.85 1599.36 946.596 1598.05 949.429C1597.57 954.38 1598.89 971.605 1599.49 977.188C1607.32 982.54 1654.57 985.159 1653.17 980.767C1652.28 978.102 1639.12 969.948 1629.7 965.935Z" fill="#404859"/>
<path d="M1496.62 454.733C1496.62 454.733 1488.88 453.346 1484.21 468.093C1480.79 478.815 1476.63 515.615 1493.44 516.731C1510.22 517.847 1504.67 456.864 1496.62 454.733Z" fill="#FCB493"/>
<path d="M1526.19 419.151C1526.19 419.151 1548.04 412.251 1558.59 411.778C1569.18 411.304 1575.74 411.575 1574.49 413.875C1573.2 416.175 1532.21 432.376 1528.93 431.328C1525.65 430.279 1526.19 419.151 1526.19 419.151Z" fill="#EADBC7"/>
<path d="M1573.03 369.587C1573.03 369.587 1576.48 364.682 1583.01 368.504C1589.54 372.326 1591.73 376.419 1592.65 387.986C1593.59 399.554 1595.69 407.063 1602.05 412.914C1608.41 418.766 1613.55 415.113 1620.65 425.429C1627.76 435.745 1619.71 448.496 1622.85 454.923C1626 461.349 1639.49 466.49 1635.37 488.408C1631.24 510.325 1587.51 522.84 1563.93 501.768C1540.36 480.696 1531.97 460.165 1537.14 439.837C1542.28 419.51 1556.83 405.879 1556.69 404.019C1556.46 402.124 1549.76 369.248 1573.03 369.587Z" fill="#3A2923"/>
<path fill-rule="evenodd" clip-rule="evenodd" d="M1609.79 570.128C1609.63 573.762 1609.48 577.452 1609.32 581.196C1609.22 583.358 1606.47 584.649 1601.89 585.21C1601.93 585.22 1601.95 585.226 1601.95 585.226C1601.95 585.226 1595.32 589.453 1572.32 586.849C1549.32 584.278 1522.53 580.998 1514.85 579.104C1505.79 576.871 1497.84 574.47 1493.38 571.662C1494.74 568.335 1496.12 565.452 1497.44 562.867C1497.43 562.865 1497.43 562.864 1497.43 562.864C1497.43 562.864 1508.05 530.63 1509.57 519.908C1511.55 506.082 1511.8 494.952 1512.03 485.421C1512.48 465.993 1512.78 453.204 1527.1 437.752C1528.98 435.718 1530.72 433.626 1532.42 431.571C1540.46 421.869 1547.83 412.983 1567.31 414.853C1589.09 416.95 1603.74 427.977 1608.41 444.855C1614.21 465.896 1612.32 510.468 1609.79 570.128Z" fill="url(#paint16_linear_333_7469)"/>
<path d="M1579.83 392.499L1580.44 419.287C1580.47 422.331 1569.14 425.138 1564.34 421.316C1562.95 420.2 1568.06 413.03 1568.06 413.03L1570.97 396.22L1579.83 392.499Z" fill="#FFC5A9"/>
<path d="M1579 393.264C1579 393.264 1579.03 398.083 1576.13 402.105C1574.68 403.57 1571.8 403.812 1569.72 403.57L1571 394.764L1579 393.264Z" fill="#FF9869"/>
<path d="M1575.74 382.151L1579.93 386.717C1582.7 391.689 1580.07 398.285 1574.82 400.517C1568.29 403.291 1564.57 402.986 1562.61 396.729C1561.46 393.042 1562.65 385.398 1563.12 382.422C1563.69 378.938 1565.99 376.706 1568.7 376.266C1571.31 375.86 1569.24 379.885 1575.74 382.151Z" fill="#FFC5A9"/>
<path d="M1567.82 390.131C1566.97 390.029 1566.23 389.759 1565.55 389.285C1565.01 388.913 1564.57 389.793 1565.08 390.165C1565.82 390.672 1566.7 390.976 1567.58 391.112C1568.23 391.145 1568.43 390.198 1567.82 390.131Z" fill="#FF9869"/>
<path d="M1570.23 386.243C1570.13 386.243 1569.79 386.175 1569.62 386.581C1569.52 386.885 1569.45 387.257 1569.55 387.562C1569.65 387.934 1570.06 388.137 1570.4 387.967C1570.87 387.731 1570.97 386.31 1570.23 386.243Z" fill="#3A2923"/>
<path d="M1563.76 386.952C1563.66 386.952 1563.32 386.885 1563.15 387.291C1563.05 387.595 1562.98 387.967 1563.08 388.272C1563.19 388.644 1563.59 388.847 1563.93 388.677C1564.4 388.441 1564.51 387.02 1563.76 386.952Z" fill="#3A2923"/>
<path d="M1571.57 392.466C1570.36 392.5 1567.35 392.636 1564.13 393.109C1563.9 393.143 1563.76 393.38 1563.79 393.616C1563.96 394.293 1564.4 395.578 1565.25 396.187C1566.87 397.337 1570.29 397.641 1571.95 393.008C1572.05 392.737 1571.84 392.433 1571.57 392.466Z" fill="white"/>
<path d="M1579.22 386.309C1579.45 385.734 1579.55 385.091 1579.66 384.482C1579.83 383.299 1580.37 381.574 1581.99 382.724C1584.36 384.347 1583.07 390.604 1580.06 390.672C1577.86 390.672 1578.64 387.797 1579.22 386.309Z" fill="#FFC5A9"/>
<path d="M1569.41 383.334C1570.36 383.401 1571.37 383.638 1572.22 384.078C1572.62 384.281 1572.32 384.856 1571.91 384.653C1571.17 384.281 1570.26 384.078 1569.45 384.01C1569.01 383.943 1568.97 383.266 1569.41 383.334Z" fill="#320E00"/>
<path d="M1562.75 384.651C1563.19 384.279 1563.7 383.941 1564.17 383.637C1564.54 383.4 1564.95 383.941 1564.58 384.178C1564.1 384.516 1563.59 384.821 1563.15 385.193C1562.82 385.497 1562.41 384.922 1562.75 384.651Z" fill="#320E00"/>
<path d="M1514.62 462.548C1521.21 460.756 1530.65 463.461 1530.65 463.461C1530.65 463.461 1552.84 484.635 1552.87 494.917C1552.9 498.807 1552.94 507.06 1552.56 515.955C1549.11 516.902 1543.53 518.255 1537.99 518.83C1537.95 518.424 1537.92 518.018 1537.89 517.612C1537.31 510.442 1535.31 504.996 1534.44 504.049C1531.9 501.377 1512.45 492.82 1509.78 486.292C1507.14 479.798 1508.02 464.341 1514.62 462.548Z" fill="#FFFCFC"/>
<path d="M1544.62 548.56C1539.1 550.116 1538.97 532.393 1537.99 518.863C1543.54 518.288 1549.08 516.935 1552.57 515.988C1551.92 530.634 1550 547.038 1544.62 548.56Z" fill="#FFEFB5"/>
<path d="M1550.17 538.076C1550.17 538.076 1548.68 549.035 1549.56 552.146C1550.44 555.258 1554.6 562.97 1549.56 561.752C1544.52 560.534 1540.63 552.789 1539.95 549.745C1539.28 546.667 1539.41 539.564 1539.41 538.11C1539.44 536.689 1550.13 534.998 1550.17 538.076Z" fill="#FFFCFC"/>
<path d="M1494.9 460.009C1501.7 459.333 1515.8 464.677 1515.8 464.677C1515.8 464.677 1534.2 489.199 1532.58 499.346C1531.97 503.168 1530.68 511.319 1528.82 520.046C1525.27 520.418 1519.52 520.824 1513.97 520.519C1514.01 520.113 1514.04 519.707 1514.07 519.302C1514.68 512.131 1513.6 506.415 1512.89 505.366C1510.83 502.322 1493.04 490.721 1491.48 483.821C1489.93 476.921 1488.1 460.686 1494.9 460.009Z" fill="#FFFCFC"/>
<path d="M1515.67 550.893C1509.95 551.535 1512.76 534.015 1513.97 520.519C1519.52 520.858 1525.24 520.418 1528.82 520.046C1525.78 534.387 1521.21 550.25 1515.67 550.893Z" fill="#FFEFB5"/>
<path d="M1522.84 541.49C1522.84 541.49 1519.56 552.043 1519.93 555.29C1520.3 558.537 1523.11 566.79 1518.37 564.761C1513.6 562.732 1511.03 554.479 1510.86 551.333C1510.69 548.187 1512.01 541.22 1512.25 539.799C1512.49 538.345 1523.31 538.413 1522.84 541.49Z" fill="#FFFCFC"/>
<path d="M1528.89 419.896C1528.89 419.896 1515.33 414.552 1503.9 426.525C1495.14 435.691 1489.79 451.554 1490.4 466.775C1490.5 469.21 1534 471.273 1532.31 462.987C1530.14 452.265 1529.36 442.524 1529.91 434.913C1530.41 427.574 1532.27 422.23 1528.89 419.896Z" fill="#FFFCFC"/>
<path d="M1518.13 393.108C1518.13 393.108 1514.92 390.841 1509.37 393.141C1503.83 395.475 1502.95 398.012 1502.78 402.781C1502.61 407.55 1506.46 413.165 1511.2 414.213C1515.94 415.262 1516.44 415.329 1517.93 412.184C1519.42 409.038 1520.54 393.987 1518.13 393.108Z" fill="#383838"/>
<path d="M1520.4 413.131C1520.4 413.131 1520.63 414.72 1520.97 416.445C1521.31 418.238 1521.78 420.166 1520.87 421.045C1519.68 422.128 1516.44 422.297 1515.73 420.098C1515.46 419.253 1515.39 417.595 1515.42 416.614C1515.46 414.314 1515.12 412.251 1515.36 411.744C1515.73 410.966 1520.4 413.131 1520.4 413.131Z" fill="#FFDBC7"/>
<path d="M1530.14 408.359C1530.31 415.293 1521.75 419.589 1514.41 415.158C1507.04 410.727 1506.94 398.111 1514.92 394.796C1519.22 393.003 1523.48 392.564 1526.79 401.696C1527.64 404.03 1530.07 405.011 1530.14 408.359Z" fill="#FFDBC7"/>
<path d="M1526.63 405.589C1526.7 405.556 1526.76 405.556 1526.83 405.556C1527.03 405.589 1527.13 405.792 1527.1 405.995C1527.03 406.334 1526.73 406.942 1526.02 406.976C1525.82 406.976 1525.65 406.841 1525.65 406.638C1525.65 406.435 1525.78 406.266 1525.98 406.266C1526.29 406.266 1526.39 405.894 1526.39 405.86C1526.42 405.725 1526.53 405.623 1526.63 405.589Z" fill="#FFAB85"/>
<path d="M1525.87 403.322C1525.97 403.728 1526.31 403.965 1526.65 403.897C1526.99 403.829 1527.16 403.423 1527.06 403.051C1526.96 402.645 1526.62 402.409 1526.28 402.476C1525.94 402.544 1525.77 402.916 1525.87 403.322Z" fill="#383838"/>
<path d="M1520.84 405.792C1520.94 406.197 1521.28 406.434 1521.62 406.367C1521.96 406.299 1522.12 405.893 1522.02 405.521C1521.92 405.115 1521.58 404.878 1521.25 404.946C1520.94 405.014 1520.77 405.42 1520.84 405.792Z" fill="#383838"/>
<path d="M1520.87 403.661C1520.98 403.594 1521.01 403.458 1521.01 403.357C1520.98 403.188 1520.81 403.052 1520.64 403.086C1519.83 403.188 1518.78 404.033 1518.68 404.135C1518.54 404.27 1518.51 404.473 1518.64 404.608C1518.78 404.744 1518.98 404.777 1519.12 404.642C1519.39 404.405 1520.23 403.797 1520.74 403.729C1520.77 403.729 1520.81 403.695 1520.87 403.661Z" fill="#383838"/>
<path d="M1526.29 401.497C1526.35 401.464 1526.39 401.396 1526.39 401.328C1526.42 401.159 1526.32 400.956 1526.15 400.922C1525.34 400.719 1524.56 401.261 1524.56 401.294C1524.43 401.396 1524.39 401.633 1524.49 401.768C1524.6 401.903 1524.83 401.937 1524.97 401.836C1524.97 401.836 1525.51 401.464 1526.02 401.565C1526.08 401.599 1526.19 401.565 1526.29 401.497Z" fill="#383838"/>
<path d="M1523.61 416.75C1523.71 416.682 1523.75 416.547 1523.71 416.446C1523.68 416.31 1523.51 416.209 1523.34 416.276C1520.67 417.19 1519.22 416.615 1519.18 416.581C1519.05 416.513 1518.88 416.581 1518.81 416.716C1518.74 416.851 1518.81 417.021 1518.94 417.088C1519.01 417.122 1520.6 417.765 1523.48 416.784C1523.54 416.784 1523.58 416.784 1523.61 416.75Z" fill="#FFAB85"/>
<path d="M1523.41 409.512C1523.41 409.512 1527.84 407.72 1528.45 407.246C1528.45 407.246 1528.72 409.85 1526.52 410.527C1524.32 411.237 1523.41 409.512 1523.41 409.512Z" fill="#383838"/>
<path d="M1527.81 409.646C1527.1 408.598 1524.32 409.748 1523.78 410.018C1524.22 410.458 1525.1 410.999 1526.52 410.559C1527.1 410.356 1527.5 410.018 1527.81 409.646Z" fill="#FF5F4A"/>
<path d="M1520.09 393.852C1520.84 394.055 1521.51 394.19 1522.09 394.46C1522.5 394.663 1522.36 395.306 1521.92 395.306C1520.53 395.34 1518.23 395.61 1516.64 396.929C1514.04 399.128 1512.28 403.626 1512.48 404.303C1512.86 405.656 1512.15 408.734 1511.27 409.207C1510.39 409.681 1508.46 408.869 1508.46 408.869C1508.46 408.869 1506.12 402.984 1506.87 400.312C1507.61 397.64 1510.15 394.021 1513.46 393.243C1515.49 392.769 1518.3 393.344 1520.09 393.852Z" fill="#383838"/>
<path d="M1510.01 407.212C1508.63 407.72 1509.07 410.02 1510.52 411.474C1511.98 412.928 1513.67 412.387 1513.46 410.899C1513.23 409.445 1511.4 406.705 1510.01 407.212Z" fill="#FFDBC7"/>
<path d="M1513.06 401.158C1513.16 401.158 1514.41 398.114 1520.77 395.915C1522.97 395.171 1524.05 393.514 1522.02 391.586C1519.99 389.658 1515.53 388.339 1511.54 390.808C1507.55 393.277 1507.45 398.655 1508.83 399.298C1510.22 399.94 1513.06 401.158 1513.06 401.158Z" fill="#383838"/>
<path d="M1567.55 422.669C1567.55 422.669 1570.83 421.824 1571.78 421.181C1572.73 420.539 1572.12 422.365 1571.58 422.906C1571.58 422.906 1575.94 423.549 1575.91 425.138C1575.87 426.728 1570.36 428.386 1567.38 427.405C1564.37 426.458 1565.59 423.414 1567.55 422.669Z" fill="#FFDBC7"/>
<path d="M1512.62 424.461C1512.62 424.461 1534.47 431.97 1537.99 432.241C1540.83 432.444 1558.72 423.345 1566.74 423.548C1568.63 423.582 1569.82 428.994 1570.33 429.975C1573.03 435.082 1547.83 446.345 1539.28 446.379C1525.71 446.413 1506.57 438.803 1505.69 434.033C1504.81 429.197 1512.62 424.461 1512.62 424.461Z" fill="#FFFCFC"/>
<path d="M1504.78 395.747C1504.78 395.747 1503.46 391.215 1502.48 392.06C1501.5 392.906 1502.81 396.051 1502.81 396.051C1502.81 396.051 1499.67 395.409 1499.57 396.22C1499.47 397.032 1502.17 397.743 1502.17 397.743C1502.17 397.743 1499.87 399.298 1500.14 400.144C1500.41 400.99 1502.41 400.55 1503.93 399.569C1505.45 398.554 1504.78 395.747 1504.78 395.747Z" fill="#383838"/>
<path d="M1536.16 439.75C1536.2 439.75 1536.2 439.75 1536.16 439.75C1536.47 439.75 1536.67 439.513 1536.67 439.208C1536.5 434.778 1538.36 432.545 1538.4 432.511C1538.57 432.308 1538.57 431.97 1538.33 431.801C1538.13 431.632 1537.79 431.632 1537.62 431.869C1537.52 431.97 1535.49 434.405 1535.66 439.242C1535.69 439.547 1535.89 439.75 1536.16 439.75Z" fill="#FFEFB5"/>
<path d="M1529.91 445.906C1530.14 445.906 1530.38 445.737 1530.41 445.466C1530.45 445.195 1530.28 444.925 1529.97 444.891C1529.87 444.891 1519.56 443.234 1511.57 438.803C1511.34 438.667 1511.03 438.769 1510.9 439.006C1510.76 439.242 1510.86 439.547 1511.1 439.682C1519.22 444.215 1529.74 445.872 1529.84 445.872C1529.84 445.872 1529.87 445.906 1529.91 445.906Z" fill="#FFEFB5"/>
<path d="M1502.2 495.119C1502.2 495.119 1499.46 489.234 1498.52 488.118C1496.42 485.682 1496.39 481.116 1494.63 481.623C1492.9 482.097 1495.41 488.084 1495.24 488.287C1495.07 488.49 1491.01 481.387 1491.01 481.387C1491.01 481.387 1488.13 487.306 1490.67 493.631C1493.21 499.956 1495.34 502.695 1498.25 502.932C1501.12 503.169 1503.12 498.535 1502.2 495.119Z" fill="#FFC5A9"/>
<path d="M1497.4 495.796C1503.86 486.934 1561.83 528.097 1561.83 528.097L1568.87 510.847C1579.22 522.009 1594.74 526.068 1602.42 527.421C1596.33 540.848 1588.11 552.179 1577.49 557.05C1546.58 571.323 1488.23 508.378 1497.4 495.796Z" fill="#FFC5A9"/>
<path d="M1573.54 542.437C1573.84 542.437 1574.11 542.336 1574.38 542.133C1574.96 541.659 1575.06 540.814 1574.62 540.239C1573.67 539.055 1565.42 528.671 1562.54 526.946C1561.9 526.574 1561.09 526.777 1560.68 527.42C1560.31 528.062 1560.51 528.874 1561.16 529.28C1562.98 530.396 1569.07 537.634 1572.49 541.964C1572.72 542.234 1573.13 542.437 1573.54 542.437Z" fill="#FF9869"/>
<path d="M1487.73 459.334C1488.51 458.117 1489.59 457.136 1490.87 456.425C1493.48 455.039 1499.19 451.927 1500.21 450.777C1501.56 449.255 1501.8 445.906 1503.35 448.172C1504.91 450.439 1500.65 453.686 1500.01 454.937C1499.4 456.189 1512.72 454.836 1512.99 456.967C1514.11 466.031 1490.03 469.786 1487.36 467.891C1485.39 466.539 1485.7 462.649 1487.73 459.334Z" fill="#FCB493"/>
<path d="M1563.22 508.514L1596.84 426.391C1596.84 426.391 1607.19 430.416 1612.74 455.817C1615.11 466.573 1615.45 504.455 1603.84 530.16C1596.13 528.774 1573.57 519.675 1563.22 508.514Z" fill="url(#paint17_linear_333_7469)"/>
<path d="M1563.76 508.513C1564.27 508.513 1564.74 508.209 1564.98 507.735C1567.89 501.546 1586.22 451.284 1587 449.153C1587.27 448.443 1586.9 447.665 1586.19 447.428C1585.48 447.158 1584.7 447.53 1584.46 448.24C1584.26 448.747 1565.38 500.497 1562.54 506.585C1562.24 507.262 1562.51 508.074 1563.19 508.378C1563.39 508.479 1563.59 508.513 1563.76 508.513Z" fill="#FF9A15"/>
<path d="M1603.81 531.513C1604.28 531.513 1604.72 531.277 1604.99 530.837C1609.9 522.449 1612.87 503.914 1612.97 503.102C1613.08 502.358 1612.6 501.681 1611.86 501.546C1611.11 501.444 1610.44 501.918 1610.3 502.662C1610.27 502.865 1607.29 521.468 1602.62 529.45C1602.25 530.093 1602.46 530.938 1603.1 531.31C1603.37 531.446 1603.61 531.513 1603.81 531.513Z" fill="#FF9A15"/>
<path d="M1532.07 502.898C1532.31 502.898 1532.54 502.729 1532.58 502.459C1532.65 502.053 1534.13 492.548 1530.35 486.663C1528.42 483.72 1526.32 480.135 1524.46 476.99C1522.67 473.946 1521.11 471.341 1520.2 470.022C1520.03 469.785 1519.72 469.751 1519.49 469.887C1519.25 470.056 1519.22 470.36 1519.35 470.597C1520.27 471.916 1521.82 474.487 1523.58 477.497C1525.44 480.643 1527.57 484.228 1529.5 487.204C1533.12 492.785 1531.63 502.188 1531.6 502.289C1531.56 502.56 1531.73 502.831 1532 502.864C1532.04 502.898 1532.04 502.898 1532.07 502.898Z" fill="#FFEFB5"/>
<path d="M1797.53 245.071C1661.4 250.857 1617.96 322.765 1610.82 320.636C1603.69 318.508 1530.08 299.14 1472.03 305.758C1416.75 312.056 1355.19 344.026 1348.59 345.945C1341.99 347.757 1241.95 276.098 1141.2 323.202C1189.75 228.498 1545.27 136.595 1545.27 136.595L1775.57 208.755L1797.53 245.071Z" fill="#00918F"/>
<path d="M1797.53 242.224C1661.4 248.009 1617.96 319.917 1610.82 317.789C1603.69 315.66 1530.08 296.293 1472.03 302.911C1416.75 309.209 1355.19 341.178 1348.59 343.097C1341.99 344.91 1241.95 273.25 1141.2 320.354C1189.75 225.651 1545.27 133.747 1545.27 133.747L1775.57 205.907L1797.53 242.224Z" fill="#00918F"/>
<path opacity="0.32" d="M1797.53 242.224C1661.4 248.009 1617.96 319.917 1610.82 317.789C1603.69 315.66 1530.08 296.293 1472.03 302.911C1416.75 309.209 1355.19 341.178 1348.59 343.097C1341.99 344.91 1241.95 273.25 1141.2 320.354C1189.75 225.651 1545.27 133.747 1545.27 133.747L1775.57 205.907L1797.53 242.224Z" fill="#008B89"/>
<path d="M1454.1 108.386C1454.1 108.386 1486.68 406.224 1489.05 426.745C1495.38 482.208 1440.13 486.527 1433.95 432.714" stroke="white" stroke-width="8.54483" stroke-miterlimit="10" stroke-linecap="round" stroke-linejoin="round"/>
<path d="M1489.38 410.743C1491.1 410.527 1492.68 411.818 1492.89 413.54C1493.61 419.998 1494.12 424.375 1494.33 426.169C1497.93 457.739 1482.86 474.102 1467.37 475.9C1458.54 476.907 1449.57 473.393 1442.61 466.148C1435.22 458.472 1430.48 447.136 1428.9 433.36C1428.54 430.49 1430.62 427.906 1433.49 427.547C1436.36 427.187 1438.94 429.268 1439.3 432.138C1442.03 455.744 1454.88 466.719 1466.14 465.424C1481.14 463.699 1485.87 444.468 1483.93 427.319C1483.71 425.597 1483.21 421.22 1482.49 414.691C1482.27 412.969 1483.57 411.39 1485.29 411.174L1489.38 410.743Z" fill="#333843" stroke="#333843" stroke-width="1.42414"/>
<path d="M1794.65 240.519C1779.3 215.918 1681.2 202.521 1613.57 251.109C1611.98 252.281 1610.38 253.453 1608.78 254.732C1541.34 201.065 1393.29 221.339 1340.69 296.445C1299.78 244.05 1207.33 257.813 1141.2 320.46C1141.2 320.46 1132.62 108.923 1442.15 68.5845C1443.64 68.3711 1445.24 68.1577 1446.83 67.9443C1450.45 67.5173 1453.97 67.0904 1457.48 66.77C1669.87 44.3495 1757.66 150.097 1786.01 207.502C1798.16 232.21 1799.34 247.974 1794.65 240.519Z" fill="#11B7B5"/>
<path opacity="0.11" d="M1141.09 320.46C1207.22 257.813 1299.67 244.05 1340.59 296.445C1393.19 221.339 1541.24 201.065 1608.68 254.731C1610.27 253.559 1611.87 252.281 1613.47 251.215C1681.09 202.628 1779.2 216.025 1794.54 240.626C1799.23 248.081 1798.05 232.423 1785.8 207.608C1757.45 150.204 1669.66 44.456 1457.27 66.8765C1453.76 67.1969 1450.24 67.6238 1446.62 68.0507C1445.02 68.2641 1443.53 68.4776 1441.93 68.691C1132.62 108.923 1141.09 320.46 1141.09 320.46Z" fill="#F4F3F2"/>
<path d="M1794.65 240.519C1779.3 215.918 1681.2 202.521 1613.57 251.109C1611.44 248.34 1609.21 245.465 1608.57 242.056C1595.66 178.683 1527.26 94.7661 1442.15 68.5844C1443.64 68.371 1445.24 68.1576 1446.83 67.9442C1450.46 67.5173 1453.97 67.0904 1457.49 66.77C1669.87 44.3495 1757.66 150.097 1786.01 207.502C1798.16 232.21 1799.34 247.974 1794.65 240.519Z" fill="#009E9C"/>
<path opacity="0.2" d="M1141.09 320.459C1207.22 257.812 1299.67 244.049 1340.59 296.444C1328.41 144.664 1442.04 68.584 1442.04 68.584C1132.63 108.923 1141.09 320.459 1141.09 320.459Z" fill="#F4F3F2"/>
<path d="M1432.57 72.5167C1433.4 76.2269 1457.82 73.4209 1458 69.1289C1457.57 65.4609 1452.76 62.9645 1443.88 64.5503C1434.99 66.1361 1431.76 69.0413 1432.57 72.5167Z" fill="#434A59"/>
<path d="M1440.37 47.2382C1440.71 45.2771 1443.4 44.9663 1444.18 46.7973L1452.42 66.1085C1452.51 66.3169 1452.43 66.5587 1452.23 66.6625V66.6625C1447.56 69.0676 1442.17 69.6908 1437.08 68.4157V68.4157C1436.86 68.3607 1436.72 68.1452 1436.76 67.922L1440.37 47.2382Z" fill="#686C75"/>
<path opacity="0.95" d="M1325.14 116.739C1328.58 115.321 1331.04 114.212 1335.83 113" stroke="white" stroke-width="5.1932" stroke-miterlimit="10" stroke-linecap="round" stroke-linejoin="round"/>
<path opacity="0.95" d="M1207 212.651C1240.11 164.605 1270.68 138.288 1310.94 122.94" stroke="white" stroke-width="5.1932" stroke-miterlimit="10" stroke-linecap="round" stroke-linejoin="round"/>
<path d="M1476.44 448.77C1476.44 448.77 1470.23 448.203 1472.91 445.91C1475.59 443.616 1475.93 438.992 1479.79 438.463C1480.9 438.315 1483.36 439.277 1485.38 439.391C1490.39 439.671 1495.8 440.04 1494.27 443.826C1493.55 445.628 1485.23 445.217 1483.02 446.905C1480.82 448.593 1480.28 450.104 1477.76 452.205C1475.25 454.305 1474.4 452.763 1473.51 451.578C1472.71 450.407 1476.44 448.77 1476.44 448.77Z" fill="#FFC6AC"/>
<path d="M1490.4 463.228C1489.08 464.447 1486.95 464.01 1486.3 462.387C1485.65 460.808 1485.14 458.91 1485.84 457.927C1487.19 456.003 1489.12 457.044 1489.12 457.044C1489.12 457.044 1488.06 453.044 1489.11 451.935C1490.15 450.826 1491.29 450.719 1491.48 450.889C1491.66 451.058 1491.23 445.165 1492.78 444.405C1494.32 443.646 1496.87 446.816 1497.78 448.703C1498.5 450.265 1494.87 459.08 1490.4 463.228Z" fill="#FFC6AC"/>
<g clip-path="url(#clip1_333_7469)">
<path d="M1468.8 -252C1422.7 -106.1 1334.6 168.7 1311.5 239.2" stroke="white" stroke-width="3.0569" stroke-linecap="round" stroke-linejoin="round" stroke-dasharray="19.27 19.27"/>
<path d="M1309.3 246.201C1307.2 252.601 1306 256.101 1306 256.101" stroke="white" stroke-width="3.0569" stroke-linecap="round" stroke-linejoin="round"/>
<path d="M1528.82 -277.074C1480.72 -120.774 1389.72 175.426 1366.82 250.226" stroke="white" stroke-width="3.0569" stroke-linecap="round" stroke-linejoin="round" stroke-dasharray="20.61 20.61"/>
<path d="M1364.42 257.726C1362.42 264.226 1361.32 267.726 1361.32 267.726" stroke="white" stroke-width="3.0569" stroke-linecap="round" stroke-linejoin="round"/>
<path d="M1584.32 -139.275C1549.12 -26.6754 1496.12 142.425 1479.22 196.525" stroke="white" stroke-width="3.0569" stroke-linecap="round" stroke-linejoin="round" stroke-dasharray="20.3 20.3"/>
<path d="M1476.92 203.825C1474.92 210.225 1473.82 213.825 1473.82 213.825" stroke="white" stroke-width="3.0569" stroke-linecap="round" stroke-linejoin="round"/>
<path d="M1555.92 -203.675C1520.72 -91.0748 1467.72 78.0252 1450.82 132.125" stroke="white" stroke-width="3.0569" stroke-linecap="round" stroke-linejoin="round" stroke-dasharray="20.3 20.3"/>
<path d="M1448.52 139.426C1446.52 145.826 1445.42 149.426 1445.42 149.426" stroke="white" stroke-width="3.0569" stroke-linecap="round" stroke-linejoin="round"/>
<path d="M1685.62 -172.175C1638.12 -22.9748 1548.22 258.725 1525.32 330.725" stroke="white" stroke-width="3.0569" stroke-linecap="round" stroke-linejoin="round" stroke-dasharray="19.72 19.72"/>
<path d="M1523.02 338.025C1520.92 344.425 1519.82 347.925 1519.82 347.925" stroke="white" stroke-width="3.0569" stroke-linecap="round" stroke-linejoin="round"/>
<path d="M1652.02 -212.475C1611.82 -87.4746 1543.22 125.325 1523.42 186.625" stroke="white" stroke-width="3.0569" stroke-linecap="round" stroke-linejoin="round" stroke-dasharray="19.65 19.65"/>
<path d="M1521.12 193.625C1519.02 200.025 1517.92 203.525 1517.92 203.525" stroke="white" stroke-width="3.0569" stroke-linecap="round" stroke-linejoin="round"/>
<path d="M1787.12 -199.574C1743.02 -57.0742 1667.32 187.926 1645.32 258.826" stroke="white" stroke-width="3.0569" stroke-linecap="round" stroke-linejoin="round" stroke-dasharray="25.57 25.57"/>
<path d="M1643.02 266.326C1640.52 274.326 1639.22 278.626 1639.22 278.626" stroke="white" stroke-width="3.0569" stroke-linecap="round" stroke-linejoin="round"/>
<path d="M1716.92 -119.574C1677.42 7.82578 1617.12 202.126 1597.52 265.526" stroke="white" stroke-width="3.0569" stroke-linecap="round" stroke-linejoin="round" stroke-dasharray="28.8 28.8"/>
<path d="M1594.92 274.025C1592.42 282.025 1591.12 286.325 1591.12 286.325" stroke="white" stroke-width="3.0569" stroke-linecap="round" stroke-linejoin="round"/>
<path fill-rule="evenodd" clip-rule="evenodd" d="M2017.18 48.8722C2023.39 67.4565 2026.55 85.1558 1992.31 110.722C1965.6 130.682 1937.03 117.113 1908.02 130.191C1868.55 148.087 1873.45 176.111 1821.98 179.651C1777.6 182.699 1767.46 124.783 1702.8 147.693C1653.94 164.901 1598.66 149.66 1600.4 109.542C1602.15 69.3247 1552.86 61.95 1582.52 22.7165C1612.73 -17.3036 1662.23 15.4401 1685.9 6.09883C1722.21 -8.35562 1726.79 -38.0512 1780.77 -35.8879C1849.68 -33.1347 1842.27 2.46064 1905.51 0.199059C1962.44 -1.86586 2006.49 17.0134 2017.18 48.8722Z" fill="#F1F1F1"/>
<path fill-rule="evenodd" clip-rule="evenodd" d="M1730.62 12.6775C1730.62 23.9223 1728.55 33.9988 1724.78 42.7609C1711.21 75.0349 1675.03 88.7623 1632.44 71.384C1581.18 50.3548 1565.72 85.4035 1521.25 85.6955C1473.94 85.9876 1466.97 32.8305 1431.73 51.8152C1363.69 88.4702 1305.46 51.231 1332.97 -3.38644C1355.21 -47.6353 1389.14 -55.6673 1416.65 -54.207C1466.78 -51.5783 1459.24 -88.9636 1517.66 -86.919C1535.38 -86.3349 1547.25 -82.684 1556.11 -77.5728C1584.57 -61.2167 1580.99 -29.965 1632.81 -35.9525C1675.22 -40.9177 1730.81 -15.0693 1730.62 12.6775Z" fill="white"/>
<path fill-rule="evenodd" clip-rule="evenodd" d="M734.274 74.9702C730.674 87.4702 728.874 99.2702 748.574 116.47C763.874 129.87 780.274 120.77 796.974 129.57C819.674 141.57 816.774 160.37 846.274 162.77C871.774 164.77 877.574 125.97 914.674 141.27C942.674 152.87 974.374 142.57 973.474 115.67C972.474 88.6702 1000.77 83.7702 983.674 57.4702C966.374 30.6702 937.974 52.5702 924.374 46.2702C903.474 36.5702 900.874 16.6702 869.874 18.0702C830.274 19.8702 834.574 43.7702 798.274 42.2702C765.574 40.9702 740.374 53.5702 734.274 74.9702Z" fill="white"/>
<path d="M2011.12 48.6262C1974.52 51.0262 1939.52 47.8262 1903.62 39.7262C1898.12 38.5262 1892.32 36.8262 1888.52 32.2262C1882.82 25.2262 1884.52 13.4262 1890.62 6.92621C1896.72 0.426208 1905.92 -1.57383 1914.42 -0.673828C1919.82 -0.0738297 1925.42 1.52617 1930.62 -0.173828C1937.12 -2.27383 1941.52 -8.87379 1945.92 -14.5738C1950.32 -20.2738 1956.22 -25.9738 1963.02 -25.0738C1968.12 -24.3738 1972.12 -20.1738 1976.62 -17.5738C1981.12 -14.9738 1987.72 -14.6738 1990.22 -19.4738C1995.72 -29.7738 1988.02 -58.1738 2016.52 -58.1738C2057.62 -58.1738 2050.92 -29.5738 2055.92 -23.5738C2063.42 -14.3738 2076.82 -16.3738 2087.62 -19.4738C2098.52 -22.5738 2111.42 -25.5738 2119.82 -17.2738C2127.12 -10.1738 2127.82 2.92621 2135.62 9.42621C2143.82 16.3262 2155.52 12.6262 2165.52 9.52618C2175.52 6.42619 2188.32 5.2262 2194.12 14.7262C2199.02 22.6262 2195.32 34.1262 2188.42 40.0262C2181.52 45.8262 2172.42 47.2262 2163.72 47.8262C2107.52 51.4262 2056.32 45.6262 2011.12 48.6262Z" fill="#F4F4F4"/>
</g>
</g>
<defs>
<linearGradient id="paint0_linear_333_7469" x1="1201.84" y1="518" x2="1202.74" y2="910.168" gradientUnits="userSpaceOnUse">
<stop offset="0.280897" stop-color="#0099CC"/>
<stop offset="1" stop-color="#007FA9"/>
</linearGradient>
<linearGradient id="paint1_linear_333_7469" x1="1224.65" y1="393.062" x2="1225" y2="609.172" gradientUnits="userSpaceOnUse">
<stop offset="0.280897" stop-color="#0099CC"/>
<stop offset="1" stop-color="#007FA9"/>
</linearGradient>
<linearGradient id="paint2_linear_333_7469" x1="1282.86" y1="352.893" x2="1388.62" y2="500.42" gradientUnits="userSpaceOnUse">
<stop offset="0.280897" stop-color="#0099CC"/>
<stop offset="1" stop-color="#007FA9"/>
</linearGradient>
<linearGradient id="paint3_linear_333_7469" x1="1149.4" y1="407.064" x2="1150.3" y2="648.593" gradientUnits="userSpaceOnUse">
<stop offset="0.280897" stop-color="#0099CC"/>
<stop offset="1" stop-color="#007FA9"/>
</linearGradient>
<linearGradient id="paint4_linear_333_7469" x1="1227.63" y1="361.812" x2="1214.78" y2="405.577" gradientUnits="userSpaceOnUse">
<stop stop-color="#FFC2A6"/>
<stop offset="1" stop-color="#F8A681"/>
</linearGradient>
<linearGradient id="paint5_linear_333_7469" x1="1225.81" y1="379.662" x2="1233.43" y2="343.298" gradientUnits="userSpaceOnUse">
<stop offset="0.21766" stop-color="#FFC6AC"/>
<stop offset="1" stop-color="#FFC2A6"/>
</linearGradient>
<linearGradient id="paint6_linear_333_7469" x1="1756" y1="649.999" x2="1784" y2="808.999" gradientUnits="userSpaceOnUse">
<stop stop-color="#09A19F"/>
<stop offset="1" stop-color="#008F8D"/>
</linearGradient>
<linearGradient id="paint7_linear_333_7469" x1="1725.95" y1="424.513" x2="1725.95" y2="645.461" gradientUnits="userSpaceOnUse">
<stop stop-color="#FF6C84"/>
<stop offset="1" stop-color="#F95873"/>
</linearGradient>
<linearGradient id="paint8_linear_333_7469" x1="1691.41" y1="410.836" x2="1691.41" y2="440.579" gradientUnits="userSpaceOnUse">
<stop stop-color="#FF6C84"/>
<stop offset="1" stop-color="#F95873"/>
</linearGradient>
<linearGradient id="paint9_linear_333_7469" x1="1700.54" y1="437.59" x2="1700.54" y2="629.891" gradientUnits="userSpaceOnUse">
<stop stop-color="#FF6C84"/>
<stop offset="1" stop-color="#F95873"/>
</linearGradient>
<linearGradient id="paint10_linear_333_7469" x1="1439.58" y1="523.215" x2="1448.43" y2="421.009" gradientUnits="userSpaceOnUse">
<stop stop-color="#FF702E"/>
<stop offset="1" stop-color="#FF8F3E"/>
</linearGradient>
<linearGradient id="paint11_linear_333_7469" x1="1327" y1="1068.07" x2="1312.5" y2="570.07" gradientUnits="userSpaceOnUse">
<stop stop-color="#434A59"/>
<stop offset="1" stop-color="#909FBF"/>
</linearGradient>
<linearGradient id="paint12_linear_333_7469" x1="1353.19" y1="597.914" x2="1374" y2="401.075" gradientUnits="userSpaceOnUse">
<stop stop-color="#FF702E"/>
<stop offset="1" stop-color="#FF8F3E"/>
</linearGradient>
<linearGradient id="paint13_linear_333_7469" x1="1429.22" y1="524.137" x2="1431.54" y2="467.992" gradientUnits="userSpaceOnUse">
<stop stop-color="#FF702E"/>
<stop offset="1" stop-color="#FF8F3E"/>
</linearGradient>
<linearGradient id="paint14_linear_333_7469" x1="1365.1" y1="532.422" x2="1371.13" y2="421.427" gradientUnits="userSpaceOnUse">
<stop stop-color="#FF702E"/>
<stop offset="1" stop-color="#FF8F3E"/>
</linearGradient>
<linearGradient id="paint15_linear_333_7469" x1="1550" y1="571.07" x2="1621" y2="946.57" gradientUnits="userSpaceOnUse">
<stop stop-color="#A5A7AA"/>
<stop offset="1" stop-color="#686C75"/>
</linearGradient>
<linearGradient id="paint16_linear_333_7469" x1="1554.83" y1="585.543" x2="1554.83" y2="414.603" gradientUnits="userSpaceOnUse">
<stop stop-color="#FFAE43" stop-opacity="0.980392"/>
<stop offset="1" stop-color="#FFBF43"/>
</linearGradient>
<linearGradient id="paint17_linear_333_7469" x1="1588.64" y1="530.16" x2="1588.64" y2="426.391" gradientUnits="userSpaceOnUse">
<stop stop-color="#FFAE43" stop-opacity="0.980392"/>
<stop offset="1" stop-color="#FFBF43"/>
</linearGradient>
<clipPath id="clip0_333_7469">
<rect width="1920" height="1031" fill="white"/>
</clipPath>
<clipPath id="clip1_333_7469">
<rect width="2196.36" height="1545.89" fill="white" transform="translate(0 -465.885)"/>
</clipPath>
</defs>
</svg>
