<svg width="1920" height="1031" viewBox="0 0 1920 1031" fill="none" xmlns="http://www.w3.org/2000/svg">
<g clip-path="url(#clip0_333_7469)">
<mask id="mask0_333_7469" style="mask-type:alpha" maskUnits="userSpaceOnUse" x="0" y="0" width="1920" height="1031">
<path d="M1920 0H0L0 1018.51L4.1553 1017.85C7.64898 1017.3 11.2272 1017.73 14.4872 1019.11L19 1021C19 1021 37 1022 37 1022.75C40.5408 1024.13 45.5142 1025.24 53 1025C74.5 1024.33 76.6427 1028.36 94 1025C97.7701 1027.09 102.063 1027.2 108 1028.69C111.705 1029.62 117.269 1027.95 120 1028.69C122.089 1029.26 133.721 1026.38 136 1027.35C139.21 1028.72 146.114 1028.36 149 1028.69C155.068 1029.38 163.723 1028.57 169 1031C173 1031 182.424 1026.44 188 1027.35C194.273 1028.38 197.007 1025.57 204 1026.37C220.83 1028.3 223.5 1021.8 237 1021.8C250 1018.48 256.259 1021.9 259.907 1021.74C261.365 1021.68 262.785 1021.62 264.095 1021.66C279.001 1022.07 286.247 1017.94 302.5 1014.76C311.934 1015.63 322.611 1017.86 331.993 1018.48C337.762 1018.87 361.13 1019.29 370.5 1014.76C390.607 1016.22 392.888 1017.67 413.256 1017.67C415.322 1017.67 417.388 1017.67 419.452 1017.66C438.13 1017.64 456.735 1017.62 475.348 1019.29C485.616 1020.2 496.081 1020.87 506.591 1021.54C527.284 1022.85 538.616 1015.2 558.5 1018.48C564.282 1019.44 579.553 1020.7 585.292 1021.9C593.872 1023.68 604.231 1020.9 613 1021.9C623.383 1023.08 631.62 1016.13 641.717 1017.98C645.482 1018.67 649.26 1014.37 653.075 1015.03C677.157 1019.21 713.227 1019.74 747.875 1020.25C774.667 1020.64 800.608 1021.03 819.5 1023.07C822.594 1023.41 875.898 1026.88 879 1027.21C922.36 1031.94 916.222 1028.62 959.994 1027.33C974.841 1026.89 989.613 1022.55 1004.39 1021.22C1022.45 1019.58 1054.05 1024.29 1074.56 1028C1078.56 1028.72 1107.08 1025 1112.08 1024.29C1117.08 1023.59 1153.1 1027 1155.1 1028C1157.1 1029 1188.25 1020.09 1215.38 1014.2C1228.38 1011.38 1241.33 1017.44 1254.27 1014.51C1297.36 1004.76 1340.34 1017.28 1384.78 1011.67L1386.7 1011.43C1398.63 1009.92 1411.68 1007.05 1425.1 1004.09C1451.5 1006.28 1479.34 1000.14 1502.99 1003.48C1512.04 1004.75 1522.52 1005.74 1533.5 1006.76C1559.84 1009.23 1589.02 1001.95 1607.99 1009.68C1619.02 1014.17 1635.34 1007.48 1656 1006.76C1663.97 1006.49 1674.92 1001.55 1682.99 1001.55C1716.19 1001.55 1740.83 1005.85 1756.73 1002.3C1764.31 1000.61 1769.9 1001.36 1773.49 1001.36C1823.5 1001.55 1818.5 1007.6 1844 992.512C1849.01 989.549 1856.58 991.736 1862 989.076C1872.5 989.076 1869 989.076 1880 989.076C1887.91 989.076 1882.5 990.731 1893 989.076C1896.27 986.405 1899 988.02 1899 988.02C1901.5 988.02 1908.5 989.076 1909.55 989.076C1911.94 985.008 1918.97 990.844 1920 986.28L1920 0Z" fill="white"/>
<path d="M1920 0H0L0 1018.51L4.1553 1017.85C7.64898 1017.3 11.2272 1017.73 14.4872 1019.11L19 1021C19 1021 37 1022 37 1022.75C40.5408 1024.13 45.5142 1025.24 53 1025C74.5 1024.33 76.6427 1028.36 94 1025C97.7701 1027.09 102.063 1027.2 108 1028.69C111.705 1029.62 117.269 1027.95 120 1028.69C122.089 1029.26 133.721 1026.38 136 1027.35C139.21 1028.72 146.114 1028.36 149 1028.69C155.068 1029.38 163.723 1028.57 169 1031C173 1031 182.424 1026.44 188 1027.35C194.273 1028.38 197.007 1025.57 204 1026.37C220.83 1028.3 223.5 1021.8 237 1021.8C250 1018.48 256.259 1021.9 259.907 1021.74C261.365 1021.68 262.785 1021.62 264.095 1021.66C279.001 1022.07 286.247 1017.94 302.5 1014.76C311.934 1015.63 322.611 1017.86 331.993 1018.48C337.762 1018.87 361.13 1019.29 370.5 1014.76C390.607 1016.22 392.888 1017.67 413.256 1017.67C415.322 1017.67 417.388 1017.67 419.452 1017.66C438.13 1017.64 456.735 1017.62 475.348 1019.29C485.616 1020.2 496.081 1020.87 506.591 1021.54C527.284 1022.85 538.616 1015.2 558.5 1018.48C564.282 1019.44 579.553 1020.7 585.292 1021.9C593.872 1023.68 604.231 1020.9 613 1021.9C623.383 1023.08 631.62 1016.13 641.717 1017.98C645.482 1018.67 649.26 1014.37 653.075 1015.03C677.157 1019.21 713.227 1019.74 747.875 1020.25C774.667 1020.64 800.608 1021.03 819.5 1023.07C822.594 1023.41 875.898 1026.88 879 1027.21C922.36 1031.94 916.222 1028.62 959.994 1027.33C974.841 1026.89 989.613 1022.55 1004.39 1021.22C1022.45 1019.58 1054.05 1024.29 1074.56 1028C1078.56 1028.72 1107.08 1025 1112.08 1024.29C1117.08 1023.59 1153.1 1027 1155.1 1028C1157.1 1029 1188.25 1020.09 1215.38 1014.2C1228.38 1011.38 1241.33 1017.44 1254.27 1014.51C1297.36 1004.76 1340.34 1017.28 1384.78 1011.67L1386.7 1011.43C1398.63 1009.92 1411.68 1007.05 1425.1 1004.09C1451.5 1006.28 1479.34 1000.14 1502.99 1003.48C1512.04 1004.75 1522.52 1005.74 1533.5 1006.76C1559.84 1009.23 1589.02 1001.95 1607.99 1009.68C1619.02 1014.17 1635.34 1007.48 1656 1006.76C1663.97 1006.49 1674.92 1001.55 1682.99 1001.55C1716.19 1001.55 1740.83 1005.85 1756.73 1002.3C1764.31 1000.61 1769.9 1001.36 1773.49 1001.36C1823.5 1001.55 1818.5 1007.6 1844 992.512C1849.01 989.549 1856.58 991.736 1862 989.076C1872.5 989.076 1869 989.076 1880 989.076C1887.91 989.076 1882.5 990.731 1893 989.076C1896.27 986.405 1899 988.02 1899 988.02C1901.5 988.02 1908.5 989.076 1909.55 989.076C1911.94 985.008 1918.97 990.844 1920 986.28L1920 0Z" fill="#FFF1DD"/>
</mask>
<g mask="url(#mask0_333_7469)">
<path d="M1920 0H0V1050.51L4.1553 1049.85C7.64898 1049.3 11.2272 1049.73 14.4872 1051.11L19 1053C19 1053 37 1054 37 1054.75C40.5408 1056.13 45.5142 1057.24 53 1057C74.5 1056.33 76.6427 1060.36 94 1057C97.7701 1059.09 102.063 1059.2 108 1060.69C111.705 1061.62 117.269 1059.95 120 1060.69C122.089 1061.26 133.721 1058.38 136 1059.35C139.21 1060.72 146.114 1060.36 149 1060.69C155.068 1061.38 163.723 1060.57 169 1063C173 1063 182.424 1058.44 188 1059.35C194.273 1060.38 197.007 1057.57 204 1058.37C220.83 1060.3 223.5 1053.8 237 1053.8C250 1050.48 256.259 1053.9 259.907 1053.74C261.365 1053.68 262.785 1053.62 264.095 1053.66C279.001 1054.07 286.247 1049.94 302.5 1046.76C311.934 1047.63 322.611 1049.86 331.993 1050.48C337.762 1050.87 361.13 1051.29 370.5 1046.76C390.607 1048.22 392.888 1049.67 413.256 1049.67C415.322 1049.67 417.388 1049.67 419.452 1049.66C438.13 1049.64 456.735 1049.62 475.348 1051.29C485.616 1052.2 496.081 1052.87 506.591 1053.54C527.284 1054.85 538.616 1047.2 558.5 1050.48C564.282 1051.44 579.553 1052.7 585.292 1053.9C593.872 1055.68 604.231 1052.9 613 1053.9C623.383 1055.08 631.62 1048.13 641.717 1049.98C645.482 1050.67 649.26 1046.37 653.075 1047.03C677.157 1051.21 713.227 1051.74 747.875 1052.25C774.667 1052.64 800.608 1053.03 819.5 1055.07C822.594 1055.41 875.898 1058.88 879 1059.21C922.36 1063.94 916.222 1060.62 959.994 1059.33C974.841 1058.89 989.613 1054.55 1004.39 1053.22C1022.45 1051.58 1054.05 1056.29 1074.56 1060C1078.56 1060.72 1107.08 1057 1112.08 1056.29C1117.08 1055.59 1153.1 1059 1155.1 1060C1157.1 1061 1188.25 1052.09 1215.38 1046.2C1228.38 1043.38 1241.33 1049.44 1254.27 1046.51C1297.36 1036.76 1340.34 1049.28 1384.78 1043.67L1386.7 1043.43C1398.63 1041.92 1411.68 1039.05 1425.1 1036.09C1451.5 1038.28 1479.34 1032.14 1502.99 1035.48C1512.04 1036.75 1522.52 1037.74 1533.5 1038.76C1559.84 1041.23 1589.02 1033.95 1607.99 1041.68C1619.02 1046.17 1635.34 1039.48 1656 1038.76C1663.97 1038.49 1674.92 1033.55 1682.99 1033.55C1716.19 1033.55 1740.83 1037.85 1756.73 1034.3C1764.31 1032.61 1769.9 1033.36 1773.49 1033.36C1823.5 1033.55 1818.5 1039.6 1844 1024.51C1849.01 1021.55 1856.58 1023.74 1862 1021.08C1872.5 1021.08 1869 1021.08 1880 1021.08C1887.91 1021.08 1882.5 1022.73 1893 1021.08C1896.27 1018.41 1899 1020.02 1899 1020.02C1901.5 1020.02 1908.5 1021.08 1909.55 1021.08C1911.94 1017.01 1918.97 1022.84 1920 1018.28L1920 0Z" fill="white"/>
<path d="M1920 0H0V1050.51L4.1553 1049.85C7.64898 1049.3 11.2272 1049.73 14.4872 1051.11L19 1053C19 1053 37 1054 37 1054.75C40.5408 1056.13 45.5142 1057.24 53 1057C74.5 1056.33 76.6427 1060.36 94 1057C97.7701 1059.09 102.063 1059.2 108 1060.69C111.705 1061.62 117.269 1059.95 120 1060.69C122.089 1061.26 133.721 1058.38 136 1059.35C139.21 1060.72 146.114 1060.36 149 1060.69C155.068 1061.38 163.723 1060.57 169 1063C173 1063 182.424 1058.44 188 1059.35C194.273 1060.38 197.007 1057.57 204 1058.37C220.83 1060.3 223.5 1053.8 237 1053.8C250 1050.48 256.259 1053.9 259.907 1053.74C261.365 1053.68 262.785 1053.62 264.095 1053.66C279.001 1054.07 286.247 1049.94 302.5 1046.76C311.934 1047.63 322.611 1049.86 331.993 1050.48C337.762 1050.87 361.13 1051.29 370.5 1046.76C390.607 1048.22 392.888 1049.67 413.256 1049.67C415.322 1049.67 417.388 1049.67 419.452 1049.66C438.13 1049.64 456.735 1049.62 475.348 1051.29C485.616 1052.2 496.081 1052.87 506.591 1053.54C527.284 1054.85 538.616 1047.2 558.5 1050.48C564.282 1051.44 579.553 1052.7 585.292 1053.9C593.872 1055.68 604.231 1052.9 613 1053.9C623.383 1055.08 631.62 1048.13 641.717 1049.98C645.482 1050.67 649.26 1046.37 653.075 1047.03C677.157 1051.21 713.227 1051.74 747.875 1052.25C774.667 1052.64 800.608 1053.03 819.5 1055.07C822.594 1055.41 875.898 1058.88 879 1059.21C922.36 1063.94 916.222 1060.62 959.994 1059.33C974.841 1058.89 989.613 1054.55 1004.39 1053.22C1022.45 1051.58 1054.05 1056.29 1074.56 1060C1078.56 1060.72 1107.08 1057 1112.08 1056.29C1117.08 1055.59 1153.1 1059 1155.1 1060C1157.1 1061 1188.25 1052.09 1215.38 1046.2C1228.38 1043.38 1241.33 1049.44 1254.27 1046.51C1297.36 1036.76 1340.34 1049.28 1384.78 1043.67L1386.7 1043.43C1398.63 1041.92 1411.68 1039.05 1425.1 1036.09C1451.5 1038.28 1479.34 1032.14 1502.99 1035.48C1512.04 1036.75 1522.52 1037.74 1533.5 1038.76C1559.84 1041.23 1589.02 1033.95 1607.99 1041.68C1619.02 1046.17 1635.34 1039.48 1656 1038.76C1663.97 1038.49 1674.92 1033.55 1682.99 1033.55C1716.19 1033.55 1740.83 1037.85 1756.73 1034.3C1764.31 1032.61 1769.9 1033.36 1773.49 1033.36C1823.5 1033.55 1818.5 1039.6 1844 1024.51C1849.01 1021.55 1856.58 1023.74 1862 1021.08C1872.5 1021.08 1869 1021.08 1880 1021.08C1887.91 1021.08 1882.5 1022.73 1893 1021.08C1896.27 1018.41 1899 1020.02 1899 1020.02C1901.5 1020.02 1908.5 1021.08 1909.55 1021.08C1911.94 1017.01 1918.97 1022.84 1920 1018.28L1920 0Z" fill="#FFF1DD"/>
<path d="M27 -171.999V2473" stroke="#82E6E5"/>
<path d="M75 -171.999V2473" stroke="#82E6E5"/>
<path d="M123 -171.999V2473" stroke="#82E6E5"/>
<path d="M171 -171.999V2473" stroke="#82E6E5"/>
<path d="M219 -171.999V2473" stroke="#82E6E5"/>
<path d="M267 -171.999V2473" stroke="#82E6E5"/>
<path d="M315 -171.999V2473" stroke="#82E6E5"/>
<path d="M363 -171.999V2473" stroke="#82E6E5"/>
<path d="M411 -171.999V2473" stroke="#82E6E5"/>
<path d="M459 -171.999V2473" stroke="#82E6E5"/>
<path d="M507 -171.999V2473" stroke="#82E6E5"/>
<path d="M555 -171.999V2473" stroke="#82E6E5"/>
<path d="M603 -171.999V2473" stroke="#82E6E5"/>
<path d="M651 -171.999V2473" stroke="#82E6E5"/>
<path d="M699 -171.999V2473" stroke="#82E6E5"/>
<path d="M747 -171.999V2473" stroke="#82E6E5"/>
<path d="M795 -171.999V2473" stroke="#82E6E5"/>
<path d="M843 -171.999V2473" stroke="#82E6E5"/>
<path d="M891 -171.999V2473" stroke="#82E6E5"/>
<path d="M939 -171.999V2473" stroke="#82E6E5"/>
<path d="M987 -171.999V2473" stroke="#82E6E5"/>
<path d="M1035 -171.999V2473" stroke="#82E6E5"/>
<path d="M1083 -171.999V2473" stroke="#82E6E5"/>
<path d="M1131 -171.999V2473" stroke="#82E6E5"/>
<path d="M1179 -171.999V2473" stroke="#82E6E5"/>
<path d="M1227 -171.999V2473" stroke="#82E6E5"/>
<path d="M1275 -171.999V2473" stroke="#82E6E5"/>
<path d="M1323 -171.999V2473" stroke="#82E6E5"/>
<path d="M1371 -171.999V2473" stroke="#82E6E5"/>
<path d="M1419 -171.999V2473" stroke="#82E6E5"/>
<path d="M1467 -171.999V2473" stroke="#82E6E5"/>
<path d="M1515 -171.999V2473" stroke="#82E6E5"/>
<path d="M1563 -171.999V2473" stroke="#82E6E5"/>
<path d="M1611 -171.999V2473" stroke="#82E6E5"/>
<path d="M1659 -171.999V2473" stroke="#82E6E5"/>
<path d="M1707 -171.999V2473" stroke="#82E6E5"/>
<path d="M1755 -171.999V2473" stroke="#82E6E5"/>
<path d="M1803 -171.999V2473" stroke="#82E6E5"/>
<path d="M1851 -171.999V2473" stroke="#82E6E5"/>
<path d="M1899 -171.999V2473" stroke="#82E6E5"/>
<path d="M2382 22.001L-263 22.0009" stroke="#82E6E5"/>
<path d="M2382 70.001L-263 70.0009" stroke="#82E6E5"/>
<path d="M2382 118.001L-263 118.001" stroke="#82E6E5"/>
<path d="M2382 166.001L-263 166.001" stroke="#82E6E5"/>
<path d="M2382 214.001L-263 214.001" stroke="#82E6E5"/>
<path d="M2382 262.001L-263 262.001" stroke="#82E6E5"/>
<path d="M2382 310.001L-263 310.001" stroke="#82E6E5"/>
<path d="M2382 358.001L-263 358.001" stroke="#82E6E5"/>
<path d="M2382 406.001L-263 406.001" stroke="#82E6E5"/>
<path d="M2382 454.001L-263 454.001" stroke="#82E6E5"/>
<path d="M2382 502.001L-263 502.001" stroke="#82E6E5"/>
<path d="M2382 550.001L-263 550.001" stroke="#82E6E5"/>
<path d="M2382 598.001L-263 598.001" stroke="#82E6E5"/>
<path d="M2382 646.001L-263 646.001" stroke="#82E6E5"/>
<path d="M2382 694.001L-263 694.001" stroke="#82E6E5"/>
<path d="M2382 742.001L-263 742.001" stroke="#82E6E5"/>
<path d="M2382 790.001L-263 790.001" stroke="#82E6E5"/>
<path d="M2382 838.001L-263 838.001" stroke="#82E6E5"/>
<path d="M2382 886.001L-263 886.001" stroke="#82E6E5"/>
<path d="M2382 934.001L-263 934.001" stroke="#82E6E5"/>
<path d="M2382 982.001L-263 982.001" stroke="#82E6E5"/>
<path d="M2382 1030L-263 1030" stroke="#82E6E5"/>
</g>
<path fill-rule="evenodd" clip-rule="evenodd" d="M1387.98 102.963C1387.76 152.619 1352.21 179.365 1308.16 158.519C1266.39 138.656 1253.85 171.695 1217.76 171.99C1179.27 172.285 1173.6 122.039 1144.92 139.934C1089.63 174.547 1042.2 139.443 1064.66 87.6232C1082.87 45.7347 1110.24 38.1634 1132.81 39.54C1173.6 42.0965 1167.49 6.59956 1215.03 8.56615C1275.66 11.1227 1253.53 64.319 1308.7 56.846C1342.94 52.2245 1388.09 76.7086 1387.98 102.963Z" fill="#F4F4F4"/>
<path d="M1262.53 965.028C1257.48 962.81 1256.83 958.312 1254.7 954.061C1254.55 953.784 1253.72 947.653 1253.72 947.16C1253.69 945.035 1247.59 939.428 1244.75 943.833C1239.15 952.49 1233.02 938.966 1233.32 942.57C1234.28 953.352 1229.35 970.697 1233.35 971.898C1241.89 974.393 1281.78 977.32 1282.55 973.13C1283.01 970.635 1271.28 968.848 1262.53 965.028Z" fill="#343840"/>
<path d="M1136.07 965.028C1131.01 962.81 1130.37 958.312 1128.24 954.061C1128.09 953.784 1127.26 947.653 1127.26 947.16C1127.23 945.035 1121.13 939.428 1118.29 943.833C1112.68 952.49 1106.55 938.966 1106.86 942.57C1107.82 953.352 1102.89 970.697 1106.89 971.898C1115.43 974.393 1155.32 977.32 1156.09 973.13C1156.52 970.635 1144.79 968.848 1136.07 965.028Z" fill="#404859"/>
<path d="M1165.64 569.718C1175.72 547.445 1252.36 518.579 1272.57 513.804C1274.05 536.231 1284.4 550.186 1296.63 574.37C1313.73 608.164 1266.9 948.424 1266.9 948.424C1266.9 948.424 1261.2 951.905 1247.74 951.874C1229.97 951.874 1224.95 948.424 1224.95 948.424L1236.34 640.696C1236.34 640.696 1220.66 719.777 1193.06 801.168C1180.49 838.29 1139.27 948.424 1139.27 948.424C1139.27 948.424 1131.85 951.874 1121.34 951.874C1110.31 951.874 1102.71 948.424 1102.71 948.424L1133.39 778.772C1133.42 778.772 1159.73 582.841 1165.64 569.718Z" fill="url(#paint0_linear_333_7469)"/>
<path fill-rule="evenodd" clip-rule="evenodd" d="M1151.28 461.806C1153.33 476.829 1155.96 495.99 1155.66 520.92C1154.92 583.734 1158.22 627.541 1158.22 627.541C1158.22 627.541 1158.23 627.546 1158.25 627.554L1158.22 627.572C1158.22 627.572 1166.13 632.07 1208.03 629.852C1247.31 627.788 1279.07 625.785 1300.36 613.031C1300.36 610.948 1300.34 608.647 1300.31 606.278C1300.34 606.262 1300.36 606.254 1300.36 606.254C1300.36 606.254 1300.31 604.702 1300.22 601.869C1300.14 598.648 1300.03 595.471 1299.89 592.703C1298.19 549.184 1291.57 415.079 1273.9 402.684C1260.71 393.442 1220.42 387.404 1205.6 389.468C1187.61 391.963 1156.12 406.627 1150.11 428.13C1147.8 436.423 1149.27 447.143 1151.28 461.806Z" fill="url(#paint1_linear_333_7469)"/>
<path d="M1231.62 429.092C1273.12 465.242 1326.41 496.55 1368.49 499.631C1396.55 501.685 1469.49 472.396 1468.11 463.201C1467.05 456.157 1460.33 439.143 1460.33 439.143C1460.33 439.143 1380.08 452.865 1357.14 449.429C1322 444.146 1265.47 378.03 1221.09 394.088C1198.46 402.319 1225.5 423.77 1231.62 429.092Z" fill="url(#paint2_linear_333_7469)"/>
<path d="M1459.87 454.282C1459.87 454.282 1461.12 459.678 1461.76 459.785C1462.41 459.892 1484.44 456.683 1489.02 456.318C1493.63 455.979 1493.95 437.083 1491.93 436.594C1474 437.37 1459.87 454.282 1459.87 454.282Z" fill="#FFB492"/>
<path d="M1460.02 444.103C1460.02 444.103 1464.97 442.453 1467.65 440.16C1470.33 437.866 1475.93 432.989 1479.79 432.461C1480.9 432.313 1483.37 433.275 1485.38 433.388C1490.39 433.669 1495.8 434.038 1494.27 437.824C1493.55 439.626 1485.23 439.215 1483.03 440.903C1480.82 442.591 1473.53 449.815 1471.02 451.915C1468.51 454.015 1460.82 455.763 1459.93 454.579C1459.13 453.408 1460.02 444.103 1460.02 444.103Z" fill="#FFB492"/>
<path d="M1233.88 653.635C1233.78 653.635 1233.72 653.635 1233.63 653.604C1233.05 653.45 1232.71 652.895 1232.83 652.31C1238.22 630.16 1245.34 623.259 1245.61 622.982C1246.05 622.582 1246.72 622.582 1247.12 623.013C1247.52 623.444 1247.52 624.122 1247.09 624.523C1247 624.615 1240.1 631.423 1234.89 652.834C1234.8 653.296 1234.37 653.635 1233.88 653.635Z" fill="#008CBA"/>
<path d="M1110.31 942.479C1110.28 942.479 1110.25 942.479 1110.19 942.479C1109.91 942.417 1109.73 942.14 1109.79 941.832C1109.97 941 1127.38 858.223 1128.4 847.009C1128.98 840.724 1133.33 816.757 1137.52 793.59C1140.84 775.26 1143.98 757.916 1144.6 752.833C1144.94 749.937 1145.77 743.776 1146.82 735.982C1149.75 713.986 1154.64 677.172 1154.8 669.717C1154.98 659.705 1160.77 632.718 1160.84 632.441C1160.9 632.163 1161.17 631.979 1161.48 632.04C1161.76 632.102 1161.94 632.379 1161.88 632.687C1161.82 632.964 1156.03 659.859 1155.88 669.748C1155.75 677.295 1151.01 712.692 1147.9 736.136C1146.85 743.93 1146.05 750.091 1145.68 752.987C1145.06 758.101 1141.92 775.445 1138.59 793.806C1134.59 815.863 1130.06 840.878 1129.47 847.132C1128.46 858.407 1111.02 941.246 1110.84 942.078C1110.81 942.325 1110.56 942.479 1110.31 942.479Z" fill="#008CBA" stroke="#008CBA" stroke-width="2"/>
<path d="M1229.32 942.478H1229.29C1228.98 942.447 1228.76 942.2 1228.79 941.892C1229.75 929.354 1231.47 905.109 1231.23 902.983C1230.86 899.78 1234.4 840.046 1235.32 833.515C1236.03 828.647 1236.4 797.532 1236.68 774.797C1236.8 763.645 1236.93 754.834 1237.05 751.476C1237.14 748.919 1237.36 743.652 1237.6 736.997C1238.41 716.788 1239.76 682.993 1239.61 674.953C1239.39 664.355 1239.98 648.397 1239.98 648.243C1239.98 647.935 1240.22 647.72 1240.53 647.72C1240.84 647.72 1241.05 647.966 1241.05 648.274C1241.05 648.428 1240.47 664.386 1240.69 674.922C1240.84 682.993 1239.51 716.819 1238.68 737.028C1238.41 743.682 1238.22 748.95 1238.13 751.507C1238.01 754.865 1237.91 764.107 1237.76 774.797C1237.48 797.563 1237.08 828.709 1236.37 833.669C1235.26 841.524 1232 900.396 1232.28 902.86C1232.58 905.633 1229.93 940.506 1229.84 941.985C1229.84 942.262 1229.59 942.478 1229.32 942.478Z" fill="#008CBA" stroke="#008CBA" stroke-width="2"/>
<rect x="1057.11" y="780.549" width="202.81" height="82.7466" fill="#686C75"/>
<rect x="1057.11" y="780.549" width="202.81" height="16.2248" fill="#434A59"/>
<rect x="1049" y="718.895" width="219.034" height="61.6543" fill="#686C75"/>
<rect x="1081.45" y="765.946" width="16.2248" height="25.9597" fill="#333843"/>
<path fill-rule="evenodd" clip-rule="evenodd" d="M1107.41 679.955H1211.25V718.895H1195.02V696.18H1123.63V718.895H1107.41V679.955Z" fill="#333843"/>
<rect x="1219.36" y="765.946" width="16.2248" height="25.9597" fill="#333843"/>
<path d="M1180.67 405.395C1200.45 427.144 1169.43 466.145 1162.78 533.704C1157.6 586.353 1165.67 643.592 1169.03 663.955C1169.74 668.206 1166.63 672.18 1162.31 672.488C1153.6 673.166 1140.66 673.382 1138.5 669.1C1126.36 645.101 1108.62 575.016 1112.07 519.102C1114.59 478.098 1131.04 443.749 1145.31 424.341C1155.84 410.047 1173.71 397.786 1180.67 405.395Z" fill="url(#paint3_linear_333_7469)"/>
<path d="M1170.94 669.839C1170.97 668.853 1169.59 663.092 1169.31 661.86C1167.09 652.095 1154.95 652.926 1149.16 654.651C1136.47 658.41 1144.82 671.164 1148.15 674.891C1149.78 677.602 1156.96 679.42 1160.22 679.512C1165.74 679.636 1172.21 675.169 1170.94 669.839Z" fill="white"/>
<path d="M1174.71 685.546C1174.71 688.18 1173.83 691.175 1171.41 692.204C1170.52 692.58 1169.37 692.785 1167.55 692.785C1163.16 692.785 1151.84 696.669 1150.18 683.957C1148.52 671.245 1148 671.352 1155.15 668.106C1162.3 664.86 1167.55 667.869 1167.55 667.869C1168.46 669.095 1169.56 670.749 1170.54 672.453C1171.64 674.366 1172.86 677.844 1172.86 677.844C1172.86 677.844 1174.71 682.722 1174.71 685.546V685.546Z" fill="#FFB492"/>
<path d="M1211.02 390.423C1211.02 390.423 1208.15 390.423 1205.56 393.997C1202.98 397.57 1213.42 448.894 1219.34 467.162C1225.28 485.461 1241.67 543.193 1241.67 543.193C1241.67 543.193 1249.86 436.14 1244.04 403.054C1242.63 395.013 1234.71 386.203 1211.02 390.423Z" fill="white"/>
<path d="M1164.35 629.791C1163.79 629.791 1163.33 629.359 1163.27 628.805C1163.24 628.589 1161.3 606.223 1160.31 587.339C1159.33 568.855 1160.1 521.505 1168.72 493.071C1177.16 465.314 1183.75 437.187 1183.85 436.91C1183.97 436.325 1184.56 435.955 1185.14 436.109C1185.73 436.232 1186.1 436.818 1185.94 437.403C1185.88 437.68 1179.26 465.899 1170.79 493.718C1162.22 521.875 1161.48 568.886 1162.44 587.247C1163.45 606.1 1165.39 628.435 1165.39 628.651C1165.46 629.236 1164.99 629.76 1164.41 629.821C1164.41 629.791 1164.38 629.791 1164.35 629.791Z" fill="#008CBA"/>
<path d="M1245.31 479.3L1234.4 408.845C1234.4 408.845 1236.1 405.025 1235.14 403.084C1234.19 401.143 1229.81 397.446 1226.52 400.866C1224.58 402.899 1224.73 404.809 1224.73 404.809C1224.73 404.809 1225.31 408.383 1227.35 408.968C1227.35 408.968 1229.32 471.783 1230.43 504.099C1236.19 523.908 1241.67 543.223 1241.67 543.223C1241.67 543.223 1244.01 512.725 1245.31 479.3Z" fill="#004F74"/>
<path d="M1240.21 351.382C1240.21 351.382 1244.52 339.989 1235.55 336.881C1233.22 324.625 1221.65 331.573 1216.82 338.996C1211.77 342.708 1207.88 343.269 1209.14 353.756C1210.09 361.697 1214.7 369.422 1214.7 369.422C1214.7 369.422 1236.67 362.517 1240.21 351.382Z" fill="#383838"/>
<path d="M1216 357.812L1210.74 394.28C1211.08 397.992 1226.14 404.983 1231.49 399.632C1232.1 399.071 1230.93 393.633 1230.67 387.591C1230.24 377.492 1230.24 364.89 1230.24 364.89L1216 357.812Z" fill="url(#paint4_linear_333_7469)"/>
<path d="M1225.28 379.65C1219.45 377.881 1219.1 370.501 1219.1 370.501L1230.33 373.738C1230.37 375.982 1230.41 378.528 1230.46 381.074C1229.16 380.772 1227.43 380.298 1225.28 379.65Z" fill="#FF9869"/>
<path d="M1216.86 350.605C1216.86 350.605 1216.26 371.018 1219.93 373.219C1224.28 375.809 1230.5 376.499 1236.15 374.514C1240.34 373.047 1242.63 369.465 1242.41 363.682C1242.11 356.172 1239.69 349.353 1238.18 345.728C1236.58 341.887 1233.95 339.427 1230.84 339.298C1230.07 342.578 1223.9 347.713 1216.86 350.605Z" fill="url(#paint5_linear_333_7469)"/>
<path d="M1219.32 359.106C1218.68 358.329 1217.55 355.999 1217.12 355.093C1216.26 353.366 1214.75 350.259 1212.76 353.021C1209.91 357.035 1214.79 363.81 1217.64 363.249C1219.06 362.99 1220.92 361.048 1219.32 359.106Z" fill="#FFC2A6"/>
<path d="M1229.03 350.432C1229.16 350.389 1229.64 350.259 1229.94 350.734C1230.16 351.122 1230.33 351.597 1230.29 352.072C1230.24 352.59 1229.73 352.978 1229.21 352.805C1228.52 352.633 1228.04 350.691 1229.03 350.432Z" fill="#383838"/>
<path d="M1238.05 349.827C1238.18 349.784 1238.66 349.655 1238.96 350.129C1239.18 350.518 1239.35 350.993 1239.31 351.467C1239.26 351.985 1238.74 352.374 1238.23 352.201C1237.54 351.985 1237.06 350.086 1238.05 349.827Z" fill="#383838"/>
<path d="M1229.59 346.978C1228.95 346.676 1227.82 346.849 1227.22 347.194C1226.57 347.539 1225.88 348.186 1225.62 348.92C1225.58 349.006 1225.54 349.093 1225.54 349.179C1225.49 349.352 1225.58 349.438 1225.71 349.524C1225.88 349.654 1226.1 349.697 1226.31 349.524C1227.22 348.834 1228.43 348.273 1229.51 347.971C1230.07 347.755 1230.02 347.021 1229.59 346.978Z" fill="#383838"/>
<path d="M1239.56 347.022C1239.52 347.022 1239.48 346.979 1239.43 346.979C1239.09 346.936 1238.7 346.85 1238.27 346.807C1238.23 346.807 1238.23 346.807 1238.18 346.807C1238.18 346.807 1238.18 346.807 1238.14 346.807C1237.54 346.72 1236.97 346.807 1236.72 347.411C1236.67 347.497 1236.67 347.584 1236.72 347.627C1236.67 347.929 1236.89 348.231 1237.23 348.188C1238.01 348.101 1238.79 348.015 1239.61 348.015C1240.21 347.972 1240.12 347.066 1239.56 347.022Z" fill="#383838"/>
<path d="M1240.04 358.201C1240.04 358.201 1233.3 359.798 1229.64 359.927C1229.64 359.927 1231.88 364.071 1236.11 363.941C1240.34 363.768 1240.04 358.201 1240.04 358.201Z" fill="white"/>
<path d="M1236.11 358.46C1236.2 358.46 1236.29 358.46 1236.37 358.416C1238.49 357.596 1238.75 355.741 1238.75 355.654C1238.79 355.309 1238.53 354.964 1238.19 354.921C1237.84 354.878 1237.5 355.137 1237.45 355.482C1237.45 355.525 1237.24 356.647 1235.9 357.165C1235.55 357.294 1235.38 357.683 1235.51 358.028C1235.6 358.33 1235.86 358.46 1236.11 358.46Z" fill="#FF9869"/>
<path d="M1210.93 384.108L1228.82 397.448L1231.69 386.511C1231.69 386.511 1235.97 391.379 1237.2 393.104C1239.17 395.815 1241.18 405.704 1241.18 405.704L1230.36 402.007L1221.21 410.818C1221.21 410.818 1209.2 394.767 1208.43 393.35C1207.66 391.902 1210.93 384.108 1210.93 384.108Z" fill="white"/>
<path d="M1246.14 613.215C1245.55 613.215 1245.09 612.753 1245.06 612.168C1244.29 582.44 1240.62 543.685 1240.59 543.315C1240.53 542.73 1240.96 542.206 1241.58 542.145C1242.16 542.083 1242.69 542.514 1242.75 543.13C1242.78 543.531 1246.45 582.347 1247.22 612.137C1247.25 612.723 1246.76 613.215 1246.14 613.215Z" fill="black" fill-opacity="0.12"/>
<path d="M1664.24 439.474C1664.24 439.474 1656.44 518.64 1653.6 539.061C1650.27 562.991 1627.26 606.882 1636.3 616.915C1645.34 626.948 1666.93 613.476 1673.67 602.805C1680.4 592.134 1690.61 572.493 1691.78 543.244C1692.95 513.996 1691.89 431.568 1664.24 439.474Z" fill="#FF4C6A"/>
<path d="M1668.87 540.473C1668.84 540.473 1668.77 540.473 1668.73 540.473L1657.57 539.48C1656.61 539.409 1655.93 538.558 1656.01 537.636C1656.08 536.679 1656.93 536.005 1657.85 536.076L1669.02 537.069C1669.97 537.14 1670.65 537.991 1670.58 538.913C1670.51 539.799 1669.76 540.473 1668.87 540.473Z" fill="#B5375E"/>
<path d="M1775.3 557.966C1774.31 556.057 1683.6 605.064 1678.5 609.57C1678.5 609.57 1696.35 915.696 1697.24 934.713C1697.66 944.031 1714.4 940.823 1716.24 931.582C1737.71 822.481 1726.11 784.294 1726.11 784.294C1726.11 784.294 1732.88 700.008 1732 680.57C1733.24 687.673 1765.03 931.086 1765.81 934.943C1768.78 949.11 1781.55 945.368 1783.18 933.377C1783.85 928.451 1800.35 805.915 1792.5 704.07C1785.92 619.295 1780.47 567.933 1775.3 557.966Z" fill="#FFC5A9"/>
<path d="M1794.49 613.904C1790.16 587.988 1780.55 554.911 1778.11 537.646C1746.56 542.751 1698.69 540.836 1682.88 539.985C1675.05 569.482 1664.73 613.408 1664.23 641.309C1663.99 655.703 1675.01 810.703 1675.01 810.703C1675.01 810.703 1704.47 819.814 1743.86 821.941C1783.25 824.068 1813.35 812.652 1813.35 812.652C1813.35 812.652 1801.93 658.291 1794.49 613.904Z" fill="url(#paint6_linear_333_7469)"/>
<path d="M1798.04 640.067C1796.8 629.502 1795.63 620.497 1794.53 613.903C1793.92 610.286 1793.21 606.528 1792.43 602.664L1673.7 623.617C1673.7 623.617 1681.57 634.359 1719.33 638.684C1749.18 642.158 1781.62 643.187 1798.04 640.067Z" fill="#018280"/>
<path d="M1797.54 618.687C1791.08 542.641 1755.35 460.32 1744.43 438.942C1738.72 427.774 1716.92 406.219 1694.3 412.813C1669.77 419.939 1660.3 431.922 1655.8 448.372C1651.58 463.972 1657.36 596.565 1664.23 623.19C1664.87 625.601 1760.28 645.454 1797.54 618.687Z" fill="url(#paint7_linear_333_7469)"/>
<path d="M1668.49 375.342C1668.95 373.18 1669.83 368.429 1674.9 365.557C1679.97 362.65 1687.42 364.423 1692.42 367.578C1697.42 370.733 1701.85 392.324 1692.06 395.798C1682.31 399.273 1666.68 383.709 1668.49 375.342Z" fill="#BABABA"/>
<path d="M1689.44 390.442L1699.33 409.41C1701.04 412.849 1696.71 425.895 1689.09 424.158C1686.86 423.662 1686.68 417.883 1686.47 413.558L1683.38 396.966L1689.44 390.442Z" fill="#FFC5A9"/>
<path d="M1686.15 379.915C1686.15 379.915 1687.67 383.247 1689.05 387.36C1691.11 393.387 1688.13 397.641 1682.39 400.513C1676.79 403.314 1674.34 402.746 1671.65 399.166C1670.97 398.279 1670.16 396.897 1669.66 395.514C1668.88 393.21 1668.38 389.026 1669.13 385.942C1669.48 384.524 1669.34 382.503 1669.45 381.439C1670.09 375.129 1673.45 373.533 1678.63 376.724C1679.76 377.433 1680.08 378.284 1686.15 379.915Z" fill="#FFC5A9"/>
<path d="M1688.06 394.236C1688.88 394.981 1689.98 403.631 1685.4 407.354L1684.13 401.823C1683.95 400.972 1683.24 400.086 1682.46 400.476C1677.89 402.745 1675.41 402.816 1673.17 400.795C1674.48 400.901 1677.39 400.901 1680.05 399.696C1683.6 398.1 1687.18 393.456 1688.06 394.236Z" fill="#FF9869"/>
<path d="M1679.2 390.37C1676.5 391.717 1673.06 392.356 1671.61 392.214C1671.11 392.178 1670.72 392.675 1670.9 393.1C1673.81 401.325 1679.73 395.014 1680.01 391.115C1680.08 390.547 1679.73 390.122 1679.2 390.37Z" fill="white"/>
<path d="M1678.8 379.806C1677.53 379.239 1676.39 378.849 1675.08 379.841C1674.73 380.125 1674.87 380.763 1675.4 380.692C1676.89 380.48 1677.38 380.373 1678.73 380.692C1679.33 380.87 1679.55 380.125 1678.8 379.806Z" fill="#E7F2F2"/>
<path d="M1669.05 381.791C1669.44 381.189 1670.19 381.011 1670.86 380.905C1671.32 380.834 1671.78 381.224 1671.36 381.543C1670.08 382.429 1670.01 382.217 1669.48 382.748C1669.09 383.103 1668.63 382.465 1669.05 381.791Z" fill="#E7F2F2"/>
<path d="M1686.47 363.146C1686.47 363.146 1688.17 358.466 1691.29 358.111C1694.41 357.757 1698.8 359.778 1697.63 363.429C1696.43 367.081 1690.69 369.492 1689.13 369.563C1687.53 369.633 1684.48 366.514 1686.47 363.146Z" fill="#BABABA"/>
<path d="M1674.27 389.804C1674.34 389.875 1674.13 390.088 1673.77 390.159C1673.42 390.265 1672.85 390.265 1672.28 390.017C1672.28 390.017 1672.25 390.017 1672.25 389.982C1671.89 389.804 1671.61 389.556 1671.43 389.308C1671.15 388.953 1671.04 388.599 1671.04 388.386C1671.04 388.28 1671.08 388.209 1671.11 388.209C1671.15 388.209 1671.15 388.209 1671.18 388.209C1671.29 388.28 1671.47 388.493 1671.75 388.705C1671.96 388.883 1672.18 389.06 1672.46 389.202C1672.5 389.237 1672.53 389.237 1672.57 389.237C1672.99 389.45 1673.42 389.521 1673.77 389.592C1674.06 389.698 1674.23 389.698 1674.27 389.804Z" fill="#FF9869"/>
<path d="M1675.19 383.743C1675.3 384.204 1675.65 384.523 1675.93 384.452C1676.25 384.381 1676.39 383.955 1676.29 383.459C1676.18 382.998 1675.83 382.679 1675.54 382.75C1675.22 382.856 1675.08 383.282 1675.19 383.743Z" fill="#434A59"/>
<path d="M1668.52 385.377C1668.63 385.837 1668.98 386.157 1669.26 386.086C1669.58 386.015 1669.73 385.589 1669.62 385.093C1669.51 384.632 1669.16 384.313 1668.87 384.384C1668.56 384.49 1668.38 384.916 1668.52 385.377Z" fill="#434A59"/>
<path d="M1681.11 419.444C1681.11 419.444 1680.69 410.616 1678.77 408.595C1676.86 406.574 1676.15 406.114 1680.33 404.873C1684.48 403.632 1694.83 399.661 1696.71 398.385C1698.59 397.109 1699.76 398.704 1699.83 399.519C1699.9 400.335 1705.04 412.672 1705.54 413.736C1706.04 414.8 1700.19 424.265 1692.71 426.96C1685.23 429.69 1681.54 423.734 1681.11 419.444Z" fill="url(#paint8_linear_333_7469)"/>
<path d="M1674.37 384.349C1674.34 384.349 1674.27 384.349 1674.23 384.349C1673.03 383.781 1672.35 384.81 1672.32 384.88C1672.25 384.987 1672.1 385.022 1672 384.916C1671.89 384.81 1671.86 384.668 1671.93 384.526C1672.25 384.03 1673.17 383.285 1674.41 383.852C1674.52 383.923 1674.59 384.065 1674.55 384.207C1674.48 384.278 1674.44 384.349 1674.37 384.349Z" fill="#434A59"/>
<path d="M1678.24 387.754C1677.32 387.966 1676.36 387.754 1675.58 387.151C1674.8 386.548 1674.27 385.662 1674.06 384.598C1673.85 383.535 1673.99 382.542 1674.48 381.762C1674.94 380.982 1675.72 380.415 1676.65 380.202C1678.63 379.706 1680.44 380.911 1680.87 382.967C1681.26 385.024 1680.23 387.08 1678.53 387.683C1678.42 387.683 1678.31 387.718 1678.24 387.754ZM1675.05 382.081C1674.66 382.755 1674.56 383.57 1674.7 384.457C1674.87 385.343 1675.34 386.123 1675.97 386.619C1676.61 387.115 1677.36 387.293 1678.1 387.115C1679.62 386.761 1680.58 384.953 1680.23 383.145C1679.84 381.195 1678.21 380.521 1676.79 380.876C1676.68 380.911 1676.58 380.911 1676.5 380.947C1675.87 381.159 1675.37 381.549 1675.05 382.081Z" fill="#434A59"/>
<path d="M1670.16 388.747C1669.38 388.853 1668.6 388.569 1667.97 387.896C1667.36 387.257 1666.94 386.371 1666.8 385.378C1666.65 384.386 1666.8 383.5 1667.22 382.79C1667.65 382.081 1668.32 381.656 1669.1 381.514C1670.73 381.266 1672.11 382.542 1672.43 384.528C1672.72 386.513 1671.83 388.357 1670.38 388.711C1670.27 388.711 1670.23 388.711 1670.16 388.747ZM1667.79 383.074C1667.43 383.641 1667.33 384.421 1667.43 385.272C1667.58 386.123 1667.93 386.903 1668.46 387.47C1668.96 387.967 1669.53 388.215 1670.06 388.144C1671.23 387.967 1672.01 386.407 1671.72 384.669C1671.48 383.003 1670.41 382.01 1669.14 382.188C1669.06 382.188 1669.03 382.223 1668.96 382.223C1668.5 382.294 1668.07 382.613 1667.79 383.074Z" fill="#434A59"/>
<path d="M1679.97 381.831L1688.69 379.385L1688.51 380.023L1680.4 382.398L1679.97 381.831Z" fill="#434A59"/>
<path d="M1687.88 382.646C1687.95 381.866 1687.92 381.121 1687.81 380.341C1687.63 378.888 1687.7 376.689 1689.97 377.469C1693.31 378.604 1693.84 386.368 1690.33 387.396C1687.7 388.212 1687.7 384.56 1687.88 382.646Z" fill="#FFC5A9"/>
<path d="M1631.37 623.935C1631.37 623.935 1651.93 619.965 1658.49 618.83C1666.82 617.376 1673.31 627.126 1671.43 631.097C1669.55 635.067 1665.16 637.833 1663.88 636.202C1662.6 634.571 1662.53 627.693 1658.49 627.693C1656.43 627.693 1639.45 630.565 1636.62 633.188C1634.49 635.138 1628.39 634.642 1625.52 634.287C1624.6 634.181 1623.89 633.437 1623.82 632.515L1623.29 626.488C1623.18 625.389 1624 624.432 1625.09 624.361L1631.37 623.935Z" fill="#333843"/>
<path d="M1633.71 950.632L1633.36 628.792L1625.7 628.969L1626.05 950.774L1633.71 950.632Z" fill="#333843"/>
<path d="M1625.37 944.877L1625.31 954.945L1634.17 955.001L1634.24 944.932L1625.37 944.877Z" fill="#434A59"/>
<path d="M1636.76 607.628C1636.76 607.628 1627.58 615.392 1627.23 620.391C1626.87 625.39 1631.98 634.891 1635.95 634.43C1639.92 633.969 1641.62 623.298 1642.58 621.88C1643.53 620.462 1648.46 616.775 1647.54 613.3C1646.62 609.826 1642.01 604.153 1636.76 607.628Z" fill="#FFC5A9"/>
<path d="M1705.54 430.646C1705.54 430.646 1704.3 506.302 1702.24 523.107C1699.41 546.399 1652.72 589.9 1656.9 600.819C1661.08 611.739 1673.92 621.665 1683.21 614.575C1692.49 607.484 1732.13 565.792 1740.32 534.239C1749.86 497.545 1741.06 434.971 1732.02 428.909C1722.98 422.917 1706.04 423.059 1705.54 430.646Z" fill="url(#paint9_linear_333_7469)"/>
<path d="M1661.36 601.991C1661.36 601.991 1645.02 612.839 1642.4 616.668C1639.77 620.497 1639.21 629.077 1641.37 630.92C1643.53 632.764 1645.94 632.445 1649.88 628.261C1653.78 624.042 1664.13 620.001 1667.21 618.441C1670.3 616.881 1672.25 613.194 1671.72 609.684C1671.19 606.21 1664.41 600.573 1661.36 601.991Z" fill="#FFC5A9"/>
<path d="M1724.76 535.729C1724.58 535.729 1724.4 535.693 1724.22 535.658L1701.04 528.213C1700.15 527.929 1699.66 526.972 1699.94 526.05C1700.22 525.164 1701.18 524.667 1702.1 524.951L1725.29 532.396C1726.17 532.68 1726.67 533.637 1726.39 534.559C1726.17 535.232 1725.5 535.729 1724.76 535.729Z" fill="#F24562"/>
<path d="M1680.97 617.732C1680.4 617.732 1679.84 617.448 1679.52 616.952C1678.95 616.136 1679.16 615.037 1679.98 614.47C1680.19 614.328 1701.64 599.473 1717.74 577.315C1732.91 556.398 1736.53 551.435 1741.31 519.386C1746.1 487.62 1738.51 450.607 1738.44 450.253C1738.23 449.296 1738.87 448.338 1739.82 448.161C1740.78 447.948 1741.74 448.587 1741.91 449.544C1741.99 449.934 1749.71 487.514 1744.82 519.917C1739.89 552.818 1735.78 558.455 1720.61 579.407C1704.16 602.097 1682.21 617.271 1682 617.413C1681.64 617.625 1681.29 617.732 1680.97 617.732Z" fill="#F24562"/>
<path d="M1660.34 591.566C1659.98 591.566 1659.59 591.46 1659.31 591.212C1658.53 590.645 1658.35 589.51 1658.92 588.73C1659.24 588.305 1689.27 547.038 1692 542.429C1692.39 541.791 1692.81 541.082 1693.27 540.373C1696.29 535.657 1700.4 529.205 1701.07 516.584C1701.85 501.694 1703.34 453.336 1703.34 452.875C1703.38 451.882 1704.19 451.103 1705.15 451.173C1706.14 451.209 1706.89 452.024 1706.85 452.982C1706.85 453.478 1705.36 501.835 1704.58 516.796C1703.87 530.339 1699.26 537.536 1696.25 542.287C1695.79 542.996 1695.4 543.634 1695.01 544.272C1692.21 549.023 1663 589.12 1661.75 590.822C1661.44 591.283 1660.9 591.566 1660.34 591.566Z" fill="#F24562"/>
<path d="M1764.14 950.951C1766.55 947.051 1764.32 927.978 1764.36 927.446C1764.39 925.141 1784.81 923.156 1784.49 927.091C1783.54 938.791 1785.77 965.699 1781.73 966.089C1773.11 966.869 1740.11 972.223 1740.57 967.685C1740.82 964.919 1761.52 955.205 1764.14 950.951Z" fill="#404859"/>
<path d="M1696.29 950.953C1698.7 947.053 1696.47 927.979 1696.5 927.448C1696.54 925.143 1718.3 920.96 1717.67 924.859C1714.01 946.379 1717.88 965.701 1713.84 966.091C1705.22 966.871 1672.22 972.224 1672.68 967.686C1672.96 964.921 1693.66 955.207 1696.29 950.953Z" fill="#404859"/>
<path d="M1743.12 808.149C1742.37 808.149 1741.7 807.617 1741.56 806.837C1741.49 806.518 1735.5 775.178 1726.53 744.936C1717.56 714.731 1694.26 664.069 1694.05 663.572C1693.7 662.757 1694.02 661.835 1694.83 661.445C1695.65 661.091 1696.57 661.41 1696.96 662.225C1697.21 662.721 1720.57 713.596 1729.61 744.015C1738.62 774.398 1744.68 805.88 1744.71 806.199C1744.89 807.05 1744.32 807.9 1743.44 808.078C1743.33 808.149 1743.22 808.149 1743.12 808.149Z" fill="#018280"/>
<path d="M1420.16 394.57C1420.16 394.57 1421.21 397.953 1421.42 400.659C1421.62 403.364 1421.11 405.563 1422.57 407.017C1424.02 408.472 1425.14 408.235 1424.9 411.076C1424.7 413.917 1423.07 415.541 1421.75 415.811C1420.44 416.082 1420.1 414.391 1419.42 414.458C1418.74 414.526 1420.6 416.623 1415.4 416.928C1410.19 417.232 1397.47 417.908 1395.37 413.748C1394.05 411.11 1394.29 397.75 1400.28 393.691C1406.26 389.632 1420.16 394.57 1420.16 394.57Z" fill="#383838"/>
<path d="M1398.55 414.119C1398.55 414.119 1374.2 408.065 1362.6 408.234C1351 408.403 1343.79 409.181 1345.35 411.616C1346.91 414.052 1392.84 429.001 1396.39 427.649C1399.94 426.296 1398.55 414.119 1398.55 414.119Z" fill="#EADBC7"/>
<path d="M1414.31 427.344C1414.31 427.344 1458.42 459.442 1475.06 487.211C1484.94 503.683 1481.59 515.352 1472.79 522.489C1456.86 535.409 1416.24 499.151 1403.79 481.36C1391.31 463.602 1414.31 427.344 1414.31 427.344Z" fill="url(#paint10_linear_333_7469)"/>
<path d="M1428.21 967.97C1423.72 966.075 1422.94 962.186 1420.87 958.499C1420.74 958.262 1419.72 952.952 1419.69 952.512C1419.56 950.686 1414.01 945.849 1411.74 949.671C1407.31 957.214 1400.55 945.714 1401.02 948.826C1402.37 958.161 1399.7 973.043 1403.25 974.058C1410.8 976.189 1445.53 978.556 1445.97 974.937C1446.24 972.739 1435.99 971.25 1428.21 967.97Z" fill="#404859"/>
<path d="M1230.82 967.97C1235.32 966.075 1236.1 962.186 1238.16 958.499C1238.3 958.262 1239.31 952.952 1239.34 952.512C1239.48 950.686 1245.03 945.849 1247.29 949.671C1251.72 957.214 1258.49 945.714 1258.02 948.826C1256.66 958.161 1259.33 973.043 1255.78 974.058C1248.24 976.189 1213.5 978.556 1213.06 974.937C1212.79 972.739 1223.08 971.25 1230.82 967.97Z" fill="#404859"/>
<path d="M1264.21 957.518C1264.21 957.518 1360.06 652.432 1361.31 652.094C1362.39 662.511 1388.57 953.256 1388.57 953.256C1388.57 953.256 1397.54 956.469 1407.21 956.706C1413.64 956.841 1422.94 957.214 1422.94 957.214C1422.94 957.214 1423.75 673.267 1418.98 629.568C1417.97 620.3 1416.85 611.54 1415.67 603.287C1415.67 603.253 1415.67 603.219 1415.67 603.185C1415.63 603.016 1415.6 602.847 1415.6 602.678C1410.22 565.202 1403.42 538.651 1398.11 529.315C1392.84 517.342 1297.15 555.495 1297.28 560.568C1297.52 568.99 1297.39 577.886 1296.98 587.153C1296.95 587.593 1296.95 588.066 1296.91 588.506C1296.24 602.441 1294.85 617.222 1292.99 632.409C1292.85 633.592 1292.68 634.776 1292.55 635.96C1287.48 675.297 1270.67 766.45 1270.67 766.45L1232.68 957.518H1264.21Z" fill="url(#paint11_linear_333_7469)"/>
<g opacity="0.28">
<path d="M1415.67 603.32C1415.67 603.286 1415.67 603.253 1415.67 603.219C1415.63 603.05 1415.6 602.881 1415.6 602.711C1414.59 595.744 1413.54 589.114 1412.45 582.925L1303.64 597.131C1303.64 597.131 1335.27 610.355 1368.32 610.829C1386.75 611.1 1404.54 610.761 1416.65 610.423C1416.31 607.988 1415.97 605.62 1415.67 603.32Z" fill="black"/>
</g>
<path d="M1290.96 443.377C1295.56 428.596 1310.98 416.826 1326.17 413.139C1326.17 413.173 1326.17 413.173 1326.2 413.207C1347.88 406.915 1381.4 414.154 1392.16 418.212C1422.19 429.543 1418.84 575.525 1417.42 591.827C1413.3 599.302 1311.46 604.443 1294.21 594.06C1296.78 544.407 1287.2 455.418 1290.96 443.377Z" fill="url(#paint12_linear_333_7469)"/>
<path d="M1414.11 460.863C1406.77 459.341 1396.66 462.96 1396.66 462.96C1396.66 462.96 1373.83 487.651 1374.47 498.88C1374.71 503.142 1375.21 512.173 1376.23 521.88C1380.09 522.692 1386.28 523.774 1392.36 524.045C1392.36 523.605 1392.36 523.165 1392.4 522.726C1392.53 514.845 1394.36 508.723 1395.24 507.674C1397.84 504.563 1418.54 493.908 1421.01 486.569C1423.48 479.195 1421.45 462.351 1414.11 460.863Z" fill="#FFDBE6"/>
<path d="M1387.12 556.955C1393.28 558.308 1392.19 538.894 1392.36 524.011C1386.28 523.741 1380.09 522.625 1376.23 521.847C1377.92 537.845 1381.1 555.67 1387.12 556.955Z" fill="#FFBED2"/>
<path d="M1380.32 545.894C1380.32 545.894 1382.69 557.766 1381.95 561.25C1381.2 564.733 1377.18 573.46 1382.59 571.769C1388 570.077 1391.75 561.385 1392.3 557.969C1392.84 554.553 1392.19 546.807 1392.09 545.217C1391.99 543.628 1380.19 542.512 1380.32 545.894Z" fill="#FFDBE6"/>
<path d="M1435.56 456.737C1428.08 456.433 1413.03 463.265 1413.03 463.265C1413.03 463.265 1394.53 491.339 1397 502.331C1397.94 506.491 1399.87 515.319 1402.51 524.722C1406.43 524.891 1412.72 524.959 1418.78 524.215C1418.71 523.775 1418.64 523.335 1418.58 522.896C1417.43 515.083 1418.2 508.758 1418.91 507.574C1420.98 504.09 1439.65 490.189 1440.9 482.545C1442.15 474.9 1443.03 457.008 1435.56 456.737Z" fill="#FFDBE6"/>
<path d="M1418.98 557.565C1425.27 557.869 1421.05 538.928 1418.78 524.215C1412.72 524.959 1406.43 524.857 1402.51 524.722C1406.77 540.213 1412.83 557.26 1418.98 557.565Z" fill="#FFBED2"/>
<path d="M1410.46 547.756C1410.46 547.756 1414.75 559.087 1414.55 562.638C1414.35 566.19 1411.84 575.457 1416.92 572.887C1421.99 570.35 1424.26 561.116 1424.22 557.7C1424.19 554.25 1422.3 546.708 1421.92 545.152C1421.59 543.63 1409.75 544.442 1410.46 547.756Z" fill="#FFDBE6"/>
<path d="M1395.64 415.134C1395.64 415.134 1410.12 408.369 1423.45 420.681C1433.66 430.117 1440.6 447.13 1440.93 463.805C1441 466.443 1393.55 471.686 1394.8 462.52C1396.46 450.648 1396.66 439.926 1395.54 431.639C1394.49 423.657 1392.13 417.907 1395.64 415.134Z" fill="#FFDBE6"/>
<path d="M1354.48 423.082C1354.48 423.082 1351.84 420.478 1351.3 419.362C1350.76 418.246 1350.32 420.309 1350.52 421.121C1350.52 421.121 1346.02 419.328 1345.21 420.85C1344.4 422.372 1348.66 427.006 1352.04 427.716C1355.43 428.393 1355.93 424.875 1354.48 423.082Z" fill="#FFDBC7"/>
<path d="M1413.74 419.024C1413.74 419.024 1390.33 428.732 1386.48 429.239C1383.37 429.645 1363.17 420.885 1354.45 421.663C1352.38 421.832 1351.44 427.818 1350.93 428.935C1348.29 434.685 1376.64 445.339 1386.04 444.764C1400.89 443.884 1421.32 434.279 1421.96 428.968C1422.6 423.658 1413.74 419.024 1413.74 419.024Z" fill="#FFDBE6"/>
<path d="M1388.98 437.289C1389.29 437.289 1389.49 437.052 1389.49 436.782C1389.35 431.505 1386.95 428.969 1386.85 428.867C1386.65 428.664 1386.34 428.664 1386.14 428.867C1385.94 429.07 1385.94 429.374 1386.14 429.577C1386.17 429.611 1388.34 431.945 1388.47 436.816C1388.47 437.086 1388.71 437.289 1388.98 437.289Z" fill="#FFBED2"/>
<path d="M1396.25 443.579C1396.29 443.579 1396.32 443.579 1396.36 443.579C1396.46 443.545 1407.82 441.042 1416.41 435.563C1416.65 435.427 1416.72 435.089 1416.58 434.852C1416.45 434.616 1416.11 434.548 1415.87 434.683C1407.45 440.095 1396.25 442.564 1396.15 442.564C1395.88 442.632 1395.71 442.902 1395.78 443.173C1395.81 443.41 1396.02 443.579 1396.25 443.579Z" fill="#FFBED2"/>
<path d="M1399.43 389.664C1400.55 387.837 1404 385.74 1409.11 386.383C1414.21 387.026 1418.07 388.21 1419.93 393.351C1422.67 400.927 1415.19 409.146 1409.78 410.093C1405.01 410.905 1404.81 408.165 1402.17 404.851C1399.5 401.536 1398.55 391.152 1399.43 389.664Z" fill="#383838"/>
<path d="M1408.9 407.796L1410.25 414.189C1410.59 415.169 1408.26 417.977 1405.69 417.605C1403.79 417.334 1403.52 416.387 1403.76 415.169L1403.72 409.521L1408.9 407.796Z" fill="#FFDBC7"/>
<path d="M1411.61 397.782L1410.56 404.378C1408.49 411.109 1406.53 413.51 1400.85 413.544C1395.64 413.578 1390.6 409.35 1390.84 404.243C1391.04 399.981 1393.71 398.493 1395.17 396.193C1396.25 394.502 1396.69 392.777 1397.5 391.796C1401.76 386.587 1410.83 389.022 1411.64 396.869C1411.67 397.207 1411.67 397.512 1411.61 397.782Z" fill="#FFDBC7"/>
<path d="M1400.85 406.105C1400.85 406.105 1395.74 402.486 1394.26 403.805C1394.26 403.805 1393.07 405.598 1394.36 407.221C1395.68 408.878 1398.52 408.98 1400.85 406.105Z" fill="#383838"/>
<path d="M1410.05 403.566C1410.49 403.16 1410.9 402.721 1411.24 402.247C1411.91 401.334 1413.13 400.15 1413.97 401.841C1415.19 404.31 1411.3 408.944 1408.8 407.625C1406.94 406.61 1408.9 404.547 1410.05 403.566Z" fill="#FFDBC7"/>
<path d="M1397.81 402.519C1397.81 402.519 1396.15 401.606 1396.18 402.417C1396.22 403.229 1397.91 404.244 1398.42 403.601C1398.92 402.958 1397.81 402.519 1397.81 402.519Z" fill="#FFAB85"/>
<path d="M1396.05 399.27C1395.91 399.845 1395.44 400.217 1395.03 400.116C1394.63 400.014 1394.39 399.473 1394.53 398.898C1394.66 398.323 1395.13 397.951 1395.54 398.053C1395.95 398.154 1396.18 398.695 1396.05 399.27Z" fill="#383838"/>
<path d="M1415.77 492.962C1414.41 477.268 1412.35 462.082 1409.38 449.533C1384.51 454.573 1349.51 461.507 1336.49 463.299C1320.72 465.498 1299.82 465.498 1290.28 465.363C1290.62 476.626 1291.43 491.068 1292.28 506.695C1307.19 507.033 1333.14 507.472 1346.13 506.559C1372.47 504.665 1398.18 498.239 1415.77 492.962Z" fill="#FFD8C7"/>
<path d="M1403.52 401.843C1403.39 402.418 1402.91 402.79 1402.51 402.688C1402.1 402.587 1401.86 402.046 1402 401.471C1402.13 400.896 1402.61 400.524 1403.01 400.625C1403.42 400.727 1403.66 401.268 1403.52 401.843Z" fill="#383838"/>
<path d="M1402.17 387.365C1402.17 387.365 1398.01 389.259 1396.45 391.728C1394.9 394.198 1397.57 394.976 1398.38 395.381C1399.19 395.787 1401.12 393.589 1401.02 394.367C1400.92 395.145 1399.57 396.261 1400.48 396.836C1401.36 397.411 1405.99 400.353 1406.84 400.083C1407.68 399.812 1408.16 398.527 1408.43 398.933C1408.7 399.339 1408.33 400.861 1409.41 401.503C1410.49 402.146 1410.59 403.364 1411.95 401.03C1413.3 398.696 1414.52 394.705 1411.81 391.39C1409.1 388.076 1403.42 386.723 1402.17 387.365Z" fill="#383838"/>
<path d="M1394.66 403.601C1394.66 403.804 1394.76 404.142 1395.27 404.514C1396.08 405.123 1398.82 405.935 1399.57 405.833C1399.87 405.799 1400.14 405.765 1400.31 405.732C1399.13 404.954 1396.12 403.127 1394.66 403.601Z" fill="white"/>
<path d="M1397 406.915C1395.95 406.644 1394.56 406.407 1393.99 406.61C1394.09 406.813 1394.19 407.05 1394.36 407.253C1395.3 408.437 1397.03 408.809 1398.82 407.862C1398.48 407.558 1397.81 407.118 1397 406.915Z" fill="#F76757"/>
<path d="M1403.93 413.613C1403.76 413.579 1403.59 413.443 1403.56 413.274C1403.52 413.038 1403.66 412.801 1403.9 412.767C1403.93 412.767 1406.3 412.293 1407.41 410.399C1407.55 410.196 1407.79 410.129 1408.02 410.23C1408.23 410.366 1408.29 410.602 1408.19 410.839C1406.87 413.105 1404.2 413.613 1404.07 413.613C1404.03 413.646 1403.96 413.646 1403.93 413.613Z" fill="#FFAB85"/>
<path d="M1476.41 508.216C1474.35 492.353 1461.77 479.872 1445.94 477.47C1424.36 474.189 1392.53 470.266 1387.93 474.595C1380.86 481.225 1382.89 491.473 1393.31 498.711C1403.73 505.949 1457.07 536.492 1472.79 522.523C1476.45 519.276 1477.16 513.966 1476.41 508.216Z" fill="url(#paint13_linear_333_7469)"/>
<path d="M1423.24 433.432L1422.33 425.585C1422.23 424.638 1423.28 423.995 1424.06 424.502L1426.56 426.126C1426.56 426.126 1428.93 422.98 1431.4 425.348C1433.86 427.716 1437.28 440.535 1434.58 444.255C1431.84 447.942 1423.75 437.964 1423.24 433.432Z" fill="#FFC5A9"/>
<path d="M1313.18 428.697L1361.92 490.154C1361.92 490.154 1416.75 425.822 1427.78 432.215C1438.8 438.607 1435.42 449.836 1435.22 454.335C1434.98 458.867 1395 551.103 1345.76 531.756C1327.29 524.518 1321.2 509.467 1313.42 495.092C1300.4 471.111 1293.57 445.811 1297.39 438.573C1303.44 427.039 1313.18 428.697 1313.18 428.697Z" fill="url(#paint14_linear_333_7469)"/>
<path d="M1402.37 447.503C1398.92 450.648 1395.41 454.098 1391.92 457.582L1422.6 481.191C1425.31 476.489 1427.64 472.025 1429.5 468.169L1402.37 447.503Z" fill="#FFD8C7"/>
<path d="M1411.57 498.407C1414.38 494.517 1416.95 490.594 1419.32 486.772L1386.51 463.163C1382.99 466.816 1379.64 470.401 1376.6 473.716L1411.57 498.407Z" fill="#FFD8C7"/>
<path d="M1359.82 536.153C1367.74 536.153 1375.79 533.244 1384.31 527.359C1405.08 512.984 1410.69 501.45 1410.93 500.943C1411.17 500.436 1410.96 499.827 1410.46 499.59C1409.95 499.353 1409.34 499.556 1409.1 500.063C1409.04 500.165 1403.42 511.665 1383.16 525.668C1361.04 540.99 1345.04 532.5 1332.33 522.184C1317.24 509.94 1306.11 477.571 1306.01 477.233C1305.84 476.692 1305.27 476.421 1304.73 476.59C1304.18 476.759 1303.91 477.334 1304.08 477.875C1304.56 479.228 1315.48 511.124 1331.04 523.74C1339.94 530.944 1347.75 534.8 1355.6 535.815C1357.02 536.051 1358.4 536.153 1359.82 536.153Z" fill="#F55D18"/>
<path d="M1350.35 506.152C1350.76 506.152 1351.13 505.916 1351.3 505.544C1351.34 505.442 1355.12 496.547 1362.56 491C1363 490.661 1363.11 490.019 1362.77 489.579C1362.43 489.139 1361.79 489.038 1361.35 489.376C1353.43 495.261 1349.58 504.394 1349.44 504.766C1349.24 505.273 1349.47 505.882 1349.98 506.085C1350.08 506.119 1350.22 506.152 1350.35 506.152Z" fill="#F55D18"/>
<path d="M1472.36 489.037C1472.69 489.037 1473.03 488.868 1473.24 488.564C1473.54 488.09 1473.37 487.448 1472.9 487.177C1457.68 477.707 1434.64 474.663 1433.66 474.561C1433.12 474.493 1432.61 474.899 1432.51 475.44C1432.44 475.982 1432.85 476.489 1433.39 476.59C1433.63 476.624 1457 479.702 1471.82 488.936C1471.98 489.004 1472.19 489.037 1472.36 489.037Z" fill="#F55D18"/>
<path d="M1332.73 376.474C1332.73 376.474 1333.38 387.162 1334.39 391.559C1335.37 395.956 1337.91 397.41 1340.85 396.091C1343.79 394.772 1355.33 374.681 1352.01 373.092C1348.7 371.502 1334.8 373.7 1332.73 376.474Z" fill="#383838"/>
<path d="M1351.71 419.87C1345.22 423.625 1332.91 416.86 1332.74 413.714L1336.59 388.009L1336.76 387.163L1337.07 387.332L1347.18 392.609L1349.92 409.96C1349.88 409.926 1353.3 418.923 1351.71 419.87Z" fill="#FFC5A9"/>
<path d="M1339.84 395.99C1339.84 395.99 1339.8 400.692 1342.88 404.615C1344.5 406.678 1347.18 406.881 1349.38 406.645L1348.02 398.053L1339.84 395.99Z" fill="#FF9869"/>
<path d="M1357.12 395.077C1356.82 396.497 1356.31 397.58 1355.53 398.358C1355.53 398.358 1355.53 398.358 1355.5 398.391C1355.26 398.628 1354.99 398.831 1354.72 399C1354.55 399.102 1354.38 399.203 1354.21 399.271C1352.59 400.049 1350.49 400.015 1347.28 399.034C1347.14 399 1347.01 398.966 1346.87 398.899C1346.57 398.797 1346.3 398.696 1345.96 398.594C1345.59 398.459 1345.21 398.324 1344.84 398.188C1343.69 398.053 1342.54 397.512 1341.49 396.7C1341.26 396.531 1341.05 396.362 1340.82 396.159C1338.18 393.859 1336.25 390.071 1336.69 387.061C1336.76 386.655 1336.86 386.249 1337 385.877L1337.77 383.103L1338.25 382.765C1341.12 380.634 1342.31 376.372 1342.31 376.372C1343.56 371.671 1348.97 371.13 1351.13 370.961C1358.54 370.42 1356.82 373.531 1357.7 377.59C1358.41 380.939 1358.47 388.616 1357.12 395.077Z" fill="#FFC5A9"/>
<path d="M1345.9 380.398C1347.49 379.722 1348.87 379.215 1350.53 380.06C1351 380.297 1350.83 380.94 1350.16 380.906C1348.26 380.872 1347.69 380.804 1346 381.278C1345.25 381.481 1344.98 380.804 1345.9 380.398Z" fill="#383838"/>
<path d="M1358.48 380.84C1357.91 380.164 1357.03 379.961 1356.25 379.825C1355.74 379.724 1355.3 380.164 1355.88 380.536C1357.47 381.517 1357.54 381.314 1358.25 381.889C1358.75 382.294 1359.13 381.618 1358.48 380.84Z" fill="#383838"/>
<path d="M1352.59 388.649C1352.59 388.649 1350.09 388.006 1348.8 388.345C1347.52 388.683 1346.1 389.19 1345.18 389.326C1344.27 389.461 1342.58 387.77 1341.7 386.687C1340.82 385.639 1339.87 378.57 1338.42 379.348C1337.78 379.686 1338.89 383.001 1338.93 385.808C1338.96 389.258 1339.13 392.742 1339.03 393.824C1338.79 395.786 1339.4 399.134 1344.07 401.502C1348.19 403.633 1352.56 403.328 1354.55 402.246C1360.1 399.236 1357.29 396.564 1357.66 395.346C1358.04 394.129 1358.48 389.495 1358.48 388.954C1358.48 388.412 1358.64 387.837 1357.53 387.736C1356.34 387.702 1354.48 388.649 1352.59 388.649Z" fill="#383838"/>
<path d="M1350.21 384.322C1350.11 384.796 1349.77 385.134 1349.47 385.067C1349.17 384.999 1349 384.559 1349.1 384.086C1349.2 383.612 1349.54 383.274 1349.84 383.342C1350.15 383.409 1350.32 383.849 1350.21 384.322Z" fill="#383838"/>
<path d="M1357.16 385.814C1356.85 385.747 1356.68 385.308 1356.78 384.833C1356.88 384.359 1357.22 384.028 1357.53 384.095C1357.84 384.162 1358.01 384.601 1357.9 385.075C1357.8 385.55 1357.47 385.881 1357.16 385.814Z" fill="#383838"/>
<path d="M1356.42 390.339C1356.42 390.339 1352.59 391.151 1349.08 390.474C1349.08 390.474 1349.99 393.654 1353.07 393.958C1356.15 394.229 1356.42 390.339 1356.42 390.339Z" fill="white"/>
<path d="M1351.9 388.55C1351.84 388.617 1352.04 388.82 1352.41 388.888C1352.78 388.989 1353.36 388.989 1353.93 388.719L1353.97 388.685C1354.34 388.482 1354.61 388.245 1354.78 387.975C1355.05 387.603 1355.15 387.23 1355.15 387.028C1355.15 386.926 1355.12 386.858 1355.05 386.858C1355.01 386.858 1354.98 386.858 1354.98 386.858C1354.88 386.926 1354.68 387.129 1354.44 387.4C1354.24 387.569 1354 387.772 1353.73 387.907C1353.7 387.941 1353.66 387.941 1353.63 387.975C1353.19 388.211 1352.75 388.279 1352.41 388.347C1352.11 388.414 1351.9 388.448 1351.9 388.55Z" fill="#FF9869"/>
<path d="M1338.65 382.286C1338.38 380.798 1337.64 378.633 1335.64 380.121C1332.7 382.286 1333.95 389.524 1337.74 389.49C1340.52 389.423 1338.79 383.064 1338.65 382.286Z" fill="#FFC5A9"/>
<path d="M1340.51 376.034C1340.51 376.034 1357.05 376.71 1359.05 373.801C1361.04 370.893 1361.15 366.902 1357.83 364.771C1354.52 362.64 1344.57 365.718 1341.66 365.853C1338.75 366.022 1337.37 364.906 1336.59 366.056C1335.81 367.206 1337.37 368.66 1337.37 368.66C1337.37 368.66 1333.21 368.593 1332.33 371.738C1331.45 374.884 1331.92 378.401 1333.92 378.232C1335.91 378.063 1340.51 376.034 1340.51 376.034Z" fill="#383838"/>
<path opacity="0.12" d="M1361.28 653.615C1361.95 653.615 1362.56 653.176 1362.73 652.499C1365.03 644.314 1369.7 630.514 1372.51 628.417C1375.65 626.049 1384.18 625.542 1387.19 625.542C1388.03 625.542 1388.71 624.866 1388.71 624.02C1388.71 623.175 1388.03 622.498 1387.19 622.498C1385.97 622.498 1375.21 622.6 1370.68 625.982C1366.15 629.364 1360.43 649.388 1359.82 651.688C1359.59 652.499 1360.06 653.345 1360.87 653.548C1361.01 653.615 1361.14 653.615 1361.28 653.615Z" fill="black"/>
<path opacity="0.12" d="M1242.02 951.126C1242.49 951.126 1242.93 950.788 1243 950.314C1243.03 950.044 1247.97 924.406 1249.36 918.115C1250.61 912.433 1278.34 773.926 1282.3 751.332C1287.88 719.437 1306.04 615.261 1306.04 613.435C1306.04 612.86 1305.61 612.42 1305.03 612.42C1304.46 612.42 1304.02 612.86 1304.02 613.401C1303.85 615.667 1291.13 688.928 1280.31 750.994C1276.35 773.588 1248.65 912.027 1247.4 917.709C1246.01 924.034 1241.07 949.706 1241 949.942C1240.9 950.484 1241.27 951.025 1241.81 951.126C1241.88 951.092 1241.95 951.126 1242.02 951.126Z" fill="#0F0F0F"/>
<path opacity="0.12" d="M1397.1 949.232C1397.13 949.232 1397.17 949.232 1397.2 949.232C1397.74 949.164 1398.15 948.657 1398.11 948.115C1398.08 947.811 1394.93 918.723 1395.64 903.063C1396.39 886.557 1390.54 844.007 1388.2 830.613C1387.09 824.322 1385.4 798.346 1383.6 770.848C1381.37 736.957 1378.87 698.533 1376.87 688.386C1373.39 670.359 1371.6 641.609 1371.56 641.305C1371.53 640.73 1371.05 640.324 1370.48 640.357C1369.9 640.391 1369.5 640.865 1369.53 641.44C1369.57 641.744 1371.36 670.629 1374.88 688.792C1376.8 698.804 1379.34 737.16 1381.57 770.983C1383.4 798.549 1385.09 824.559 1386.21 830.952C1388.74 845.428 1394.32 887.369 1393.61 902.961C1392.9 918.791 1396.05 948.048 1396.08 948.318C1396.15 948.86 1396.56 949.232 1397.1 949.232Z" fill="black"/>
<path d="M1361.92 491.169C1362.23 491.169 1362.53 491.033 1362.7 490.797C1362.97 490.492 1388.44 459.003 1397.2 453.726C1397.67 453.422 1397.84 452.813 1397.54 452.34C1397.23 451.866 1396.62 451.697 1396.15 452.001C1387.86 456.973 1366.42 483.017 1361.92 488.531L1329.96 448.213C1329.62 447.773 1328.98 447.706 1328.54 448.044C1328.1 448.382 1328.03 449.025 1328.37 449.465L1361.14 490.763C1361.35 491.033 1361.62 491.169 1361.92 491.169Z" fill="#F55D18"/>
<path d="M1499.33 952.02C1496.23 954.862 1485.33 969.831 1480.44 969.81C1477.8 969.795 1472.34 968.92 1470.84 968.399C1473.72 966.192 1488.87 947.874 1486.59 919.486L1507.56 922.927C1507.56 922.927 1503.36 946.466 1504 947.888C1502.05 947.616 1501.27 950.275 1499.33 952.02Z" fill="#FFC5A9"/>
<path d="M1609.55 952.391C1613.1 956.188 1627.26 977.678 1632.6 978.777C1635.46 979.364 1637.85 979.297 1639.44 979.073C1636.17 976.018 1622.32 947.611 1620.17 926.144L1597.65 923.085C1597.65 923.085 1602.66 947.778 1602.09 949.178C1604.17 949.363 1607.34 950.054 1609.55 952.391Z" fill="#FFC5A9"/>
<path d="M1598.16 592.869C1593.77 566.499 1529.99 537.061 1516.31 572.588C1512.09 583.488 1499.31 590.917 1491.38 628.783C1477.28 696.016 1484.93 912.208 1487.7 935.1C1488.56 942.239 1503.81 937.701 1506.03 930.763C1508.86 921.88 1541.87 708.783 1543.55 678.911C1544.31 688.42 1598.88 939.242 1602.83 945.441C1606.78 951.61 1614.54 953.886 1622.45 949.838C1624.74 948.658 1603.64 700.322 1603.64 700.322C1603.64 700.322 1602.57 619.521 1598.16 592.869Z" fill="#FFC5A9"/>
<path d="M1613.04 698.651C1613.04 698.651 1620.53 618.155 1599.46 566.541C1588.36 539.314 1539.52 520.407 1512.71 552.604C1504.3 562.7 1493.15 574.82 1484.42 616.48C1476.88 652.483 1475.01 727.35 1475.41 797.592C1484.23 799.036 1502.47 801.816 1523.86 804.145C1538.52 805.764 1554.66 807.165 1570.21 807.755C1587.62 808.44 1607.25 808.373 1620.4 806.227C1615.39 747.469 1613.04 698.651 1613.04 698.651Z" fill="url(#paint15_linear_333_7469)"/>
<path d="M1599.46 566.541C1598.78 564.905 1598 563.326 1597.07 561.765L1517.07 553.848C1517.07 553.848 1549.72 568.254 1574.35 574.395C1586.77 577.478 1596.66 577.945 1603.42 577.674C1602.26 573.81 1600.92 570.097 1599.46 566.541Z" fill="#434A59"/>
<path d="M1560.02 788.278C1559.39 788.21 1558.83 787.675 1558.8 786.992C1557.03 745.854 1546.6 710.638 1538.21 688.357C1529.1 664.197 1520.3 649.628 1520.22 649.483C1519.84 648.831 1520.03 648.001 1520.69 647.627C1521.34 647.254 1522.17 647.444 1522.54 648.096C1522.63 648.241 1531.54 663.026 1540.76 687.436C1549.26 709.933 1559.73 745.425 1561.53 786.907C1561.55 787.657 1560.98 788.277 1560.23 788.299C1560.16 788.292 1560.09 788.285 1560.02 788.278Z" fill="#5F626A"/>
<path d="M1471.43 960.003C1479.75 954.867 1480.65 945.079 1484.72 938.658C1485.01 938.306 1500.33 934.748 1500.89 939.761C1501.98 949.66 1503.35 937.33 1504.94 940.338C1505.72 945.692 1505.23 964.485 1504.89 970.585C1496.66 976.829 1445.45 982.252 1446.74 977.403C1447.55 974.457 1461.41 964.878 1471.43 960.003Z" fill="#404859"/>
<path d="M1636.57 961.489C1628.01 956.777 1626.62 947.047 1622.23 940.837C1621.93 940.5 1606.45 937.714 1606.14 942.75C1605.55 952.691 1603.56 940.444 1602.13 943.528C1601.61 948.915 1603.05 967.659 1603.69 973.735C1612.22 979.559 1663.63 982.409 1662.11 977.63C1661.15 974.729 1646.83 965.856 1636.57 961.489Z" fill="#404859"/>
<path d="M1496.62 453.733C1496.62 453.733 1488.88 452.346 1484.21 467.093C1480.79 477.815 1476.63 514.615 1493.44 515.731C1510.22 516.847 1504.67 455.864 1496.62 453.733Z" fill="#FFB896"/>
<path d="M1526.19 418.151C1526.19 418.151 1548.04 411.251 1558.59 410.778C1569.18 410.304 1575.74 410.575 1574.49 412.875C1573.2 415.175 1532.21 431.376 1528.93 430.328C1525.65 429.279 1526.19 418.151 1526.19 418.151Z" fill="#EADBC7"/>
<path d="M1573.03 368.587C1573.03 368.587 1576.48 363.682 1583.01 367.504C1589.54 371.326 1591.73 375.419 1592.65 386.986C1593.59 398.554 1595.69 406.063 1602.05 411.914C1608.41 417.766 1613.55 414.113 1620.65 424.429C1627.76 434.745 1619.71 447.496 1622.85 453.923C1626 460.349 1639.49 465.49 1635.37 487.408C1631.24 509.325 1587.51 521.84 1563.93 500.768C1540.36 479.696 1531.97 459.165 1537.14 438.837C1542.28 418.51 1556.83 404.879 1556.69 403.019C1556.46 401.124 1549.76 368.248 1573.03 368.587Z" fill="#3A2923"/>
<path fill-rule="evenodd" clip-rule="evenodd" d="M1609.79 569.128C1609.63 572.762 1609.48 576.452 1609.32 580.196C1609.22 582.358 1606.47 583.649 1601.89 584.21C1601.93 584.22 1601.95 584.226 1601.95 584.226C1601.95 584.226 1595.32 588.453 1572.32 585.849C1549.32 583.278 1522.53 579.998 1514.85 578.104C1505.79 575.871 1497.84 573.47 1493.38 570.662C1494.74 567.335 1496.12 564.452 1497.44 561.867C1497.43 561.865 1497.43 561.864 1497.43 561.864C1497.43 561.864 1508.05 529.63 1509.57 518.908C1511.55 505.082 1511.8 493.952 1512.03 484.421C1512.48 464.993 1512.78 452.204 1527.1 436.752C1528.98 434.718 1530.72 432.626 1532.42 430.571C1540.46 420.869 1547.83 411.983 1567.31 413.853C1589.09 415.95 1603.74 426.977 1608.41 443.855C1614.21 464.896 1612.32 509.468 1609.79 569.128Z" fill="url(#paint16_linear_333_7469)"/>
<path d="M1579.83 391.499L1580.44 418.287C1580.47 421.331 1569.14 424.138 1564.34 420.316C1562.95 419.2 1568.06 412.03 1568.06 412.03L1570.97 395.22L1579.83 391.499Z" fill="#FFC5A9"/>
<path d="M1579 392.264C1579 392.264 1579.03 397.083 1576.13 401.105C1574.68 402.57 1571.8 402.812 1569.72 402.57L1571 393.764L1579 392.264Z" fill="#FF9869"/>
<path d="M1575.74 381.151L1579.93 385.717C1582.7 390.689 1580.07 397.285 1574.82 399.517C1568.29 402.291 1564.57 401.986 1562.61 395.729C1561.46 392.042 1562.65 384.398 1563.12 381.422C1563.69 377.938 1565.99 375.706 1568.7 375.266C1571.31 374.86 1569.24 378.885 1575.74 381.151Z" fill="#FFC5A9"/>
<path d="M1567.82 389.131C1566.97 389.029 1566.23 388.759 1565.55 388.285C1565.01 387.913 1564.57 388.793 1565.08 389.165C1565.82 389.672 1566.7 389.976 1567.58 390.112C1568.23 390.145 1568.43 389.198 1567.82 389.131Z" fill="#FF9869"/>
<path d="M1570.23 385.243C1570.13 385.243 1569.79 385.175 1569.62 385.581C1569.52 385.885 1569.45 386.257 1569.55 386.562C1569.65 386.934 1570.06 387.137 1570.4 386.967C1570.87 386.731 1570.97 385.31 1570.23 385.243Z" fill="#3A2923"/>
<path d="M1563.76 385.952C1563.66 385.952 1563.32 385.885 1563.15 386.291C1563.05 386.595 1562.98 386.967 1563.08 387.272C1563.19 387.644 1563.59 387.847 1563.93 387.677C1564.4 387.441 1564.51 386.02 1563.76 385.952Z" fill="#3A2923"/>
<path d="M1571.57 391.466C1570.36 391.5 1567.35 391.636 1564.13 392.109C1563.9 392.143 1563.76 392.38 1563.79 392.616C1563.96 393.293 1564.4 394.578 1565.25 395.187C1566.87 396.337 1570.29 396.641 1571.95 392.008C1572.05 391.737 1571.84 391.433 1571.57 391.466Z" fill="white"/>
<path d="M1579.22 385.309C1579.45 384.734 1579.55 384.091 1579.66 383.482C1579.83 382.299 1580.37 380.574 1581.99 381.724C1584.36 383.347 1583.07 389.604 1580.06 389.672C1577.86 389.672 1578.64 386.797 1579.22 385.309Z" fill="#FFC5A9"/>
<path d="M1569.41 382.334C1570.36 382.401 1571.37 382.638 1572.22 383.078C1572.62 383.281 1572.32 383.856 1571.91 383.653C1571.17 383.281 1570.26 383.078 1569.45 383.01C1569.01 382.943 1568.97 382.266 1569.41 382.334Z" fill="#320E00"/>
<path d="M1562.75 383.651C1563.19 383.279 1563.7 382.941 1564.17 382.637C1564.54 382.4 1564.95 382.941 1564.58 383.178C1564.1 383.516 1563.59 383.821 1563.15 384.193C1562.82 384.497 1562.41 383.922 1562.75 383.651Z" fill="#320E00"/>
<path d="M1514.62 461.548C1521.21 459.756 1530.65 462.461 1530.65 462.461C1530.65 462.461 1552.84 483.635 1552.87 493.917C1552.9 497.807 1552.94 506.06 1552.56 514.955C1549.11 515.902 1543.53 517.255 1537.99 517.83C1537.95 517.424 1537.92 517.018 1537.89 516.612C1537.31 509.442 1535.31 503.996 1534.44 503.049C1531.9 500.377 1512.45 491.82 1509.78 485.292C1507.14 478.798 1508.02 463.341 1514.62 461.548Z" fill="#FFFCFC"/>
<path d="M1544.62 547.56C1539.1 549.116 1538.97 531.393 1537.99 517.863C1543.54 517.288 1549.08 515.935 1552.57 514.988C1551.92 529.634 1550 546.038 1544.62 547.56Z" fill="#FFEFB5"/>
<path d="M1550.17 537.076C1550.17 537.076 1548.68 548.035 1549.56 551.146C1550.44 554.258 1554.6 561.97 1549.56 560.752C1544.52 559.534 1540.63 551.789 1539.95 548.745C1539.28 545.667 1539.41 538.564 1539.41 537.11C1539.44 535.689 1550.13 533.998 1550.17 537.076Z" fill="#FFFCFC"/>
<path d="M1494.9 459.009C1501.7 458.333 1515.8 463.677 1515.8 463.677C1515.8 463.677 1534.2 488.199 1532.58 498.346C1531.97 502.168 1530.68 510.319 1528.82 519.046C1525.27 519.418 1519.52 519.824 1513.97 519.519C1514.01 519.113 1514.04 518.707 1514.07 518.302C1514.68 511.131 1513.6 505.415 1512.89 504.366C1510.83 501.322 1493.04 489.721 1491.48 482.821C1489.93 475.921 1488.1 459.686 1494.9 459.009Z" fill="#FFFCFC"/>
<path d="M1515.67 549.893C1509.95 550.535 1512.76 533.015 1513.97 519.519C1519.52 519.858 1525.24 519.418 1528.82 519.046C1525.78 533.387 1521.21 549.25 1515.67 549.893Z" fill="#FFEFB5"/>
<path d="M1522.84 540.49C1522.84 540.49 1519.56 551.043 1519.93 554.29C1520.3 557.537 1523.11 565.79 1518.37 563.761C1513.6 561.732 1511.03 553.479 1510.86 550.333C1510.69 547.187 1512.01 540.22 1512.25 538.799C1512.49 537.345 1523.31 537.413 1522.84 540.49Z" fill="#FFFCFC"/>
<path d="M1528.89 418.896C1528.89 418.896 1515.33 413.552 1503.9 425.525C1495.14 434.691 1489.79 450.554 1490.4 465.775C1490.5 468.21 1534 470.273 1532.31 461.987C1530.14 451.265 1529.36 441.524 1529.91 433.913C1530.41 426.574 1532.27 421.23 1528.89 418.896Z" fill="#FFFCFC"/>
<path d="M1518.13 392.108C1518.13 392.108 1514.92 389.841 1509.37 392.141C1503.83 394.475 1502.95 397.012 1502.78 401.781C1502.61 406.55 1506.46 412.165 1511.2 413.213C1515.94 414.262 1516.44 414.329 1517.93 411.184C1519.42 408.038 1520.54 392.987 1518.13 392.108Z" fill="#383838"/>
<path d="M1520.4 412.131C1520.4 412.131 1520.63 413.72 1520.97 415.445C1521.31 417.238 1521.78 419.166 1520.87 420.045C1519.68 421.128 1516.44 421.297 1515.73 419.098C1515.46 418.253 1515.39 416.595 1515.42 415.614C1515.46 413.314 1515.12 411.251 1515.36 410.744C1515.73 409.966 1520.4 412.131 1520.4 412.131Z" fill="#FFDBC7"/>
<path d="M1530.14 407.359C1530.31 414.293 1521.75 418.589 1514.41 414.158C1507.04 409.727 1506.94 397.111 1514.92 393.796C1519.22 392.003 1523.48 391.564 1526.79 400.696C1527.64 403.03 1530.07 404.011 1530.14 407.359Z" fill="#FFDBC7"/>
<path d="M1526.63 404.589C1526.7 404.556 1526.76 404.556 1526.83 404.556C1527.03 404.589 1527.13 404.792 1527.1 404.995C1527.03 405.334 1526.73 405.942 1526.02 405.976C1525.82 405.976 1525.65 405.841 1525.65 405.638C1525.65 405.435 1525.78 405.266 1525.98 405.266C1526.29 405.266 1526.39 404.894 1526.39 404.86C1526.42 404.725 1526.53 404.623 1526.63 404.589Z" fill="#FFAB85"/>
<path d="M1525.87 402.322C1525.97 402.728 1526.31 402.965 1526.65 402.897C1526.99 402.829 1527.16 402.423 1527.06 402.051C1526.96 401.645 1526.62 401.409 1526.28 401.476C1525.94 401.544 1525.77 401.916 1525.87 402.322Z" fill="#383838"/>
<path d="M1520.84 404.792C1520.94 405.197 1521.28 405.434 1521.62 405.367C1521.96 405.299 1522.12 404.893 1522.02 404.521C1521.92 404.115 1521.58 403.878 1521.25 403.946C1520.94 404.014 1520.77 404.42 1520.84 404.792Z" fill="#383838"/>
<path d="M1520.87 402.661C1520.98 402.594 1521.01 402.458 1521.01 402.357C1520.98 402.188 1520.81 402.052 1520.64 402.086C1519.83 402.188 1518.78 403.033 1518.68 403.135C1518.54 403.27 1518.51 403.473 1518.64 403.608C1518.78 403.744 1518.98 403.777 1519.12 403.642C1519.39 403.405 1520.23 402.797 1520.74 402.729C1520.77 402.729 1520.81 402.695 1520.87 402.661Z" fill="#383838"/>
<path d="M1526.29 400.497C1526.35 400.464 1526.39 400.396 1526.39 400.328C1526.42 400.159 1526.32 399.956 1526.15 399.922C1525.34 399.719 1524.56 400.261 1524.56 400.294C1524.43 400.396 1524.39 400.633 1524.49 400.768C1524.6 400.903 1524.83 400.937 1524.97 400.836C1524.97 400.836 1525.51 400.464 1526.02 400.565C1526.08 400.599 1526.19 400.565 1526.29 400.497Z" fill="#383838"/>
<path d="M1523.61 415.75C1523.71 415.682 1523.75 415.547 1523.71 415.446C1523.68 415.31 1523.51 415.209 1523.34 415.276C1520.67 416.19 1519.22 415.615 1519.18 415.581C1519.05 415.513 1518.88 415.581 1518.81 415.716C1518.74 415.851 1518.81 416.021 1518.94 416.088C1519.01 416.122 1520.6 416.765 1523.48 415.784C1523.54 415.784 1523.58 415.784 1523.61 415.75Z" fill="#FFAB85"/>
<path d="M1523.41 408.512C1523.41 408.512 1527.84 406.72 1528.45 406.246C1528.45 406.246 1528.72 408.85 1526.52 409.527C1524.32 410.237 1523.41 408.512 1523.41 408.512Z" fill="#383838"/>
<path d="M1527.81 408.646C1527.1 407.598 1524.32 408.748 1523.78 409.018C1524.22 409.458 1525.1 409.999 1526.52 409.559C1527.1 409.356 1527.5 409.018 1527.81 408.646Z" fill="#FF5F4A"/>
<path d="M1520.09 392.852C1520.84 393.055 1521.51 393.19 1522.09 393.46C1522.5 393.663 1522.36 394.306 1521.92 394.306C1520.53 394.34 1518.23 394.61 1516.64 395.929C1514.04 398.128 1512.28 402.626 1512.48 403.303C1512.86 404.656 1512.15 407.734 1511.27 408.207C1510.39 408.681 1508.46 407.869 1508.46 407.869C1508.46 407.869 1506.12 401.984 1506.87 399.312C1507.61 396.64 1510.15 393.021 1513.46 392.243C1515.49 391.769 1518.3 392.344 1520.09 392.852Z" fill="#383838"/>
<path d="M1510.01 406.212C1508.63 406.72 1509.07 409.02 1510.52 410.474C1511.98 411.928 1513.67 411.387 1513.46 409.899C1513.23 408.445 1511.4 405.705 1510.01 406.212Z" fill="#FFDBC7"/>
<path d="M1513.06 400.158C1513.16 400.158 1514.41 397.114 1520.77 394.915C1522.97 394.171 1524.05 392.514 1522.02 390.586C1519.99 388.658 1515.53 387.339 1511.54 389.808C1507.55 392.277 1507.45 397.655 1508.83 398.298C1510.22 398.94 1513.06 400.158 1513.06 400.158Z" fill="#383838"/>
<path d="M1567.55 421.669C1567.55 421.669 1570.83 420.824 1571.78 420.181C1572.73 419.539 1572.12 421.365 1571.58 421.906C1571.58 421.906 1575.94 422.549 1575.91 424.138C1575.87 425.728 1570.36 427.386 1567.38 426.405C1564.37 425.458 1565.59 422.414 1567.55 421.669Z" fill="#FFDBC7"/>
<path d="M1512.62 423.461C1512.62 423.461 1534.47 430.97 1537.99 431.241C1540.83 431.444 1558.72 422.345 1566.74 422.548C1568.63 422.582 1569.82 427.994 1570.33 428.975C1573.03 434.082 1547.83 445.345 1539.28 445.379C1525.71 445.413 1506.57 437.803 1505.69 433.033C1504.81 428.197 1512.62 423.461 1512.62 423.461Z" fill="#FFFCFC"/>
<path d="M1504.78 394.747C1504.78 394.747 1503.46 390.215 1502.48 391.06C1501.5 391.906 1502.81 395.051 1502.81 395.051C1502.81 395.051 1499.67 394.409 1499.57 395.22C1499.47 396.032 1502.17 396.743 1502.17 396.743C1502.17 396.743 1499.87 398.298 1500.14 399.144C1500.41 399.99 1502.41 399.55 1503.93 398.569C1505.45 397.554 1504.78 394.747 1504.78 394.747Z" fill="#383838"/>
<path d="M1536.16 438.75C1536.2 438.75 1536.2 438.75 1536.16 438.75C1536.47 438.75 1536.67 438.513 1536.67 438.208C1536.5 433.778 1538.36 431.545 1538.4 431.511C1538.57 431.308 1538.57 430.97 1538.33 430.801C1538.13 430.632 1537.79 430.632 1537.62 430.869C1537.52 430.97 1535.49 433.405 1535.66 438.242C1535.69 438.547 1535.89 438.75 1536.16 438.75Z" fill="#FFEFB5"/>
<path d="M1529.91 444.906C1530.14 444.906 1530.38 444.737 1530.41 444.466C1530.45 444.195 1530.28 443.925 1529.97 443.891C1529.87 443.891 1519.56 442.234 1511.57 437.803C1511.34 437.667 1511.03 437.769 1510.9 438.006C1510.76 438.242 1510.86 438.547 1511.1 438.682C1519.22 443.215 1529.74 444.872 1529.84 444.872C1529.84 444.872 1529.87 444.906 1529.91 444.906Z" fill="#FFEFB5"/>
<path d="M1502.2 494.119C1502.2 494.119 1499.46 488.234 1498.52 487.118C1496.42 484.682 1496.39 480.116 1494.63 480.623C1492.9 481.097 1495.41 487.084 1495.24 487.287C1495.07 487.49 1491.01 480.387 1491.01 480.387C1491.01 480.387 1488.13 486.306 1490.67 492.631C1493.21 498.956 1495.34 501.695 1498.25 501.932C1501.12 502.169 1503.12 497.535 1502.2 494.119Z" fill="#FFC5A9"/>
<path d="M1497.4 494.796C1503.86 485.934 1561.83 527.097 1561.83 527.097L1568.87 509.847C1579.22 521.009 1594.74 525.068 1602.42 526.421C1596.33 539.848 1588.11 551.179 1577.49 556.05C1546.58 570.323 1488.23 507.378 1497.4 494.796Z" fill="#FFC5A9"/>
<path d="M1573.54 541.437C1573.84 541.437 1574.11 541.336 1574.38 541.133C1574.96 540.659 1575.06 539.814 1574.62 539.239C1573.67 538.055 1565.42 527.671 1562.54 525.946C1561.9 525.574 1561.09 525.777 1560.68 526.42C1560.31 527.062 1560.51 527.874 1561.16 528.28C1562.98 529.396 1569.07 536.634 1572.49 540.964C1572.72 541.234 1573.13 541.437 1573.54 541.437Z" fill="#FF9869"/>
<path d="M1487.73 458.334C1488.51 457.117 1489.59 456.136 1490.87 455.425C1493.48 454.039 1499.19 450.927 1500.21 449.777C1501.56 448.255 1501.8 444.906 1503.35 447.172C1504.91 449.439 1500.65 452.686 1500.01 453.937C1499.4 455.189 1512.72 453.836 1512.99 455.967C1514.11 465.031 1490.03 468.786 1487.36 466.891C1485.39 465.539 1485.7 461.649 1487.73 458.334Z" fill="#FFB896"/>
<path d="M1563.22 507.514L1596.84 425.391C1596.84 425.391 1607.19 429.416 1612.74 454.817C1615.11 465.573 1615.45 503.455 1603.84 529.16C1596.13 527.774 1573.57 518.675 1563.22 507.514Z" fill="url(#paint17_linear_333_7469)"/>
<path d="M1563.76 507.513C1564.27 507.513 1564.74 507.209 1564.98 506.735C1567.89 500.546 1586.22 450.284 1587 448.153C1587.27 447.443 1586.9 446.665 1586.19 446.428C1585.48 446.158 1584.7 446.53 1584.46 447.24C1584.26 447.747 1565.38 499.497 1562.54 505.585C1562.24 506.262 1562.51 507.074 1563.19 507.378C1563.39 507.479 1563.59 507.513 1563.76 507.513Z" fill="#FF9A15"/>
<path d="M1603.81 530.513C1604.28 530.513 1604.72 530.277 1604.99 529.837C1609.9 521.449 1612.87 502.914 1612.97 502.102C1613.08 501.358 1612.6 500.681 1611.86 500.546C1611.11 500.444 1610.44 500.918 1610.3 501.662C1610.27 501.865 1607.29 520.468 1602.62 528.45C1602.25 529.093 1602.46 529.938 1603.1 530.31C1603.37 530.446 1603.61 530.513 1603.81 530.513Z" fill="#FF9A15"/>
<path d="M1532.07 501.898C1532.31 501.898 1532.54 501.729 1532.58 501.459C1532.65 501.053 1534.13 491.548 1530.35 485.663C1528.42 482.72 1526.32 479.135 1524.46 475.99C1522.67 472.946 1521.11 470.341 1520.2 469.022C1520.03 468.785 1519.72 468.751 1519.49 468.887C1519.25 469.056 1519.22 469.36 1519.35 469.597C1520.27 470.916 1521.82 473.487 1523.58 476.497C1525.44 479.643 1527.57 483.228 1529.5 486.204C1533.12 491.785 1531.63 501.188 1531.6 501.289C1531.56 501.56 1531.73 501.831 1532 501.864C1532.04 501.898 1532.04 501.898 1532.07 501.898Z" fill="#FFEFB5"/>
<path d="M1797.53 244.071C1661.4 249.857 1617.96 321.765 1610.82 319.636C1603.69 317.508 1530.08 298.14 1472.03 304.758C1416.75 311.056 1355.19 343.026 1348.59 344.945C1341.99 346.757 1241.95 275.098 1141.2 322.202C1189.75 227.498 1545.27 135.595 1545.27 135.595L1775.57 207.755L1797.53 244.071Z" fill="#00918F"/>
<path d="M1797.53 241.224C1661.4 247.009 1617.96 318.917 1610.82 316.789C1603.69 314.66 1530.08 295.293 1472.03 301.911C1416.75 308.209 1355.19 340.178 1348.59 342.097C1341.99 343.91 1241.95 272.25 1141.2 319.354C1189.75 224.651 1545.27 132.747 1545.27 132.747L1775.57 204.907L1797.53 241.224Z" fill="#00918F"/>
<path opacity="0.32" d="M1797.53 241.224C1661.4 247.009 1617.96 318.917 1610.82 316.789C1603.69 314.66 1530.08 295.293 1472.03 301.911C1416.75 308.209 1355.19 340.178 1348.59 342.097C1341.99 343.91 1241.95 272.25 1141.2 319.354C1189.75 224.651 1545.27 132.747 1545.27 132.747L1775.57 204.907L1797.53 241.224Z" fill="#008B89"/>
<path d="M1455.1 106.386C1455.1 106.386 1487.68 404.224 1490.05 424.745C1496.38 480.208 1441.13 484.527 1434.95 430.714" stroke="white" stroke-width="8.54483" stroke-miterlimit="10" stroke-linecap="round" stroke-linejoin="round"/>
<path d="M1490.26 408.744C1491.98 408.528 1493.56 409.819 1493.78 411.541C1494.5 417.999 1495 422.376 1495.22 424.17C1498.81 455.74 1483.75 472.103 1468.25 473.901C1459.42 474.908 1450.45 471.394 1443.49 464.149C1436.1 456.473 1431.36 445.137 1429.78 431.361C1429.42 428.491 1431.5 425.907 1434.37 425.548C1437.24 425.188 1439.82 427.269 1440.18 430.139C1442.92 453.745 1455.76 464.72 1467.03 463.425C1482.02 461.7 1486.75 442.469 1484.81 425.32C1484.6 423.598 1484.09 419.221 1483.38 412.692C1483.16 410.97 1484.45 409.391 1486.17 409.175L1490.26 408.744Z" fill="#333843" stroke="#242433" stroke-width="1.42414"/>
<path d="M1794.65 239.519C1779.3 214.918 1681.2 201.521 1613.57 250.109C1611.98 251.281 1610.38 252.453 1608.78 253.732C1541.34 200.065 1393.29 220.339 1340.69 295.445C1299.78 243.05 1207.33 256.813 1141.2 319.46C1141.2 319.46 1132.62 107.923 1442.15 67.5845C1443.64 67.3711 1445.24 67.1577 1446.83 66.9443C1450.45 66.5173 1453.97 66.0904 1457.48 65.77C1669.87 43.3495 1757.66 149.097 1786.01 206.502C1798.16 231.21 1799.34 246.974 1794.65 239.519Z" fill="#11B7B5"/>
<path opacity="0.11" d="M1141.09 319.46C1207.22 256.813 1299.67 243.05 1340.59 295.445C1393.19 220.339 1541.24 200.065 1608.68 253.731C1610.27 252.559 1611.87 251.281 1613.47 250.215C1681.09 201.628 1779.2 215.025 1794.54 239.626C1799.23 247.081 1798.05 231.423 1785.8 206.608C1757.45 149.204 1669.66 43.456 1457.27 65.8765C1453.76 66.1969 1450.24 66.6238 1446.62 67.0507C1445.02 67.2641 1443.53 67.4776 1441.93 67.691C1132.62 107.923 1141.09 319.46 1141.09 319.46Z" fill="#F4F3F2"/>
<path d="M1794.65 239.519C1779.3 214.918 1681.2 201.521 1613.57 250.109C1611.44 247.34 1609.21 244.465 1608.57 241.056C1595.66 177.683 1527.26 93.7661 1442.15 67.5844C1443.64 67.371 1445.24 67.1576 1446.83 66.9442C1450.46 66.5173 1453.97 66.0904 1457.49 65.77C1669.87 43.3495 1757.66 149.097 1786.01 206.502C1798.16 231.21 1799.34 246.974 1794.65 239.519Z" fill="#009E9C"/>
<path opacity="0.2" d="M1141.09 319.459C1207.22 256.812 1299.67 243.049 1340.59 295.444C1328.41 143.664 1442.04 67.584 1442.04 67.584C1132.63 107.923 1141.09 319.459 1141.09 319.459Z" fill="#F4F3F2"/>
<path d="M1432.57 71.5167C1433.4 75.2269 1457.82 72.4209 1458 68.1289C1457.57 64.4609 1452.76 61.9645 1443.88 63.5503C1434.99 65.1361 1431.76 68.0413 1432.57 71.5167Z" fill="#434A59"/>
<path d="M1440.37 46.2382C1440.71 44.2771 1443.4 43.9663 1444.18 45.7973L1452.42 65.1085C1452.51 65.3169 1452.43 65.5587 1452.23 65.6625V65.6625C1447.56 68.0676 1442.17 68.6908 1437.08 67.4157V67.4157C1436.86 67.3607 1436.72 67.1452 1436.76 66.922L1440.37 46.2382Z" fill="#686C75"/>
<path opacity="0.95" d="M1325.14 115.739C1328.58 114.321 1331.04 113.212 1335.83 112" stroke="white" stroke-width="5.1932" stroke-miterlimit="10" stroke-linecap="round" stroke-linejoin="round"/>
<path opacity="0.95" d="M1207 211.651C1240.11 163.605 1270.68 137.288 1310.94 121.94" stroke="white" stroke-width="5.1932" stroke-miterlimit="10" stroke-linecap="round" stroke-linejoin="round"/>
<path d="M1476.44 442.77C1476.44 442.77 1470.23 442.203 1472.91 439.91C1475.59 437.616 1475.93 432.992 1479.79 432.463C1480.9 432.315 1483.36 433.277 1485.38 433.391C1490.39 433.671 1495.8 434.04 1494.27 437.826C1493.55 439.628 1485.23 439.217 1483.02 440.905C1480.82 442.593 1480.28 444.104 1477.76 446.205C1475.25 448.305 1474.4 446.763 1473.51 445.578C1472.71 444.407 1476.44 442.77 1476.44 442.77Z" fill="#FFB492"/>
<path d="M1489.34 457.207C1487.96 458.303 1485.9 457.695 1485.36 456.038C1484.81 454.423 1484.42 452.504 1485.17 451.59C1486.61 449.799 1488.45 450.986 1488.45 450.986C1488.45 450.986 1487.64 446.944 1488.73 445.933C1489.83 444.923 1490.96 444.911 1491.13 445.094C1491.29 445.276 1491.23 439.414 1492.79 438.79C1494.35 438.166 1496.67 441.51 1497.45 443.45C1498.07 445.054 1493.97 453.472 1489.34 457.207Z" fill="#FFB492"/>
<g clip-path="url(#clip1_333_7469)">
<path d="M1468.8 -252C1422.7 -106.1 1334.6 168.7 1311.5 239.2" stroke="white" stroke-width="3.0569" stroke-linecap="round" stroke-linejoin="round" stroke-dasharray="19.27 19.27"/>
<path d="M1309.3 246.201C1307.2 252.601 1306 256.101 1306 256.101" stroke="white" stroke-width="3.0569" stroke-linecap="round" stroke-linejoin="round"/>
<path d="M1528.82 -277.074C1480.72 -120.774 1389.72 175.426 1366.82 250.226" stroke="white" stroke-width="3.0569" stroke-linecap="round" stroke-linejoin="round" stroke-dasharray="20.61 20.61"/>
<path d="M1364.42 257.726C1362.42 264.226 1361.32 267.726 1361.32 267.726" stroke="white" stroke-width="3.0569" stroke-linecap="round" stroke-linejoin="round"/>
<path d="M1584.32 -139.275C1549.12 -26.6754 1496.12 142.425 1479.22 196.525" stroke="white" stroke-width="3.0569" stroke-linecap="round" stroke-linejoin="round" stroke-dasharray="20.3 20.3"/>
<path d="M1476.92 203.825C1474.92 210.225 1473.82 213.825 1473.82 213.825" stroke="white" stroke-width="3.0569" stroke-linecap="round" stroke-linejoin="round"/>
<path d="M1555.92 -203.675C1520.72 -91.0748 1467.72 78.0252 1450.82 132.125" stroke="white" stroke-width="3.0569" stroke-linecap="round" stroke-linejoin="round" stroke-dasharray="20.3 20.3"/>
<path d="M1448.52 139.426C1446.52 145.826 1445.42 149.426 1445.42 149.426" stroke="white" stroke-width="3.0569" stroke-linecap="round" stroke-linejoin="round"/>
<path d="M1685.62 -172.175C1638.12 -22.9748 1548.22 258.725 1525.32 330.725" stroke="white" stroke-width="3.0569" stroke-linecap="round" stroke-linejoin="round" stroke-dasharray="19.72 19.72"/>
<path d="M1523.02 338.025C1520.92 344.425 1519.82 347.925 1519.82 347.925" stroke="white" stroke-width="3.0569" stroke-linecap="round" stroke-linejoin="round"/>
<path d="M1652.02 -212.475C1611.82 -87.4746 1543.22 125.325 1523.42 186.625" stroke="white" stroke-width="3.0569" stroke-linecap="round" stroke-linejoin="round" stroke-dasharray="19.65 19.65"/>
<path d="M1521.12 193.625C1519.02 200.025 1517.92 203.525 1517.92 203.525" stroke="white" stroke-width="3.0569" stroke-linecap="round" stroke-linejoin="round"/>
<path d="M1787.12 -199.574C1743.02 -57.0742 1667.32 187.926 1645.32 258.826" stroke="white" stroke-width="3.0569" stroke-linecap="round" stroke-linejoin="round" stroke-dasharray="25.57 25.57"/>
<path d="M1643.02 266.326C1640.52 274.326 1639.22 278.626 1639.22 278.626" stroke="white" stroke-width="3.0569" stroke-linecap="round" stroke-linejoin="round"/>
<path d="M1716.92 -119.574C1677.42 7.82578 1617.12 202.126 1597.52 265.526" stroke="white" stroke-width="3.0569" stroke-linecap="round" stroke-linejoin="round" stroke-dasharray="28.8 28.8"/>
<path d="M1594.92 274.025C1592.42 282.025 1591.12 286.325 1591.12 286.325" stroke="white" stroke-width="3.0569" stroke-linecap="round" stroke-linejoin="round"/>
<path fill-rule="evenodd" clip-rule="evenodd" d="M2017.18 48.8722C2023.39 67.4565 2026.55 85.1558 1992.31 110.722C1965.6 130.682 1937.03 117.113 1908.02 130.191C1868.55 148.087 1873.45 176.111 1821.98 179.651C1777.6 182.699 1767.46 124.783 1702.8 147.693C1653.94 164.901 1598.66 149.66 1600.4 109.542C1602.15 69.3247 1552.86 61.95 1582.52 22.7165C1612.73 -17.3036 1662.23 15.4401 1685.9 6.09883C1722.21 -8.35562 1726.79 -38.0512 1780.77 -35.8879C1849.68 -33.1347 1842.27 2.46064 1905.51 0.199057C1962.44 -1.86586 2006.49 17.0134 2017.18 48.8722Z" fill="#F1F1F1"/>
<path fill-rule="evenodd" clip-rule="evenodd" d="M1730.62 12.6775C1730.62 23.9223 1728.55 33.9988 1724.78 42.7609C1711.21 75.0349 1675.03 88.7623 1632.44 71.384C1581.18 50.3548 1565.72 85.4035 1521.25 85.6955C1473.94 85.9876 1466.97 32.8305 1431.73 51.8152C1363.69 88.4702 1305.46 51.231 1332.97 -3.38644C1355.21 -47.6353 1389.14 -55.6673 1416.65 -54.207C1466.78 -51.5783 1459.24 -88.9636 1517.66 -86.919C1535.38 -86.3349 1547.25 -82.684 1556.11 -77.5728C1584.57 -61.2167 1580.99 -29.965 1632.81 -35.9525C1675.22 -40.9177 1730.81 -15.0693 1730.62 12.6775Z" fill="white"/>
<path fill-rule="evenodd" clip-rule="evenodd" d="M734.274 74.9702C730.674 87.4702 728.874 99.2702 748.574 116.47C763.874 129.87 780.274 120.77 796.974 129.57C819.674 141.57 816.774 160.37 846.274 162.77C871.774 164.77 877.574 125.97 914.674 141.27C942.674 152.87 974.374 142.57 973.474 115.67C972.474 88.6702 1000.77 83.7702 983.674 57.4702C966.374 30.6702 937.974 52.5702 924.374 46.2702C903.474 36.5702 900.874 16.6702 869.874 18.0702C830.274 19.8702 834.574 43.7702 798.274 42.2702C765.574 40.9702 740.374 53.5702 734.274 74.9702Z" fill="white"/>
<path d="M2011.12 48.6262C1974.52 51.0262 1939.52 47.8262 1903.62 39.7262C1898.12 38.5262 1892.32 36.8262 1888.52 32.2262C1882.82 25.2262 1884.52 13.4262 1890.62 6.92621C1896.72 0.426208 1905.92 -1.57383 1914.42 -0.673828C1919.82 -0.0738281 1925.42 1.52617 1930.62 -0.173828C1937.12 -2.27383 1941.52 -8.87379 1945.92 -14.5738C1950.32 -20.2738 1956.22 -25.9738 1963.02 -25.0738C1968.12 -24.3738 1972.12 -20.1738 1976.62 -17.5738C1981.12 -14.9738 1987.72 -14.6738 1990.22 -19.4738C1995.72 -29.7738 1988.02 -58.1738 2016.52 -58.1738C2057.62 -58.1738 2050.92 -29.5738 2055.92 -23.5738C2063.42 -14.3738 2076.82 -16.3738 2087.62 -19.4738C2098.52 -22.5738 2111.42 -25.5738 2119.82 -17.2738C2127.12 -10.1738 2127.82 2.92621 2135.62 9.42621C2143.82 16.3262 2155.52 12.6262 2165.52 9.52618C2175.52 6.42618 2188.32 5.2262 2194.12 14.7262C2199.02 22.6262 2195.32 34.1262 2188.42 40.0262C2181.52 45.8262 2172.42 47.2262 2163.72 47.8262C2107.52 51.4262 2056.32 45.6262 2011.12 48.6262Z" fill="#F4F4F4"/>
</g>
</g>
<defs>
<linearGradient id="paint0_linear_333_7469" x1="1201.55" y1="513.804" x2="1202.45" y2="905.972" gradientUnits="userSpaceOnUse">
<stop offset="0.280897" stop-color="#0099CC"/>
<stop offset="1" stop-color="#007FA9"/>
</linearGradient>
<linearGradient id="paint1_linear_333_7469" x1="1224.65" y1="389.062" x2="1225" y2="605.172" gradientUnits="userSpaceOnUse">
<stop offset="0.280897" stop-color="#0099CC"/>
<stop offset="1" stop-color="#007FA9"/>
</linearGradient>
<linearGradient id="paint2_linear_333_7469" x1="1282.86" y1="348.893" x2="1388.62" y2="496.42" gradientUnits="userSpaceOnUse">
<stop offset="0.280897" stop-color="#0099CC"/>
<stop offset="1" stop-color="#007FA9"/>
</linearGradient>
<linearGradient id="paint3_linear_333_7469" x1="1149.4" y1="403.064" x2="1150.3" y2="644.593" gradientUnits="userSpaceOnUse">
<stop offset="0.280897" stop-color="#0099CC"/>
<stop offset="1" stop-color="#007FA9"/>
</linearGradient>
<linearGradient id="paint4_linear_333_7469" x1="1227.63" y1="357.812" x2="1214.78" y2="401.577" gradientUnits="userSpaceOnUse">
<stop stop-color="#FFC2A6"/>
<stop offset="1" stop-color="#F8A681"/>
</linearGradient>
<linearGradient id="paint5_linear_333_7469" x1="1225.81" y1="375.662" x2="1233.43" y2="339.298" gradientUnits="userSpaceOnUse">
<stop offset="0.21766" stop-color="#FFC6AC"/>
<stop offset="1" stop-color="#FFC2A6"/>
</linearGradient>
<linearGradient id="paint6_linear_333_7469" x1="1756" y1="637.07" x2="1784" y2="796.07" gradientUnits="userSpaceOnUse">
<stop stop-color="#09A19F"/>
<stop offset="1" stop-color="#008F8D"/>
</linearGradient>
<linearGradient id="paint7_linear_333_7469" x1="1725.95" y1="411.584" x2="1725.95" y2="632.533" gradientUnits="userSpaceOnUse">
<stop stop-color="#FF6C84"/>
<stop offset="1" stop-color="#F95873"/>
</linearGradient>
<linearGradient id="paint8_linear_333_7469" x1="1691.41" y1="397.907" x2="1691.41" y2="427.65" gradientUnits="userSpaceOnUse">
<stop stop-color="#FF6C84"/>
<stop offset="1" stop-color="#F95873"/>
</linearGradient>
<linearGradient id="paint9_linear_333_7469" x1="1700.54" y1="424.661" x2="1700.54" y2="616.962" gradientUnits="userSpaceOnUse">
<stop stop-color="#FF6C84"/>
<stop offset="1" stop-color="#F95873"/>
</linearGradient>
<linearGradient id="paint10_linear_333_7469" x1="1440.58" y1="525.213" x2="1449.43" y2="423.007" gradientUnits="userSpaceOnUse">
<stop stop-color="#FF702E"/>
<stop offset="1" stop-color="#FF8F3E"/>
</linearGradient>
<linearGradient id="paint11_linear_333_7469" x1="1328" y1="1070.07" x2="1313.5" y2="572.069" gradientUnits="userSpaceOnUse">
<stop stop-color="#434A59"/>
<stop offset="1" stop-color="#909FBF"/>
</linearGradient>
<linearGradient id="paint12_linear_333_7469" x1="1354.19" y1="599.913" x2="1375" y2="403.074" gradientUnits="userSpaceOnUse">
<stop stop-color="#FF702E"/>
<stop offset="1" stop-color="#FF8F3E"/>
</linearGradient>
<linearGradient id="paint13_linear_333_7469" x1="1430.22" y1="526.136" x2="1432.54" y2="469.991" gradientUnits="userSpaceOnUse">
<stop stop-color="#FF702E"/>
<stop offset="1" stop-color="#FF8F3E"/>
</linearGradient>
<linearGradient id="paint14_linear_333_7469" x1="1366.1" y1="534.42" x2="1372.13" y2="423.425" gradientUnits="userSpaceOnUse">
<stop stop-color="#FF702E"/>
<stop offset="1" stop-color="#FF8F3E"/>
</linearGradient>
<linearGradient id="paint15_linear_333_7469" x1="1550" y1="570.07" x2="1621" y2="945.57" gradientUnits="userSpaceOnUse">
<stop stop-color="#A5A7AA"/>
<stop offset="1" stop-color="#686C75"/>
</linearGradient>
<linearGradient id="paint16_linear_333_7469" x1="1554.83" y1="584.543" x2="1554.83" y2="413.603" gradientUnits="userSpaceOnUse">
<stop stop-color="#FFAE43" stop-opacity="0.980392"/>
<stop offset="1" stop-color="#FFBF43"/>
</linearGradient>
<linearGradient id="paint17_linear_333_7469" x1="1588.64" y1="529.16" x2="1588.64" y2="425.391" gradientUnits="userSpaceOnUse">
<stop stop-color="#FFAE43" stop-opacity="0.980392"/>
<stop offset="1" stop-color="#FFBF43"/>
</linearGradient>
<clipPath id="clip0_333_7469">
<rect width="1920" height="1031" fill="white"/>
</clipPath>
<clipPath id="clip1_333_7469">
<rect width="2196.36" height="1545.89" fill="white" transform="translate(0 -465.885)"/>
</clipPath>
</defs>
</svg>
