<svg width="393" height="568" viewBox="0 0 393 568" fill="none" xmlns="http://www.w3.org/2000/svg">
<rect width="393" height="568" fill="#11B7B5"/>
<mask id="mask0_329_7041" style="mask-type:alpha" maskUnits="userSpaceOnUse" x="88" y="263" width="233" height="265">
<rect x="88" y="263" width="232.387" height="264.5" fill="white"/>
</mask>
<g mask="url(#mask0_329_7041)">
<path d="M268.405 274.898C268.405 274.898 269.828 272.874 272.522 274.451C275.215 276.028 276.122 277.717 276.499 282.49C276.889 287.263 277.754 290.361 280.378 292.775C283.001 295.19 285.122 293.682 288.053 297.939C290.983 302.196 287.662 307.457 288.96 310.109C290.257 312.76 295.825 314.882 294.123 323.925C292.42 332.969 274.377 338.132 264.651 329.438C254.925 320.743 251.465 312.272 253.6 303.884C255.721 295.497 261.721 289.872 261.665 289.105C261.567 288.323 258.805 274.758 268.405 274.898Z" fill="#434A59"/>
<path d="M252.524 513.307C251.338 514.647 247.403 521.458 245.337 521.667C244.221 521.779 241.877 521.653 241.221 521.5C242.337 520.439 247.919 512.023 245.686 500.133L254.701 500.649C254.701 500.649 253.975 510.781 254.31 511.354C253.473 511.326 253.263 512.484 252.524 513.307Z" fill="#FFD1BB"/>
<path d="M236.407 524.445C237.035 523.705 238.249 522.826 240.566 521.947C240.789 521.863 241.012 521.709 241.235 521.5C241.891 521.64 244.236 521.779 245.352 521.668C247.417 521.458 251.352 514.648 252.538 513.308C253.278 512.484 253.487 511.326 254.325 511.34C255.064 512.638 256.25 514.969 256.208 516.434C256.139 518.555 255.901 524.235 255.79 526.496H253.139L252.957 520.984C252.957 520.984 250.892 520.774 250.096 521.933C249.789 522.365 249.58 523.119 249.427 523.887C249.106 525.478 247.752 526.482 246.022 526.482H237.705C236.616 526.496 235.779 525.184 236.407 524.445Z" fill="#4B5266"/>
<path d="M301.379 512.287C302.928 513.627 309.361 521.456 311.496 521.666C312.64 521.777 313.575 521.652 314.189 521.498C312.779 520.438 306.179 509.887 304.449 501.569L295.504 501.304C295.504 501.304 298.49 510.766 298.323 511.338C299.146 511.324 300.416 511.464 301.379 512.287Z" fill="#FFD1BB"/>
<path d="M319.814 524.443C318.99 523.704 317.525 522.825 314.972 521.945C314.72 521.862 314.455 521.708 314.19 521.499C313.576 521.638 312.655 521.778 311.497 521.666C309.362 521.457 302.929 513.613 301.38 512.288C300.417 511.464 299.147 511.339 298.31 511.353C297.933 512.65 297.375 514.981 297.822 516.447C298.464 518.568 299.468 523.355 300.138 526.509H302.789L302.301 520.996C302.301 520.996 304.296 520.787 305.427 521.945C305.845 522.378 306.278 523.132 306.641 523.899C307.394 525.49 309.027 526.495 310.757 526.495H319.074C320.163 526.495 320.637 525.183 319.814 524.443Z" fill="#4B5266"/>
<path d="M279.724 351.738C276.486 340.043 248.507 325.88 244.028 342.572C242.646 347.694 240.458 358.125 238.686 375.598C235.533 406.622 244.719 501.305 247.063 511.507C247.789 514.689 252.949 511.744 253.619 508.506C254.47 504.362 257.688 384.428 257.018 370.862C257.814 375.119 295.604 505.897 297.683 508.506C299.762 511.102 303.296 513.712 306.672 511.507C307.649 510.865 283.12 400.367 283.12 400.367C283.12 400.367 282.989 363.559 279.724 351.738Z" fill="#FFD1BB"/>
<path d="M278.727 348.551C273.548 330.712 247.234 327.418 242.935 343.421C241.616 348.332 237.99 355.522 236.288 372.275C233.267 402.011 241.835 500.234 244.374 502.065C246.912 503.896 256.357 505.736 256.99 502.633C257.801 498.659 259.214 400.66 258.571 387.652C259.33 391.735 291.064 499.574 293.056 502.065C295.048 504.555 302.012 502.065 305.251 499.95C306.19 499.336 285.21 395.737 285.21 395.737C285.21 395.737 283.947 359.553 278.727 348.551Z" fill="#54678C"/>
<path opacity="0.2" d="M258.679 389.03C258.71 389.03 258.742 389.028 258.773 389.022C259.071 388.971 259.271 388.687 259.219 388.389C259.126 387.851 256.881 375.127 252.142 368.796C251.961 368.554 251.618 368.505 251.376 368.686C251.134 368.867 251.084 369.211 251.266 369.453C255.848 375.575 258.118 388.447 258.14 388.576C258.186 388.842 258.418 389.03 258.679 389.03Z" fill="black"/>
<path opacity="0.2" d="M278.051 371.542C278.213 371.542 278.374 371.47 278.482 371.332C278.669 371.094 278.627 370.75 278.389 370.564C273.664 366.863 272.93 361.368 272.923 361.313C272.885 361.013 272.612 360.801 272.312 360.837C272.011 360.875 271.799 361.148 271.836 361.448C271.866 361.691 272.636 367.45 277.713 371.426C277.814 371.504 277.933 371.542 278.051 371.542Z" fill="black"/>
<path opacity="0.2" d="M303.805 497.913C303.831 497.913 303.858 497.909 303.884 497.902C304.029 497.858 304.111 497.706 304.067 497.561C304.062 497.542 303.51 495.701 303.147 494.245C302.872 493.148 299.715 477.537 297.829 468.21C297.166 464.929 296.637 462.316 296.402 461.163C295.602 457.24 289.019 426.613 287.333 422.021C286.087 418.63 284.039 405.982 282.683 397.612C282.244 394.901 281.865 392.559 281.615 391.164C280.609 385.558 277.577 371.085 277.546 370.939C277.515 370.791 277.37 370.697 277.222 370.728C277.074 370.759 276.979 370.904 277.01 371.052C277.041 371.197 280.071 385.662 281.075 391.26C281.325 392.651 281.704 394.991 282.143 397.699C283.502 406.09 285.555 418.769 286.819 422.209C288.496 426.775 295.066 457.354 295.865 461.273C296.101 462.425 296.629 465.038 297.292 468.319C299.302 478.254 302.338 493.269 302.615 494.378C302.983 495.846 303.538 497.7 303.543 497.718C303.578 497.836 303.687 497.913 303.805 497.913Z" fill="black"/>
<path opacity="0.2" d="M254.918 501.334C254.932 501.334 254.947 501.333 254.962 501.33C255.111 501.306 255.213 501.166 255.189 501.017C255.17 500.895 254.713 498.033 254.44 497.014C254.283 496.43 254.555 488.094 255.168 474.715L255.184 474.357C255.277 472.314 254.548 458.138 254.232 453.342C254.048 450.553 253.964 438.256 253.982 416.794L253.983 415.274C253.983 411.801 253.708 377.532 253.706 377.187C253.704 377.036 253.582 376.915 253.432 376.915C253.431 376.915 253.43 376.915 253.43 376.915C253.278 376.916 253.157 377.04 253.158 377.191C253.161 377.537 253.435 411.803 253.435 415.274L253.434 416.794C253.416 438.268 253.501 450.577 253.686 453.378C253.992 458.033 254.727 472.347 254.637 474.332L254.621 474.69C254.173 484.476 253.686 496.318 253.911 497.156C254.177 498.147 254.643 501.073 254.648 501.103C254.67 501.238 254.786 501.334 254.918 501.334Z" fill="black"/>
<path d="M278.27 347.581C277.922 346.939 277.531 346.325 277.084 345.725L243.915 345.948C243.915 345.948 257.939 350.442 268.307 351.893C273.54 352.619 277.199 352.298 279.961 351.893C279.32 350.358 279.024 348.976 278.27 347.581Z" fill="#4C5F85"/>
<path d="M251.076 302.265C245.554 302.175 239.618 325.597 234.148 328.791C227.723 332.551 205.2 340.309 202.954 342.699C201.382 344.386 201.169 345.547 205.604 346.308C209.317 346.952 229.96 345.738 239.354 337.922C248.158 330.601 253.389 315.639 254.603 310.522C255.588 306.391 253.979 302.313 251.076 302.265Z" fill="#FFD1BB"/>
<path d="M237.802 319.447L250.232 325.495C250.232 325.495 263.366 295.9 259.213 295.76C250.432 295.446 240.967 314.252 237.802 319.447Z" fill="#FB5D78"/>
<path d="M278.966 348.906C280.083 322.445 286.111 314.406 283.613 305.363C281.729 298.524 275.771 294.044 266.938 293.193C257.351 292.272 254.993 297.757 250.625 302.474C241.974 311.81 245.951 318.76 243.523 335.801C242.895 340.155 242.071 345.612 242.071 345.612C242.071 345.612 278.813 352.325 278.966 348.906Z" fill="#FB5D78"/>
<path d="M267.734 293.374C267.734 293.374 265.473 293.039 264.315 293.946C263.156 294.853 260.673 299.989 262.305 300.561C263.938 301.134 275.046 298.621 274.948 296.933C274.864 295.258 272.283 293.374 267.734 293.374Z" fill="#FFD1BB"/>
<path d="M272.021 284.121L272.272 294.993C272.286 296.221 267.695 297.366 265.741 295.816C265.169 295.356 267.248 292.453 267.248 292.453L268.42 285.628L272.021 284.121Z" fill="#FFD1BB"/>
<path d="M271.086 280.214L272.188 282.461C272.691 284.708 270.919 286.982 268.63 287.248C265.783 287.583 264.36 287.038 264.304 284.373C264.276 282.81 265.616 279.962 266.146 278.86C266.774 277.576 267.918 276.962 269.021 277.101C270.067 277.255 268.797 278.595 271.086 280.214Z" fill="#FFD1BB"/>
<path d="M267.08 282.406C266.773 282.267 266.508 282.085 266.299 281.82C266.131 281.625 265.852 281.918 266.019 282.113C266.257 282.392 266.55 282.616 266.885 282.769C267.122 282.867 267.317 282.518 267.08 282.406Z" fill="#FFBD9D"/>
<path d="M269.255 280.912C269.213 280.898 269.088 280.842 268.99 280.968C268.92 281.066 268.85 281.205 268.85 281.345C268.837 281.498 268.99 281.624 269.13 281.596C269.339 281.568 269.534 281.024 269.255 280.912Z" fill="#434A59"/>
<path d="M266.467 280.423C266.425 280.409 266.3 280.353 266.202 280.479C266.118 280.576 266.062 280.716 266.062 280.855C266.048 281.009 266.202 281.135 266.342 281.107C266.537 281.079 266.732 280.535 266.467 280.423Z" fill="#434A59"/>
<path d="M288.36 384.899C288.36 384.899 285.583 388.416 286.532 391.011C287.48 393.607 289.755 393.817 290.592 392.672C291.43 391.528 291.388 383.336 288.36 384.899Z" fill="#FFD1BB"/>
<path d="M268.584 283.605C268.11 283.479 266.924 283.186 265.626 283.005C265.528 282.991 265.444 283.061 265.444 283.158C265.43 283.437 265.458 283.996 265.709 284.317C266.212 284.945 267.51 285.461 268.682 283.842C268.752 283.772 268.696 283.647 268.584 283.605Z" fill="white"/>
<path d="M271.949 282.238C272.102 282.029 272.228 281.806 272.325 281.582C272.535 281.136 272.939 280.536 273.442 281.164C274.181 282.071 272.953 284.36 271.781 284.039C270.916 283.787 271.558 282.755 271.949 282.238Z" fill="#FFD1BB"/>
<path d="M269.202 279.671C269.551 279.81 269.928 280.02 270.207 280.285C270.346 280.41 270.151 280.606 270.011 280.48C269.76 280.257 269.439 280.062 269.132 279.95C268.965 279.88 269.034 279.615 269.202 279.671Z" fill="#434A59"/>
<path d="M266.075 279.489C266.312 279.433 266.536 279.405 266.773 279.377C266.954 279.349 266.996 279.628 266.829 279.642C266.592 279.67 266.354 279.698 266.131 279.754C265.95 279.796 265.894 279.517 266.075 279.489Z" fill="#434A59"/>
<path d="M271.013 286.104C270.958 286.16 269.06 288.518 267.818 289.09L268.055 287.318C266.213 287.457 265.055 287.15 264.566 285.95C264.58 285.95 266.534 286.634 267.86 286.648C269.185 286.662 271.013 286.104 271.013 286.104Z" fill="#FFBD9D"/>
<path d="M284.898 395.645L284.256 390.342C284.214 389.965 284.34 389.574 284.605 389.267C284.87 388.96 285.247 388.779 285.637 388.779C297.931 388.639 298.266 388.751 298.517 388.848C299.313 389.141 299.48 389.923 299.592 392.449C299.648 393.705 299.662 396.231 299.662 396.273C299.662 396.971 299.103 397.599 298.406 397.683C297.708 397.766 297.136 397.264 297.136 396.58C297.122 395.143 297.052 392.17 296.954 391.277C295.196 391.249 290.577 391.277 286.949 391.305L287.493 395.743C287.577 396.427 287.005 396.427 286.307 396.594C286.056 396.65 285.819 396.636 285.61 396.552C285.233 396.427 284.954 396.092 284.898 395.645Z" fill="#2F343D"/>
<path d="M320.483 432.252L274.448 432.671L270.443 394.989L315.753 396.231L318.307 415.686L320.483 432.252Z" fill="#434A59"/>
<path d="M267.726 430.789L270.444 394.985L274.438 432.654L271.082 429.85L267.726 430.789Z" fill="#2F343D"/>
<path d="M319.171 422.287L273.331 422.929L273.191 421.659L319.003 421.017L319.171 422.287Z" fill="#2F343D"/>
<path d="M295.462 385.792C295.462 385.792 296.969 391.151 297.011 392.351C297.053 393.565 292.643 394.612 291.36 394.556C290.076 394.514 288.597 393.649 288.359 392.979C288.122 392.309 288.918 388.485 288.848 387.467C288.778 386.448 287.285 384.089 289.545 383.308C291.806 382.512 294.583 382.498 295.462 385.792Z" fill="#FFD1BB"/>
<path d="M278.591 342.794C278.312 342.794 278.075 342.584 278.033 342.305C278.005 342.11 275.758 322.502 275.144 317.812C274.517 313.095 274.405 310.248 274.405 310.22C274.391 309.913 274.628 309.648 274.949 309.648C275.256 309.634 275.521 309.871 275.521 310.192C275.521 310.22 275.633 313.011 276.247 317.673C276.875 322.362 279.121 341.984 279.149 342.18C279.191 342.487 278.968 342.766 278.661 342.794C278.633 342.794 278.605 342.794 278.591 342.794Z" fill="#FF4061"/>
<path d="M275.546 307.487C271.902 311.637 285.909 331.325 284.8 337.563C284.121 348.011 288.036 383.411 288.404 386.67C288.671 388.96 289.418 389.875 292.87 386.987C295.764 384.573 295.004 351.726 295.13 339.506C295.25 328.055 287.235 314.381 284.121 310.144C281.611 306.718 277.461 305.305 275.546 307.487Z" fill="#FFD1BB"/>
<path d="M279.67 329.694C279.67 329.694 281.354 330.499 287.373 328.981C291.831 327.854 294.963 325.414 294.963 325.414C294.963 325.414 289.318 311.437 285.686 306.574C282.054 301.71 279.035 301.771 277.566 302.135C276.098 302.499 275.395 303.855 274.928 305.355C273.265 310.667 279.67 329.694 279.67 329.694Z" fill="#FB5D78"/>
<path d="M210.023 344.005C210.023 344.005 210.979 346.18 210.771 346.377C210.563 346.573 205.921 348.198 204.148 349.207C202.374 350.229 198.356 345.355 198.965 344.686C199.575 344.005 210.023 344.005 210.023 344.005Z" fill="#FFD1BB"/>
<path d="M193.561 344.005C193.561 344.005 205.022 343.401 206.28 344.618C207.544 345.848 205.301 347.027 205.041 347.593C204.78 348.158 204.74 349.68 204.145 350.232C203.549 350.785 202.476 351.102 202.225 351.837C201.966 352.59 200.216 353.46 198.053 352.99C195.896 352.534 195.607 352.693 193.876 352.023C191.432 351.079 194.182 351.124 191.782 351.493C189.407 351.851 176.533 353.293 175.472 352.023C174.411 350.753 170.235 344.658 173.044 343.519C174.653 342.878 193.561 344.005 193.561 344.005Z" fill="#FFC5A9"/>
<path d="M207.831 340.848C207.831 340.848 205.623 341.523 204.069 341.388C202.514 341.253 199.243 340.942 197.716 341.739C197.279 341.968 196.639 342.941 195.943 343.494C194.212 344.872 192.358 346.384 193.885 347.343C194.607 347.802 197.498 345.533 198.725 345.574C199.951 345.614 204.437 346.33 205.882 346.438C207.327 346.546 210.544 345.209 210.558 344.561C210.544 343.94 207.831 340.848 207.831 340.848Z" fill="#FFD1BB"/>
<path d="M198.693 353.96C199.469 353.999 200.054 353.271 199.823 352.556C199.605 351.855 199.251 351.087 198.747 350.955C197.767 350.69 197.413 351.564 197.413 351.564C197.413 351.564 196.664 349.948 196.011 349.869C195.357 349.79 194.949 350.068 194.935 350.173C194.921 350.279 193.437 348.214 192.716 348.386C191.994 348.558 192.021 350.306 192.239 351.18C192.43 351.894 196.065 353.814 198.693 353.96Z" fill="#FFD1BB"/>
<path d="M156.34 391.267C156.34 391.267 150.271 392.352 148.94 394.813C147.656 397.29 147.304 403.849 148.221 403.238C149.138 402.626 150.438 397.046 150.438 397.046C150.438 397.046 150.682 403.498 151.752 405.027C152.868 406.572 155.605 404.936 156.43 403.529C157.256 402.123 162.531 396.237 162.562 393.393C162.608 390.503 156.34 391.267 156.34 391.267Z" fill="#FFC5A9"/>
<path d="M136.507 285.48C155.62 290.831 158.566 336.071 158.566 336.071C158.566 336.071 165.306 370.868 165.306 386.285C162.248 399.663 144.779 395.754 140.336 378.895C134.319 356.063 140.515 362.284 136.921 349.897C115.845 327.373 115.984 279.711 136.507 285.48Z" fill="#FFAB23"/>
<path d="M138.878 521.74C136.345 520.768 135.918 518.58 134.763 516.521C134.681 516.374 134.14 513.38 134.11 513.155C134.041 512.12 130.919 509.497 129.615 511.731C127.061 516.141 123.73 509.601 123.967 511.383C124.695 516.672 122.688 525.341 124.688 525.81C128.939 526.849 148.604 527.327 148.879 525.236C149.082 523.999 143.272 523.414 138.878 521.74Z" fill="#404859"/>
<path d="M105.464 521.733C102.968 520.759 102.546 518.571 101.406 516.512C101.325 516.364 100.79 513.37 100.76 513.145C100.691 512.11 97.6137 509.484 96.331 511.718C93.8185 516.126 90.5316 509.583 90.7667 511.366C91.488 516.655 89.5168 525.322 91.4877 525.793C95.6755 526.835 115.049 527.326 115.319 525.236C115.5 524 109.775 523.411 105.464 521.733Z" fill="#404859"/>
<path d="M98.2485 360.516C102.327 351.49 133.403 339.781 141.59 337.857C142.195 346.946 146.382 352.606 151.344 362.408C158.276 376.118 139.295 514.054 139.295 514.054C139.295 514.054 136.861 515.931 131.061 515.931C123.633 515.931 122.284 514.054 122.284 514.054L126.549 385.935L104.312 514.054C104.312 514.054 103.195 515.311 95.8294 515.853C89.0684 516.365 87.9984 514.054 87.9984 514.054C87.9984 514.054 93.5653 370.876 98.2485 360.516Z" fill="#6AB4B8"/>
<path d="M96.2784 372.012L148.258 373.221C148.258 373.221 135.589 380.588 114.453 382.217C106.296 382.837 99.9381 383.194 95.1774 383.38C95.5341 379.13 95.9062 375.3 96.2784 372.012Z" fill="#5AA3AF"/>
<path d="M126.689 386.047C127.077 386.047 127.387 385.736 127.402 385.349C127.495 382.728 130.302 379.114 130.333 379.083C130.581 378.773 130.519 378.323 130.209 378.075C129.899 377.827 129.449 377.889 129.201 378.199C129.077 378.354 126.069 382.216 125.96 385.302C125.945 385.705 126.255 386.031 126.658 386.047C126.674 386.047 126.674 386.047 126.689 386.047Z" fill="#5AA3AF"/>
<path d="M91.6865 511.53C91.733 511.53 91.795 511.53 91.857 511.515C92.2447 511.422 92.4773 511.034 92.3998 510.646C92.3998 510.615 91.733 507.653 92.4153 503.683C92.927 500.705 92.7254 496.409 92.5704 492.625C92.4928 491.043 92.4308 489.554 92.4308 488.391C92.4308 486.111 92.679 482.761 92.9116 479.815C93.0666 477.783 93.2061 475.875 93.2527 474.573C93.2992 472.898 93.9505 463.84 94.5863 455.078C95.1445 447.308 95.7183 439.274 95.9044 436.002C95.9819 434.559 96.1215 432.404 96.2765 429.829C96.8968 419.438 97.8428 403.759 97.8428 400.735C97.8428 397.043 99.1453 382.201 99.1608 382.046C99.1919 381.659 98.8973 381.302 98.5096 381.271C98.1219 381.24 97.7653 381.534 97.7342 381.922C97.6722 382.543 96.4006 396.981 96.4006 400.735C96.4006 403.712 95.4237 420.012 94.8344 429.752C94.6793 432.326 94.5553 434.497 94.4623 435.924C94.2762 439.197 93.7024 447.23 93.1442 454.985C92.4929 464.166 91.8726 472.836 91.8106 474.526C91.764 475.798 91.6244 477.69 91.4694 479.706C91.2523 482.684 90.9887 486.065 90.9887 488.391C90.9887 489.585 91.0507 491.09 91.1283 492.687C91.2988 496.394 91.4849 500.612 91.0042 503.435C90.2753 507.7 90.9887 510.832 91.0197 510.957C91.0662 511.298 91.3609 511.53 91.6865 511.53Z" fill="#5AA3AF"/>
<path d="M125.695 512.32C126.098 512.32 126.409 511.994 126.409 511.607V502.038C126.409 501.789 126.409 501.216 126.393 500.394C126.176 480.077 126.517 467.902 127.401 464.227C128.967 457.729 130.394 428.044 130.471 425.501C130.502 424.757 130.642 423.066 130.828 420.941C131.402 414.428 132.379 403.525 131.681 398.5C130.782 392.002 130.471 382.06 130.471 381.967C130.456 381.564 130.13 381.27 129.727 381.27C129.324 381.285 129.014 381.611 129.029 382.014C129.029 382.107 129.339 392.126 130.254 398.702C130.937 403.571 129.975 414.366 129.401 420.817C129.2 423.051 129.06 424.664 129.029 425.454C128.89 429.735 127.448 457.915 125.99 463.901C125.075 467.685 124.718 479.984 124.935 500.425C124.951 501.247 124.951 501.805 124.951 502.053V511.622C124.966 512.01 125.292 512.32 125.695 512.32Z" fill="#5AA3AF"/>
<path d="M157.191 332.742C154.112 335.043 153.598 339.131 151.826 342.327C151.505 342.891 152.345 343.469 152.666 342.906C154.382 339.852 154.896 335.764 157.873 333.554C158.382 333.097 157.745 332.336 157.191 332.742Z" fill="#F49E12"/>
<path d="M153.405 357.551C153.067 355.762 152.825 354.07 152.728 352.232C152.583 348.558 152.535 344.883 152.39 341.208C152.245 337.534 152.148 333.811 152.148 330.088C152.148 328.251 152.1 326.413 152.196 324.576C152.245 322.739 152.39 320.901 152.39 319.016C152.39 315.051 151.23 311.28 150.649 307.363C150.553 306.735 149.586 306.977 149.683 307.653C150.214 311.086 151.278 314.423 151.375 317.904C151.423 319.741 151.326 321.627 151.23 323.464C151.133 325.301 151.133 327.139 151.133 328.976C151.181 336.325 151.423 343.626 151.665 350.975C151.713 352.909 151.858 354.843 152.196 356.777C152.535 358.663 152.97 360.549 152.825 362.531C152.777 363.159 153.792 363.159 153.84 362.531C153.985 360.887 153.695 359.195 153.405 357.551Z" fill="#FEAB22"/>
<path d="M150.953 311.682C150.112 312.896 149.04 313.902 147.746 314.558C147.148 314.864 147.632 315.762 148.229 315.456C149.722 314.714 150.898 313.568 151.844 312.215C152.162 311.7 151.32 311.17 150.953 311.682Z" fill="#AF9A9A"/>
<path d="M152.825 385.884C150.988 388.446 148.957 390.767 146.057 392.314C142.914 394.055 139.385 395.07 135.808 395.699C134.986 395.844 134.212 395.989 133.391 396.086C132.182 396.231 130.973 396.376 129.813 396.472C129.33 396.521 128.846 396.569 128.363 396.569C128.266 396.569 128.218 396.569 128.121 396.569C121.063 397.053 113.715 397.198 106.705 396.472C102.934 396.086 98.7762 395.457 95.0537 394.006L95.3922 389.607L95.7305 385.352L96.2623 378.534L96.6974 373.168L97.0842 373.119C97.1325 373.119 97.1808 373.119 97.2292 373.119L100.082 372.781L125.801 369.831L132.472 368.816L133.391 368.671L143.156 367.172L151.858 365.818C151.858 365.818 151.955 367.897 152.148 371.572V371.62C152.196 372.104 152.196 372.684 152.245 373.216C152.341 376.552 152.583 380.855 152.825 385.884Z" fill="#6AB4B8"/>
<path d="M133.681 379.26C138.805 378.293 149.586 374.231 152.245 373.216C152.196 372.636 152.196 372.152 152.148 371.62C146.878 367.414 112.844 373.554 104.046 372.974C101.435 372.829 99.0663 372.878 97.0842 373.071L96.6974 373.119L95.5371 385.352C107.43 383.515 129.475 380.082 133.681 379.26Z" fill="#65A8AC"/>
<path d="M128.942 266.073C130.973 266.798 130.828 271.778 127.105 271.923C125.8 271.971 124.253 277.87 123.576 278.595C122.899 279.321 121.642 277.483 120.772 276.758C119.902 276.033 117.485 271.875 119.177 269.892C119.66 269.312 120.579 268.78 120.579 268.78C120.579 268.78 121.207 264.912 122.948 263.8C127.009 261.286 127.299 265.444 128.942 266.073Z" fill="#434A59"/>
<path d="M132.714 376.02C132.423 376.069 132.133 376.117 131.795 376.165C130.635 376.407 129.378 376.601 128.072 376.891C123.48 377.809 95.827 379.357 95.6337 378.293C94.0867 370.025 98.776 354.166 95.1019 330.039C92.3946 312.44 96.2138 305.913 97.4224 301.513C100.226 291.214 104.674 286.863 132.037 284.639C145.573 283.527 149.876 295.856 150.891 304.124C151.519 309.007 151.616 339.758 151.616 339.758C151.616 339.758 152.341 358.131 153.356 365.867C154.468 374.135 149.586 372.974 132.714 376.02Z" fill="#FFB843"/>
<path d="M153.357 365.819C152.342 358.083 151.617 339.71 151.617 339.71C151.617 339.71 151.52 309.007 150.892 304.076C149.441 292.568 146.589 288.12 140.836 286.041C142.432 289.909 145.719 297.548 146.541 307.654C147.411 318.677 150.747 362.821 138.322 375.005C150.65 373.12 154.324 373.12 153.357 365.819Z" fill="#FFB843"/>
<path d="M130.102 286.863C128.314 288.797 122.077 287.637 121.884 286.332L123.237 275.018L127.008 276.807L128.024 278.886L129.184 281.352L130.731 285.22C131.504 286.477 130.586 286.283 130.102 286.863Z" fill="#FFC5A9"/>
<path d="M129.183 281.351C125.557 281.351 124.349 278.498 124.349 278.498L127.974 278.885L129.183 281.351Z" fill="#FF9869"/>
<path d="M123.333 271.294L123.14 275.936C123.188 277.725 124.638 279.272 126.572 279.466C128.022 279.611 128.748 279.659 130.391 278.982C131.745 278.402 132.132 276.855 131.6 274.969C130.923 272.552 129.618 270.521 128.844 269.457C128.409 268.877 127.877 268.442 127.346 268.248C127.152 268.152 126.91 268.152 126.717 268.248C125.267 268.683 123.816 269.505 123.333 271.294Z" fill="#FFC5A9"/>
<path d="M126.961 274.534C126.961 274.534 128.315 274.196 130.49 274.051C130.49 274.051 130.538 275.695 129.233 275.888C128.653 275.985 127.783 275.84 126.961 274.534Z" fill="white"/>
<path d="M123.334 274.051C123.189 273.761 123.044 273.422 122.996 273.132C122.803 272.504 122.416 271.633 121.642 272.359C120.482 273.374 121.304 276.372 122.899 276.227C124.06 276.082 123.721 274.825 123.334 274.051Z" fill="#FFC5A9"/>
<path d="M127.831 287.056C127.831 287.056 129.523 284.687 129.62 282.995C131.553 283.479 132.375 289.426 132.375 289.426L128.024 287.878L125.22 290.586C125.22 290.586 120.386 288.12 120.241 286.766C120.096 285.413 121.884 282.221 122.32 282.947C123.722 285.122 127.831 287.056 127.831 287.056Z" fill="#EDDCDA"/>
<path d="M128.216 273.035C128.603 272.89 128.893 272.696 129.183 272.406C129.376 272.213 129.666 272.551 129.473 272.745C129.183 273.035 128.844 273.277 128.409 273.422C128.119 273.518 127.926 273.132 128.216 273.035Z" fill="#FF9869"/>
<path d="M126.106 270.818C126.153 270.828 126.315 270.763 126.37 270.972C126.445 271.087 126.452 271.286 126.422 271.428C126.382 271.617 126.22 271.682 126.088 271.605C125.919 271.47 125.802 270.853 126.106 270.818Z" fill="#434A59"/>
<path d="M129.134 270.522C129.181 270.536 129.347 270.483 129.386 270.695C129.453 270.815 129.446 271.014 129.406 271.154C129.352 271.34 129.186 271.393 129.06 271.306C128.841 271.193 128.815 270.582 129.134 270.522Z" fill="#434A59"/>
<path d="M133.246 371.863C133.052 373.265 132.762 374.619 132.714 376.021C132.424 376.069 132.134 376.117 131.795 376.166C131.844 374.522 132.279 372.878 132.424 371.234C132.617 369.397 132.327 367.705 131.795 365.964C131.312 364.272 130.78 362.628 130.49 360.887C130.248 359.147 130.152 357.406 130.152 355.665C130.007 349.235 130.78 342.804 131.312 336.422C131.844 330.523 132.376 324.383 131.409 318.484C130.877 315.39 130.103 312.344 129.668 309.249C129.282 306.445 129.088 303.544 129.233 300.691C129.378 298.37 129.62 296.05 129.572 293.681C129.523 291.65 129.378 289.232 128.025 287.637C127.638 287.202 128.266 286.573 128.653 287.008C130.2 288.894 130.442 291.505 130.442 293.874C130.49 296.436 130.152 298.999 130.055 301.61C129.958 304.704 130.297 307.799 130.78 310.845C131.264 313.843 132.085 316.84 132.472 319.886C133.197 325.93 132.569 332.071 132.037 338.114C131.457 344.642 130.732 351.217 131.119 357.793C131.215 359.437 131.36 361.032 131.747 362.579C132.134 364.127 132.666 365.626 133.004 367.173C133.391 368.72 133.487 370.267 133.246 371.863Z" fill="#FEAB22"/>
<path d="M113.738 307.08L113.783 307.096C114.386 307.42 114.955 307.834 115.553 308.31C115.627 308.389 115.718 308.422 115.792 308.501C115.866 308.579 115.986 308.675 116.06 308.753C116.18 308.848 116.254 308.927 116.373 309.022C116.522 309.18 116.687 309.291 116.835 309.449C116.864 309.511 116.955 309.544 116.983 309.606C125.257 318.09 136.995 341.588 140.082 342.718C143.215 343.864 188.023 336.061 189.616 347.609C190.993 357.638 148.804 369.972 128.085 362.443C124.997 361.314 124.639 364.251 122.611 361.913C97.867 333.862 98.3258 305.869 98.3258 305.869C98.3258 305.869 104.101 305.562 108.991 305.703C109.251 305.696 109.54 305.75 109.8 305.742L109.845 305.759C109.998 305.763 110.089 305.796 110.242 305.801L110.287 305.817C110.44 305.822 110.576 305.872 110.667 305.905C111.654 306.163 112.653 306.528 113.738 307.08Z" fill="#FFC057"/>
<path d="M119.401 315.454C119.628 315.537 119.838 315.665 120.11 315.765C120.985 316.188 121.843 316.656 122.59 317.29C122.635 317.306 122.376 316.748 122.405 316.81C123.006 317.7 123.607 318.589 124.209 319.478C130.848 329.475 137.437 341.719 139.661 342.533C141.946 343.369 163.049 340.345 177.496 340.345C183.202 340.345 187.573 339.616 189.673 347.018C191.009 353.453 188.216 354.546 182.753 357.593C170.722 366.111 143.308 369.498 128.243 364.023C131.169 362.777 133.919 355.98 133.872 354.419C133.493 343.211 125.402 326.35 119.985 316.388C119.664 315.859 119.676 315.966 119.401 315.454Z" fill="#FFC057"/>
<path d="M119.591 315.144C119.818 315.227 120.029 315.356 120.301 315.455C121.176 315.878 122.034 316.347 122.781 316.98C122.826 316.997 122.855 317.059 122.9 317.075C123.51 317.659 124.071 318.379 124.681 318.963C124.949 319.215 124.878 319.549 124.704 319.743C124.547 319.892 124.315 319.961 124.122 319.788C123.466 319.187 122.935 318.53 122.341 317.901C121.805 317.396 121.19 316.965 120.497 316.608C120.287 316.48 120.06 316.397 119.849 316.268C118.009 315.389 116.081 314.889 114.191 314.146C113.601 313.93 113.949 312.977 114.54 313.193C116.141 313.882 117.899 314.422 119.591 315.144Z" fill="#FEAB22"/>
<path d="M138.543 342.002C140.022 343.727 141.509 345.713 141.901 348.019C142.02 348.68 143.02 348.479 142.901 347.818C142.468 345.343 140.94 343.188 139.312 341.305C138.867 340.833 138.114 341.485 138.543 342.002Z" fill="#FEAB22"/>
<path d="M130.618 394.121C130.86 394.798 130.86 395.62 130.812 396.394C130.328 396.442 129.845 396.491 129.361 396.491C129.409 395.814 129.458 395.088 129.216 394.508C128.926 393.638 130.328 393.251 130.618 394.121Z" fill="#5AA3AF"/>
</g>
</svg>
