<svg width="1920" height="1407" viewBox="0 0 1920 1407" fill="none" xmlns="http://www.w3.org/2000/svg">
<g clip-path="url(#clip0_317_10285)">
<rect width="1920" height="1407" fill="#11B7B5"/>
<mask id="mask0_317_10285" style="mask-type:alpha" maskUnits="userSpaceOnUse" x="424" y="94" width="1071" height="1219">
<rect x="424" y="94" width="1071" height="1219" fill="white"/>
</mask>
<g mask="url(#mask0_317_10285)">
<path d="M1255.43 148.828C1255.43 148.828 1261.99 139.502 1274.4 146.77C1286.81 154.038 1290.99 161.821 1292.73 183.818C1294.53 205.815 1298.52 220.094 1310.61 231.221C1322.7 242.349 1332.47 235.402 1345.98 255.019C1359.48 274.637 1344.18 298.885 1350.16 311.106C1356.14 323.326 1381.8 333.103 1373.95 374.782C1366.11 416.461 1282.95 440.259 1238.13 400.188C1193.3 360.117 1177.35 321.075 1187.19 282.419C1196.97 243.764 1224.62 217.843 1224.37 214.305C1223.92 210.703 1211.18 148.185 1255.43 148.828Z" fill="#434A59"/>
<path d="M1182.24 1247.59C1176.77 1253.76 1158.64 1285.15 1149.12 1286.12C1143.97 1286.63 1133.17 1286.05 1130.15 1285.35C1135.29 1280.46 1161.02 1241.67 1150.73 1186.87L1192.27 1189.25C1192.27 1189.25 1188.93 1235.95 1190.47 1238.59C1186.61 1238.46 1185.65 1243.8 1182.24 1247.59Z" fill="#FFD1BB"/>
<path d="M1107.96 1298.92C1110.86 1295.51 1116.45 1291.46 1127.13 1287.41C1128.16 1287.02 1129.19 1286.31 1130.21 1285.35C1133.24 1285.99 1144.04 1286.63 1149.19 1286.12C1158.7 1285.15 1176.84 1253.77 1182.31 1247.59C1185.72 1243.8 1186.68 1238.46 1190.54 1238.52C1193.95 1244.5 1199.41 1255.25 1199.22 1262C1198.9 1271.78 1197.81 1297.95 1197.29 1308.37H1185.07L1184.24 1282.97C1184.24 1282.97 1174.72 1282 1171.05 1287.34C1169.64 1289.34 1168.67 1292.81 1167.97 1296.35C1166.49 1303.68 1160.25 1308.31 1152.27 1308.31H1113.94C1108.93 1308.37 1105.07 1302.33 1107.96 1298.92Z" fill="#4B5266"/>
<path d="M1407.39 1242.9C1414.53 1249.07 1444.18 1285.15 1454.02 1286.12C1459.29 1286.63 1463.6 1286.05 1466.43 1285.35C1459.94 1280.46 1429.52 1231.83 1421.54 1193.5L1380.32 1192.28C1380.32 1192.28 1394.08 1235.89 1393.31 1238.52C1397.1 1238.46 1402.96 1239.1 1407.39 1242.9Z" fill="#FFD1BB"/>
<path d="M1492.35 1298.92C1488.56 1295.51 1481.81 1291.46 1470.04 1287.41C1468.88 1287.02 1467.66 1286.31 1466.44 1285.35C1463.61 1285.99 1459.36 1286.64 1454.02 1286.12C1444.18 1285.16 1414.54 1249.01 1407.4 1242.9C1402.96 1239.1 1397.11 1238.52 1393.25 1238.59C1391.51 1244.57 1388.94 1255.31 1391 1262.07C1393.96 1271.84 1398.59 1293.9 1401.67 1308.44H1413.89L1411.64 1283.03C1411.64 1283.03 1420.84 1282.07 1426.05 1287.41C1427.98 1289.4 1429.97 1292.87 1431.64 1296.41C1435.12 1303.74 1442.64 1308.38 1450.61 1308.38H1488.94C1493.96 1308.38 1496.15 1302.33 1492.35 1298.92Z" fill="#4B5266"/>
<path d="M1307.59 502.971C1292.67 449.072 1163.72 383.8 1143.07 460.726C1136.71 484.331 1126.62 532.405 1118.46 612.933C1103.92 755.914 1146.26 1192.28 1157.06 1239.3C1160.41 1253.96 1184.19 1240.39 1187.28 1225.47C1191.2 1206.37 1206.03 653.627 1202.94 591.109C1206.61 610.726 1380.77 1213.44 1390.35 1225.47C1399.94 1237.43 1416.22 1249.46 1431.78 1239.3C1436.29 1236.34 1323.24 727.088 1323.24 727.088C1323.24 727.088 1322.63 557.449 1307.59 502.971Z" fill="#FFD1BB"/>
<path d="M1302.99 488.286C1279.13 406.071 1157.85 390.889 1138.04 464.642C1131.96 487.277 1115.25 520.411 1107.4 597.624C1093.48 734.665 1132.97 1187.34 1144.67 1195.78C1156.37 1204.22 1199.9 1212.7 1202.81 1198.4C1206.55 1180.09 1213.06 728.44 1210.1 668.489C1213.6 687.309 1359.85 1184.31 1369.03 1195.78C1378.21 1207.26 1410.31 1195.78 1425.23 1186.04C1429.56 1183.21 1332.87 705.753 1332.87 705.753C1332.87 705.753 1327.05 538.992 1302.99 488.286Z" fill="#54678C"/>
<path opacity="0.2" d="M1210.6 674.842C1210.74 674.842 1210.89 674.83 1211.03 674.804C1212.41 674.566 1213.33 673.26 1213.09 671.887C1212.66 669.405 1202.31 610.767 1180.47 581.59C1179.64 580.474 1178.06 580.248 1176.94 581.082C1175.82 581.917 1175.6 583.499 1176.43 584.615C1197.55 612.83 1208.01 672.152 1208.12 672.749C1208.33 673.975 1209.39 674.842 1210.6 674.842Z" fill="black"/>
<path opacity="0.2" d="M1299.88 594.251C1300.63 594.251 1301.37 593.919 1301.86 593.283C1302.72 592.185 1302.53 590.599 1301.43 589.739C1279.66 572.685 1276.27 547.36 1276.24 547.106C1276.07 545.723 1274.81 544.747 1273.43 544.913C1272.04 545.086 1271.06 546.347 1271.23 547.73C1271.37 548.85 1274.92 575.389 1298.32 593.714C1298.78 594.075 1299.33 594.251 1299.88 594.251Z" fill="black"/>
<path opacity="0.2" d="M1418.57 1176.65C1418.69 1176.65 1418.81 1176.64 1418.93 1176.6C1419.6 1176.4 1419.98 1175.7 1419.78 1175.03C1419.75 1174.94 1417.21 1166.46 1415.54 1159.75C1414.27 1154.69 1399.72 1082.75 1391.03 1039.76C1387.97 1024.64 1385.54 1012.59 1384.45 1007.28C1380.76 989.202 1350.43 848.053 1342.65 826.888C1336.91 811.259 1327.47 752.968 1321.23 714.395C1319.2 701.9 1317.46 691.109 1316.3 684.677C1311.67 658.841 1297.69 592.139 1297.55 591.469C1297.41 590.787 1296.74 590.35 1296.06 590.493C1295.38 590.636 1294.94 591.304 1295.08 591.986C1295.22 592.657 1309.19 659.323 1313.82 685.123C1314.97 691.534 1316.71 702.316 1318.74 714.798C1325 753.466 1334.46 811.902 1340.29 827.757C1348.01 848.799 1378.29 989.728 1381.98 1007.79C1383.06 1013.1 1385.5 1025.14 1388.56 1040.26C1397.82 1086.05 1411.81 1155.25 1413.09 1160.36C1414.78 1167.13 1417.34 1175.67 1417.36 1175.75C1417.53 1176.3 1418.03 1176.65 1418.57 1176.65Z" fill="black"/>
<path opacity="0.2" d="M1193.26 1192.42C1193.33 1192.42 1193.4 1192.41 1193.46 1192.4C1194.15 1192.29 1194.62 1191.65 1194.51 1190.96C1194.42 1190.4 1192.32 1177.2 1191.06 1172.51C1190.34 1169.82 1191.59 1131.4 1194.41 1069.74L1194.49 1068.09C1194.92 1058.67 1191.56 993.339 1190.1 971.237C1189.25 958.382 1188.87 901.712 1188.95 802.799L1188.95 795.796C1188.95 779.787 1187.69 621.854 1187.68 620.261C1187.67 619.567 1187.11 619.009 1186.41 619.009C1186.41 619.009 1186.41 619.009 1186.4 619.009C1185.71 619.014 1185.15 619.583 1185.15 620.28C1185.17 621.873 1186.43 779.797 1186.43 795.796L1186.43 802.797C1186.34 901.766 1186.73 958.493 1187.58 971.405C1189 992.855 1192.38 1058.83 1191.97 1067.97L1191.89 1069.62C1189.83 1114.72 1187.58 1169.3 1188.62 1173.16C1189.85 1177.73 1192 1191.22 1192.02 1191.35C1192.12 1191.97 1192.65 1192.42 1193.26 1192.42Z" fill="black"/>
<path d="M1300.9 483.804C1299.29 480.846 1297.49 478.016 1295.43 475.25L1142.56 476.279C1142.56 476.279 1207.19 496.99 1254.98 503.679C1279.09 507.024 1295.96 505.544 1308.69 503.679C1305.73 496.604 1304.37 490.236 1300.9 483.804Z" fill="#4C5F85"/>
<path d="M1175.56 274.962C1150.11 274.544 1122.76 382.492 1097.55 397.209C1067.94 414.538 964.133 450.294 953.785 461.31C946.54 469.081 945.557 474.434 965.997 477.943C983.111 480.908 1078.25 475.312 1121.54 439.295C1162.11 405.55 1186.22 336.597 1191.82 313.016C1196.36 293.973 1188.94 275.182 1175.56 274.962Z" fill="#FFD1BB"/>
<path d="M1114.39 354.145L1171.68 382.02C1171.68 382.02 1232.21 245.624 1213.07 244.979C1172.6 243.534 1128.98 330.203 1114.39 354.145Z" fill="#FB5D78"/>
<path d="M1304.11 489.912C1309.25 367.963 1337.03 330.915 1325.52 289.236C1316.84 257.72 1289.38 237.073 1248.67 233.15C1204.49 228.905 1193.62 254.182 1173.49 275.922C1133.62 318.951 1151.95 350.982 1140.76 429.516C1137.86 449.584 1134.07 474.732 1134.07 474.732C1134.07 474.732 1303.4 505.67 1304.11 489.912Z" fill="#FB5D78"/>
<path d="M1252.34 233.987C1252.34 233.987 1241.92 232.443 1236.58 236.624C1231.25 240.804 1219.8 264.474 1227.32 267.111C1234.85 269.748 1286.04 258.171 1285.59 250.388C1285.2 242.67 1273.31 233.987 1252.34 233.987Z" fill="#FFD1BB"/>
<path d="M1272.09 191.344L1273.25 241.449C1273.31 247.109 1252.15 252.383 1243.15 245.244C1240.51 243.121 1250.09 229.743 1250.09 229.743L1255.5 198.29L1272.09 191.344Z" fill="#FFD1BB"/>
<path d="M1267.78 173.336L1272.86 183.692C1275.17 194.047 1267 204.531 1256.46 205.753C1243.34 207.297 1236.78 204.789 1236.52 192.504C1236.39 185.3 1242.57 172.179 1245.01 167.097C1247.9 161.18 1253.18 158.35 1258.26 158.993C1263.08 159.7 1257.23 165.875 1267.78 173.336Z" fill="#FFD1BB"/>
<path d="M1249.32 183.434C1247.91 182.791 1246.68 181.955 1245.72 180.733C1244.95 179.832 1243.66 181.183 1244.43 182.083C1245.53 183.37 1246.88 184.399 1248.42 185.106C1249.51 185.556 1250.42 183.948 1249.32 183.434Z" fill="#FFBD9D"/>
<path d="M1259.35 176.551C1259.16 176.487 1258.58 176.229 1258.13 176.808C1257.81 177.259 1257.49 177.902 1257.49 178.545C1257.42 179.252 1258.13 179.831 1258.77 179.703C1259.74 179.574 1260.64 177.066 1259.35 176.551Z" fill="#434A59"/>
<path d="M1246.49 174.3C1246.3 174.236 1245.72 173.978 1245.27 174.557C1244.88 175.008 1244.62 175.651 1244.62 176.294C1244.56 177.001 1245.27 177.58 1245.91 177.452C1246.81 177.323 1247.71 174.815 1246.49 174.3Z" fill="#434A59"/>
<path d="M1347.39 655.792C1347.39 655.792 1334.59 672.001 1338.97 683.964C1343.34 695.928 1353.82 696.892 1357.68 691.618C1361.54 686.344 1361.35 648.588 1347.39 655.792Z" fill="#FFD1BB"/>
<path d="M1256.26 188.964C1254.08 188.385 1248.61 187.035 1242.63 186.199C1242.18 186.134 1241.79 186.456 1241.79 186.906C1241.73 188.193 1241.86 190.765 1243.02 192.245C1245.33 195.139 1251.31 197.519 1256.71 190.058C1257.04 189.736 1256.78 189.157 1256.26 188.964Z" fill="white"/>
<path d="M1271.76 182.66C1272.47 181.696 1273.05 180.666 1273.5 179.637C1274.46 177.579 1276.33 174.813 1278.64 177.708C1282.05 181.888 1276.39 192.437 1270.99 190.958C1267 189.8 1269.96 185.04 1271.76 182.66Z" fill="#FFD1BB"/>
<path d="M1259.1 170.826C1260.71 171.47 1262.44 172.434 1263.73 173.656C1264.37 174.235 1263.47 175.136 1262.83 174.557C1261.67 173.528 1260.19 172.627 1258.78 172.113C1258 171.791 1258.33 170.569 1259.1 170.826Z" fill="#434A59"/>
<path d="M1244.69 169.99C1245.78 169.733 1246.81 169.604 1247.91 169.476C1248.74 169.347 1248.94 170.634 1248.16 170.698C1247.07 170.827 1245.98 170.955 1244.95 171.212C1244.11 171.405 1243.85 170.119 1244.69 169.99Z" fill="#434A59"/>
<path d="M1267.45 200.477C1267.2 200.734 1258.45 211.604 1252.73 214.241L1253.82 206.073C1245.33 206.716 1239.99 205.301 1237.74 199.77C1237.81 199.77 1246.81 202.921 1252.92 202.986C1259.03 203.05 1267.45 200.477 1267.45 200.477Z" fill="#FFBD9D"/>
<path d="M1331.44 705.32L1328.49 680.879C1328.29 679.142 1328.87 677.341 1330.09 675.926C1331.32 674.511 1333.05 673.675 1334.85 673.675C1391.51 673.031 1393.06 673.546 1394.21 673.996C1397.88 675.347 1398.65 678.949 1399.17 690.591C1399.42 696.38 1399.49 708.021 1399.49 708.214C1399.49 711.43 1396.91 714.325 1393.7 714.711C1390.48 715.097 1387.85 712.781 1387.85 709.629C1387.78 703.004 1387.46 689.304 1387.01 685.188C1378.91 685.059 1357.62 685.188 1340.9 685.317L1343.41 705.77C1343.79 708.922 1341.16 708.922 1337.94 709.694C1336.78 709.951 1335.69 709.887 1334.72 709.501C1332.99 708.922 1331.7 707.378 1331.44 705.32Z" fill="#2F343D"/>
<path d="M1495.44 874.027L1283.28 875.957L1264.82 702.295L1473.64 708.019L1485.4 797.68L1495.44 874.027Z" fill="#434A59"/>
<path d="M1252.29 867.287L1264.82 702.28L1283.23 875.881L1267.76 862.962L1252.29 867.287Z" fill="#2F343D"/>
<path d="M1489.39 828.103L1278.13 831.062L1277.49 825.209L1488.62 822.25L1489.39 828.103Z" fill="#2F343D"/>
<path d="M1380.13 659.908C1380.13 659.908 1387.07 684.607 1387.27 690.138C1387.46 695.734 1367.14 700.558 1361.22 700.301C1355.3 700.108 1348.49 696.12 1347.39 693.033C1346.3 689.946 1349.96 672.322 1349.64 667.627C1349.32 662.931 1342.44 652.061 1352.86 648.459C1363.28 644.793 1376.08 644.729 1380.13 659.908Z" fill="#FFD1BB"/>
<path d="M1302.38 461.742C1301.09 461.742 1300 460.777 1299.8 459.491C1299.67 458.591 1289.32 368.222 1286.49 346.611C1283.6 324.871 1283.08 311.75 1283.08 311.621C1283.02 310.206 1284.11 308.984 1285.59 308.984C1287 308.92 1288.23 310.013 1288.23 311.493C1288.23 311.621 1288.74 324.485 1291.57 345.968C1294.46 367.579 1304.82 458.012 1304.95 458.912C1305.14 460.327 1304.11 461.614 1302.7 461.742C1302.57 461.742 1302.44 461.742 1302.38 461.742Z" fill="#FF4061"/>
<path d="M1288.35 299.027C1271.55 318.157 1336.1 408.893 1331 437.639C1327.87 485.792 1345.91 648.94 1347.6 663.96C1348.83 674.514 1352.28 678.728 1368.18 665.419C1381.52 654.294 1378.02 502.913 1378.6 446.594C1379.15 393.822 1342.22 330.803 1327.87 311.274C1316.3 295.483 1297.17 288.973 1288.35 299.027Z" fill="#FFD1BB"/>
<path d="M1307.35 401.372C1307.35 401.372 1315.11 405.083 1342.85 398.087C1363.4 392.892 1377.83 381.644 1377.83 381.644C1377.83 381.644 1351.81 317.229 1335.07 294.816C1318.33 272.404 1304.42 272.685 1297.65 274.361C1290.89 276.038 1287.65 282.287 1285.5 289.199C1277.83 313.683 1307.35 401.372 1307.35 401.372Z" fill="#FB5D78"/>
<path d="M986.367 467.326C986.367 467.326 990.774 477.351 989.816 478.257C988.858 479.163 967.465 486.651 959.29 491.302C951.116 496.012 932.597 473.546 935.407 470.466C938.216 467.326 986.367 467.326 986.367 467.326Z" fill="#FFD1BB"/>
<path d="M910.501 467.326C910.501 467.326 963.321 464.544 969.119 470.151C974.943 475.82 964.606 481.252 963.406 483.86C962.206 486.467 962.022 493.478 959.276 496.025C956.531 498.571 951.587 500.035 950.43 503.419C949.238 506.889 941.17 510.899 931.203 508.735C921.261 506.633 919.927 507.367 911.952 504.279C900.687 499.927 913.364 500.137 902.299 501.837C891.357 503.484 832.022 510.13 827.133 504.278C822.243 498.426 802.996 470.336 815.943 465.087C823.359 462.132 910.501 467.326 910.501 467.326Z" fill="#FFC5A9"/>
<path d="M976.267 452.777C976.267 452.777 966.089 455.889 958.927 455.267C951.764 454.644 936.685 453.213 929.649 456.885C927.638 457.943 924.685 462.424 921.481 464.975C913.502 471.323 904.957 478.294 911.994 482.712C915.324 484.828 928.643 474.373 934.298 474.56C939.952 474.746 960.623 478.045 967.283 478.543C973.943 479.04 988.77 472.879 988.833 469.892C988.77 467.029 976.267 452.777 976.267 452.777Z" fill="#FFD1BB"/>
<path d="M934.153 513.205C937.73 513.388 940.428 510.032 939.361 506.737C938.357 503.503 936.726 499.965 934.404 499.354C929.886 498.134 928.255 502.161 928.255 502.161C928.255 502.161 924.804 494.717 921.792 494.351C918.78 493.985 916.897 495.267 916.835 495.755C916.772 496.243 909.932 486.725 906.607 487.518C903.281 488.311 903.407 496.365 904.411 500.392C905.289 503.686 922.043 512.534 934.153 513.205Z" fill="#FFD1BB"/>
<path d="M738.962 685.142C738.962 685.142 710.99 690.142 704.858 701.486C698.939 712.901 697.315 743.131 701.543 740.312C705.77 737.494 711.762 711.775 711.762 711.775C711.762 711.775 712.886 741.512 717.817 748.559C722.96 755.676 735.573 748.138 739.378 741.655C743.183 735.173 767.494 708.046 767.637 694.94C767.85 681.622 738.962 685.142 738.962 685.142Z" fill="#FFC5A9"/>
<path d="M647.557 197.603C735.645 222.262 749.223 430.761 749.223 430.761C749.223 430.761 780.281 591.131 780.281 662.182C766.19 723.837 685.683 705.821 665.206 628.124C637.472 522.897 666.03 551.571 649.466 494.48C552.333 390.677 552.973 171.014 647.557 197.603Z" fill="#FFAB23"/>
<path d="M658.474 1286.46C646.799 1281.98 644.833 1271.89 639.511 1262.41C639.131 1261.73 636.636 1247.93 636.499 1246.89C636.18 1242.12 621.791 1230.03 615.783 1240.33C604.014 1260.65 588.66 1230.51 589.754 1238.73C593.111 1263.1 583.86 1303.05 593.078 1305.22C612.666 1310 703.298 1312.2 704.564 1302.57C705.502 1296.87 678.725 1294.17 658.474 1286.46Z" fill="#404859"/>
<path d="M504.481 1286.42C492.976 1281.94 491.032 1271.85 485.782 1262.36C485.407 1261.68 482.939 1247.88 482.803 1246.84C482.486 1242.07 468.302 1229.97 462.39 1240.27C450.811 1260.58 435.662 1230.43 436.746 1238.64C440.071 1263.02 430.986 1302.97 440.069 1305.13C459.369 1309.94 548.657 1312.2 549.899 1302.57C550.733 1296.87 524.351 1294.16 504.481 1286.42Z" fill="#404859"/>
<path d="M471.228 543.422C490.024 501.823 633.244 447.859 670.978 438.996C673.765 480.881 693.062 506.97 715.931 552.143C747.877 615.327 660.401 1251.03 660.401 1251.03C660.401 1251.03 649.181 1259.68 622.452 1259.68C588.22 1259.68 582.002 1251.03 582.002 1251.03L601.655 660.572L499.172 1251.03C499.172 1251.03 494.026 1256.82 460.08 1259.33C428.92 1261.68 423.989 1251.03 423.989 1251.03C423.989 1251.03 449.645 591.168 471.228 543.422Z" fill="#6AB4B8"/>
<path d="M462.146 596.399L701.703 601.975C701.703 601.975 643.315 635.926 545.905 643.431C508.314 646.29 479.012 647.934 457.072 648.791C458.716 629.207 460.431 611.552 462.146 596.399Z" fill="#5AA3AF"/>
<path d="M602.299 661.085C604.086 661.085 605.515 659.656 605.587 657.869C606.016 645.789 618.951 629.135 619.094 628.992C620.238 627.563 619.952 625.49 618.523 624.346C617.093 623.203 615.021 623.489 613.877 624.918C613.305 625.633 599.441 643.431 598.941 657.654C598.869 659.513 600.298 661.014 602.157 661.085C602.228 661.085 602.228 661.085 602.299 661.085Z" fill="#5AA3AF"/>
<path d="M440.988 1239.4C441.203 1239.4 441.488 1239.4 441.774 1239.33C443.561 1238.9 444.633 1237.11 444.275 1235.32C444.275 1235.18 441.202 1221.53 444.347 1203.23C446.705 1189.51 445.776 1169.71 445.062 1152.27C444.704 1144.98 444.418 1138.12 444.418 1132.76C444.418 1122.25 445.562 1106.81 446.634 1093.23C447.349 1083.87 447.992 1075.07 448.206 1069.07C448.42 1061.35 451.422 1019.61 454.352 979.225C456.925 943.415 459.569 906.391 460.427 891.309C460.784 884.662 461.427 874.727 462.142 862.862C465.001 814.973 469.36 742.711 469.36 728.773C469.36 711.762 475.364 643.359 475.435 642.645C475.578 640.858 474.22 639.214 472.434 639.071C470.647 638.928 469.003 640.286 468.86 642.073C468.574 644.932 462.714 711.476 462.714 728.773C462.714 742.497 458.212 817.618 455.496 862.505C454.781 874.37 454.209 884.376 453.781 890.952C452.923 906.034 450.279 943.058 447.706 978.796C444.704 1021.11 441.846 1061.06 441.56 1068.86C441.345 1074.72 440.702 1083.44 439.987 1092.73C438.987 1106.45 437.772 1122.03 437.772 1132.76C437.772 1138.26 438.058 1145.19 438.415 1152.55C439.201 1169.64 440.059 1189.08 437.843 1202.09C434.484 1221.74 437.772 1236.18 437.915 1236.75C438.129 1238.33 439.487 1239.4 440.988 1239.4Z" fill="#5AA3AF"/>
<path d="M597.721 1243.04C599.579 1243.04 601.008 1241.54 601.008 1239.75V1195.65C601.008 1194.51 601.008 1191.86 600.937 1188.08C599.936 1094.44 601.509 1038.33 605.582 1021.39C612.8 991.446 619.375 854.641 619.733 842.919C619.875 839.488 620.519 831.697 621.376 821.905C624.021 791.885 628.523 741.637 625.307 718.479C621.162 688.531 619.733 642.715 619.733 642.286C619.661 640.427 618.16 639.069 616.302 639.069C614.444 639.141 613.015 640.642 613.086 642.5C613.086 642.929 614.516 689.102 618.732 719.408C621.877 741.852 617.446 791.599 614.801 821.333C613.872 831.626 613.229 839.059 613.086 842.704C612.443 862.432 605.797 992.304 599.079 1019.89C594.862 1037.33 593.218 1094.01 594.219 1188.22C594.29 1192.01 594.291 1194.58 594.291 1195.72V1239.82C594.362 1241.61 595.863 1243.04 597.721 1243.04Z" fill="#5AA3AF"/>
<path d="M742.878 415.419C728.688 426.026 726.322 444.866 718.155 459.596C716.675 462.193 720.546 464.859 722.026 462.262C729.934 448.187 732.3 429.347 746.021 419.161C748.367 417.057 745.434 413.55 742.878 415.419Z" fill="#F49E12"/>
<path d="M725.431 529.756C723.872 521.511 722.758 513.712 722.312 505.245C721.644 488.31 721.421 471.374 720.753 454.439C720.084 437.504 719.639 420.346 719.639 403.188C719.639 394.721 719.416 386.253 719.861 377.785C720.084 369.318 720.753 360.85 720.753 352.16C720.753 333.888 715.405 316.507 712.731 298.458C712.286 295.561 707.83 296.675 708.275 299.795C710.726 315.616 715.628 330.991 716.074 347.035C716.296 355.502 715.851 364.193 715.405 372.66C714.96 381.128 714.96 389.595 714.96 398.063C715.182 431.933 716.297 465.581 717.411 499.451C717.633 508.364 718.302 517.278 719.861 526.191C721.421 534.881 723.426 543.572 722.758 552.708C722.535 555.604 727.214 555.604 727.437 552.708C728.105 545.131 726.768 537.332 725.431 529.756Z" fill="#FEAB22"/>
<path d="M714.131 318.364C710.256 323.955 705.317 328.595 699.351 331.617C696.596 333.029 698.825 337.167 701.579 335.756C708.46 332.337 713.881 327.054 718.237 320.82C719.705 318.445 715.822 316.001 714.131 318.364Z" fill="#AF9A9A"/>
<path d="M722.756 660.335C714.29 672.145 704.932 682.841 691.564 689.972C677.082 697.994 660.817 702.673 644.33 705.57C640.542 706.238 636.977 706.907 633.19 707.353C627.62 708.021 622.049 708.69 616.702 709.135C614.474 709.358 612.246 709.581 610.018 709.581C609.572 709.581 609.35 709.581 608.904 709.581C576.375 711.809 542.509 712.478 510.203 709.135C492.824 707.353 473.663 704.456 456.507 697.771L458.067 677.493L459.626 657.884L462.077 626.465L464.082 601.731L465.865 601.508C466.088 601.508 466.31 601.508 466.533 601.508L479.678 599.948L598.21 586.355L628.956 581.676L633.19 581.007L678.196 574.1L718.3 567.86C718.3 567.86 718.746 577.442 719.637 594.377V594.6C719.86 596.828 719.86 599.502 720.083 601.954C720.528 617.329 721.642 637.161 722.756 660.335Z" fill="#6AB4B8"/>
<path d="M634.528 629.807C658.145 625.351 707.83 606.633 720.084 601.953C719.861 599.279 719.861 597.051 719.639 594.6C695.353 575.214 538.5 603.513 497.95 600.839C485.918 600.171 475.001 600.394 465.866 601.285L464.084 601.508L458.736 657.884C513.546 649.416 615.144 633.595 634.528 629.807Z" fill="#65A8AC"/>
<path d="M612.69 108.161C622.048 111.503 621.38 134.455 604.224 135.123C598.208 135.346 591.078 162.532 587.959 165.874C584.84 169.217 579.047 160.749 575.036 157.407C571.026 154.064 559.885 134.9 567.684 125.764C569.912 123.09 574.145 120.639 574.145 120.639C574.145 120.639 577.042 102.812 585.062 97.6873C603.778 86.1 605.115 105.264 612.69 108.161Z" fill="#434A59"/>
<path d="M630.073 614.878C628.736 615.101 627.399 615.323 625.84 615.546C620.493 616.66 614.7 617.552 608.684 618.889C587.518 623.123 460.075 630.253 459.183 625.351C452.054 587.247 473.666 514.158 456.733 402.966C444.256 321.855 461.857 291.773 467.427 271.495C480.35 224.032 500.847 203.978 626.954 193.727C689.339 188.602 709.168 245.424 713.847 283.528C716.743 306.034 717.189 447.755 717.189 447.755C717.189 447.755 720.531 532.43 725.21 568.083C730.335 606.187 707.831 600.839 630.073 614.878Z" fill="#FFB843"/>
<path d="M725.21 567.861C720.531 532.208 717.189 447.532 717.189 447.532C717.189 447.532 716.743 306.034 713.847 283.305C707.163 230.272 694.017 209.771 667.504 200.189C674.856 218.016 690.007 253.223 693.794 299.795C697.805 350.6 713.178 554.045 655.918 610.198C712.733 601.508 729.666 601.508 725.21 567.861Z" fill="#FFB843"/>
<path d="M618.037 203.978C609.793 212.891 581.051 207.543 580.16 201.527L586.399 149.384L603.778 157.629L608.457 167.21L613.804 178.575L620.934 196.402C624.498 202.195 620.265 201.304 618.037 203.978Z" fill="#FFC5A9"/>
<path d="M613.8 178.575C597.09 178.575 591.52 165.428 591.52 165.428L608.23 167.21L613.8 178.575Z" fill="#FF9869"/>
<path d="M586.84 132.226L585.949 153.618C586.172 161.863 592.856 168.994 601.768 169.885C608.452 170.554 611.795 170.776 619.37 167.657C625.608 164.983 627.391 157.852 624.94 149.162C621.821 138.02 615.805 128.661 612.24 123.759C610.235 121.085 607.784 119.079 605.333 118.188C604.442 117.742 603.328 117.742 602.437 118.188C595.752 120.193 589.068 123.981 586.84 132.226Z" fill="#FFC5A9"/>
<path d="M603.56 147.156C603.56 147.156 609.798 145.596 619.824 144.928C619.824 144.928 620.047 152.504 614.032 153.395C611.358 153.841 607.347 153.173 603.56 147.156Z" fill="white"/>
<path d="M586.845 144.928C586.177 143.591 585.509 142.032 585.286 140.695C584.395 137.798 582.612 133.787 579.047 137.129C573.7 141.809 577.488 155.624 584.84 154.956C590.188 154.287 588.628 148.494 586.845 144.928Z" fill="#FFC5A9"/>
<path d="M607.567 204.869C607.567 204.869 615.365 193.95 615.81 186.151C624.722 188.379 628.51 215.788 628.51 215.788L608.458 208.657L595.535 221.136C595.535 221.136 573.255 209.771 572.586 203.532C571.918 197.293 580.161 182.586 582.167 185.928C588.628 195.956 607.567 204.869 607.567 204.869Z" fill="#EDDCDA"/>
<path d="M609.346 140.248C611.129 139.579 612.466 138.688 613.803 137.351C614.694 136.46 616.031 138.02 615.14 138.911C613.803 140.248 612.243 141.362 610.237 142.031C608.9 142.476 608.009 140.694 609.346 140.248Z" fill="#FF9869"/>
<path d="M599.622 130.031C599.84 130.076 600.586 129.778 600.838 130.742C601.182 131.27 601.217 132.188 601.079 132.842C600.895 133.715 600.149 134.013 599.541 133.657C598.761 133.037 598.222 130.191 599.622 130.031Z" fill="#434A59"/>
<path d="M613.578 128.668C613.792 128.73 614.558 128.486 614.741 129.466C615.046 130.017 615.014 130.935 614.83 131.578C614.584 132.435 613.818 132.678 613.237 132.28C612.228 131.758 612.109 128.942 613.578 128.668Z" fill="#434A59"/>
<path d="M632.525 595.715C631.633 602.177 630.297 608.416 630.074 614.879C628.737 615.101 627.4 615.324 625.841 615.547C626.063 607.971 628.069 600.394 628.737 592.818C629.628 584.351 628.291 576.552 625.841 568.53C623.612 560.731 621.162 553.154 619.825 545.132C618.711 537.11 618.265 529.089 618.265 521.067C617.597 491.43 621.162 461.794 623.612 432.38C626.063 405.195 628.514 376.895 624.058 349.71C621.607 335.448 618.043 321.41 616.037 307.149C614.255 294.225 613.364 280.855 614.032 267.708C614.701 257.012 615.814 246.316 615.592 235.397C615.369 226.038 614.701 214.897 608.462 207.544C606.68 205.538 609.576 202.641 611.358 204.647C618.488 213.337 619.602 225.37 619.602 236.289C619.825 248.099 618.265 259.909 617.82 271.942C617.374 286.203 618.934 300.464 621.162 314.502C623.39 328.318 627.177 342.133 628.96 356.172C632.302 384.026 629.405 412.325 626.955 440.179C624.281 470.261 620.939 500.566 622.721 530.871C623.167 538.447 623.835 545.801 625.618 552.931C627.4 560.062 629.851 566.97 631.411 574.1C633.193 581.231 633.639 588.362 632.525 595.715Z" fill="#FEAB22"/>
<path d="M542.617 297.151L542.826 297.227C545.602 298.718 548.226 300.626 550.982 302.821C551.323 303.183 551.742 303.336 552.084 303.699C552.426 304.061 552.977 304.5 553.319 304.863C553.87 305.301 554.212 305.664 554.763 306.103C555.447 306.828 556.207 307.343 556.891 308.068C557.024 308.354 557.443 308.507 557.575 308.793C595.704 347.894 649.803 456.19 664.031 461.395C678.469 466.678 884.977 430.714 892.317 483.939C898.662 530.156 704.228 587.004 608.738 552.304C594.509 547.098 592.857 560.635 583.512 549.861C469.473 420.584 471.588 291.569 471.588 291.569C471.588 291.569 498.202 290.154 520.738 290.807C521.938 290.771 523.27 291.021 524.469 290.985L524.678 291.062C525.383 291.082 525.801 291.236 526.505 291.256L526.715 291.333C527.419 291.353 528.047 291.583 528.465 291.736C533.012 292.925 537.615 294.609 542.617 297.151Z" fill="#FFC057"/>
<path d="M568.713 335.741C569.76 336.123 570.729 336.715 571.985 337.175C576.016 339.124 579.972 341.283 583.411 344.203C583.621 344.279 582.426 341.707 582.559 341.993C585.33 346.091 588.102 350.189 590.873 354.288C621.469 400.361 651.836 456.791 662.089 460.542C672.617 464.394 769.878 450.456 836.46 450.456C862.757 450.456 882.9 447.098 892.579 481.211C898.733 510.869 885.864 515.905 860.686 529.946C805.238 569.205 678.896 584.815 609.464 559.584C622.952 553.841 635.624 522.516 635.41 515.319C633.663 463.666 596.37 385.958 571.408 340.048C569.928 337.608 569.984 338.104 568.713 335.741Z" fill="#FFC057"/>
<path d="M569.595 334.315C570.641 334.697 571.61 335.289 572.866 335.749C576.898 337.698 580.853 339.857 584.293 342.777C584.502 342.853 584.635 343.139 584.844 343.216C587.656 345.906 590.238 349.223 593.051 351.913C594.286 353.076 593.959 354.618 593.158 355.511C592.433 356.195 591.366 356.517 590.473 355.715C587.452 352.949 585.002 349.917 582.267 347.018C579.797 344.691 576.964 342.705 573.769 341.062C572.8 340.47 571.753 340.087 570.784 339.495C562.302 335.443 553.417 333.141 544.705 329.717C541.985 328.721 543.592 324.326 546.312 325.322C553.692 328.496 561.796 330.987 569.595 334.315Z" fill="#FEAB22"/>
<path d="M656.937 458.093C663.756 466.045 670.61 475.196 672.417 485.823C672.963 488.87 677.571 487.946 677.025 484.899C675.029 473.492 667.986 463.559 660.484 454.882C658.432 452.708 654.962 455.709 656.937 458.093Z" fill="#FEAB22"/>
<path d="M620.416 698.298C621.53 701.418 621.53 705.206 621.307 708.771C619.079 708.994 616.85 709.217 614.622 709.217C614.845 706.097 615.068 702.755 613.954 700.081C612.617 696.07 619.079 694.287 620.416 698.298Z" fill="#5AA3AF"/>
</g>
</g>
<defs>
<clipPath id="clip0_317_10285">
<rect width="1920" height="1407" fill="white"/>
</clipPath>
</defs>
</svg>
